<svg xmlns="http://www.w3.org/2000/svg" xmlns:xlink="http://www.w3.org/1999/xlink" version="1.1" id="Layer_1" x="0px" y="0px" viewBox="0 0 595.3 582.4" style="enable-background:new 0 0 595.3 582.4;" xml:space="preserve">
<style type="text/css">
	.st0{fill:#F7F6F6;}
	.st1{fill:#F1F1F1;}
	.st2{fill:#2A94F4;}
	.st3{fill:#B2DFF8;}
	.st4{fill:#FABB56;}
	.st5{fill:#004970;}
	.st6{opacity:0.26;fill:#030809;}
	.st7{fill:#EEEEEF;}
	.st8{opacity:5.000000e-02;fill:#010102;}
	.st9{opacity:0.12;fill:#01384F;}
	.st10{fill:#01384F;}
	.st11{opacity:0.47;}
	.st12{fill:#F5F5F5;}
	.st13{fill:#FFFFFF;}
	.st14{fill:#004970;stroke:#1F120C;stroke-width:1.9084;stroke-miterlimit:10;}
	.st15{fill:#020102;}
	.st16{fill:#4385B7;}
	.st17{fill:#EFBEAB;}
	.st18{fill:#FACBB6;}
	.st19{fill:#DAD8DE;}
	.st20{fill:#010102;}
	.st21{fill:#ECA646;}
	.st22{fill:#FABB58;}
	.st23{fill:#EFBEAA;}
	.st24{fill:none;stroke:#000000;stroke-width:0.4771;stroke-linecap:round;stroke-linejoin:round;stroke-miterlimit:10;}
</style>
<g>
	<path class="st0" d="M177.5,103.7c-13.7,6.1-27.4,13.5-37,25.1c-9.6,11.6-14.4,28.3-8.7,42.3c7.7,18.7,32.1,29.5,32.2,49.8   c0.1,14.5-13.2,25.6-26.6,30.8c-13.4,5.3-28.2,7.2-40.3,14.9c-18.3,11.7-26.9,34.2-30.5,55.8c-3.7,22.4-2.2,47.9,13.5,64.2   c19.5,20.2,51.8,17.9,79.5,13.6c36.9-5.7,73.6-12.5,110.3-19.3c80.5-14.8,161-29.6,241.5-44.4c8.6-1.6,17.6-3.3,24.6-8.6   c13.9-10.6,15.1-32.4,7-47.9c-8.1-15.6-23.1-26.2-37.9-35.3c-14.9-9.1-30.6-17.8-41.7-31.4c-11.2-13.5-16.7-33.5-8.2-48.9   c7.2-13,22.5-20,29.2-33.3c8.8-17.5-1.3-39.9-17.3-51C451,68.8,250.1,71.6,177.5,103.7z"/>
</g>
<path class="st1" d="M533,502.9H54.9c-3.1,0-5.6-2.5-5.6-5.6v-28c0-3.1,2.5-5.6,5.6-5.6H533c3.1,0,5.6,2.5,5.6,5.6v28  C538.6,500.3,536.1,502.9,533,502.9z"/>
<g>
	<g>
		<g>
			<path class="st2" d="M507.5,443.9c-3.2-14.8-12.9-28-26.2-35.5c7.1,13.3,15.5,26,25.2,37.5L507.5,443.9z"/>
		</g>
		<g>
			<path class="st2" d="M511,449.4c-12.6-17.6-18.9-39.6-17.6-61.2c8.1,20,14.3,40.7,18.4,61.8L511,449.4z"/>
		</g>
		<g>
			<path class="st2" d="M507.4,450c-0.4-10.8-0.8-21.7,0.9-32.4c1.7-10.7,5.6-21.3,12.9-29.3c1.1,22.2-4.2,44.6-15.3,63.9L507.4,450     z"/>
		</g>
		<g>
			<path class="st3" d="M507.9,451c-7.1-20.5-5.9-43.7,3.2-63.3c5.7,20.5,0.6,42.4-4.4,63.1L507.9,451z"/>
		</g>
		<g>
			<path class="st2" d="M508.9,443.4c2-18,13.9-34.5,30.4-41.9c-6.7,17.9-18.1,34-32.8,46.3L508.9,443.4z"/>
		</g>
	</g>
	<path class="st4" d="M525.8,440.3l-2,34.9c0,1.7-1.4,3.1-3.1,3.1h-24.2c-1.7,0-3.1-1.4-3.1-3.1l-0.4-7.9l-1.6-27   c0-1.7,1.4-3.1,3.1-3.1h28.2c1.1,0,2.1,0.6,2.6,1.5l0,0C525.7,439.1,525.8,439.7,525.8,440.3z"/>
</g>
<g>
	<g>
		<g>
			<path class="st2" d="M96.2,425.2c-4.9-22.8-20-43.3-40.3-54.7c10.9,20.6,24,40,38.8,57.9L96.2,425.2z"/>
		</g>
		<g>
			<path class="st2" d="M101.6,433.8c-19.4-27.1-29.1-61-27.1-94.3c12.6,30.7,22.1,62.7,28.3,95.3L101.6,433.8z"/>
		</g>
		<g>
			<path class="st2" d="M96.1,434.8c-0.6-16.7-1.2-33.5,1.4-50c2.6-16.5,8.7-32.8,19.9-45.2c1.7,34.2-6.6,68.8-23.5,98.5L96.1,434.8     z"/>
		</g>
		<g>
			<path class="st3" d="M96.8,436.3c-10.9-31.6-9.1-67.3,4.9-97.6c8.7,31.7,1,65.3-6.8,97.2L96.8,436.3z"/>
		</g>
		<g>
			<path class="st2" d="M98.3,424.6c3-27.7,21.5-53.1,46.9-64.6c-10.3,27.6-27.9,52.5-50.5,71.4L98.3,424.6z"/>
		</g>
	</g>
	<path class="st4" d="M124.4,419.7l-3.2,53.8c0,2.6-2.1,4.7-4.7,4.7H79.3c-2.6,0-4.7-2.1-4.7-4.7l-0.7-12.1l-2.4-41.6   c0-2.6,2.1-4.7,4.7-4.7h43.6c1.7,0,3.2,0.9,4,2.3l0,0C124.2,418,124.4,418.8,124.4,419.7z"/>
</g>
<g id="To_Do_List">
	<g id="To_Do_List_1_">
		<g>
			
				<rect x="306.7" y="159.4" transform="matrix(1 -6.389632e-03 6.389632e-03 1 -1.6282 2.4307)" class="st5" width="145.7" height="193.3"/>
			<polygon class="st6" points="318.2,344.8 320.4,344.8 449.1,347.9 444.5,165.1 438.6,166.9    "/>
			
				<rect x="314.1" y="165.5" transform="matrix(1 -6.389740e-03 6.389740e-03 1 -1.6214 2.4307)" class="st7" width="131" height="178.9"/>
			<polygon class="st8" points="312.8,165.3 407,164.7 313.1,244.1    "/>
			<g>
				
					<rect x="350.6" y="164.6" transform="matrix(1 -6.389689e-03 6.389689e-03 1 -1.0609 2.4253)" class="st9" width="56.9" height="5.3"/>
				<g>
					<path class="st10" d="M395.7,148.4l-0.9,0l0-0.6c0-5.6-5.3-10.1-11.7-10l-8.5,0.1c-6.4,0-11.6,4.6-11.6,10.2l0,0.6l-0.9,0       c-6.4,0-11.6,4.6-11.6,10.2l0.1,11.3l56.9-0.4l-0.1-11.3C407.4,152.9,402.1,148.4,395.7,148.4z M386.4,148.7l-15,0.1       c-1.5,0-2.8-1.2-2.8-2.8c0-1.5,1.2-2.8,2.8-2.8l15-0.1c1.5,0,2.8,1.2,2.8,2.8C389.2,147.5,387.9,148.7,386.4,148.7z"/>
				</g>
			</g>
		</g>
		<g class="st11">
			<path class="st12" d="M350.4,215.7c-6.4,0-12.8,0.1-19.2,0.1c-0.5,0-1,0.5-1,1c0,6.4,0.1,12.7,0.1,19.1c0,0.5,0.5,1,1,1     c6.4,0,12.8-0.1,19.2-0.1c0.3,0,0.5-0.1,0.7-0.3c0,0,0,0,0,0c0,0,0,0,0,0c0.2-0.2,0.3-0.4,0.3-0.7c0-6.4-0.1-12.7-0.1-19.1     C351.4,216.2,351,215.7,350.4,215.7z M349.6,234.8c-5.7,0-11.5,0.1-17.2,0.1c0-5.7-0.1-11.4-0.1-17.1c5.7,0,11.5-0.1,17.2-0.1     C349.5,223.4,349.5,229.1,349.6,234.8z"/>
			<path class="st12" d="M350.7,251.1c-6.4,0-12.8,0.1-19.2,0.1c-0.5,0-1,0.5-1,1c0,6.4,0.1,12.7,0.1,19.1c0,0.5,0.5,1,1,1     c6.4,0,12.8-0.1,19.2-0.1c0.3,0,0.5-0.1,0.7-0.3c0,0,0,0,0,0c0,0,0,0,0,0c0.2-0.2,0.3-0.4,0.3-0.7c0-6.4-0.1-12.7-0.1-19.1     C351.7,251.5,351.2,251.1,350.7,251.1z M349.8,270.2c-5.7,0-11.5,0.1-17.2,0.1c0-5.7-0.1-11.4-0.1-17.1c5.7,0,11.5-0.1,17.2-0.1     C349.7,258.8,349.7,264.5,349.8,270.2z"/>
			<path class="st12" d="M350.9,286.4c-6.4,0-12.8,0.1-19.2,0.1c-0.5,0-1,0.5-1,1c0,6.4,0.1,12.7,0.1,19.1c0,0.5,0.5,1,1,1     c6.4,0,12.8-0.1,19.2-0.1c0.3,0,0.5-0.1,0.7-0.3c0,0,0,0,0,0c0,0,0,0,0,0c0.2-0.2,0.3-0.4,0.3-0.7c0-6.4-0.1-12.7-0.1-19.1     C351.9,286.9,351.4,286.4,350.9,286.4z M350,305.6c-5.7,0-11.5,0.1-17.2,0.1c0-5.7-0.1-11.4-0.1-17.1c5.7,0,11.5-0.1,17.2-0.1     C349.9,294.1,350,299.8,350,305.6z"/>
		</g>
		<polygon class="st2" points="337.7,223 342.1,221.5 344.6,225.9 365.6,210.6 368.1,211.1 343.7,231.3   "/>
		<polygon class="st2" points="336.4,259.3 340.8,257.8 343.2,262.2 364.3,246.9 366.7,247.4 342.3,267.6   "/>
		<polygon class="st2" points="336.2,292.8 340.6,291.3 343.1,295.7 364.1,280.4 366.5,280.8 342.1,301   "/>
		
			<rect x="363.3" y="293.9" transform="matrix(1 -6.389830e-03 6.389830e-03 1 -1.9004 2.5445)" class="st13" width="67.9" height="9.6"/>
		
			<rect x="363.1" y="256.5" transform="matrix(1 -6.389830e-03 6.389830e-03 1 -1.6611 2.5422)" class="st13" width="67.9" height="9.6"/>
		
			<rect x="362.8" y="219" transform="matrix(1 -6.389391e-03 6.389391e-03 1 -1.4218 2.5397)" class="st13" width="67.9" height="9.6"/>
	</g>
</g>
<g id="Girl">
	<g id="Girl_1_">
		<g>
			<g>
				<line class="st14" x1="323.1" y1="326.4" x2="323.1" y2="490.1"/>
				<rect x="255.1" y="321.8" class="st5" width="136" height="9"/>
			</g>
			<g>
				<path class="st15" d="M353.3,321.2H286c-2,0-3.6-1.6-3.6-3.6l0,0c0-2,1.6-3.6,3.6-3.6h67.3c2,0,3.6,1.6,3.6,3.6l0,0      C356.9,319.6,355.3,321.2,353.3,321.2z"/>
				<path class="st15" d="M353.8,318.7c-0.2,0-0.4-0.1-0.6-0.2c-0.5-0.3-0.6-1-0.3-1.5l34.1-54.6c0.3-0.5,1-0.6,1.5-0.3      c0.5,0.3,0.6,1,0.3,1.5l-34.1,54.6C354.5,318.5,354.2,318.7,353.8,318.7z"/>
			</g>
		</g>
		<g>
			<g>
				<g>
					<g>
						<path class="st16" d="M211.3,349.7l70.9,1.8c12,0.5,21,11.3,19.3,23.2l0,0c-1.5,9.9-10,17.3-20,17.3h-84.3        c0,0-30.4-10.8-20.8-37L211.3,349.7z"/>
						<g>
							<g>
								<g>
									<path d="M285.1,479l11.8,5.8c1.3,0.6,2,2,1.6,3.4c-0.3,1.1-1.3,1.9-4,1.9c-5.9,0.1-31.7-3.8-31.7-3.8v2.7l-12-1.4           c0,0-0.8-13.7,2.8-15.8L285.1,479z"/>
									<path class="st17" d="M266,465.2l19.1,13.8c0,0-2,5.2-11.1,1.7c-9-3.5-20.4-8.8-20.4-8.8l1.7-8.2L266,465.2z"/>
								</g>
								<polygon class="st17" points="253.7,471.9 265.2,420.1 284.2,421.9 268.1,470.1         "/>
							</g>
							<polygon class="st16" points="301.4,374.7 285.4,459.9 248.9,459.9 263,376.1        "/>
						</g>
					</g>
					<g>
						<path class="st2" d="M214.7,349.7l53.4,1.8c12,0.5,21,11.3,19.3,23.2l0,0c-1.5,9.9-10,17.3-20,17.3h-84.3        c0,0-30.4-10.8-20.8-37L214.7,349.7z"/>
						<g>
							<g>
								<g>
									<path d="M271.1,479l11.8,5.8c1.3,0.6,2,2,1.6,3.4c-0.3,1.1-1.3,1.9-4,1.9c-5.9,0.1-31.7-3.8-31.7-3.8v2.7l-12-1.4           c0,0-0.8-13.7,2.8-15.8L271.1,479z"/>
									<path class="st18" d="M252,465.2l19.1,13.8c0,0-2,5.2-11.1,1.7c-9-3.5-20.4-8.8-20.4-8.8l1.7-8.2L252,465.2z"/>
								</g>
								<polygon class="st18" points="239.7,471.9 251.2,420.1 270.3,421.9 254.1,470.1         "/>
							</g>
							<polygon class="st2" points="287.4,374.7 271.4,459.9 234.9,459.9 249,376.1        "/>
						</g>
					</g>
				</g>
				<g>
					<g>
						<rect x="181.5" y="400.6" class="st19" width="11.4" height="62.9"/>
						<polygon class="st19" points="184.4,455.5 151.7,470.4 152.1,474.6 186.3,463.6       "/>
						<polygon class="st19" points="190,455.5 222.8,470.4 222.3,474.6 188.1,463.6       "/>
					</g>
					<circle class="st20" cx="153.1" cy="482.1" r="7.8"/>
					<circle class="st20" cx="222.8" cy="482.1" r="7.8"/>
					<path class="st5" d="M219.4,405h-66.1c-3.7,0-6.6-3-6.6-6.6l0,0c0-3.7,3-6.6,6.6-6.6h66.1c3.7,0,6.6,3,6.6,6.6l0,0       C226,402.1,223.1,405,219.4,405z"/>
				</g>
			</g>
			<g>
				<g>
					<path class="st21" d="M210.9,273.5l28.1,37.9c4.2,5.6,3.5,13.5-1.5,18.4l0,0c-6.1,5.9-16,5.1-21-1.7l-25.1-34L210.9,273.5z"/>
					<g>
						<path class="st18" d="M263.2,292.9c0,0,5.1-9.4,13.6-11.6c6.6-1.7,12.1,8.4,14.2,12.9c0.5,1.1-0.1,2.4-1.2,2.7l0,0        c-0.7,0.2-1.4-0.1-1.8-0.7l-2.3-3.1c0,0,0.4,6.8-5.4,6.1c-5.8-0.6-7.7-2.8-7.7-2.8l-6.5,4.5L263.2,292.9z"/>
						<polygon class="st21" points="222.9,312 263.8,284.4 274.7,300.8 232.4,333.3       "/>
					</g>
				</g>
				<path class="st22" d="M212,265.3c0,0-18.4,7.2-31.5,32.7c-13.1,25.5-18.2,57-18.2,57s24.3,6.8,52.4-5.3l10-31.7      c0,0,8.7-10.2,0-42L212,265.3z"/>
				<g>
					<g>
						<path class="st18" d="M272.7,303.1c0,0,7-7.9,15.8-7.9c6.8,0,10,11.1,11,16.1c0.3,1.2-0.6,2.3-1.7,2.3l0,0        c-0.7,0-1.3-0.4-1.6-1.1l-1.6-3.6c0,0-1,6.7-6.5,4.7c-5.5-2.1-6.8-4.7-6.8-4.7l-7.3,2.8L272.7,303.1z"/>
						<polygon class="st22" points="230.9,314.4 277.1,297 283.9,315.6 235.2,337.3       "/>
					</g>
					<g>
						<path class="st22" d="M214.5,277.7l28.1,37.9c4.2,5.6,3.5,13.5-1.5,18.4l0,0c-6.1,5.9-16,5.1-21-1.7l-25.1-34L214.5,277.7z"/>
					</g>
				</g>
			</g>
			<g>
				<path d="M236,247.8l12.4,0.4c6.6,6.9,4.1,20.2,4.1,20.2l-20.1-5.8L236,247.8z"/>
				<polygon class="st18" points="237.4,257.6 224.7,276 212,265.3 230.5,238.6     "/>
				<polygon class="st23" points="230.6,267.4 230.7,254.9 236.1,259.5     "/>
				<path class="st18" d="M253.5,220.5c0,0,8.4,4,5.7,15.2c0,0-2.1,8.1-5.1,19.7c-1.6,6.1-8.6,9.5-14.2,6.5      c-3.4-1.9-7.1-4.6-9.9-8.4l-3.7-6.2c-8-16.7,9-34.8,26-27.4C252.7,220.1,253.1,220.3,253.5,220.5z"/>
				<path class="st18" d="M254.9,247l2.9,5c0.4,0.7-0.2,1.5-1,1.4l-4.1-0.7L254.9,247z"/>
				<g>
					<g>
						<path class="st24" d="M250.1,253.6"/>
						<path class="st24" d="M253.2,255.6"/>
					</g>
				</g>
				<path d="M236.1,237c0,0,2.6-28.4,22.6-10.7c0,0-4.8-17.3-27.7-14.3c-4.8,0.6-10.8,4.6-12.9,8.9c-3.4,7.1-1.1,14.6,2.1,28.2      l10.4-6.8C231.6,240.6,236.1,237,236.1,237z"/>
				<path d="M230.9,227l1.4,12.4c32.4-0.7,22.9-18.5,22.9-18.5S233.2,206.8,230.9,227z"/>
				<polygon points="244.3,236.6 238.3,241.6 235.2,232.8     "/>
				<path d="M250.5,221.1c0,0,9.7,4.6,9.1,12.1c0,0,10.4-5.9-5.2-14.2C245.2,214.1,250.5,221.1,250.5,221.1z"/>
				<path d="M232.5,242.8c0,0-5.8,12.9-5.9,18.1l-24.5-8.5c0,0,7.1-7.5,9.4-14.1c1.8-5.3,2.7-18.2,13.3-24.1l-0.5,17.2L232.5,242.8z      "/>
				<g>
					<path class="st18" d="M226.8,238.3c-1.2,3.2,0.4,6.7,3.5,7.9c3.2,1.2,6.7-0.4,7.9-3.5c1.2-3.2-0.4-6.7-3.5-7.9       C231.5,233.5,228,235.1,226.8,238.3z"/>
					<path class="st24" d="M231.9,237.6"/>
					<path class="st24" d="M234.6,242.6"/>
				</g>
				<path class="st18" d="M212,265.3c0,0,3.9,11.4,14,15.7l-2.9-12.7L212,265.3z"/>
			</g>
		</g>
	</g>
</g>
</svg>