<svg xmlns="http://www.w3.org/2000/svg" xmlns:xlink="http://www.w3.org/1999/xlink" version="1.1" x="0px" y="0px" viewBox="0 0 1920 1080" style="enable-background:new 0 0 1920 1080;" xml:space="preserve">
<style type="text/css">
	.st0{opacity:0.11;fill:#2A94F4;}
	.st1{fill:#FFBE55;}
	.st2{fill:#2A94F4;}
	.st3{fill:#0E538C;}
	.st4{fill:#FCD2B1;}
	.st5{fill:#FFE3CA;}
	.st6{fill:#0B4870;}
	.st7{fill:#B97A59;}
	.st8{fill:#AF7054;}
</style>
<g id="Background">
	<ellipse class="st0" cx="918.14" cy="1043.16" rx="427.98" ry="36.84"/>
	<path class="st0" d="M533.5,1017.16c-43.34-10.83-149.52,2.58-147.36-194.82S549.61,707.28,610.9,627.1s-386.34-421.18,0-555.14   s286.2,291.27,596.31,4.97s567.98,310.12,279.77,426.89S1196.6,691.8,1311.45,792.72c114.85,100.92,102.63,188.68-36.84,224.44   C1135.15,1052.91,576.84,1027.99,533.5,1017.16z"/>
	<circle class="st1" cx="1372.08" cy="279.95" r="25.95"/>
	<circle class="st2" cx="1284" cy="627.1" r="25.95"/>
	<circle class="st2" cx="644.38" cy="98.26" r="55.24"/>
	<circle class="st1" cx="995.3" cy="871.01" r="21.58"/>
	<circle class="st1" cx="547.8" cy="685.78" r="41.34"/>
</g>
<g id="Character_1">
	<g>
		<path class="st3" d="M1212.69,551.45l20.75,454.87l-33.35,6.86c0,0-46.7-237.92-49.59-276.61    c-2.89-38.69-28.08-110.92-28.08-110.92s-33.08,84.88-40.67,137.12s-36.6,254.38-36.6,254.38h-44.78l31.78-462.71    C1032.15,554.45,1135.6,477.24,1212.69,551.45z"/>
		<path class="st1" d="M1149.67,254.98c-106.92-12.88-92.73,104.99-92.73,104.99l-24.79,194.48c0,0,114.28,45.39,180.54-3V310.22    C1211.31,281.12,1178.63,258.15,1149.67,254.98L1149.67,254.98z"/>
		<path class="st4" d="M1036.07,336.8c0.01,0.05-18.22,96.55-13.12,118.64c5.1,22.1,73.86,30.01,141.72,22.95l1.09-13.99    c0,0-103.88-25.9-107.85-28.49c-3.97-2.59,14.55-46.38,11.93-83.05L1036.07,336.8z"/>
		<path class="st4" d="M1163.29,463c0,0,42.11,7.12,43.91,57.35c0.14,4.02-2.1,6.22-5.2,7.36c-7.76,2.85-16.19-2.41-17.68-10.54    c-0.93-5.09-3.07-10.84-7.91-14.38c-11.21-8.19-18.75-21.27-20.08-25.29S1140.36,461.89,1163.29,463z"/>
		<path class="st5" d="M995.1,351.25c9.96,0,28.83,11.02,37.59,22.11c32.53,6.1,120.1,27.41,120.1,27.41    c3.25-13.36,2.88-50.71,2.88-50.71l51.21,32.64c0,0-18.08,71.47-29.05,72.2c-9.97,0.66-135.8-49.13-157.05-58.22    c-8.82,2.06-19.16,2.55-25.68,2.55c-13.25,0-26.1-10.74-26.1-23.99S981.85,351.25,995.1,351.25z"/>
		<path class="st1" d="M1151.99,377.9c0,0,61.25,9.14,60.7,6.86c-0.54-2.28,28.46-114.01-33.69-118.1    C1140.96,264.15,1151.99,377.9,1151.99,377.9z"/>
		<path class="st1" d="M1113.9,256.54c0,0-24.56,0-35.69,7.07c-8.17,5.19-40.15,39.55-48.82,80.89l-2.17,9.97l46.23,16.56    L1113.9,256.54z"/>
		<path class="st4" d="M1135.2,287.05L1135.2,287.05c-13.75,1.04-25.23-10.65-25.23-25.69l0-29.98c0-11.05,8.97-19.76,18.98-18.42    l9.44,1.26c6.77,0.91,12.24,6.29,13.75,13.54l5.53,26.49C1161,270.21,1150.24,285.91,1135.2,287.05z"/>
		<path class="st5" d="M1113.08,252.25L1113.08,252.25c-28.93-3.87-49.23-30.46-45.36-59.39l5.51-41.15    c1.85-13.84,14.57-23.55,28.41-21.7l55.06,7.37c13.6,1.82,32.08,36.81,30.26,50.41l-14.49,19.09    C1168.59,235.81,1142.01,256.12,1113.08,252.25z"/>
		<path class="st6" d="M1190.03,137.21c-0.31-10.13-4.51-26.97-27.38-35.25c-32.64-11.81-34.66,11.07-55.26-2.17    c-9.32-5.99-19.05,6.82-8.63,15.43c-0.3,0.15-0.59,0.29-0.89,0.44c-0.74-0.57-1.46-1.2-2.16-1.89    c-5.43-5.38-20.74-2.01-16.04,11.48c-4.7-0.58-9.85-2.37-14.18-6.66c-7.8-7.73-35.99,2.6,4.02,35.03    c0.73,0.59,1.44,1.14,2.15,1.67c6.03,7.48,17.62,11.36,18.18,11.51c27.01,7.21,49.16-3.01,63.98-6.22    c14.82-3.21,7.22,5.76,3.71,20.08c-3.52,14.32-1.77,3.77,8.69,3.76c22.19-0.03,7.92,21.44,3.44,25.04    c-2.61,2.1-7.75,4.16-7.75,4.16c-5.43,13.66,3.62,13.25,3.62,13.25s4.93-4.33,10.68-12.81c1.09,2.05,3.03,3.75,5.14,5.08    c2.56,1.62,5.67-0.85,4.77-3.74c-1.08-3.45-1.37-6.97-1.26-10.23c0.13,0.09,0.26,0.18,0.4,0.27c2.56,1.62,5.67-0.85,4.77-3.74    c-1.68-5.39-1.47-10.94-0.77-15.37c0.78-2.63,1.5-5.37,2.11-8.25c0.12-0.33,0.2-0.52,0.2-0.52s-0.05,0.05-0.1,0.09    c1.26-6.03,2.09-12.61,2.29-19.72C1193.97,150.37,1192.63,143.41,1190.03,137.21z"/>
		<path class="st6" d="M1046.8,1052.91h-98.29c-4.27,0-6.34-5.7-3.23-8.88l0,0c14.15-14.47,31.86-24.16,50.97-27.88l50.55-9.83    V1052.91z"/>
		<path class="st6" d="M1233.44,1052.91h-98.29c-4.27,0-6.34-5.7-3.23-8.88l0,0c14.15-14.47,31.86-24.16,50.97-27.88l50.55-9.83    V1052.91z"/>
	</g>
</g>
<g id="Character_2">
	<g>
		<path class="st3" d="M656.45,518.39l-26.68,225c0,0-55.68,191.73-59.95,235.95l20.2,12.85c0,0,104.57-210.24,109.57-240.25    c5-30.01,65.11-129.71,65.11-129.71s38.03,127.16,42.77,133.26l24.77,257.33h26.56c0,0,33.18-240.17,31.01-251.97    c-2.17-11.79-22.78-177.93-29.61-192.27C860.19,568.59,783.23,466.87,656.45,518.39z"/>
		<g>
			<g>
				<g>
					<path class="st7" d="M1047.81,238.5c-2.89-3.51-13.36-5.43-25.28,15.52c-3.58,6.29-5.79,12.87-7.14,19       c-3.55-2.68-6.7-7.55-7.68-9.25c-1.46-2.53-4.1-2.26-6.09-1.35c-1.99,0.9,0.14,5.69,2.31,14.9c2.17,9.21,9.87,21.85,9.87,21.85       c-0.38,1.79-0.64,3.39-0.8,4.84c-12.89,15.38-64.93,76.89-69.99,74.14c-5.78-3.14-33.34-23.97-46.23-42.5       c-39.75-57.16-57.85-91.58-57.85-91.58s7.02,32.95,15.69,89.37c8.67,56.42,86.4,90.47,97.06,88.52       c23.69-4.33,79.76-110.97,79.76-110.97C1052.81,287.77,1050.7,242.01,1047.81,238.5z"/>
				</g>
			</g>
			<path class="st1" d="M803.04,232.29c-51.56-0.52-66.94,15.94-78.93,56.03c-9.98,33.36-68.78,225.19-69.06,231.87     s205.14,48.4,205.14,48.4s12.23-189.08,11.92-230.78C871.63,273.28,854.5,232.81,803.04,232.29z"/>
			<g>
				<path class="st7" d="M970.85,352.13c-9.96,0-28.83,11.02-37.59,22.11c-32.53,6.1-115.27,30.24-115.27,30.24      c-3.25-13.36-20.81-59.99-20.81-59.99l-56.82,22.42c0,0,45.84,88.12,56.82,88.85c9.97,0.66,126.75-49.12,148-58.22      c8.82,2.06,19.16,2.55,25.68,2.55c13.25,0,26.1-10.74,26.1-23.99C996.95,362.87,984.1,352.13,970.85,352.13z"/>
				<path class="st1" d="M750.45,388.96l56.61-17.53c0,0-2.28-119.47-42.63-123.75c-40.35-4.27-43.67,54.39-38.4,82.48      C731.31,358.26,750.45,388.96,750.45,388.96z"/>
			</g>
			<path class="st1" d="M838.93,242.82c0.11,0.38,24.15,0,62.02,98.3c0,0-24.33,29.91-35.17,27.74l-27.03-123.7L838.93,242.82z"/>
		</g>
		<path class="st8" d="M810.51,266.17L810.51,266.17c13.49,2.86,26.42-7.21,28.42-22.11l3.98-29.72    c1.47-10.95-6.27-20.77-16.37-20.77h-9.52c-6.83,0-12.96,4.61-15.43,11.6l-9,25.52C787.19,246.05,795.76,263.05,810.51,266.17z"/>
		<path class="st7" d="M837.06,234.61L837.06,234.61c29.18,0,52.84-23.66,52.84-52.84v-41.52c0-13.96-11.32-25.28-25.28-25.28    h-55.55c-13.73,0-36.68,32.23-36.68,45.95l11.83,20.85C784.22,210.95,807.88,234.61,837.06,234.61z"/>
		<path class="st6" d="M871.43,153c1.18-0.15,54.71-13.73,9.33-50.84c-45.38-37.1-106.39-16.9-111.14,28.26    c-4.75,45.16,18.82,72.07,18.82,72.07s8.91,1.61,5.35-12.65c0,0-4.82-2.73-7.13-5.15c-3.96-4.16-15.25-27.33,6.73-24.36    c10.36,1.4,10.7,12.08,9.11-2.57c-1.58-14.66-7.92-24.56,6.34-19.41C823.1,143.49,843.7,156.57,871.43,153z"/>
		<path class="st6" d="M831.78,1052.91h102.35c4.45,0,6.6-5.7,3.36-8.88l0,0c-14.74-14.47-33.18-24.16-53.08-27.88l-52.63-9.83    V1052.91z"/>
		<path class="st6" d="M558.36,1019.3l98.79,26.76c4.29,1.16,7.86-3.77,5.56-7.69l0,0c-10.44-17.82-25.71-31.99-43.94-40.79    l-48.23-23.25L558.36,1019.3z"/>
	</g>
</g>
</svg>