<svg xmlns="http://www.w3.org/2000/svg" xmlns:xlink="http://www.w3.org/1999/xlink" version="1.1" id="Presentation" x="0px" y="0px" viewBox="0 0 1920 1080" style="enable-background:new 0 0 1920 1080;" xml:space="preserve">
<style type="text/css">
	.st0{opacity:0.1;fill:#2A94F4;}
	.st1{fill:#CCE9FF;}
	.st2{fill:#F7F7F7;}
	.st3{fill:#FFBE55;}
	.st4{fill:#0B4870;}
	.st5{fill:#2A94F4;}
	.st6{fill:#FFFFFF;}
	.st7{fill:#FCD2B1;}
	.st8{fill:#0E538C;}
	.st9{fill:#FFE3CA;}
</style>
<ellipse class="st0" cx="869.06" cy="1033.34" rx="478.67" ry="23.87"/>
<ellipse class="st0" cx="1385.13" cy="909.22" rx="169.39" ry="13.3"/>
<g>
	<rect x="421.93" y="16.8" class="st1" width="878.19" height="515.11"/>
	<g>
		<rect x="449.63" y="40.61" class="st2" width="822.79" height="467.47"/>
		<g>
			<circle class="st3" cx="727.12" cy="270.72" r="182.51"/>
			<path class="st4" d="M727.12,270.72h182.51c0,100.12-82.39,182.51-182.51,182.51s-182.51-82.39-182.51-182.51     c0-44.72,16.43-87.91,46.16-121.32L727.12,270.72z"/>
			<path class="st5" d="M727.12,270.72h182.51c0,100.12-82.39,182.51-182.51,182.51c-22.4,0-44.61-4.12-65.52-12.17L727.12,270.72z"/>
			<circle class="st6" cx="727.12" cy="270.72" r="121.32"/>
		</g>
		<path class="st3" d="M1033.05,218.11h-21.83c-5.34,0-9.67-4.33-9.67-9.67v-21.83c0-5.34,4.33-9.67,9.67-9.67h21.83    c5.34,0,9.67,4.33,9.67,9.67v21.83C1042.72,213.78,1038.39,218.11,1033.05,218.11z"/>
		<rect x="1052.37" y="191.46" class="st1" width="143.2" height="13.31"/>
		<rect x="1052.37" y="259.01" class="st1" width="143.2" height="13.31"/>
		<rect x="1052.37" y="326.57" class="st1" width="143.2" height="13.31"/>
		<path class="st4" d="M1033.05,286.26h-21.83c-5.34,0-9.67-4.33-9.67-9.67v-21.83c0-5.34,4.33-9.67,9.67-9.67h21.83    c5.34,0,9.67,4.33,9.67,9.67v21.83C1042.72,281.93,1038.39,286.26,1033.05,286.26z"/>
		<path class="st5" d="M1033.05,354.4h-21.83c-5.34,0-9.67-4.33-9.67-9.67V322.9c0-5.34,4.33-9.67,9.67-9.67h21.83    c5.34,0,9.67,4.33,9.67,9.67v21.83C1042.72,350.07,1038.39,354.4,1033.05,354.4z"/>
	</g>
</g>
<path class="st4" d="M1296.05,95.51c0,0-14.18-45.16,11.1-55.38s47.9,3.4,56.47,2.42c21.11-2.42,45.78,27.62,26.15,69.57  c-19.63,41.95-47.05,31.8-47.05,31.8L1296.05,95.51z"/>
<g>
	<g>
		<path class="st7" d="M1129.32,288.16c0,0-4.89-6.5-10.58-7.31s-11.34,0.67-13.67,1.14c-7.16,1.44-16.7-14.91-23.47-3.67    c-1.72,2.85,15.19,23.17,35.05,22.04c4.13-0.23,33.21,11.11,33.21,11.11l6.03-13.15C1155.88,298.33,1139.64,294.24,1129.32,288.16    z"/>
		<path class="st7" d="M1122.11,285.18l8.09,4.73c0,0-5.85-10.87-13.99-14.55c-8.13-3.68-11.97-4.5-13.7-7.68    c-1.73-3.18-7.45,4.42,5.21,9.87C1110.54,278.77,1111.24,291.14,1122.11,285.18z"/>
	</g>
	<path class="st4" d="M1328.99,168.06c0,0,10.05,12.26,13.6,32.39s-65.95,144.02-75.75,153.54s-137.96-47.16-137.96-47.16   l7.71-15.95c0,0,100.77,15.92,114.29,24.07C1250.88,314.96,1293.68,190.67,1328.99,168.06z"/>
</g>
<path class="st8" d="M1292.62,406.59c0,0-29.13,206.72-29.2,247.66s15.87,230.91,15.87,230.91l25.16,1.36  c0,0,20.87-209.77,17.58-223.84c-3.29-14.07,82.19-242.58,82.19-242.58S1319.63,364.32,1292.62,406.59z"/>
<path class="st8" d="M1320.7,424.02c0,0,50.29,202.61,65.53,240.61c15.24,38,105.64,220.6,105.64,220.6l20.88-10.6  c0,0-60.71-212.28-69.02-224.09c-8.31-11.82-14.49-255.72-14.49-255.72S1329.95,374.71,1320.7,424.02z"/>
<path class="st4" d="M1324.13,172.51c-4.01,9.77-24.05,31.93-28.36,120.24c-4.31,88.3-28.44,228.75-28.44,228.75  s140.64,36.74,177.29-13.41c4.49-6.15-25.91-309.22-38.47-334.33C1393.23,147.91,1328.14,162.74,1324.13,172.51z"/>
<g>
	<g>
		<g>
			<g>
				<path class="st7" d="M1316.89,382.04c0,0-7.98-1.6-12.76,1.6c-4.79,3.19-8.01,8.06-9.44,9.96c-4.38,5.84-22.39,0-19.95,12.9      c0.62,3.27,26.76,7.17,40.83-6.9c2.92-2.92,32.17-13.83,32.17-13.83l-4.25-13.83C1343.48,371.94,1328.64,379.71,1316.89,382.04z      "/>
			</g>
			<path class="st7" d="M1309.53,384.63l9.18-1.86c0,0-11.61-4.21-20.13-1.54c-8.52,2.67-11.93,4.62-15.33,3.4     c-3.41-1.22-2.61,8.25,10.46,3.89C1296.63,387.55,1305.39,396.31,1309.53,384.63z"/>
		</g>
	</g>
	<path class="st8" d="M1383.6,160.26c0,0,17.91,1.67,33.97,14.33c16.06,12.65,46.72,151.36,45.75,164.99S1329,396.27,1329,396.27   l-4.87-17.03c0,0,85.77-55.24,101.29-58.16C1425.42,321.08,1372.32,200.63,1383.6,160.26z"/>
</g>
<path class="st4" d="M1306.27,881.77c-6.36,4.16-20.16,2.18-20.16,2.18c-4.43,0-8.03-3.83-8.03-8.55v-0.78h-6.97  c0,0,2.23,9.32-3.25,12.82c-5.47,3.5-24.81-3.88-28.46,13.21v8.55h48.89c0,0,8.95-7.14,15.16,0h8.56  C1312.01,909.21,1314.07,876.67,1306.27,881.77z"/>
<path class="st4" d="M1510.83,864.92c-5.27,5.48-16.25,9.24-16.25,9.24c-4.32,0.99-8.68-1.93-9.73-6.53l-0.17-0.76l-6.79,1.56  c0,0,4.21,12.78-0.35,17.41s-25-2.43-24.74,15.04l0,8.33c0,0,42.69,1.02,46.18-10.63c2.88-9.61,11.44-11.87,16.83-6.65l8.05-2.59  C1523.85,889.33,1517.29,858.2,1510.83,864.92z"/>
<path class="st7" d="M1372.64,116.68l6.87,49.27c0,0-17.7,11.48-32.31,6.06l-6.41-39.17  C1340.79,132.83,1358.91,114.66,1372.64,116.68z"/>
<path class="st9" d="M1304.06,58.03c0,0-14.68,27.62,0.8,74.87c11.7,35.7,67.37,32.22,67.77-6.95c0,0,23.78-16.37,6.87-38.36  c-3.78-4.91-17.03-5.3-17.13,16.35c-0.01,2.65-2.18,4.79-4.82,4.79l0,0c-2.86,0-5.11-2.47-4.81-5.31c1.02-9.54,1.93-28.97-6.79-33.2  C1334.29,64.56,1307.22,90.82,1304.06,58.03z"/>
<path class="st1" d="M1162.11,506.23L1162.11,506.23c-59.25,0-107.29,48.03-107.29,107.29v186.34l0,0v30.65v198.44h12.1V830.51  h190.37v198.44h12.1V830.51v-30.65V613.51C1269.4,554.26,1221.36,506.23,1162.11,506.23z M1068.97,799.85v-20.97h186.29v20.97  H1068.97z"/>
<path class="st1" d="M876.56,506.23L876.56,506.23c-59.25,0-107.29,48.03-107.29,107.29v186.34l0,0v30.65v198.44h12.1V830.51h190.37  v198.44h12.1V830.51v-30.65V613.51C983.84,554.26,935.81,506.23,876.56,506.23z M783.41,799.85v-20.97H969.7v20.97H783.41z"/>
<path class="st1" d="M591,506.23L591,506.23c-59.25,0-107.29,48.03-107.29,107.29v186.34l0,0v30.65v198.44h12.1V830.51h190.37  v198.44h12.1V830.51v-30.65V613.51C698.28,554.26,650.25,506.23,591,506.23z M497.85,799.85v-20.97h186.29v20.97H497.85z"/>
</svg>