<svg xmlns="http://www.w3.org/2000/svg" xmlns:xlink="http://www.w3.org/1999/xlink" version="1.1" id="Layer_1" x="0px" y="0px" viewBox="0 0 1080 1080" enable-background="new 0 0 1080 1080" xml:space="preserve">
<path opacity="0.1" fill="#2A94F4" d="M282.797,746.699c0,0-31.78-67.465,21.11-109.191s-44.11-84.089-9.11-135.908  s154-9.818,151-105.818s97-122,130-93s37.535,170.35,132.267,155.175c94.733-15.175,183.733,185.121,107.733,288.473  L282.797,746.699z"/>
<g>
	<path fill="#FAB9AF" d="M519.816,711.289l-1.092,13.109c-0.01,2.66-0.788,6.476-0.066,9.037l1.137,4.027   c0.933,3.307-1.552,6.589-4.988,6.577c-8.907-0.032-24.13-0.008-28.053-0.002c-0.642,0.001-1.271-0.432-1.326-1.072   c-0.331-3.818,10.696-6.374,19.002-9.59c6.327-2.449,5.989-13.821,5.21-20.461c-0.294-2.509,1.798-4.644,4.315-4.435l0,0   C516.038,708.652,519.824,709.197,519.816,711.289z"/>
	<path fill="#FAB9AF" d="M585.4,708.821l4.506,14.96c0.199,0.661,0.496,1.288,0.882,1.861l3.194,4.743   c2.028,3.011,0.568,7.125-2.904,8.185c0,0-6.44,2.265-13.079,4.447c-6.796,2.233-15.344,0.367-15.344-1.427   c0-3.984,3.715-0.822,9.938-4.983c2.086-1.394,4.238-2.853,6.156-4.36c5.356-4.204,0.679-14.847-2.599-20.842   c-1.179-2.155,0.073-4.831,2.475-5.343l1.552-0.331C582.457,705.245,584.728,706.589,585.4,708.821z"/>
	<path fill="#FAB9AF" d="M507.913,582.789c-7.659-0.443-1.256,1.458-8.852,0.69c1.227,13.818-10.631,28.26-7.002,47.179   c5.851,30.497,18.043,88.776,18.043,88.776c3.022,1.323,6.095,1.655,9.224,0.875c0,0,0.926-25.707,1.492-53.391   c0.543-26.551,0.689-54.92,2.381-64.202c0.866-4.751,1.971-11.45,3.141-18.814C520.198,583.615,514.083,583.146,507.913,582.789z"/>
	<path fill="#FAB9AF" d="M566.237,613.989c1.514-9.414-5.181-20.085-3.817-30.51c-11.255,0.186-14.227,0.629-25.474,0.676   c-5.088,0.021,4.294-1.473-0.744-1.768c-0.742,18.444-12.529,39.542-1.566,58.751c21.93,38.421,44.962,78.365,44.962,78.365   c2.967,0.121,5.659-0.955,8.16-2.853c0,0-3.845-17.418-9.403-37.756C571.996,655.625,563.942,628.258,566.237,613.989z"/>
</g>
<path fill="#0B4870" d="M494.691,567.092c0,0-10.924,54.62-5.462,69.913h36.049v-34.957l5.462,34.957h38.234  c0,0,6.554-54.62-6.554-71.006L494.691,567.092z"/>
<path fill="#FAB9AF" d="M506.88,445.364c-1.713,2.143-3.196,4.48-3.962,5.259c-0.32,0.325-1.438,0.934-1.749,1.133  c-0.916,0.585-2.426,1.344-2.894,2.325l-2.035,4.09c-0.95,1.993-2.634,3.045-4.627,2.095l0,0c-2.158-1.029-2.261-3.339-0.989-5.363  l1.376-2.886c1.018-1.621,1.208-3.544,1.488-5.438c0.57-3.852,3.321-7.415,5.795-10.066c1.552-1.664,4.618-1.673,8.698-1.461  c2.005,0.104,5.082,0.864,3.047,2.365c-1.706,1.258-7.902,1.344-8.934,7.373c-0.051,0.296-0.126,1.066,0.202,1.235  c0.978,0.503,2.21-1.613,3.197-2.461c1.386-1.19,2.734-1.296,3.304-0.828C509.4,443.231,508.103,443.834,506.88,445.364z"/>
<path fill="#FFBE55" d="M474.342,511.632c7.428-3.785,18.583-43.656,23.08-52.605c0.609-1.211,0.228-2.687-0.9-3.438  c-0.682-0.454-1.429-0.917-2.038-1.207c-0.601-0.286-1.275-0.547-1.867-0.756c-0.925-0.326-1.949-0.003-2.526,0.79  c-4.522,6.22-23.977,33.271-30.947,47.795C459.143,502.211,458.904,519.498,474.342,511.632z"/>
<polygon fill="#FAB9AF" points="492.249,567.533 507.364,461.328 548.141,455.731 569.35,566.766 "/>
<path fill="#FFBE55" d="M490.688,564.828l16.676-103.5l40.778-5.597l21.915,109.289c0.412,2.054-0.919,4.048-2.976,4.438  c-7.592,1.439-25.905,4.445-46.399,4.444c-15.3,0-23.898-2.975-27.809-4.859C491.286,568.281,490.408,566.565,490.688,564.828z"/>
<g>
	<path fill="#FAB9AF" d="M524.119,412.439c9.101,0,12.496,6.478,12.67,18.462c0.065,4.488-1.954,8.935-3.579,11.774   c-1.207,2.109-1.538,4.607-0.85,6.938l1.998,6.764c1.359,6.274-1.621,9.716-6.02,10.965c-2.179,0.619-4.79,0.139-6.693-1.09   c-2.262-1.462-2.448-4.606-2.028-7.267l0.516-1.929c0.695-2.598-0.81-5.398-3.438-5.973c-7.007-1.532-8.011-8.837-9.889-20.182   C504.851,419.077,515.019,412.439,524.119,412.439z"/>
	<path fill="#FAB9AF" d="M531.772,431.123c0,2.779,1.035,5.031,3.71,5.031s4.392-3.821,4.392-6.6c0-2.779-1.717-3.462-4.392-3.462   S531.772,428.344,531.772,431.123z"/>
</g>
<path fill="#E8948B" d="M532.879,443.32c0,0-6.797,9.345-15.255,8.078c0,0,1.756,0.84,2.183,2.205  C519.807,453.603,527.841,453.009,532.879,443.32z"/>
<g>
	<g>
		<g>
			<path fill="#2A94F4" d="M563.968,664.245c-4.974,1.533-8.709,4.606-11.103,9.132c-2.394,4.526-2.83,9.344-1.297,14.318     c1.535,4.979,4.608,8.715,9.133,11.103c4.526,2.393,9.344,2.829,14.318,1.296c1.972-0.608,3.75-1.459,5.327-2.547     c2.396-1.653,4.329-3.855,5.777-6.586c2.393-4.527,2.829-9.344,1.296-14.318c-1.532-4.969-4.604-8.704-9.134-11.104     C573.754,663.149,568.937,662.713,563.968,664.245z"/>
		</g>
	</g>
	<g opacity="0.08">
		<g>
			<path fill="#0B4870" d="M578.285,665.541c-4.531-2.391-9.347-2.827-14.316-1.296c-1.605,0.495-3.079,1.152-4.423,1.965     c3.555-0.34,7.011,0.359,10.314,2.102c4.53,2.4,7.602,6.135,9.134,11.104c1.533,4.974,1.097,9.791-1.296,14.318     c-1.447,2.731-3.38,4.933-5.777,6.586c-0.295,0.203-0.599,0.396-0.908,0.582c1.322-0.126,2.658-0.392,4.006-0.807     c1.972-0.608,3.75-1.459,5.327-2.547c2.396-1.653,4.329-3.855,5.777-6.586c2.393-4.527,2.829-9.344,1.296-14.318     C585.887,671.676,582.815,667.94,578.285,665.541z"/>
		</g>
	</g>
	<g>
		<g>
			<path fill="#2A94F4" d="M580.404,504.279c-14.061-6.738-30.303-7.346-48.274-1.807c-17.966,5.538-31.133,15.207-39.135,28.736     c-6.955,11.762-8.917,24.928-5.831,39.133c0.52,2.394,2.032,4.476,4.147,5.713c2.115,1.237,4.671,1.532,7.011,0.811l10.7-3.299     c4.27-1.317,6.864-5.628,6.029-10.028c-1.479-7.804-0.526-14.447,2.913-20.311c4.164-7.098,11.501-12.307,21.808-15.485     c10.275-3.167,19.247-2.856,26.664,0.926c7.389,3.773,12.71,10.795,15.815,20.869c4.281,13.886,3.187,24.467-3.251,31.448     c-6.78,7.351-19.044,13.701-36.476,18.885l-4.63,1.427c-4.623,1.425-7.223,6.345-5.799,10.966l12.431,40.328     c0.69,2.239,2.211,4.075,4.282,5.17c2.071,1.095,4.445,1.318,6.684,0.628l10.854-3.346c0.875-0.27,1.677-0.664,2.393-1.159     c3.069-2.118,4.561-6.061,3.406-9.808l-8.051-26.117c-0.1-0.324,0.079-0.674,0.396-0.781     c20.059-6.776,34.212-16.056,42.067-27.585c8.354-12.261,9.647-28.022,3.845-46.846C604.625,524,594.531,511.057,580.404,504.279     z"/>
		</g>
	</g>
	<g opacity="0.08">
		<g>
			<path fill="#0B4870" d="M580.404,504.279c-14.061-6.738-30.303-7.346-48.274-1.807c-11.124,3.429-20.406,8.444-27.764,14.976     c4.551-2.428,9.549-4.487,14.991-6.164c17.971-5.54,34.213-4.932,48.274,1.807c14.127,6.778,24.221,19.721,30,38.471     c5.802,18.824,4.508,34.585-3.845,46.846c-2.413,3.541-5.422,6.869-9.011,9.978c9.619-5.359,16.914-11.641,21.784-18.789     c8.354-12.261,9.647-28.022,3.845-46.846C604.625,524,594.531,511.057,580.404,504.279z"/>
		</g>
	</g>
</g>
<path fill="#FFBE55" d="M547.907,456c0,0,26,14,44,39s-18,52-39,58s-23-1-5-13s42-20,30-34s-34-35-34-35L547.907,456z"/>
<path fill="#FAB9AF" d="M528.96,542.927c2.743-0.078,5.484-0.457,6.573-0.375c0.455,0.034,1.641,0.494,1.995,0.603  c1.038,0.321,2.593,0.982,3.645,0.705l4.436-1.091c2.135-0.563,4.026,0.042,4.589,2.177l0,0c0.61,2.312-1.086,3.883-3.454,4.221  l-3.092,0.815c-1.895,0.271-3.485,1.369-5.111,2.379c-3.308,2.055-7.804,2.258-11.427,2.083c-2.273-0.109-4.261-2.443-6.737-5.693  c-1.216-1.597-2.625-4.437-0.164-3.854c2.063,0.489,6.132,5.162,11.401,2.053c0.259-0.153,0.895-0.592,0.812-0.952  c-0.249-1.071-2.659-0.644-3.944-0.85c-1.804-0.289-2.756-1.249-2.767-1.986C525.704,542.383,527.002,542.983,528.96,542.927z"/>
<path fill="#FFBE55" d="M504.467,485.242c0,0-22.117,23.716-31.97,27.411s-12.945-9.434,35.049-51.325L504.467,485.242z"/>
<path fill="#D3D3D3" d="M842.519,781.681H263.311c-10.395,0-18.821-8.427-18.821-18.821l0,0c0-10.395,8.427-18.821,18.821-18.821  h579.208c10.395,0,18.821,8.427,18.821,18.821l0,0C861.34,773.254,852.914,781.681,842.519,781.681z"/>
<path fill="#0B4870" d="M536.509,426.091c0,0-0.965,9.863-1.423,11.845c-0.458,1.981-2.206,3.617-2.206,3.617  s1.142-3.064,0.972-5.021c-0.17-1.957,0.524-9.745-0.972-10.255c-1.496-0.511-4.177-0.426-4.475-4.766  c-0.298-4.34-5.277-3.489-6.298-3.149s0.426-1.064,0.426-1.064l-4.723,1.149l2.34-1.83l-3.234,1.83l-2.723-1.277l0.894,1.064  l-3.149-0.638l-2.553,1.915c0,0-1.506,6.123-2.806,9.13c0,0-4.556-10.194-0.556-17.258c4-7.064,12.766-3.064,17.617-5.532  c4.851-2.468,20.108,4.031,15.543,21.377C539.181,427.228,538.222,426.426,536.509,426.091z"/>
<path fill="#0B4870" d="M518.92,734.361l-13.309-1.595c0,0-24.1,5.884-20.866,11.271l1.106,1.728h31.404  C517.255,745.766,525.18,742.446,518.92,734.361z"/>
<path fill="#0B4870" d="M591.983,726.251l-13.205,2.307c0,0-21.383,12.577-16.734,16.805l1.557,1.336l30.073-9.047  C593.675,737.652,600.307,732.19,591.983,726.251z"/>
<ellipse fill="#FFBE55" cx="454.151" cy="398.362" rx="46.597" ry="34.723"/>
<polygon fill="#FFBE55" points="489.799,416.064 494.447,429.085 481.426,422.574 "/>
<circle fill="#FFFFFF" cx="439.406" cy="396.638" r="3.638"/>
<circle fill="#FFFFFF" cx="449.172" cy="396.638" r="3.638"/>
<circle fill="#FFFFFF" cx="459.129" cy="396.638" r="3.638"/>
<circle fill="#FFFFFF" cx="468.895" cy="396.638" r="3.638"/>
<path opacity="0.4" fill="#2A94F4" d="M334.328,726.721c0,0-64.667-58.903-129.333-14.775c0,0,31.732-40.592,77.333-34.539  S334.328,726.721,334.328,726.721z"/>
<path opacity="0.4" fill="#2A94F4" d="M332.349,729.091c0,0-8.412-87.066-85.967-97.75c0,0,50.767-8.797,80.512,26.293  C356.638,692.723,332.349,729.091,332.349,729.091z"/>
<path fill="#0B4870" d="M332.916,728.716c0,0-30.302-82.055-108.022-72.641c0,0,46.854-21.433,84.553,4.927  S332.916,728.716,332.916,728.716z"/>
<path fill="#2A94F4" d="M360.828,728.537c0,9.132-7.403,16.536-16.536,16.536h-25.429c-9.132,0-16.536-7.403-16.536-16.536l0,0  c0-9.132,7.403-16.536,16.536-16.536h25.429C353.425,712.001,360.828,719.405,360.828,728.537L360.828,728.537z"/>
<path fill="#2A94F4" d="M826.023,737.747c0,3.618-2.933,6.551-6.551,6.551h-25.27c-3.618,0-6.551-2.933-6.551-6.551v-58.963  c0-3.618,2.933-6.551,6.551-6.551h25.27c3.618,0,6.551,2.933,6.551,6.551V737.747z"/>
<path opacity="0.4" fill="#2A94F4" d="M809.867,604.36c0,0-20.687,42.051,9.793,49.212s31.359-24.558,28.235-37.63  c-3.123-13.072,45.243-48.216,5.352-79.306S782.269,588.321,809.867,604.36z"/>
<path opacity="0.4" fill="#2A94F4" d="M771.347,627.188c0,0-0.974,27.672,17.188,24.155c18.162-3.516,10.96-20.826,6.112-27.116  c-4.847-6.29,12.718-36.937-16.307-44.041C749.315,573.082,752.59,625.221,771.347,627.188z"/>
<line fill="none" stroke="#4D4D4D" stroke-miterlimit="10" x1="774.445" y1="601.102" x2="796.907" y2="672.232"/>
<polyline fill="none" stroke="#4D4D4D" stroke-miterlimit="10" points="787.548,615.586 782.79,627.53 771.949,621.558 "/>
<line fill="none" stroke="#4D4D4D" stroke-miterlimit="10" x1="834.229" y1="560.858" x2="814.961" y2="672.232"/>
<polyline fill="none" stroke="#4D4D4D" stroke-miterlimit="10" points="845.534,577.704 829.57,587.786 819.328,573.961 "/>
<polyline fill="none" stroke="#4D4D4D" stroke-miterlimit="10" points="841.166,601.06 825.203,611.142 814.961,597.317 "/>
<circle fill="#FFBE55" cx="706.663" cy="672.232" r="24.449"/>
<circle fill="#2A94F4" cx="377.712" cy="531.601" r="22.562"/>
<rect x="377.465" y="640.758" transform="matrix(0.866 -0.5 0.5 0.866 -278.1568 289.0378)" opacity="0.4" fill="#2A94F4" width="45.617" height="45.617"/>
<polyline fill="#FFBE55" points="344.829,612.669 368.874,573.903 407.639,597.948 "/>
<rect x="675.719" y="577.165" transform="matrix(0.866 -0.5 0.5 0.866 -206.4016 429.6451)" opacity="0.4" fill="#2A94F4" width="45.617" height="45.617"/>
<polyline fill="#FFBE55" points="656.229,555.557 680.274,516.791 719.039,540.836 "/>
</svg>