<svg xmlns="http://www.w3.org/2000/svg" viewBox="372 258 597.6 224.1"><path d="M376.4 362.3c1.2 0 2.8-.3 5.3-1.6 2.4-1.3 3.6-2.6 6.8-5 3.1-2.2 5.4-3.6 9-6.5 3.7-2.8 5.4-4.4 9.1-7.6l9.4-8.7c3.7-3.4 5.9-5 9.4-8.6 3.4-3.7 5-5.8 8-9.7 3.1-3.8 4.5-5.9 7-9.7 2.6-3.8 3.9-5.6 5.9-9.3 2-3.7 3-5.6 4.3-9 1.2-3.3 2-5.1 2-7.7.2-2.5-.3-3.8-1.3-5-1-1.2-2.1-1.4-3.8-1-1.7.4-3 1-4.7 3.1-1.8 2.2-2.3 4-4 7.6-1.7 3.6-2.6 5.8-4.5 10.4-2 4.7-3 7.3-5.2 13-2.1 5.6-3.2 8.8-5.4 15.3a614.2 614.2 0 0 0-16.8 53.9c-2 7.3-3.1 11-4.7 18a247.5 247.5 0 0 0-5.3 31.7c-.4 5.5-.7 8-.3 12.4a23 23 0 0 0 2.4 9.6c1.5 3.2 2.7 4.5 5.5 6.2 2.9 1.8 4.8 2.3 8.7 2.7 4 .4 6.3 0 11-.7s7.4-1.6 12.5-3a252.8 252.8 0 0 0 26.3-9.4l11.2-5c4-1.8 5.7-2.4 8.3-3.9 2.6-1.5 3.3-2.3 4.6-3.5a9 9 0 0 0 2.3-2.7c.6-1 .5-1.4.5-2 0-.7-.2-1-.6-1.2-.3-.2-1 0-1.2.2-.4.1-.2.4-.3.6-.2.3 0 .2-.6.6l-2.2 1.7-4.5 2.7c-2.5 1.5-4 2.6-7.7 4.5a154.2 154.2 0 0 1-23.6 10.2 155 155 0 0 1-13.3 4.2c-5 1.4-7.7 2-12.2 2.7a36 36 0 0 1-10 .3c-3.5-.4-5-.9-7.2-2.2a9 9 0 0 1-4.4-4.6c-1.4-2.6-2-4.3-2.5-8.4-.5-4-.5-6.5-.2-11.8.3-5.3.8-8.3 1.7-14.6 1-6.3 1.5-9.8 3-16.8 1.6-7 2.7-10.7 4.7-18a568 568 0 0 1 11-36.8l6-16.8c2.4-6.4 3.5-9.7 5.8-15.2s3.5-8 5.7-12.5c2.3-4.4 3.5-6.4 5.5-9.6 2-3.3 3.2-4.6 4.4-6.6 1.3-2 1.4-2.9 1.8-3.7.4-.9.4-1.1.3-.6l-1 3.4c-.5 2-.6 3.9-1.6 7a55 55 0 0 1-3.4 8.7c-1.8 3.6-3 5.4-5.5 9.2a119.7 119.7 0 0 1-14.6 19c-3.4 3.6-5.5 5.2-9.2 8.5-3.7 3.4-5.7 5.3-9.4 8.5a118 118 0 0 1-9.2 7c-3.7 2.7-6.1 4-9.4 6-3.2 2.1-4.7 3-6.9 4.6-2.1 1.6-3.3 2.5-3.8 3.6-.6 1.1-.2 1.8 1 1.9M497 356.4c-.7.7-1 1.8-1.5 3.8-.6 2-.8 3.3-1 6.4-.2 3 0 5.2 0 9L494 386l.1 11.4c.2 4.7.4 7.2.8 12s.5 7.3 1.3 12a68.4 68.4 0 0 0 6.8 21c2 3.5 3 5 5.3 7.6a17 17 0 0 0 6.4 5 12 12 0 0 0 7.5 1c3-.5 4.4-1.1 7.3-3 2.9-2 4.2-3.4 7-6.9 2.9-3.4 4.3-5.7 7-10.3 2.7-4.6 4-7.3 6.6-12.7 2.5-5.3 4-8.3 6.3-14 2.5-5.9 3.6-9 5.8-14.8a399.9 399.9 0 0 0 8.8-26.8l3-10.5c.8-3.8 1.3-6 1.2-8-.2-2.2-1.2-2.8-2-2.6-1 .1-1.7.8-2.3 3.4-.6 2.5-.5 4.7-.9 9.4l-1 13.9-1.5 16.4c-.6 6.7-1 10-1.5 16.7a325.6 325.6 0 0 0-.8 31.7c.2 5.4.1 8 .8 12a20 20 0 0 0 2.6 8c1.3 2 3 2.2 4 2.6 1 .3 1.1-.2.9-1-.3-.8-1.3-1-2.1-3.1-.9-2-1.5-3.4-2.2-7.1a163.2 163.2 0 0 1-1.7-26.4c.1-6.3.3-9.9.8-16.5s1-10 1.7-16.6c.7-6.6 1-10.4 1.9-16.4l2-13.7c.7-4.7 1.5-6.8 1.5-9.5-.1-2.6-1-3.4-1.8-3.7-.8-.4-1.3 0-2 2-.6 2-.6 4-1.3 7.7-.7 3.7-1 6-2 10.6-1.2 4.6-2 7-3.6 12.4a268.6 268.6 0 0 1-10.5 28.9 198.9 198.9 0 0 1-13.3 26 62.5 62.5 0 0 1-7.1 9.6c-2.8 3-4.3 4-6.7 5.7-2.4 1.6-3.4 2-5.5 2.3-2.2.3-3.1.2-5.2-.7a28.1 28.1 0 0 1-10.2-10.4 58.7 58.7 0 0 1-6.9-19.8c-.8-4.5-.9-7-1.3-11.7a152 152 0 0 1-.3-23c.3-4.2.6-6.3 1-10.2.4-3.8.8-5.9 1-9 .3-3 .3-4.2.2-6.3-.1-2-.3-3.1-.8-4-.6-.8-1.4-.9-2.2-.2M609.5 359.8c-.6.8-1 1.8-1.2 4.1-.2 2.4 0 3.6-.1 7.4l-.4 11.7c-.2 5.1-.3 8.2-.7 14l-1.2 14.4-1.3 14.3c-.4 5.2-.8 8-.8 11.9 0 3.8.1 5.5 1 7.3 1 1.8 2.1 2.3 3.7 1.6 1.6-.7 2.8-1.8 4.4-5 1.6-3.3 2.1-6 3.8-11.1l4.7-14.7c2-6.1 3.1-9.6 5.5-15.8 2.4-6.2 3.6-9.4 6.3-15.3a139 139 0 0 1 15.3-26c3.2-4 5-5.6 8-8 3-2.4 4.7-3 7-4 2.3-.8 3-1 4.6-.3 1.6.6 2.1 1.4 3.4 3.7 1.3 2.4 2 4 3 8a134 134 0 0 1 1.3 26.5c-.3 6.1-.7 9.6-1.2 16l-1.5 15.8-1.6 14.4c-.4 5-.8 7.2-.8 10.7 0 3.5.3 5 .7 7 .5 2 1 2.5 1.5 3.1.6.6 1 .5 1.2-.2.3-.7.2-1.3.3-3.3 0-2-.2-3.2-.2-6.6 0-3.4-.1-5.5.1-10.5.3-5 .7-8.3 1.3-14.4l1.4-15.9 1.5-16c.3-6.1.5-9.3.4-14.8 0-5.4 0-8.2-.8-12.5-.7-4.4-1.2-6.6-3-9.4a9.9 9.9 0 0 0-5.7-4.9 9 9 0 0 0-7.2 0c-3 1-4.6 2.4-7.8 5.1a50.9 50.9 0 0 0-8 8.9 161.4 161.4 0 0 0-15.2 26.6c-2.8 6-4 9.2-6.5 15.5-2.5 6.2-3.6 9.6-5.9 15.7l-5.3 14.4c-2 5-3.2 7.4-4.5 10.5l-1.8 5.2c-.3 1 .2.8.2-.6v-6.8l.1-11.6 1-14.2L610 397l1.3-13.8c.5-5.2 1-7.9 1.2-11.8.3-3.8.4-5.1.2-7.5-.2-2.4-.6-3.4-1.2-4.2-.6-.8-1.4-.8-2 0M746 357.6c1-.3 2-1 3.4-2.4a20 20 0 0 0 3.6-4.6c1.2-2.2 2-3.8 2.5-6.1a11 11 0 0 0 0-5.7c-.4-2-.9-3.3-2.4-4.7a8.2 8.2 0 0 0-5.2-2.5c-2.5-.3-4.2-.4-7.4.7-3.2 1-4.8 2.3-8.5 4.9a91.5 91.5 0 0 0-20.2 19.4c-4 5-6 8.1-9.6 14.2a139.3 139.3 0 0 0-17.7 46.5c-.6 5.5-.6 8.2.2 12.4a17 17 0 0 0 3.5 8.9c2 2.6 3.7 3.8 6.8 4.5 3.1.7 5.2.4 8.8-1 3.7-1.5 5.5-3 9.3-6.2 3.8-3.2 6-5.3 9.9-10a187.5 187.5 0 0 0 19-30 250.5 250.5 0 0 0 14.9-33.9c2.2-6.1 3.3-9.1 4.6-14 1.4-4.8 2.2-7.4 2.3-10.3 0-3-.7-4-1.8-4.3-1.1-.2-2.5.4-3.8 3.3-1.3 2.9-1.7 5.6-2.7 11.2a488.6 488.6 0 0 0-4.4 36.4c-.7 7.9-1 12.3-1.4 20-.3 7.5-.5 11.6 0 18.1.5 6.7 1 9.8 2.5 14.8s2.7 7 4.8 10.3c2 3.3 3.5 4.5 5.6 6 2.1 1.4 3.8 1.2 4.9 1.2 1.1 0 1.2-.6.6-1.4-.6-.7-1.8-1-3.5-2.4-1.7-1.5-3-2.3-5-5.2-2-2.8-3.4-4.5-5-9.2a53.7 53.7 0 0 1-2.8-14.2c-.5-6.5-.3-10.5 0-18a318.8 318.8 0 0 1 7-55.7c1.1-5.5 2.4-7.8 3-10.7.7-2.9.4-3.8.1-3.9-.3-.1-1 .6-1.7 3.3-.6 2.6-.2 5.2-1.3 10s-2 7.9-4.1 14c-2.2 6-3.6 9.9-6.5 16.6a218.2 218.2 0 0 1-17.4 33 99.8 99.8 0 0 1-19.9 22.5c-3.6 3-5.5 4-8.5 5.1-3 1.2-4.4 1.2-6.7.8-2.3-.4-3.1-1-4.8-3-1.6-2-2.5-3.4-3.3-7.1-.8-3.8-1.1-6.4-.7-11.6a101 101 0 0 1 8.8-30 125.8 125.8 0 0 1 28.4-40.1c4-3.6 6.3-5 9.9-7.2 3.5-2 5.2-2.5 8-3.3 2.6-.8 3.7-.6 5.4-.6 1.7 0 2.3 0 3 .6.8.6 1 1.2.9 2.3-.1 1.2-.5 1.8-1.3 3.4-.7 1.7-1.6 3-2.6 4.9-1 1.9-1.7 3-2.3 4.8-.7 1.8-1.2 2.9-1 4 .2 1 .8 1.4 1.8 1.2M841.3 340.1c-.4-1-1.1-2-3-3.1-1.8-1.1-3.3-2-6.3-2.5s-5-.5-8.6 0c-3.7.7-6 1.2-9.7 2.8-3.8 1.6-5.8 2.9-9.3 5.2-3.5 2.4-5.4 3.7-8.3 6.6-3 2.9-4.5 4.6-6.2 8a18.2 18.2 0 0 0-2.4 9c-.1 3.5.3 5.4 1.9 9 1.6 3.5 3 5.3 6 8.7 3.2 3.5 5.4 5.2 9.6 8.6 4.2 3.4 6.8 5 11.6 8.4 4.9 3.3 7.6 5 12.4 8.4 4.8 3.4 7.5 5.2 11.6 8.4 4 3.2 6 4.8 8.8 7.7 2.8 2.9 3.8 4.3 5 6.9 1.1 2.5 1.2 3.5 1 5.6-.4 2-1 2.9-2.6 4.8a20 20 0 0 1-5.7 4.9c-3 1.8-5 2.6-8.7 3.9a47.8 47.8 0 0 1-19.9 3.3c-3.8 0-5.6-.2-8.8-1-3.2-.7-4.7-1.7-7-2.8-2.4-1.2-3.2-1.9-4.8-2.9-1.6-1-2.4-1.9-3.4-2-.9-.3-1.4.1-1.2 1.1.2 1 .8 2.2 2.2 3.8 1.5 1.6 2.4 2.8 5 4.2 2.7 1.3 4.7 2 8.3 2.6 3.6.7 5.6.7 9.7.7s6.6 0 10.8-.6c4.3-.7 6.4-1.4 10.4-2.7 4-1.3 6.3-2 9.6-4 3.3-1.9 5-3.1 7-5.7a12 12 0 0 0 2.8-7.2c.3-3 0-4.6-1.4-7.6-1.5-3-3-4.5-6-7.5-3.1-3-5.2-4.5-9.4-7.7-4.3-3.2-7-5-11.8-8.3l-12.3-8.6c-4.7-3.3-7.3-5-11.3-8.4-4-3.4-6-5.2-9-8.5-2.7-3.3-3.8-5-5.1-8-1.4-3.1-1.6-4.5-1.4-7.4 0-3 .5-4.5 2-7.4 1.4-2.9 2.7-4.4 5.3-7a41 41 0 0 1 7.8-6c3.3-2.2 5.2-3.4 8.7-4.7 3.4-1.3 5.5-1.6 8.7-1.8 3.2-.1 4.7.4 7.2.8 2.6.4 3.6.9 5.4 1.2 1.9.4 2.8 1 3.8.7.9-.2 1.4-.9 1-1.9M899.3 261.5c-.6.6-.8 1-1.1 3-.4 2-.5 3.3-.5 6.9 0 3.5.3 5.9.3 10.9s-.1 8-.4 14.2c-.3 6.2-.4 9.6-1 16.7-.6 7.2-1 11-2 19l-2.6 20.4c-1 8.3-1.6 12.6-3 21-1.2 8.3-2 12.6-3.5 20.7l-3.4 19.8-2.6 16.9c-1 5.8-1.8 8.6-1.7 12.1 0 3.5.5 4.8 1.8 5.4 1.3.6 2.8 0 4.5-2.1 1.8-2.2 2.3-4.5 4.2-8.8 1.9-4.2 3-7.2 5.4-12.4 2.4-5 3.7-8 6.6-13.3a155.6 155.6 0 0 1 17-25.4 92 92 0 0 1 18.7-18c3.7-2.5 5.8-3.4 9-4.4 3.3-1 4.6-1 7-.6 2.5.4 3.4.8 5.2 2.6 1.9 1.9 2.9 3.1 4.1 6.6 1.3 3.6 1.8 6 2.2 11a148.7 148.7 0 0 1-1.8 30.4c-1 6.5-2 10-3.4 16.5-1.4 6.4-2.4 9.8-3.7 15.8l-3 14c-1 5-1.5 7.4-1.9 11-.4 3.5-.4 5.3 0 6.6.2 1.4.9 1.5 1.5.2.6-1.2.9-3 1.5-6.4l1.6-10.9c.9-5 1.4-8 2.7-14 1.2-6 2.1-9.3 3.5-15.8s2.4-10.1 3.5-16.7c1-6.6 1.4-10 2-16.3.5-6.2.8-9.3.5-14.6-.2-5.3-.4-7.9-1.7-12-1.3-4-2.4-5.8-4.8-8.2a11.4 11.4 0 0 0-7.3-3.7c-3.2-.5-5 0-8.7 1.2a34.1 34.1 0 0 0-9.7 5.2 105.2 105.2 0 0 0-19 19 203.4 203.4 0 0 0-17.2 25.7c-3.1 5.2-4.6 8-7.3 13.2l-6 12-4 8.5c-1 2.3-.6 3.5-.6 3.3 0-.3.4-1.2.7-4.4.3-3.3.3-6.2 1-12 .6-5.8 1-9.5 2.1-16.9 1.1-7.3 2-11.7 3.3-19.8l3.5-20.8 3-21 2.8-20.4a696 696 0 0 0 2.2-19c.7-7 .9-10.5 1.4-16.7l1.2-14.3c.5-5 .8-7.3 1-10.9.2-3.6.3-4.9 0-6.9-.2-2-.6-2.5-1.3-3.2-.6-.6-1.2-.5-1.8 0" style="stroke:#000;fill:#000"/></svg>