<svg xmlns="http://www.w3.org/2000/svg" id="canvas" viewBox="372.024 257.991 597.600 224.121"><path d="M 376.36,362.27 C 377.63 362.32, 379.23 361.96, 381.66 360.67 C 384.08 359.37, 385.29 358.07, 388.46 355.78 C 391.64 353.50, 393.91 352.07, 397.55 349.23 C 401.18 346.38, 402.95 344.83, 406.64 341.57 C 410.33 338.31, 412.26 336.38, 416.00 332.92 C 419.74 329.45, 421.85 327.92, 425.35 324.26 C 428.84 320.61, 430.47 318.51, 433.49 314.64 C 436.51 310.78, 437.89 308.74, 440.45 304.93 C 443.01 301.13, 444.27 299.26, 446.29 295.60 C 448.31 291.95, 449.28 290.00, 450.55 286.67 C 451.83 283.33, 452.51 281.46, 452.66 278.91 C 452.81 276.37, 452.33 275.13, 451.30 273.93 C 450.27 272.73, 449.20 272.50, 447.50 272.92 C 445.79 273.34, 444.51 273.89, 442.78 276.04 C 441.05 278.18, 440.54 280.05, 438.84 283.65 C 437.15 287.25, 436.25 289.40, 434.30 294.05 C 432.36 298.71, 431.23 301.29, 429.11 306.94 C 426.98 312.59, 425.92 315.83, 423.67 322.29 C 421.42 328.74, 420.16 332.18, 417.87 339.22 C 415.57 346.27, 414.39 350.12, 412.19 357.52 C 409.99 364.91, 408.88 368.83, 406.88 376.18 C 404.88 383.53, 403.77 387.27, 402.18 394.26 C 400.60 401.25, 399.99 404.81, 398.94 411.15 C 397.89 417.48, 397.40 420.52, 396.94 425.94 C 396.48 431.36, 396.23 433.87, 396.64 438.26 C 397.04 442.65, 397.39 444.71, 398.97 447.89 C 400.54 451.06, 401.67 452.35, 404.52 454.13 C 407.37 455.90, 409.29 456.36, 413.23 456.76 C 417.16 457.17, 419.50 456.89, 424.21 456.15 C 428.91 455.40, 431.56 454.53, 436.74 453.02 C 441.93 451.51, 444.87 450.50, 450.12 448.61 C 455.38 446.72, 458.21 445.56, 463.03 443.57 C 467.84 441.58, 470.30 440.41, 474.20 438.66 C 478.11 436.91, 479.94 436.28, 482.53 434.81 C 485.12 433.34, 485.77 432.55, 487.15 431.31 C 488.54 430.07, 488.91 429.54, 489.45 428.59 C 489.99 427.65, 489.87 427.20, 489.85 426.57 C 489.82 425.93, 489.69 425.62, 489.33 425.42 C 488.98 425.22, 488.38 425.41, 488.07 425.57 C 487.75 425.72, 487.94 425.96, 487.77 426.21 C 487.59 426.46, 487.75 426.37, 487.19 426.83 C 486.63 427.29, 486.31 427.62, 484.97 428.50 C 483.62 429.39, 482.91 429.80, 480.47 431.24 C 478.03 432.67, 476.48 433.76, 472.77 435.69 C 469.05 437.61, 466.61 438.83, 461.89 440.88 C 457.17 442.93, 454.36 444.09, 449.17 445.93 C 443.97 447.77, 441.01 448.73, 435.92 450.10 C 430.83 451.47, 428.18 452.19, 423.71 452.78 C 419.25 453.37, 417.07 453.43, 413.62 453.05 C 410.17 452.68, 408.79 452.24, 406.47 450.89 C 404.16 449.54, 403.43 448.90, 402.05 446.30 C 400.68 443.71, 400.11 441.97, 399.58 437.93 C 399.06 433.89, 399.13 431.41, 399.43 426.12 C 399.73 420.83, 400.16 417.77, 401.10 411.49 C 402.05 405.21, 402.62 401.66, 404.16 394.70 C 405.69 387.74, 406.78 384.01, 408.77 376.69 C 410.75 369.37, 411.86 365.44, 414.08 358.08 C 416.29 350.72, 417.49 346.88, 419.84 339.88 C 422.20 332.87, 423.49 329.45, 425.83 323.06 C 428.18 316.67, 429.29 313.45, 431.59 307.92 C 433.89 302.40, 435.07 299.87, 437.32 295.44 C 439.56 291.01, 440.82 289.03, 442.80 285.77 C 444.78 282.52, 445.98 281.24, 447.22 279.18 C 448.46 277.12, 448.60 276.31, 449.01 275.46 C 449.43 274.62, 449.43 274.39, 449.29 274.95 C 449.16 275.52, 448.86 276.22, 448.34 278.29 C 447.82 280.36, 447.73 282.16, 446.71 285.31 C 445.69 288.45, 445.02 290.42, 443.25 294.01 C 441.47 297.59, 440.25 299.45, 437.83 303.21 C 435.41 306.97, 434.06 309.01, 431.14 312.82 C 428.22 316.62, 426.66 318.65, 423.23 322.24 C 419.80 325.82, 417.73 327.35, 414.00 330.73 C 410.27 334.11, 408.30 336.04, 404.57 339.16 C 400.84 342.27, 399.07 343.68, 395.36 346.29 C 391.66 348.90, 389.28 350.13, 386.04 352.23 C 382.79 354.32, 381.30 355.11, 379.14 356.75 C 376.99 358.38, 375.84 359.29, 375.28 360.40 C 374.72 361.50, 375.08 362.22, 376.36 362.27" style="stroke: black; fill: black;"/><path d="M 497.04,356.41 C 496.31 357.13, 495.97 358.16, 495.46 360.19 C 494.95 362.22, 494.68 363.46, 494.47 366.56 C 494.27 369.65, 494.50 371.78, 494.43 375.68 C 494.36 379.57, 494.18 381.67, 494.13 386.02 C 494.09 390.37, 494.06 392.76, 494.22 397.43 C 494.39 402.11, 494.55 404.61, 494.96 409.39 C 495.37 414.18, 495.49 416.71, 496.29 421.35 C 497.09 425.99, 497.59 428.37, 498.96 432.59 C 500.33 436.80, 501.27 438.93, 503.15 442.41 C 505.03 445.88, 506.03 447.47, 508.36 449.97 C 510.70 452.48, 512.03 453.75, 514.82 454.94 C 517.60 456.13, 519.32 456.33, 522.27 455.93 C 525.23 455.53, 526.71 454.89, 529.59 452.94 C 532.46 450.98, 533.84 449.57, 536.65 446.14 C 539.45 442.71, 540.91 440.37, 543.61 435.76 C 546.31 431.16, 547.57 428.47, 550.16 423.12 C 552.75 417.77, 554.11 414.79, 556.54 409.02 C 558.96 403.24, 560.13 400.07, 562.28 394.26 C 564.42 388.44, 565.50 385.29, 567.27 379.95 C 569.03 374.60, 569.76 372.12, 571.11 367.52 C 572.46 362.92, 573.18 360.67, 574.01 356.96 C 574.85 353.25, 575.43 351.08, 575.26 348.96 C 575.10 346.83, 574.06 346.19, 573.21 346.35 C 572.35 346.51, 571.59 347.19, 570.98 349.75 C 570.36 352.32, 570.53 354.54, 570.14 359.20 C 569.74 363.87, 569.51 367.01, 569.01 373.08 C 568.51 379.15, 568.21 382.91, 567.63 389.54 C 567.05 396.17, 566.58 399.58, 566.11 406.24 C 565.64 412.90, 565.44 416.51, 565.27 422.83 C 565.10 429.15, 565.11 432.45, 565.28 437.86 C 565.45 443.26, 565.43 445.86, 566.12 449.85 C 566.81 453.85, 567.43 455.71, 568.73 457.83 C 570.04 459.95, 571.68 460.12, 572.65 460.45 C 573.62 460.78, 573.80 460.29, 573.57 459.48 C 573.34 458.67, 572.34 458.44, 571.49 456.40 C 570.64 454.36, 570.03 453.00, 569.32 449.27 C 568.60 445.54, 568.26 443.01, 567.92 437.73 C 567.58 432.45, 567.53 429.14, 567.62 422.88 C 567.71 416.61, 567.90 413.02, 568.39 406.40 C 568.88 399.79, 569.36 396.38, 570.08 389.78 C 570.80 383.18, 571.19 379.42, 571.98 373.40 C 572.77 367.37, 573.34 364.29, 574.03 359.66 C 574.73 355.02, 575.54 352.86, 575.46 350.22 C 575.39 347.58, 574.41 346.81, 573.67 346.47 C 572.94 346.13, 572.44 346.59, 571.79 348.54 C 571.14 350.49, 571.12 352.57, 570.43 356.22 C 569.74 359.86, 569.45 362.18, 568.33 366.77 C 567.21 371.36, 566.49 373.83, 564.82 379.16 C 563.15 384.49, 562.09 387.63, 559.97 393.41 C 557.86 399.19, 556.70 402.35, 554.26 408.05 C 551.81 413.75, 550.41 416.71, 547.75 421.93 C 545.09 427.14, 543.74 429.78, 540.96 434.14 C 538.18 438.51, 536.60 440.70, 533.85 443.75 C 531.10 446.79, 529.65 447.79, 527.21 449.38 C 524.78 450.97, 523.81 451.37, 521.67 451.69 C 519.53 452.02, 518.59 451.92, 516.52 451.01 C 514.45 450.10, 513.36 449.23, 511.32 447.15 C 509.28 445.08, 508.15 443.75, 506.31 440.62 C 504.47 437.50, 503.49 435.49, 502.11 431.53 C 500.73 427.56, 500.21 425.28, 499.42 420.80 C 498.62 416.32, 498.50 413.82, 498.12 409.13 C 497.74 404.44, 497.59 401.95, 497.52 397.35 C 497.46 392.75, 497.55 390.43, 497.81 386.15 C 498.07 381.87, 498.41 379.79, 498.81 375.94 C 499.22 372.10, 499.59 370.00, 499.82 366.94 C 500.06 363.87, 500.12 362.67, 499.98 360.61 C 499.85 358.55, 499.74 357.46, 499.16 356.62 C 498.57 355.78, 497.78 355.70, 497.04 356.41" style="stroke: black; fill: black;"/><path d="M 609.48,359.81 C 608.85 360.64, 608.59 361.64, 608.33 363.94 C 608.07 366.25, 608.29 367.51, 608.18 371.33 C 608.08 375.14, 608.03 377.91, 607.81 383.03 C 607.60 388.14, 607.50 391.23, 607.12 396.91 C 606.73 402.59, 606.38 405.69, 605.88 411.44 C 605.39 417.20, 605.04 420.46, 604.63 425.68 C 604.22 430.90, 603.79 433.71, 603.83 437.56 C 603.88 441.42, 603.93 443.15, 604.87 444.95 C 605.81 446.74, 606.92 447.23, 608.53 446.54 C 610.14 445.84, 611.27 444.70, 612.91 441.47 C 614.55 438.23, 615.03 435.53, 616.72 430.37 C 618.42 425.21, 619.36 421.76, 621.40 415.67 C 623.43 409.58, 624.54 406.14, 626.91 399.92 C 629.28 393.70, 630.50 390.49, 633.23 384.57 C 635.97 378.66, 637.53 375.54, 640.59 370.35 C 643.65 365.16, 645.33 362.58, 648.51 358.63 C 651.69 354.67, 653.48 352.97, 656.48 350.58 C 659.48 348.19, 661.17 347.52, 663.50 346.66 C 665.83 345.80, 666.53 345.59, 668.13 346.27 C 669.73 346.94, 670.22 347.69, 671.49 350.03 C 672.75 352.37, 673.59 353.99, 674.47 357.97 C 675.34 361.95, 675.59 364.62, 675.86 369.93 C 676.13 375.23, 676.07 378.40, 675.81 384.50 C 675.55 390.60, 675.11 394.08, 674.56 400.43 C 674.02 406.78, 673.68 410.22, 673.07 416.27 C 672.46 422.32, 672.01 425.66, 671.53 430.69 C 671.06 435.72, 670.70 437.88, 670.68 441.41 C 670.66 444.94, 670.97 446.31, 671.42 448.33 C 671.87 450.36, 672.38 450.94, 672.93 451.54 C 673.47 452.13, 673.85 452.00, 674.13 451.30 C 674.42 450.59, 674.33 449.99, 674.35 448.01 C 674.36 446.04, 674.20 444.84, 674.20 441.42 C 674.20 438.00, 674.07 435.88, 674.34 430.90 C 674.62 425.92, 675.03 422.56, 675.57 416.51 C 676.10 410.46, 676.43 407.02, 677.00 400.64 C 677.58 394.27, 678.06 390.80, 678.45 384.64 C 678.84 378.48, 679.00 375.31, 678.93 369.83 C 678.87 364.35, 678.87 361.65, 678.12 357.26 C 677.37 352.88, 676.91 350.74, 675.16 347.89 C 673.42 345.05, 671.99 344.01, 669.40 343.04 C 666.81 342.07, 665.21 342.01, 662.21 343.04 C 659.22 344.06, 657.60 345.36, 654.44 348.15 C 651.28 350.94, 649.59 352.79, 646.41 356.99 C 643.23 361.19, 641.58 363.83, 638.53 369.15 C 635.48 374.48, 633.94 377.64, 631.17 383.62 C 628.41 389.60, 627.19 392.84, 624.72 399.07 C 622.25 405.30, 621.10 408.74, 618.84 414.76 C 616.59 420.79, 615.42 424.20, 613.46 429.19 C 611.49 434.18, 610.27 436.56, 609.01 439.71 C 607.76 442.85, 607.51 444.02, 607.19 444.93 C 606.87 445.84, 607.37 445.73, 607.42 444.26 C 607.47 442.78, 607.42 441.23, 607.45 437.55 C 607.47 433.88, 607.32 431.03, 607.55 425.86 C 607.77 420.68, 608.09 417.42, 608.59 411.68 C 609.08 405.93, 609.47 402.83, 610.01 397.14 C 610.55 391.46, 610.77 388.39, 611.27 383.27 C 611.77 378.15, 612.24 375.40, 612.52 371.54 C 612.80 367.69, 612.88 366.35, 612.67 364.00 C 612.47 361.65, 612.15 360.64, 611.51 359.81 C 610.88 358.97, 610.12 358.98, 609.48 359.81" style="stroke: black; fill: black;"/><path d="M 746.04,357.58 C 747.07 357.35, 747.99 356.58, 749.38 355.17 C 750.77 353.76, 751.76 352.69, 752.99 350.56 C 754.22 348.42, 755.01 346.83, 755.53 344.48 C 756.05 342.13, 756.06 340.87, 755.58 338.79 C 755.09 336.72, 754.65 335.54, 753.11 334.11 C 751.58 332.68, 750.42 332.00, 747.90 331.64 C 745.38 331.27, 743.67 331.17, 740.49 332.27 C 737.32 333.38, 735.68 334.56, 732.02 337.16 C 728.36 339.76, 726.23 341.40, 722.19 345.27 C 718.15 349.15, 715.82 351.45, 711.82 356.55 C 707.83 361.64, 705.79 364.73, 702.20 370.75 C 698.61 376.78, 696.75 380.30, 693.86 386.66 C 690.97 393.01, 689.63 396.40, 687.76 402.53 C 685.88 408.66, 685.11 411.88, 684.49 417.32 C 683.88 422.76, 683.94 425.49, 684.69 429.73 C 685.44 433.98, 686.16 435.88, 688.22 438.55 C 690.29 441.22, 691.89 442.39, 695.01 443.09 C 698.13 443.78, 700.21 443.47, 703.83 442.04 C 707.45 440.61, 709.26 439.18, 713.09 435.94 C 716.92 432.69, 719.03 430.57, 722.97 425.81 C 726.91 421.05, 728.99 418.15, 732.80 412.15 C 736.60 406.15, 738.53 402.49, 742.00 395.80 C 745.47 389.11, 747.18 385.46, 750.15 378.71 C 753.12 371.95, 754.57 368.16, 756.85 362.02 C 759.13 355.89, 760.16 352.89, 761.54 348.02 C 762.93 343.16, 763.68 340.61, 763.76 337.70 C 763.84 334.78, 763.07 333.65, 761.96 333.45 C 760.85 333.24, 759.50 333.79, 758.21 336.69 C 756.93 339.58, 756.54 342.25, 755.53 347.91 C 754.52 353.56, 754.05 357.66, 753.16 364.95 C 752.27 372.24, 751.77 376.49, 751.08 384.35 C 750.40 392.20, 750.01 396.60, 749.73 404.22 C 749.45 411.84, 749.18 415.85, 749.68 422.45 C 750.18 429.05, 750.78 432.20, 752.24 437.21 C 753.70 442.23, 754.89 444.26, 756.96 447.51 C 759.04 450.75, 760.51 452.00, 762.62 453.45 C 764.73 454.89, 766.40 454.74, 767.50 454.72 C 768.60 454.70, 768.70 454.10, 768.12 453.33 C 767.55 452.56, 766.32 452.39, 764.63 450.87 C 762.93 449.35, 761.63 448.61, 759.64 445.73 C 757.64 442.85, 756.21 441.16, 754.65 436.47 C 753.09 431.77, 752.42 428.71, 751.84 422.27 C 751.25 415.84, 751.48 411.84, 751.74 404.29 C 752.01 396.75, 752.39 392.34, 753.17 384.54 C 753.95 376.74, 754.54 372.49, 755.64 365.29 C 756.75 358.09, 757.45 354.03, 758.70 348.55 C 759.94 343.07, 761.24 340.81, 761.88 337.91 C 762.52 335.00, 762.24 334.14, 761.91 334.02 C 761.58 333.89, 760.84 334.60, 760.24 337.26 C 759.63 339.93, 759.98 342.54, 758.88 347.34 C 757.79 352.14, 756.88 355.16, 754.75 361.27 C 752.62 367.37, 751.17 371.16, 748.25 377.88 C 745.33 384.59, 743.62 388.22, 740.15 394.83 C 736.68 401.44, 734.71 405.06, 730.87 410.91 C 727.03 416.76, 724.91 419.58, 720.95 424.08 C 716.98 428.59, 714.75 430.54, 711.05 433.44 C 707.35 436.33, 705.51 437.36, 702.46 438.54 C 699.41 439.71, 698.09 439.74, 695.81 439.31 C 693.52 438.87, 692.66 438.37, 691.03 436.34 C 689.40 434.31, 688.46 432.91, 687.66 429.16 C 686.87 425.41, 686.58 422.77, 687.04 417.57 C 687.50 412.38, 688.18 409.19, 689.95 403.18 C 691.71 397.18, 693.03 393.82, 695.87 387.57 C 698.70 381.32, 700.56 377.81, 704.14 371.92 C 707.73 366.04, 709.77 363.01, 713.78 358.12 C 717.80 353.23, 720.15 351.03, 724.21 347.48 C 728.27 343.92, 730.52 342.43, 734.08 340.33 C 737.64 338.23, 739.33 337.76, 742.01 336.98 C 744.69 336.19, 745.76 336.39, 747.47 336.40 C 749.18 336.42, 749.78 336.45, 750.56 337.04 C 751.34 337.62, 751.44 338.18, 751.36 339.32 C 751.28 340.46, 750.92 341.10, 750.15 342.75 C 749.38 344.39, 748.50 345.62, 747.50 347.56 C 746.51 349.49, 745.82 350.68, 745.16 352.43 C 744.50 354.19, 744.03 355.30, 744.20 356.33 C 744.38 357.36, 745.00 357.82, 746.04 357.58" style="stroke: black; fill: black;"/><path d="M 841.31,340.15 C 840.93 339.15, 840.17 338.14, 838.31 337.00 C 836.46 335.87, 835.03 334.95, 832.04 334.47 C 829.04 333.99, 827.02 334.03, 823.35 334.59 C 819.68 335.16, 817.45 335.69, 813.67 337.28 C 809.88 338.87, 807.95 340.18, 804.43 342.54 C 800.91 344.90, 798.96 346.18, 796.06 349.09 C 793.16 352.00, 791.65 353.69, 789.94 357.08 C 788.23 360.47, 787.62 362.42, 787.51 366.02 C 787.40 369.62, 787.79 371.51, 789.39 375.07 C 790.98 378.63, 792.35 380.36, 795.47 383.83 C 798.59 387.29, 800.76 389.01, 804.99 392.40 C 809.22 395.79, 811.83 397.40, 816.64 400.77 C 821.45 404.13, 824.25 405.86, 829.03 409.23 C 833.82 412.59, 836.48 414.38, 840.56 417.59 C 844.64 420.80, 846.67 422.36, 849.43 425.27 C 852.19 428.18, 853.19 429.65, 854.37 432.16 C 855.54 434.66, 855.63 435.68, 855.31 437.78 C 854.99 439.87, 854.41 440.69, 852.76 442.63 C 851.11 444.58, 849.92 445.75, 847.06 447.50 C 844.19 449.25, 842.09 450.06, 838.43 451.39 C 834.76 452.71, 832.71 453.46, 828.73 454.12 C 824.75 454.79, 822.35 454.79, 818.54 454.72 C 814.72 454.65, 812.85 454.54, 809.67 453.77 C 806.48 453.00, 804.98 452.01, 802.63 450.86 C 800.28 449.72, 799.53 449.03, 797.91 448.04 C 796.29 447.05, 795.46 446.11, 794.53 445.93 C 793.61 445.74, 793.09 446.11, 793.28 447.11 C 793.48 448.10, 794.06 449.30, 795.50 450.90 C 796.95 452.50, 797.85 453.72, 800.51 455.09 C 803.18 456.45, 805.23 457.06, 808.82 457.73 C 812.42 458.40, 814.40 458.43, 818.50 458.44 C 822.60 458.45, 825.08 458.46, 829.33 457.79 C 833.57 457.12, 835.73 456.43, 839.71 455.11 C 843.70 453.78, 845.96 453.12, 849.26 451.18 C 852.56 449.24, 854.25 447.99, 856.23 445.40 C 858.20 442.82, 858.83 441.21, 859.13 438.24 C 859.42 435.27, 859.19 433.59, 857.70 430.55 C 856.21 427.52, 854.77 426.09, 851.68 423.06 C 848.59 420.03, 846.48 418.59, 842.26 415.39 C 838.03 412.19, 835.36 410.43, 830.55 407.06 C 825.74 403.70, 822.94 401.95, 818.21 398.55 C 813.47 395.16, 810.92 393.48, 806.88 390.09 C 802.83 386.70, 800.81 384.92, 797.98 381.62 C 795.16 378.32, 794.07 376.69, 792.75 373.59 C 791.42 370.50, 791.24 369.11, 791.36 366.16 C 791.48 363.20, 791.89 361.70, 793.37 358.82 C 794.84 355.94, 796.09 354.37, 798.72 351.75 C 801.35 349.12, 803.24 347.84, 806.52 345.71 C 809.81 343.57, 811.70 342.36, 815.16 341.08 C 818.63 339.81, 820.68 339.53, 823.87 339.34 C 827.06 339.16, 828.60 339.75, 831.13 340.14 C 833.67 340.54, 834.71 340.96, 836.53 341.33 C 838.36 341.71, 839.29 342.25, 840.25 342.02 C 841.20 341.78, 841.70 341.15, 841.31 340.15" style="stroke: black; fill: black;"/><path d="M 899.29,261.48 C 898.70 262.10, 898.47 262.57, 898.15 264.54 C 897.83 266.51, 897.73 267.80, 897.69 271.35 C 897.66 274.90, 898.00 277.25, 897.98 282.28 C 897.95 287.31, 897.85 290.30, 897.57 296.49 C 897.29 302.69, 897.16 306.12, 896.58 313.24 C 895.99 320.37, 895.57 324.25, 894.66 332.12 C 893.75 339.99, 893.15 344.33, 892.03 352.61 C 890.91 360.89, 890.36 365.18, 889.07 373.52 C 887.77 381.86, 886.95 386.18, 885.55 394.30 C 884.16 402.42, 883.30 406.79, 882.08 414.13 C 880.86 421.47, 880.31 425.20, 879.45 431.00 C 878.59 436.80, 877.75 439.63, 877.78 443.13 C 877.81 446.64, 878.34 447.87, 879.60 448.51 C 880.87 449.15, 882.38 448.53, 884.12 446.36 C 885.85 444.18, 886.37 441.85, 888.28 437.63 C 890.18 433.41, 891.25 430.39, 893.66 425.25 C 896.07 420.11, 897.42 417.22, 900.32 411.94 C 903.23 406.66, 904.83 403.94, 908.21 398.85 C 911.58 393.76, 913.56 391.01, 917.21 386.48 C 920.86 381.94, 922.69 379.77, 926.44 376.16 C 930.19 372.55, 932.23 370.85, 935.95 368.43 C 939.67 366.02, 941.83 365.07, 945.05 364.08 C 948.26 363.08, 949.61 363.05, 952.04 363.46 C 954.48 363.86, 955.35 364.26, 957.21 366.12 C 959.06 367.98, 960.08 369.24, 961.33 372.74 C 962.57 376.25, 963.05 378.62, 963.45 383.65 C 963.85 388.69, 963.69 391.86, 963.32 397.93 C 962.95 404.00, 962.62 407.50, 961.61 414.03 C 960.61 420.56, 959.70 424.11, 958.29 430.58 C 956.89 437.04, 955.94 440.38, 954.61 446.35 C 953.27 452.32, 952.57 455.41, 951.60 460.42 C 950.63 465.42, 950.15 467.84, 949.75 471.36 C 949.35 474.88, 949.32 476.65, 949.61 478.03 C 949.89 479.40, 950.57 479.47, 951.19 478.23 C 951.80 476.98, 952.08 475.26, 952.71 471.79 C 953.33 468.33, 953.47 465.90, 954.32 460.91 C 955.17 455.92, 955.71 452.83, 956.95 446.86 C 958.20 440.89, 959.14 437.55, 960.54 431.06 C 961.94 424.57, 962.88 420.99, 963.97 414.40 C 965.05 407.81, 965.44 404.31, 965.96 398.12 C 966.48 391.93, 966.78 388.77, 966.54 383.46 C 966.30 378.16, 966.07 375.61, 964.76 371.58 C 963.45 367.55, 962.40 365.71, 959.98 363.32 C 957.56 360.94, 955.87 360.15, 952.66 359.65 C 949.46 359.14, 947.64 359.52, 943.97 360.79 C 940.29 362.05, 938.16 363.26, 934.29 365.96 C 930.41 368.65, 928.39 370.47, 924.58 374.26 C 920.78 378.06, 918.95 380.28, 915.26 384.92 C 911.58 389.57, 909.61 392.34, 906.16 397.49 C 902.72 402.63, 901.11 405.38, 898.05 410.65 C 894.98 415.92, 893.49 418.78, 890.84 423.85 C 888.19 428.91, 886.79 431.87, 884.78 435.99 C 882.78 440.10, 881.72 442.08, 880.81 444.41 C 879.89 446.74, 880.18 447.89, 880.20 447.66 C 880.21 447.43, 880.56 446.54, 880.88 443.27 C 881.21 440.00, 881.20 437.07, 881.82 431.30 C 882.45 425.54, 882.92 421.78, 884.02 414.44 C 885.12 407.10, 885.97 402.73, 887.33 394.60 C 888.69 386.47, 889.51 382.14, 890.81 373.79 C 892.11 365.44, 892.67 361.14, 893.83 352.86 C 894.99 344.57, 895.62 340.24, 896.61 332.35 C 897.59 324.47, 898.05 320.58, 898.77 313.45 C 899.49 306.31, 899.69 302.87, 900.22 296.67 C 900.75 290.46, 901.00 287.47, 901.44 282.44 C 901.87 277.40, 902.20 275.07, 902.39 271.50 C 902.59 267.94, 902.67 266.63, 902.41 264.61 C 902.16 262.60, 901.75 262.07, 901.13 261.44 C 900.51 260.81, 899.89 260.86, 899.29 261.48" style="stroke: black; fill: black;"/></svg>