<svg xmlns="http://www.w3.org/2000/svg" xmlns:xlink="http://www.w3.org/1999/xlink" version="1.1" id="Layer_1" x="0px" y="0px" viewBox="0 0 800 450" enable-background="new 0 0 800 450" xml:space="preserve">
<path opacity="0.68" fill="#CFE7FF" d="M110.28,296c27.781,54.473,76.206,76.292,98.64,86.4c15.608,7.033,66.365,29.134,126,18.36  c36.386-6.574,46.142-19.978,83.188-21.011c35.746-0.997,55.572,10.678,78.483,17.061c70.714,19.702,179.507-8.579,222.809-84.61  c23.543-41.337,27.712-96.763,6.48-144.72c-1.413-3.192-33.545-72.86-104.578-90.771c-80.501-20.298-107.714,51.915-205.26,49.682  C320.933,124.214,300.062,54.498,218.28,69.2c-46.328,8.328-96.311,40.89-117.72,92.88C74.391,225.63,104.626,284.914,110.28,296z"/>
<g>
	<polygon fill="#EFB68F" points="449.05,277.329 440.155,274.146 435.495,282.835 445.238,287.918  "/>
	<path fill="#FFBE55" d="M539.784,206.006c0,0-39.574,12.697-42.352,85.172c0,0-28.348-14.495-51.444-16.088l-7.084,13.583   c0,0,44.098,33.516,70.822,37.513c0,0,19.453-14.35,24.729-57.708"/>
	<path opacity="0.07" d="M539.784,206.006c0,0-39.574,12.697-42.352,85.172c0,0-28.348-14.495-51.444-16.088l-7.084,13.583   c0,0,44.098,33.516,70.822,37.513c0,0,19.453-14.35,24.729-57.708"/>
	<path fill="#EFB68F" d="M440.155,274.146c0,0,1.694-20.114-4.659-20.114s-1.694,6.354-1.694,6.354s-4.659-11.437-16.52-9.743   c-11.861,1.694-6.777,20.332,18.214,32.193L440.155,274.146z"/>
	<path fill="#FFBE55" d="M568.986,203.76c0,0-10.265,8.786-29.202,2.246c0,0-28.232,23.145-25.646,52.924   c2.587,29.779,6.757,73.758-7.225,140.878c0,0,31.047,5.632,77.635,0c0,0,6.03-98.124,10.985-111.889   C600.489,274.153,608.63,220.089,568.986,203.76z"/>
	<polygon fill="#EFB68F" points="587.131,397.739 583.961,408.945 572.346,401.273 576.628,390.671  "/>
	<path fill="#0B4870" d="M570.46,182.846c0,0,0.762-8.087,5.781-13.226s0.12-32.002-5.194-40.584   C571.047,129.036,563.686,180.546,570.46,182.846z"/>
	<path fill="#E5AB83" d="M544.374,164.976c1.665-3.552,5.487-10.82,13.148-13.316c4.834-1.575,9.595-0.593,12.714,2.023   c0.642,11.747,0.685,24.676-0.28,38.584c-0.45,6.49-1.087,12.711-1.86,18.647c-4.998,1.34-11.011,2.526-17.868,3.035   c-4.171,0.31-8.034,0.323-11.522,0.164c0.575-3.454,1.378-8.86,1.941-15.526C542.209,180.089,540.04,174.221,544.374,164.976z"/>
	<path fill="#EFB68F" d="M565.707,129.745c-9.641-15.072-32.608-15.119-42.706,1.051c-9.259,14.781-5.322,49.303,1.021,56.413   c15.98,17.913,35.625,2.191,39.991-6.454C570.415,168.111,573.806,142.439,565.707,129.745z"/>
	<path fill="#EFB68F" d="M579.515,162.092c-0.586,3.64-2.561,6.912-5.509,9.127c-8.379,6.182-12.056-5.986-8.891-12.224   C568.879,151.562,581.067,152.318,579.515,162.092z"/>
	<path fill="#0B4870" d="M553.585,138.484c0,0,15.098,3.627,11.035,22.845h4.97c0,0,0.062-7.398,6.584-7.173   c0,0,1.702-26.189-12.142-30.623L553.585,138.484z"/>
	<path fill="#0B4870" d="M553.585,138.484c0,0-18.33-9.071-31.268-0.325c-1.564-0.159-5.189-0.761-8.194-3.617   c-4.001-3.803-5.263-10.044-3.307-15.991c0,0,2.731,0.675,6.218,1.012c4.922,0.476,8.616-0.547,10.746-1.012   c4.619-1.007,13.231-2.885,19.552-2.411c4.163,0.312,9.95,1.841,16.701,7.392c2.131,3.146,2.351,7.181,0.55,10.363   C562.478,137.612,557.974,139.534,553.585,138.484z"/>
	<path fill="#0B4870" d="M522.317,138.159c0,0-3.819,6.686-4.785,19.936c0,0-1.51-20.277,2.931-21.915   C524.904,134.542,522.317,138.159,522.317,138.159z"/>
	<path fill="#FFBE55" d="M568.986,203.76c0,0,52.955,1.369,48.645,65.88s-5.903,58.139-5.903,58.139s-15.722,58.994-22.823,72.741   l-13.423-9.034c0,0,9.168-66.096,10.761-70.875c0,0-5.906-43.803-2.953-50.971C583.288,269.64,567.798,217.339,568.986,203.76z"/>
	<path opacity="0.07" d="M568.986,203.76c0,0,52.955,1.369,48.645,65.88s-5.903,58.139-5.903,58.139s-15.722,58.994-22.823,72.741   l-13.423-9.034c0,0,9.168-66.096,10.761-70.875c0,0-5.906-43.803-2.953-50.971C583.288,269.64,567.798,217.339,568.986,203.76z"/>
	<path fill="#0B4870" d="M520.138,240.562"/>
	<path fill="#EFB68F" d="M583.961,408.945c0,0-0.931,15.848-19.693,21.308c0,0-10.601-1.242,2.294-18.664   c0,0-15.621,3.494,5.785-10.315C572.346,401.273,582.211,401.834,583.961,408.945z"/>
	<path fill="#FFBE55" d="M568.986,203.76c0,0-16.636,9.494-29.202,2.246c0,0-34.7,17.952-25.58,44.465   c0,0,2.608,53.242,2.298,61.044l66.787-41.875c0,0-4.952-37.255,16.477-53.47C599.766,216.17,588.1,205.223,568.986,203.76z"/>
</g>
<g>
	<path fill="#F4B99F" d="M351.341,260.435l1.92-5.711c0,0-4.477-5.661-4.477-13.616s3.84-1.02,3.84-1.02s-1.2-10.582,1.68-14.163   s2.4,8.236,2.4,8.236s14.402,0.42,9.841,10.823c0,0-2.64,8.158-5.521,11.014l-2.914,6.935L351.341,260.435z"/>
	<path fill="#0E507C" d="M276.737,260.708H244.3c-2.218,0-4.016-1.798-4.016-4.016V150.868c0-11.175,9.059-20.235,20.235-20.235h0   c11.175,0,20.235,9.059,20.235,20.235v105.824C280.753,258.91,278.955,260.708,276.737,260.708z"/>
	<path fill="#FFBE55" d="M283.093,221.84c0,0,14.687,5.076,20.986,20.344c3.869,20.839,18.938,46.543,20.122,49.899   c0,0,15.552-15.309,25.8-34.787l11.876,4.111c0,0-27.949,53.166-39.121,63.069L293.57,292.29L283.093,221.84z"/>
	<path opacity="0.07" d="M283.093,221.84c0,0,14.687,5.076,20.986,20.344c3.869,20.839,18.938,46.543,20.122,49.899   c0,0,15.552-15.309,25.8-34.787l11.876,4.111c0,0-27.949,53.166-39.121,63.069L293.57,292.29L283.093,221.84z"/>
	<path fill="#E8AC97" d="M256.659,195.767c0,0,3.096,20.941,3.468,28.479c0,0,9.664,7.178,22.302,0v-20.099L256.659,195.767z"/>
	<path fill="#F4B99F" d="M245.446,170.08c0,0,1.571-14.971,13.043-23.464c2.309-1.709,9.766-7.349,19.33-5.705   c1.241,0.213,5.753,1.105,9.998,4.521c10.378,8.353,11.847,25.915,9.056,38.288c-0.546,2.423-6.025,26.476-20.598,27.511   c-11.582,0.823-20.375-11.311-22.728-14.559C245.763,185.931,245.396,174.176,245.446,170.08z"/>
	<path fill="#F4B99F" d="M249.054,170.862c-2.125-1.137-5.926,1.941-6.538,6.162c-0.873,6.024,5.202,11.27,7.402,9.907   C252.537,185.309,252.388,172.646,249.054,170.862z"/>
	<path fill="#0E538C" d="M272.014,155.215c0,0-9.978,19.355-22.479,21.803c0,0-0.77-6.41-5.97-4.238c0,0-3.513-27.097,17.439-32.422   c0,0,39.597-13.868,37.735,32.553C298.74,172.911,294.92,169.725,272.014,155.215z"/>
	<path fill="#0E538C" d="M257.899,172.911c0,0-9.969,5.508-7.071,19.456c2.897,13.948,0,21.511,0,21.511s1.832-14.37-2.43-23.446   s3.196-16.639,3.196-16.639L257.899,172.911z"/>
	<path fill="#FFBE55" d="M258.259,218.373c0,0,12.947,14.212,24.834,3.105c2.9,4.258,12.034,10.441,15.481,18.284   c3.105,7.066,8.356,19.016,8.581,33.748c0.173,11.336-2.809,12.585-5.97,31.743c-2.188,13.264-2.515,23.31-2.743,30.313   c-0.428,13.159,2.256,46.532,6.237,68.072c0,0-52.662,2.231-74.12-12.548c0,0,6.203-70.192,1.393-95.016   C227.144,271.252,210.222,231.182,258.259,218.373z"/>
	<g>
		<polygon fill="#EFB68F" points="231.414,396.62 236.643,412.853 246.37,405.969 240.306,391.945   "/>
		<path fill="#EFB68F" d="M236.643,412.853c0,0-0.646,16.339,13.805,23.057c0,0,8.544-0.649-0.192-19.313    c0,0,12.123,4.514-3.7-10.94C246.556,405.657,238.657,405.651,236.643,412.853z"/>
	</g>
	<path fill="#FFBE55" d="M234.654,233.029c0,0-29.015,3.678-14.904,126.356l8.65,43.863l16.62-6.168l-4.412-60.997   c0,0-6.358-36.456,4.412-48.726C245.02,287.357,247.667,238.26,234.654,233.029z"/>
	<path opacity="0.07" d="M234.654,233.029c0,0-29.015,3.678-14.904,126.356l8.65,43.863l16.62-6.168   c-2.047-14.92-4.094-29.84-6.142-44.76c-2.772-15.519-1.703-27.611-0.103-35.999c2.175-11.401,5.343-16.008,6.245-28.964   c0.313-4.492,0.618-13.792-1.785-25.202C240.586,249.569,238.727,239.743,234.654,233.029z"/>
</g>
</svg>