<svg xmlns="http://www.w3.org/2000/svg" xmlns:xlink="http://www.w3.org/1999/xlink" version="1.1" x="0px" y="0px" viewBox="0 0 1920 1080" enable-background="new 0 0 1920 1080" xml:space="preserve">
<g id="Background">
	<ellipse opacity="0.11" fill="#2A94F4" cx="945.337" cy="1014.722" rx="430.98" ry="58.672"/>
	<path opacity="0.11" fill="#2A94F4" d="M1403.853,684.658c5.147,126.421-118.618,411.668-480,394.61   c-340.512-16.073-677.462-287.127-486.538-714.915C621.815-49.041,953.787-14.712,1070.81,18.027   c129.393,36.199,499.042,182.841,287.573,426.905C1019.073,836.54,1393.359,426.904,1403.853,684.658z"/>
</g>
<g id="Bolt">
	<g>
		<g>
			<path fill="#FFBE55" d="M779.876,282.777l-75.416-72.52L572.569,347.416l75.409,72.513     C677.788,362.467,723.757,314.744,779.876,282.777z"/>
			<path fill="#FFBE55" d="M610.543,573.877c0-33.055,4.814-64.981,13.738-95.142H519.674v190.284h104.607     C615.357,638.859,610.543,606.932,610.543,573.877z"/>
			<path fill="#FFBE55" d="M945.337,239.083c33.055,0,64.981,4.814,95.142,13.738V148.214H850.195v104.607     C880.356,243.897,912.282,239.083,945.337,239.083z"/>
			<path fill="#FFBE55" d="M1242.696,419.929l75.409-72.513l-131.892-137.159l-75.416,72.52     C1166.917,314.744,1212.886,362.467,1242.696,419.929z"/>
			<path fill="#FFBE55" d="M1266.393,478.735c8.924,30.161,13.738,62.087,13.738,95.142c0,33.055-4.814,64.981-13.738,95.142H1371     V478.735H1266.393z"/>
			<path fill="#FFBE55" d="M1110.797,864.978l75.416,72.52l131.892-137.159l-75.409-72.513     C1212.886,785.288,1166.917,833.011,1110.797,864.978z"/>
			<path fill="#FFBE55" d="M647.978,727.825l-75.409,72.513l131.892,137.159l75.416-72.52     C723.757,833.011,677.788,785.288,647.978,727.825z"/>
			<path fill="#FFBE55" d="M945.337,908.671c-33.055,0-64.981-4.814-95.142-13.738V999.54h190.284V894.933     C1010.318,903.858,978.392,908.671,945.337,908.671z"/>
		</g>
	</g>
	<path fill="#FFBE55" d="M1308.813,565.476c-4.391-200.711-168.354-362.097-370.118-362.097c-42.486,0-83.258,7.249-121.265,20.418   c-27.636,9.577-53.718,22.419-77.927,37.932c-26.101,16.728-50.012,36.572-71.105,59.112c-22.95,24.524-42.658,52.119-58.315,82.18   c-26.604,51.078-41.715,109.098-41.715,170.685c0,11.653,0.584,23.167,1.634,34.545c14.529,156.989,127.009,285.582,275.784,324.02   c29.691,7.671,60.82,11.762,92.909,11.762c204.524,0,370.327-165.801,370.327-370.327   C1309.022,570.947,1308.875,568.222,1308.813,565.476z M938.695,814.823c-20.948,0-41.27-2.68-60.646-7.701   c-98.715-25.573-172.732-112.141-179.776-217.065c-0.364-5.417-0.696-10.843-0.696-16.351c0-40.997,10.312-79.548,28.365-113.34   c11.304-21.155,25.739-40.351,42.564-57.158c11.893-11.879,25.056-22.462,39.191-31.679c17.115-11.161,35.679-20.282,55.462-26.804   c23.767-7.838,49.144-12.138,75.537-12.138c130.404,0,236.561,103.539,240.907,232.888c0.094,2.738,0.209,5.471,0.209,8.23   C1179.811,706.871,1071.858,814.823,938.695,814.823z"/>
</g>
<g id="Character">
	<g>
		<path fill-rule="evenodd" clip-rule="evenodd" fill="#FCD2B1" d="M759.954,742.641c0,0-12.38,9.242-18.712,13.967    c-2.18,1.628-5.151,1.707-7.418,0.201l0,0c-2.527-1.68-4.25-4.332-4.76-7.324c-0.509-2.992,0.239-6.063,2.068-8.484    c5.06-6.702,10.991-14.557,10.991-14.557L759.954,742.641z"/>
		<path fill-rule="evenodd" clip-rule="evenodd" fill="#0E538C" d="M978.183,663.715c9.23,6.79,25.786,13.812,31.808,21.524    c38.675,49.534-2.148,87.588-57.851,49.547c-89.527-61.144-79.938-84.001-192.968,15.549l-25.607-20.045    C816.578,592.315,848.866,568.592,978.183,663.715z"/>
		<path fill-rule="evenodd" clip-rule="evenodd" fill="#FCD2B1" d="M873.357,896.504c0,0-4.839,17.925-7.315,27.093    c-0.814,3.019-3.734,4.974-6.837,4.577l0,0c-2.042-0.261-3.899-1.323-5.158-2.952c-1.259-1.628-1.82-3.691-1.558-5.732    c1.462-11.432,4.038-31.56,4.038-31.56L873.357,896.504z"/>
		<path fill-rule="evenodd" clip-rule="evenodd" fill="#0B4870" d="M872.275,920.877c-0.044-1.276-24.879-3.441-25.17-2.463    c-0.083,0.123-0.123,0.261-0.165,0.401c-3.984,13.408-17.038,22.007-30.931,20.368c-0.799-0.095-1.609-0.038-2.387,0.168    c-8.592,2.295-13.366,7.169-14.232,14.691c24.263,3.201,48.909,2.617,73.966-2.055L872.275,920.877z"/>
		<path fill-rule="evenodd" clip-rule="evenodd" fill="#0B4870" d="M746.475,757.206c0.591-1.133-19.942-15.27-20.677-14.562    c-0.134,0.065-0.237,0.165-0.341,0.266c-10.081,9.698-25.678,10.735-36.954,2.456l0,0c-0.648-0.475-1.381-0.827-2.159-1.033    c-8.606-2.243-15.163-0.359-19.628,5.756c19.525,14.757,41.249,26.409,65.349,34.709L746.475,757.206z"/>
		<path fill="#0B4870" d="M708.2,763.836C708.2,763.836,708.296,763.874,708.2,763.836L708.2,763.836z"/>
		<path fill-rule="evenodd" clip-rule="evenodd" fill="#0E538C" d="M1012.161,715.52c11.451,0.45,29.098-3.012,38.408,0    c59.791,19.347,39.538,91.393-27.915,91.103c-108.413-0.465-109.708-17.385-145.564,96.432l-26.273-2.503    C842.242,739.758,851.751,709.217,1012.161,715.52z"/>
		<path fill-rule="evenodd" clip-rule="evenodd" fill="#FCD2B1" d="M1027.863,655.72c0,0,16.805,11.393,24.344,3.308    c7.538-8.085,2.312,16.604,2.312,16.604l-8.571,9.025l-15.519-14.874l-15.709-16.754L1027.863,655.72z"/>
		<path fill-rule="evenodd" clip-rule="evenodd" fill="#FCD2B1" d="M1115.089,578.357c-10.911-12.275-30.551-33.825-30.551-33.825    s-33.853,10.919-30.019,32.055c3.832,21.138,6.055,38.365,6.055,38.365l43.425-11.942    C1103.999,603.01,1126.001,590.632,1115.089,578.357z"/>
		<path fill-rule="evenodd" clip-rule="evenodd" fill="#0B4870" d="M1054.424,576.587c0,0,11.336,110.209-29.284,118.71    l-2.487,20.223c0,0,37.44-9.831,45.626-26.52c8.187-16.689,18.103-100.345,18.103-100.345    C1071.164,589.804,1060.101,586.246,1054.424,576.587z"/>
		<path fill-rule="evenodd" clip-rule="evenodd" fill="#FFE3CA" d="M1013.944,484.362c-14.885,10.769-20.549,30.083-16.229,49.057    c0.77,3.377,4.283,19.394,8.548,25.551c21.536,31.087,57.623,22.939,71.164,13.144c20.883-15.107,23.615-47.034,6.096-71.249    C1066.005,476.649,1034.827,469.255,1013.944,484.362z"/>
		<path fill-rule="evenodd" clip-rule="evenodd" fill="#0B4870" d="M967.807,512.081c1.842,38.753,61.387,0.926,63.538-7.905    c-0.32,12.322,5.634,21.89,17.303,28.949c0,0-2.54,12.448,8.461,18.09c10.999,5.641,28.558,18.257,37.955,7.522    c6.418-7.333,8.015-23.068,9.426-36.164c6.085-56.475-42.037-49.373-52.516-54.239    C1051.975,468.334,964.635,445.332,967.807,512.081z"/>
		<path fill-rule="evenodd" clip-rule="evenodd" fill="#FFE3CA" d="M1047.332,535.217c0-6.984,5.661-12.644,12.645-12.644l0,0    c6.982,0,12.645,5.66,12.645,12.644c0,0.406,0,0.816,0,1.225c0,7.658-6.208,13.865-13.865,13.865c-5.89,0-11.425,0-11.425,0    V535.217z"/>
		<path fill="#421A00" d="M982.183,499.237L982.183,499.237L982.183,499.237z"/>
		<path fill="#602600" d="M993.693,530.229C993.693,530.229,993.694,530.132,993.693,530.229L993.693,530.229z"/>
		<path fill="#602600" d="M1093.204,483.982C1093.148,483.72,1093.204,483.982,1093.204,483.982L1093.204,483.982z"/>
		<path fill="#D3D3D3" d="M940.414,600.613l96.351,76.873l2.93-3.709l-94.99-75.019C943.077,598.204,941.39,599.377,940.414,600.613    z"/>
		<polygon fill-rule="evenodd" clip-rule="evenodd" fill="#F7F7F7" points="943.014,600.613 1038.23,675.632 1022.681,715.039     927.466,640.019   "/>
		<path fill="#D3D3D3" d="M1020.452,714.66c-0.805,3.846,0.427,5.006,4.496,2.425l16.235-41.452    c-0.713-2.194-2.432-2.481-5.156-0.86L1020.452,714.66z"/>
		<path fill="#D3D3D3" d="M924.792,639.146c-0.473,1.442-0.344,1.753,0.717,2.721l95.182,76.236l2.954-3.69l-93.815-75.14    l13.844-38.66h-3.261L924.792,639.146z"/>
		<path fill-rule="evenodd" clip-rule="evenodd" fill="#0B4870" d="M1032.446,711.366c17.712,7.027,27.041,44.346,31.464,86.871    c168.144-46.84,112.163-185.472,42.998-229.015c-2.928,14.087-12.77,17.297-29.127,19.433    C1077.313,634.71,1074.572,660.873,1032.446,711.366z"/>
		<path fill-rule="evenodd" clip-rule="evenodd" fill="#FCD2B1" d="M1046.645,717.488c-5.207-2.125-9.742-3.586-13.131-4.547    c-3.755-0.977-6.874-3.584-8.498-7.107c-3.185-6.971-8.376-12.975-15.695-17.96c-1.378-0.932-2.515-2.178-3.319-3.634    c-1.262-2.257-2.994-5.391-2.994-5.391c-1.264-2.251-2.928-3.237-4.669-3.216c-1.479-0.01-2.838,0.809-3.523,2.119    c-0.685,1.311-0.58,2.893,0.272,4.103c2.232,3.393,5.981,8.715,8.446,12.211c0.236,0.338,0.229,0.789-0.021,1.118    c-0.248,0.329-0.681,0.459-1.071,0.322c-1.391-0.513-2.885-0.565-4.441-0.244c-2.928,0.58-5.959-0.257-8.175-2.258    c-3.038-2.713-6.56-5.282-10.641-7.701c-2.911-1.727-5.606,1.71-5.42,5.34l22.343,16.988c17.83,1.958,31.747,11.553,44.889,22.658    C1040.995,730.289,1058.036,722.135,1046.645,717.488z"/>
		<path fill-rule="evenodd" clip-rule="evenodd" fill="#FCD2B1" d="M1084.906,717.086c-14.175,4.452-30.815,2.993-37.86,0.639    c-4.751-1.588-12.279,8.554-7.032,11.602c11.595,6.735,34.13,17.722,53.38,23.481    C1096.792,740.668,1090.004,727.34,1084.906,717.086z"/>
		<path fill-rule="evenodd" clip-rule="evenodd" fill="#0E538C" d="M1091.868,752.339c37.012,10.737,110.234-12.688,62.716-135.693    c-2.38-6.159-19.021-25.331-41.181-17.391c-8.789,3.148-27.618,17.521-15.647,43.116c26.237,56.099,3.697,69.581-17.042,76.095    C1089.898,728.463,1095.258,740.213,1091.868,752.339z"/>
		<path fill="#FCD2B1" d="M1006.609,645.397c-2.531,0.033-5.308,0.625-6.036,2.94c-0.818,2.599,1.762,5.378,4.708,4.841    c6-1.022,12.056,2.884,17.77,6.811c0,0,5.001,1.481,5.891-2.271c0.814-3.437-4.081-5.931-8.278-8.178    C1016.294,647.201,1011.586,645.331,1006.609,645.397z"/>
	</g>
</g>
</svg>