<svg xmlns="http://www.w3.org/2000/svg" viewBox="0 0 448.52 500"><defs><style>.cls-1,.cls-15,.cls-4{fill:#d6d8e5;}.cls-1{opacity:0.4;}.cls-2{fill:#b1b4c4;}.cls-3{fill:#9ea2b2;}.cls-5{fill:#f4f4f4;}.cls-6{fill:#9acc12;}.cls-7{fill:#e8bc05;}.cls-8{fill:#ef6848;}.cls-9{fill:#be4aed;}.cls-10{fill:#543526;}.cls-11{fill:#1b96ea;}.cls-12{fill:#ff5050;}.cls-13{fill:#32cec3;}.cls-14{fill:none;stroke:#d6d8e5;stroke-miterlimit:10;stroke-width:1.42px;}.cls-15{opacity:0.3;}.cls-16{fill:#dd990e;}.cls-17{fill:#f9cb07;}.cls-18{fill:#cc8b09;}.cls-19{fill:#e8a30a;}.cls-20{fill:#f9ca06;}.cls-21{fill:#3a2c6d;}.cls-22{fill:#ffcea9;}.cls-23{fill:#38226d;}.cls-24{fill:#9c73ff;}.cls-25{fill:#8c50ff;}.cls-26{fill:#ededed;}.cls-27{fill:#d33d3d;}.cls-28{fill:#ff4d4d;}.cls-29{fill:#2b303f;}</style></defs><title>Marketing_strategy_SVG</title><g id="Слой_2" data-name="Слой 2"><g id="Слой_1-2" data-name="Слой 1"><polygon class="cls-1" points="257.6 344.8 244.41 337.57 256.12 330.81 269.31 338.04 257.6 344.8"/><polygon class="cls-1" points="328.52 386.55 315.33 379.31 327.04 372.56 340.22 379.79 328.52 386.55"/><polygon class="cls-2" points="262.75 341.76 250.31 334.58 289.93 208.02 302.37 215.2 262.75 341.76"/><polygon class="cls-3" points="270.04 337.74 257.6 330.56 297.22 204 309.65 211.18 270.04 337.74"/><polygon class="cls-2" points="262.75 341.76 250.31 334.58 289.93 208.02 302.37 215.2 262.75 341.76"/><polygon class="cls-3" points="343.15 378.39 330.62 371.15 313.51 211.84 325.95 219.03 343.15 378.39"/><polygon class="cls-2" points="334.44 383.36 321.91 376.12 304.8 216.81 317.24 223.99 334.44 383.36"/><polygon class="cls-4" points="433.04 284.39 199.3 149.44 209.86 143.34 443.6 278.29 433.04 284.39"/><polygon class="cls-2" points="433.04 296.56 199.3 161.61 199.3 149.41 433.04 284.36 433.04 296.56"/><polygon class="cls-5" points="428.31 275.24 213.06 150.96 213.06 0 428.31 124.28 428.31 275.24"/><polygon class="cls-3" points="443.77 290.37 433.04 296.56 433.04 284.17 443.77 277.98 443.77 290.37"/><polygon class="cls-4" points="246.74 44.98 228.91 34.69 228.91 27.83 246.74 38.12 246.74 44.98"/><polygon class="cls-4" points="285.69 67.47 254.33 49.37 254.33 42.5 285.69 60.61 285.69 67.47"/><polygon class="cls-4" points="246.74 57.94 228.91 47.65 228.91 40.79 246.74 51.08 246.74 57.94"/><polygon class="cls-4" points="285.69 80.43 254.33 62.33 254.33 55.46 285.69 73.57 285.69 80.43"/><polygon class="cls-4" points="246.74 72.81 228.91 62.52 228.91 55.65 246.74 65.95 246.74 72.81"/><polygon class="cls-4" points="285.69 95.3 254.33 77.19 254.33 70.33 285.69 88.44 285.69 95.3"/><polygon class="cls-4" points="246.74 87.68 228.91 77.38 228.91 70.52 246.74 80.81 246.74 87.68"/><polygon class="cls-4" points="285.69 110.17 254.33 92.06 254.33 85.2 285.69 103.31 285.69 110.17"/><path class="cls-6" d="M308.85,83.22c3.95-5.1,11-5.92,19.1-1.26.78.45,1.55.94,2.3,1.46L328,107.88,308.78,83.32Z"/><path class="cls-7" d="M348.93,110.79l-21-2.91,2.3-24.46C338.83,89.39,346,100.11,348.93,110.79Z"/><path class="cls-8" d="M350.4,120.84c0,11-6,17-14.37,15.91L328,107.88l21,2.91A37.38,37.38,0,0,1,350.4,120.84Z"/><path class="cls-9" d="M308.78,83.32c-2.08,2.73-3.28,6.66-3.28,11.6,0,14.32,10.05,31.72,22.45,38.88a22.18,22.18,0,0,0,8.07,2.94L328,107.88l-19.1-24.66Z"/><path class="cls-10" d="M370.92,119.06c3.95-5.1,11-5.92,19.1-1.27.78.45,1.54.94,2.3,1.47L390,143.72l-19.18-24.57Z"/><path class="cls-11" d="M411,146.62l-21-2.9,2.3-24.46C400.9,125.22,408.06,135.94,411,146.62Z"/><path class="cls-12" d="M412.47,156.68c0,11-6,17-14.37,15.9L390,143.72l21,2.9A37.91,37.91,0,0,1,412.47,156.68Z"/><path class="cls-13" d="M370.84,119.15c-2.07,2.74-3.27,6.66-3.27,11.6,0,14.32,10.05,31.73,22.45,38.89a22,22,0,0,0,8.07,2.93L390,143.72l-19.1-24.66Z"/><path class="cls-14" d="M308.78,190.59s15.21-29,53.84,8,48.38,8.3,48.38,8.3"/><ellipse class="cls-4" cx="341.65" cy="182.98" rx="2.63" ry="4.55" transform="translate(-45.72 195.35) rotate(-30)"/><ellipse class="cls-4" cx="314.33" cy="182.93" rx="2.63" ry="4.55" transform="translate(-49.35 181.68) rotate(-30)"/><ellipse class="cls-4" cx="370.84" cy="205.08" rx="2.63" ry="4.55" transform="matrix(0.87, -0.5, 0.5, 0.87, -52.85, 212.91)"/><ellipse class="cls-4" cx="403.73" cy="215.1" rx="2.63" ry="4.55" transform="translate(-53.46 230.69) rotate(-30)"/><polygon class="cls-4" points="235.01 149.34 228.91 145.81 228.91 124.65 235.01 128.18 235.01 149.34"/><polygon class="cls-4" points="251.91 159.09 245.8 155.56 245.8 126.97 251.91 130.5 251.91 159.09"/><polygon class="cls-4" points="268.8 168.84 262.69 165.32 262.69 124.34 268.8 127.86 268.8 168.84"/><polygon class="cls-4" points="285.69 178.59 279.58 175.07 279.58 124.18 285.69 127.7 285.69 178.59"/><polygon class="cls-3" points="334.44 383.36 343.15 378.39 332.72 367.45 334.44 383.36"/><polygon class="cls-3" points="262.75 341.76 270.04 337.74 267.24 327.42 262.75 341.76"/><g id="Coin"><ellipse class="cls-15" cx="132.01" cy="440.75" rx="34.96" ry="20.19"/><ellipse class="cls-16" cx="140.66" cy="435.56" rx="34.96" ry="20.19"/><polygon class="cls-16" points="105.71 435.86 105.71 426.67 112.62 432.82 105.71 435.86"/><polygon class="cls-16" points="175.63 426.91 175.63 435.56 172.09 439.31 170.36 429.4 175.63 426.91"/><ellipse class="cls-17" cx="140.66" cy="426.91" rx="34.96" ry="20.19"/><path class="cls-18" d="M165.65,427.53c-.36,3.4-2.78,6.75-7.29,9.35-9.77,5.64-25.62,5.64-35.4,0-4.5-2.6-6.93-5.95-7.27-9.35-.43-4,2-8,7.27-11.08,9.78-5.65,25.63-5.65,35.4,0C163.63,419.49,166.06,423.55,165.65,427.53Z"/><path class="cls-19" d="M165.65,427.53c-.36,3.4-2.78,6.75-7.29,9.35-9.77,5.64-25.62,5.64-35.4,0-4.5-2.6-6.93-5.95-7.27-9.35.34-3.4,2.77-6.75,7.27-9.35,9.78-5.65,25.63-5.65,35.4,0C162.87,420.78,165.29,424.13,165.65,427.53Z"/><path class="cls-18" d="M140.3,422.8a5.28,5.28,0,0,0-.92.08c-.41.05-.87.14-1.38.24s-1.05.25-1.6.41a12.75,12.75,0,0,0-1.57.6l4,2.32.73-.25c1-.34,2-.63,2.89-.87a13.17,13.17,0,0,1,2.6-.43,9.51,9.51,0,0,1,2.4.16,7.63,7.63,0,0,1,2.28.9,4.54,4.54,0,0,1,1.74,1.52,2.06,2.06,0,0,1,.25,1.57,3.45,3.45,0,0,1-.94,1.55,10.08,10.08,0,0,1-1.84,1.45l2.56,1.47-1.39.81-2.58-1.49a21.72,21.72,0,0,1-3.84,1.45,25.42,25.42,0,0,1-4.23.79l-1.35-2.42c.25,0,.63,0,1.13-.08s1.07-.16,1.69-.29,1.27-.3,2-.5a14.71,14.71,0,0,0,2-.74l-4-2.3-.53.18-.54.16a25.52,25.52,0,0,1-2.77.78,12.11,12.11,0,0,1-2.36.32,7.82,7.82,0,0,1-2.08-.2,7.08,7.08,0,0,1-1.92-.77,4.93,4.93,0,0,1-1.68-1.44,2.43,2.43,0,0,1-.45-1.55,2.94,2.94,0,0,1,.66-1.56,7.19,7.19,0,0,1,1.63-1.48l-2.37-1.37,1.39-.8,2.35,1.35a16.76,16.76,0,0,1,3.45-1.26,25.78,25.78,0,0,1,3.45-.63ZM133.46,427a3,3,0,0,0,1.75.37,11,11,0,0,0,2.39-.54l-3.76-2.17Q131.77,426,133.46,427Zm13.2,1.1a3,3,0,0,0-1.88-.34,14.73,14.73,0,0,0-2.62.58l3.74,2.16C147.49,429.54,147.75,428.74,146.66,428.12Z"/><path class="cls-18" d="M138.13,432.66c0-.09,0-1.35,0-1.35l1.54,1-.67,1Z"/><polygon class="cls-18" points="151.52 433.52 151.52 432.17 148.19 432.42 150.1 433.72 151.52 433.52"/><polygon class="cls-18" points="151.8 428.55 151.8 427.18 149.31 428.08 151.8 428.55"/><path class="cls-18" d="M141.49,428.47l.83-.79,2.92,2-.18.59s-2.18-.92-2.25-1Z"/><path class="cls-18" d="M133.85,424.2l3.87,2.2.8-.58s-.49-.55-.53-.61a5.33,5.33,0,0,0-1.2-1c-.29-.05-2.13-.88-2.13-.88Z"/><polygon class="cls-18" points="140.3 422.8 140.3 421.45 138.52 420.87 138.13 421.93 138.23 422.42 140.3 422.8"/><polygon class="cls-18" points="128.47 421.82 128.47 420.47 130.53 420.69 129.87 422 128.47 421.82"/><path class="cls-18" d="M128.54,426.42V425h2.37l-.58,1.27-1,1.12Z"/><path class="cls-20" d="M140.3,421.45a5.06,5.06,0,0,0-.92.07c-.41.06-.87.14-1.38.25s-1.05.24-1.6.41a11.3,11.3,0,0,0-1.57.59l4,2.33.73-.26c1-.34,2-.63,2.89-.86a13.17,13.17,0,0,1,2.6-.43,9.07,9.07,0,0,1,2.4.16,7.34,7.34,0,0,1,2.28.89,4.63,4.63,0,0,1,1.74,1.52,2.07,2.07,0,0,1,.25,1.57,3.4,3.4,0,0,1-.94,1.55,10.08,10.08,0,0,1-1.84,1.45l2.56,1.48-1.39.8-2.58-1.49a21,21,0,0,1-3.84,1.45,24.43,24.43,0,0,1-4.23.79l-1.35-2.41a10.42,10.42,0,0,0,1.13-.09,16.23,16.23,0,0,0,1.69-.29c.62-.13,1.27-.3,2-.5a14.69,14.69,0,0,0,2-.73l-4-2.31-.53.18-.54.17c-1,.33-1.93.59-2.77.78a12.06,12.06,0,0,1-2.36.31,8.26,8.26,0,0,1-2.08-.19,6.81,6.81,0,0,1-1.92-.78,4.93,4.93,0,0,1-1.68-1.44,2.41,2.41,0,0,1-.45-1.55,2.94,2.94,0,0,1,.66-1.56,6.94,6.94,0,0,1,1.63-1.47l-2.37-1.37,1.39-.81,2.35,1.36a16.79,16.79,0,0,1,3.45-1.27,24.2,24.2,0,0,1,3.45-.62Zm-6.84,4.21a3,3,0,0,0,1.75.38,12.27,12.27,0,0,0,2.39-.54l-3.76-2.18Q131.77,424.69,133.46,425.66Zm13.2,1.1a3,3,0,0,0-1.88-.34,15.67,15.67,0,0,0-2.62.58l3.74,2.16C147.49,428.19,147.75,427.39,146.66,426.76Z"/></g><g id="Coin-2" data-name="Coin"><ellipse class="cls-16" cx="143.52" cy="424.79" rx="34.96" ry="20.19"/><polygon class="cls-16" points="108.57 425.1 108.57 415.9 115.47 422.05 108.57 425.1"/><polygon class="cls-16" points="178.48 416.14 178.48 424.79 174.95 428.54 173.22 418.64 178.48 416.14"/><ellipse class="cls-17" cx="143.52" cy="416.14" rx="34.96" ry="20.19"/><path class="cls-18" d="M168.5,416.77c-.35,3.4-2.77,6.75-7.28,9.35-9.78,5.64-25.62,5.64-35.4,0-4.51-2.6-6.93-5.95-7.27-9.35-.43-4,2-8,7.27-11.08,9.78-5.65,25.62-5.65,35.4,0C166.49,408.72,168.92,412.79,168.5,416.77Z"/><path class="cls-19" d="M168.5,416.77c-.35,3.4-2.77,6.75-7.28,9.35-9.78,5.64-25.62,5.64-35.4,0-4.51-2.6-6.93-5.95-7.27-9.35.34-3.4,2.76-6.75,7.27-9.35,9.78-5.65,25.62-5.65,35.4,0C165.73,410,168.15,413.37,168.5,416.77Z"/><path class="cls-18" d="M143.15,412a5.18,5.18,0,0,0-.92.07c-.41.06-.87.14-1.38.25s-1,.24-1.59.41a11.33,11.33,0,0,0-1.57.6l4,2.32.72-.26c1-.34,2-.63,2.9-.86a13.17,13.17,0,0,1,2.6-.43,9,9,0,0,1,2.39.16,7.65,7.65,0,0,1,2.29.89,4.58,4.58,0,0,1,1.73,1.52,2.07,2.07,0,0,1,.26,1.57,3.49,3.49,0,0,1-.94,1.55,9.67,9.67,0,0,1-1.84,1.45l2.56,1.48-1.4.8-2.58-1.49a20.86,20.86,0,0,1-3.83,1.45,24.79,24.79,0,0,1-4.23.79L141,421.9a10.61,10.61,0,0,0,1.13-.09,16.54,16.54,0,0,0,1.68-.29c.62-.13,1.28-.3,2-.5a13.42,13.42,0,0,0,2-.73l-4-2.31-.52.18-.55.17q-1.5.5-2.76.78a12.15,12.15,0,0,1-2.36.31,7.79,7.79,0,0,1-2.08-.19,7,7,0,0,1-1.93-.78,5,5,0,0,1-1.67-1.43,2.43,2.43,0,0,1-.45-1.55,2.86,2.86,0,0,1,.66-1.57,6.88,6.88,0,0,1,1.62-1.47l-2.37-1.37,1.4-.81,2.35,1.36a16.79,16.79,0,0,1,3.45-1.27,24.2,24.2,0,0,1,3.45-.62Zm-6.83,4.21a2.9,2.9,0,0,0,1.74.38,12.19,12.19,0,0,0,2.4-.54l-3.77-2.17Q134.62,415.27,136.32,416.25Zm13.2,1.1a3,3,0,0,0-1.88-.33,15.61,15.61,0,0,0-2.63.57l3.74,2.16C150.35,418.78,150.6,418,149.52,417.35Z"/><path class="cls-18" d="M141,421.9c0-.1,0-1.36,0-1.36l1.54,1-.67,1Z"/><polygon class="cls-18" points="154.38 422.76 154.38 421.4 151.05 421.66 152.96 422.96 154.38 422.76"/><polygon class="cls-18" points="154.66 417.78 154.66 416.41 152.17 417.31 154.66 417.78"/><path class="cls-18" d="M144.35,417.71l.83-.79,2.92,2-.18.59s-2.19-.92-2.26-1S144.35,417.71,144.35,417.71Z"/><path class="cls-18" d="M136.7,413.44l3.88,2.19.79-.57-.52-.61a4.93,4.93,0,0,0-1.21-1c-.29-.06-2.12-.88-2.12-.88Z"/><polygon class="cls-18" points="143.15 412.04 143.15 410.68 141.37 410.1 140.99 411.17 141.08 411.65 143.15 412.04"/><polygon class="cls-18" points="131.32 411.06 131.32 409.7 133.39 409.92 132.72 411.24 131.32 411.06"/><path class="cls-18" d="M131.4,415.66v-1.41h2.37l-.58,1.26-1,1.13Z"/><path class="cls-20" d="M143.15,410.68a5.43,5.43,0,0,0-.92.08c-.41.05-.87.14-1.38.24s-1,.25-1.59.41a12.75,12.75,0,0,0-1.57.6l4,2.32.72-.25c1-.34,2-.63,2.9-.87a13.17,13.17,0,0,1,2.6-.43,9.43,9.43,0,0,1,2.39.16,7.68,7.68,0,0,1,2.29.9,4.5,4.5,0,0,1,1.73,1.52,2.07,2.07,0,0,1,.26,1.57,3.54,3.54,0,0,1-.94,1.55,10.08,10.08,0,0,1-1.84,1.45l2.56,1.47-1.4.81-2.58-1.49a21.61,21.61,0,0,1-3.83,1.45,25.81,25.81,0,0,1-4.23.79L141,420.54c.25,0,.62,0,1.13-.08s1.06-.16,1.68-.29,1.28-.3,2-.5a14.71,14.71,0,0,0,2-.74l-4-2.3-.52.18-.55.17a26.92,26.92,0,0,1-2.76.77,12.21,12.21,0,0,1-2.36.32,7.78,7.78,0,0,1-2.08-.2,7.27,7.27,0,0,1-1.93-.77,5,5,0,0,1-1.67-1.44,2.43,2.43,0,0,1-.45-1.55,2.86,2.86,0,0,1,.66-1.56,7.13,7.13,0,0,1,1.62-1.48l-2.37-1.37,1.4-.8,2.35,1.35a16.76,16.76,0,0,1,3.45-1.26,25.78,25.78,0,0,1,3.45-.63Zm-6.83,4.22a3,3,0,0,0,1.74.37,10.89,10.89,0,0,0,2.4-.54l-3.77-2.17Q134.62,413.91,136.32,414.9Zm13.2,1.1a3,3,0,0,0-1.88-.34,14.81,14.81,0,0,0-2.63.58l3.74,2.16C150.35,417.42,150.6,416.62,149.52,416Z"/></g><g id="Coin-3" data-name="Coin"><ellipse class="cls-16" cx="141.37" cy="414.43" rx="34.96" ry="20.19"/><polygon class="cls-16" points="106.42 414.74 106.42 405.54 113.33 411.69 106.42 414.74"/><polygon class="cls-16" points="176.34 405.78 176.34 414.43 172.81 418.18 171.07 408.27 176.34 405.78"/><ellipse class="cls-17" cx="141.37" cy="405.78" rx="34.96" ry="20.19"/><path class="cls-18" d="M166.36,406.4c-.35,3.4-2.78,6.75-7.28,9.36-9.78,5.64-25.63,5.64-35.4,0-4.51-2.61-6.93-6-7.28-9.36-.42-4,2-8,7.28-11.08,9.77-5.65,25.62-5.65,35.4,0C164.34,398.36,166.78,402.42,166.36,406.4Z"/><path class="cls-19" d="M166.36,406.4c-.35,3.4-2.78,6.75-7.28,9.36-9.78,5.64-25.63,5.64-35.4,0-4.51-2.61-6.93-6-7.28-9.36.35-3.4,2.77-6.74,7.28-9.35,9.77-5.65,25.62-5.65,35.4,0C163.58,399.66,166,403,166.36,406.4Z"/><path class="cls-18" d="M141,401.68a5.12,5.12,0,0,0-.92.07c-.41.06-.87.14-1.38.25a15.55,15.55,0,0,0-1.59.41,10.84,10.84,0,0,0-1.57.59l4,2.32.72-.25c1-.34,2-.63,2.89-.87a14.09,14.09,0,0,1,2.6-.43,9.51,9.51,0,0,1,2.4.17,7.49,7.49,0,0,1,2.29.89,4.58,4.58,0,0,1,1.73,1.52,2.06,2.06,0,0,1,.25,1.57,3.45,3.45,0,0,1-.94,1.55,10,10,0,0,1-1.83,1.45l2.55,1.47-1.39.81-2.58-1.49a20.69,20.69,0,0,1-3.84,1.45,25.42,25.42,0,0,1-4.23.79l-1.34-2.41a10.47,10.47,0,0,0,1.12-.09,16.23,16.23,0,0,0,1.69-.29c.62-.13,1.27-.3,2-.5a14.83,14.83,0,0,0,2-.73l-4-2.31-.52.18-.55.17c-1,.33-1.93.59-2.77.78a12.88,12.88,0,0,1-2.35.31,8.22,8.22,0,0,1-2.08-.19,7.05,7.05,0,0,1-1.93-.78,4.93,4.93,0,0,1-1.68-1.44,2.41,2.41,0,0,1-.45-1.55,2.94,2.94,0,0,1,.66-1.56,7.41,7.41,0,0,1,1.63-1.48l-2.37-1.36,1.39-.81,2.35,1.36a16.79,16.79,0,0,1,3.45-1.27,25.78,25.78,0,0,1,3.45-.63Zm-6.83,4.21a2.87,2.87,0,0,0,1.74.37,11.45,11.45,0,0,0,2.39-.53l-3.76-2.18C133.17,404.46,133,405.24,134.18,405.89Zm13.2,1.1a3,3,0,0,0-1.89-.34,15.67,15.67,0,0,0-2.62.58l3.74,2.16Q149,407.92,147.38,407Z"/><path class="cls-18" d="M138.85,411.54c0-.1,0-1.36,0-1.36l1.53,1-.67,1Z"/><polygon class="cls-18" points="152.23 412.39 152.23 411.04 148.91 411.29 150.82 412.6 152.23 412.39"/><polygon class="cls-18" points="152.51 407.42 152.51 406.05 150.02 406.95 152.51 407.42"/><path class="cls-18" d="M142.2,407.35l.83-.8,2.92,2-.18.6s-2.18-.92-2.25-1Z"/><path class="cls-18" d="M134.56,403.08l3.88,2.19.79-.57s-.49-.56-.52-.62-.92-.95-1.21-1-2.13-.88-2.13-.88Z"/><polygon class="cls-18" points="141.01 401.68 141.01 400.32 139.23 399.74 138.85 400.8 138.94 401.29 141.01 401.68"/><polygon class="cls-18" points="129.18 400.7 129.18 399.34 131.24 399.56 130.58 400.88 129.18 400.7"/><path class="cls-18" d="M129.26,405.3v-1.41h2.36l-.57,1.26-1,1.13Z"/><path class="cls-20" d="M141,400.32a6.28,6.28,0,0,0-.92.07c-.41.06-.87.14-1.38.25s-1,.25-1.59.41a12.17,12.17,0,0,0-1.57.6l4,2.32.72-.26c1-.34,2-.62,2.89-.86a13.29,13.29,0,0,1,2.6-.43,9.07,9.07,0,0,1,2.4.16,7.75,7.75,0,0,1,2.29.89A4.58,4.58,0,0,1,152.2,405a2.09,2.09,0,0,1,.25,1.58,3.42,3.42,0,0,1-.94,1.54,9.59,9.59,0,0,1-1.83,1.45l2.55,1.48-1.39.8-2.58-1.48a20.68,20.68,0,0,1-3.84,1.44,25.44,25.44,0,0,1-4.23.8l-1.34-2.42a10.47,10.47,0,0,0,1.12-.09,14,14,0,0,0,1.69-.29c.62-.13,1.27-.3,2-.5a13.55,13.55,0,0,0,2-.73l-4-2.31a5.34,5.34,0,0,1-.52.18l-.55.17c-1,.33-1.93.59-2.77.78a12.94,12.94,0,0,1-2.35.32,8.21,8.21,0,0,1-2.08-.2,6.75,6.75,0,0,1-1.93-.78,4.81,4.81,0,0,1-1.68-1.43,2.43,2.43,0,0,1-.45-1.55,2.93,2.93,0,0,1,.66-1.57,7.39,7.39,0,0,1,1.63-1.47l-2.37-1.37,1.39-.81,2.35,1.36a16.79,16.79,0,0,1,3.45-1.27,24.2,24.2,0,0,1,3.45-.62Zm-6.83,4.21a2.87,2.87,0,0,0,1.74.38,11.57,11.57,0,0,0,2.39-.54l-3.76-2.17C133.17,403.1,133,403.88,134.18,404.53Zm13.2,1.1a3.07,3.07,0,0,0-1.89-.33,15.53,15.53,0,0,0-2.62.57l3.74,2.16Q149,406.58,147.38,405.63Z"/></g><g id="Coin-4" data-name="Coin"><ellipse class="cls-16" cx="144.35" cy="404.43" rx="34.96" ry="20.19"/><polygon class="cls-16" points="109.39 404.74 109.39 395.54 116.3 401.69 109.39 404.74"/><polygon class="cls-16" points="179.31 395.78 179.31 404.43 175.78 408.18 174.05 398.28 179.31 395.78"/><ellipse class="cls-17" cx="144.35" cy="395.78" rx="34.96" ry="20.19"/><path class="cls-18" d="M169.33,396.41c-.35,3.4-2.77,6.75-7.28,9.35-9.78,5.64-25.62,5.64-35.4,0-4.51-2.6-6.93-5.95-7.28-9.35-.42-4,2-8.05,7.28-11.08,9.78-5.65,25.62-5.65,35.4,0C167.32,388.36,169.75,392.43,169.33,396.41Z"/><path class="cls-19" d="M169.33,396.41c-.35,3.4-2.77,6.75-7.28,9.35-9.78,5.64-25.62,5.64-35.4,0-4.51-2.6-6.93-5.95-7.28-9.35.35-3.4,2.77-6.75,7.28-9.35,9.78-5.65,25.62-5.65,35.4,0C166.56,389.66,169,393,169.33,396.41Z"/><path class="cls-18" d="M144,391.68a5.12,5.12,0,0,0-.92.07c-.41.06-.87.14-1.38.25s-1,.25-1.59.41a11.33,11.33,0,0,0-1.57.6l4,2.32.72-.26c1-.34,2-.62,2.89-.86a13.39,13.39,0,0,1,2.61-.43,9,9,0,0,1,2.39.16,7.65,7.65,0,0,1,2.29.89,4.58,4.58,0,0,1,1.73,1.52,2.07,2.07,0,0,1,.26,1.57,3.49,3.49,0,0,1-.94,1.55,9.67,9.67,0,0,1-1.84,1.45l2.56,1.48-1.4.8-2.58-1.48a20.85,20.85,0,0,1-3.83,1.44,25.83,25.83,0,0,1-4.23.8l-1.35-2.42a10.61,10.61,0,0,0,1.13-.09,14.15,14.15,0,0,0,1.68-.29c.62-.13,1.28-.3,2-.5a13.42,13.42,0,0,0,2-.73l-4-2.31a4.56,4.56,0,0,1-.52.18l-.55.17q-1.5.5-2.76.78a13.16,13.16,0,0,1-2.36.32,8.21,8.21,0,0,1-2.08-.2,7,7,0,0,1-1.93-.78,4.86,4.86,0,0,1-1.67-1.43,2.43,2.43,0,0,1-.45-1.55,2.79,2.79,0,0,1,.66-1.57,7.1,7.1,0,0,1,1.62-1.47l-2.37-1.37,1.4-.81,2.34,1.36a16.87,16.87,0,0,1,3.46-1.27,24.2,24.2,0,0,1,3.45-.62Zm-6.83,4.21a2.9,2.9,0,0,0,1.74.38,11.5,11.5,0,0,0,2.4-.54l-3.77-2.17Q135.45,394.91,137.15,395.89Zm13.2,1.1a3.05,3.05,0,0,0-1.88-.33,15.61,15.61,0,0,0-2.63.57l3.74,2.16C151.18,398.42,151.43,397.62,150.35,397Z"/><path class="cls-18" d="M141.82,401.54c0-.1,0-1.36,0-1.36l1.54,1-.67,1Z"/><polygon class="cls-18" points="155.21 402.4 155.21 401.04 151.88 401.3 153.79 402.6 155.21 402.4"/><polygon class="cls-18" points="155.49 397.42 155.49 396.05 153 396.95 155.49 397.42"/><path class="cls-18" d="M145.18,397.35l.82-.79,2.92,2-.18.59s-2.18-.92-2.25-1S145.18,397.35,145.18,397.35Z"/><path class="cls-18" d="M137.53,393.08l3.88,2.2.79-.58-.52-.61a4.93,4.93,0,0,0-1.21-1c-.29-.05-2.13-.88-2.13-.88Z"/><polygon class="cls-18" points="143.98 391.68 143.98 390.32 142.2 389.75 141.82 390.81 141.91 391.3 143.98 391.68"/><polygon class="cls-18" points="132.15 390.7 132.15 389.34 134.22 389.56 133.55 390.88 132.15 390.7"/><path class="cls-18" d="M132.23,395.3v-1.41h2.37l-.58,1.26-1,1.13Z"/><path class="cls-20" d="M144,390.32a5.36,5.36,0,0,0-.92.08c-.41.06-.87.14-1.38.25s-1,.24-1.59.4a12.75,12.75,0,0,0-1.57.6l4,2.32.72-.25c1-.34,2-.63,2.89-.87a14.19,14.19,0,0,1,2.61-.43,9.43,9.43,0,0,1,2.39.16,7.68,7.68,0,0,1,2.29.9,4.58,4.58,0,0,1,1.73,1.52,2.07,2.07,0,0,1,.26,1.57,3.54,3.54,0,0,1-.94,1.55,10.08,10.08,0,0,1-1.84,1.45l2.56,1.47-1.4.81-2.58-1.49a21.61,21.61,0,0,1-3.83,1.45,25.81,25.81,0,0,1-4.23.79l-1.35-2.42a8.07,8.07,0,0,0,1.13-.08c.5-.06,1.06-.16,1.68-.29s1.28-.3,2-.5a14.71,14.71,0,0,0,2-.74l-4-2.3-.52.18-.55.17a26.92,26.92,0,0,1-2.76.77,12.31,12.31,0,0,1-2.36.32,8.22,8.22,0,0,1-2.08-.19,7.67,7.67,0,0,1-1.93-.78,5,5,0,0,1-1.67-1.44,2.41,2.41,0,0,1-.45-1.55,2.79,2.79,0,0,1,.66-1.56,7.13,7.13,0,0,1,1.62-1.48l-2.37-1.37,1.4-.8,2.34,1.35a17.45,17.45,0,0,1,3.46-1.26,25.78,25.78,0,0,1,3.45-.63Zm-6.83,4.22a2.9,2.9,0,0,0,1.74.37,11.39,11.39,0,0,0,2.4-.53l-3.77-2.18C136.14,393.11,136,393.88,137.15,394.54Zm13.2,1.1a3,3,0,0,0-1.88-.34,14.81,14.81,0,0,0-2.63.58l3.74,2.16C151.18,397.06,151.43,396.26,150.35,395.64Z"/></g><g id="Coin-5" data-name="Coin"><ellipse class="cls-16" cx="142.2" cy="394.07" rx="34.96" ry="20.19"/><polygon class="cls-16" points="107.25 394.38 107.25 385.18 114.16 391.33 107.25 394.38"/><polygon class="cls-16" points="177.17 385.42 177.17 394.07 173.63 397.82 171.9 387.92 177.17 385.42"/><ellipse class="cls-17" cx="142.2" cy="385.42" rx="34.96" ry="20.19"/><path class="cls-18" d="M167.19,386.05c-.36,3.4-2.78,6.74-7.29,9.35-9.77,5.64-25.62,5.64-35.4,0-4.5-2.61-6.92-5.95-7.27-9.35-.42-4,2-8.05,7.27-11.09,9.78-5.65,25.63-5.65,35.4,0C165.17,378,167.6,382.07,167.19,386.05Z"/><path class="cls-19" d="M167.19,386.05c-.36,3.4-2.78,6.74-7.29,9.35-9.77,5.64-25.62,5.64-35.4,0-4.5-2.61-6.92-5.95-7.27-9.35.35-3.4,2.77-6.75,7.27-9.36,9.78-5.65,25.63-5.65,35.4,0C164.41,379.3,166.83,382.65,167.19,386.05Z"/><path class="cls-18" d="M141.84,381.32a5.12,5.12,0,0,0-.92.07c-.41.06-.87.14-1.38.25s-1,.24-1.6.41a10.71,10.71,0,0,0-1.56.59l4,2.33.72-.26c1-.34,2-.63,2.89-.87a13.25,13.25,0,0,1,2.6-.42,9.07,9.07,0,0,1,2.4.16,7.49,7.49,0,0,1,2.29.89A4.66,4.66,0,0,1,153,386a2.06,2.06,0,0,1,.25,1.57,3.45,3.45,0,0,1-.94,1.55,10.08,10.08,0,0,1-1.84,1.45l2.56,1.48-1.39.8-2.58-1.49a20.69,20.69,0,0,1-3.84,1.45,24.43,24.43,0,0,1-4.23.79l-1.34-2.41a10.47,10.47,0,0,0,1.12-.09,16.23,16.23,0,0,0,1.69-.29c.62-.13,1.27-.3,2-.5a14.19,14.19,0,0,0,2-.73l-4-2.31-.52.18-.55.17c-1,.33-1.93.59-2.77.78a12.87,12.87,0,0,1-2.36.31,8.31,8.31,0,0,1-2.08-.19,6.81,6.81,0,0,1-1.92-.78,4.93,4.93,0,0,1-1.68-1.44,2.41,2.41,0,0,1-.45-1.55,2.94,2.94,0,0,1,.66-1.56,7.15,7.15,0,0,1,1.63-1.47L130,380.34l1.39-.81,2.35,1.36a16.79,16.79,0,0,1,3.45-1.27,25.78,25.78,0,0,1,3.45-.63ZM135,385.53a2.91,2.91,0,0,0,1.75.37,11.45,11.45,0,0,0,2.39-.53l-3.76-2.18Q133.31,384.56,135,385.53Zm13.2,1.1a3,3,0,0,0-1.88-.34,15.67,15.67,0,0,0-2.62.58l3.74,2.16C149,388.06,149.29,387.25,148.2,386.63Z"/><path class="cls-18" d="M139.68,391.18c0-.1,0-1.36,0-1.36l1.53,1-.67,1Z"/><polygon class="cls-18" points="153.06 392.04 153.06 390.68 149.74 390.94 151.65 392.24 153.06 392.04"/><polygon class="cls-18" points="153.34 387.06 153.34 385.69 150.85 386.59 153.34 387.06"/><path class="cls-18" d="M143,387l.83-.8,2.92,2-.18.6s-2.18-.92-2.25-1Z"/><path class="cls-18" d="M135.39,382.72l3.87,2.19.8-.57-.53-.61a4.68,4.68,0,0,0-1.2-1c-.29-.06-2.13-.88-2.13-.88Z"/><polygon class="cls-18" points="141.84 381.32 141.84 379.96 140.06 379.38 139.68 380.44 139.77 380.93 141.84 381.32"/><polygon class="cls-18" points="130.01 380.34 130.01 378.98 132.07 379.2 131.41 380.52 130.01 380.34"/><path class="cls-18" d="M130.08,384.94s0-1.41,0-1.41h2.36l-.58,1.26-1,1.13Z"/><path class="cls-20" d="M141.84,380a6.28,6.28,0,0,0-.92.07c-.41.06-.87.14-1.38.25s-1,.25-1.6.41a12,12,0,0,0-1.56.6l4,2.32.72-.26c1-.33,2-.62,2.89-.86a13.29,13.29,0,0,1,2.6-.43,9.07,9.07,0,0,1,2.4.16,8,8,0,0,1,2.29.89,4.68,4.68,0,0,1,1.73,1.53,2.06,2.06,0,0,1,.25,1.57,3.45,3.45,0,0,1-.94,1.55,9.64,9.64,0,0,1-1.84,1.44l2.56,1.48-1.39.81L149.09,390a21.42,21.42,0,0,1-3.84,1.45,26.49,26.49,0,0,1-4.23.79l-1.34-2.42a10.47,10.47,0,0,0,1.12-.09,16,16,0,0,0,1.69-.28c.62-.14,1.27-.31,2-.51a13,13,0,0,0,2-.73l-4-2.31-.52.19-.55.16c-1,.33-1.93.59-2.77.78a12.92,12.92,0,0,1-2.36.32,8.3,8.3,0,0,1-2.08-.2,6.81,6.81,0,0,1-1.92-.78,4.81,4.81,0,0,1-1.68-1.43,2.43,2.43,0,0,1-.45-1.55,2.9,2.9,0,0,1,.66-1.56,7.17,7.17,0,0,1,1.63-1.48L130,379l1.39-.8,2.35,1.35a17.39,17.39,0,0,1,3.45-1.27,25.69,25.69,0,0,1,3.45-.62ZM135,384.17a2.92,2.92,0,0,0,1.75.38,11,11,0,0,0,2.39-.54l-3.76-2.17Q133.31,383.19,135,384.17Zm13.2,1.1a3,3,0,0,0-1.88-.33,15.53,15.53,0,0,0-2.62.57l3.74,2.16C149,386.7,149.29,385.9,148.2,385.27Z"/></g><g id="Coin-6" data-name="Coin"><ellipse class="cls-15" cx="34.96" cy="479.81" rx="34.96" ry="20.19"/><ellipse class="cls-16" cx="43.61" cy="474.62" rx="34.96" ry="20.19"/><polygon class="cls-16" points="8.66 474.93 8.66 465.73 15.57 471.88 8.66 474.93"/><polygon class="cls-16" points="78.58 465.97 78.58 474.62 75.05 478.37 73.32 468.47 78.58 465.97"/><ellipse class="cls-17" cx="43.61" cy="465.97" rx="34.96" ry="20.19"/><path class="cls-18" d="M68.6,466.6c-.35,3.4-2.78,6.75-7.28,9.35-9.78,5.64-25.63,5.64-35.4,0-4.51-2.6-6.93-5.95-7.28-9.35-.42-4,2-8.05,7.28-11.08,9.77-5.65,25.62-5.65,35.4,0C66.59,458.55,69,462.62,68.6,466.6Z"/><path class="cls-19" d="M68.6,466.6c-.35,3.4-2.78,6.75-7.28,9.35-9.78,5.64-25.63,5.64-35.4,0-4.51-2.6-6.93-5.95-7.28-9.35.35-3.4,2.77-6.75,7.28-9.35,9.77-5.65,25.62-5.65,35.4,0C65.82,459.85,68.25,463.2,68.6,466.6Z"/><path class="cls-18" d="M43.25,461.87a5.12,5.12,0,0,0-.92.07c-.41.06-.87.14-1.38.25s-1,.24-1.59.41a10.86,10.86,0,0,0-1.57.6l4,2.32.72-.26c1-.34,2-.63,2.89-.86A13.39,13.39,0,0,1,48,464a9,9,0,0,1,2.39.16,7.65,7.65,0,0,1,2.29.89,4.58,4.58,0,0,1,1.73,1.52,2.07,2.07,0,0,1,.26,1.57,3.51,3.51,0,0,1-1,1.55,9.28,9.28,0,0,1-1.83,1.45l2.55,1.48-1.39.8L50.5,471.9a20.16,20.16,0,0,1-3.83,1.45,24.79,24.79,0,0,1-4.23.79l-1.35-2.41a10.61,10.61,0,0,0,1.13-.09,16.54,16.54,0,0,0,1.68-.29c.62-.13,1.28-.3,2-.5a13.55,13.55,0,0,0,2-.73l-4-2.31c-.17.06-.34.13-.52.18l-.55.17c-1,.33-1.93.59-2.76.78a12.25,12.25,0,0,1-2.36.31,7.79,7.79,0,0,1-2.08-.19,6.87,6.87,0,0,1-1.93-.78A4.87,4.87,0,0,1,32,466.85a2.38,2.38,0,0,1-.46-1.55,2.93,2.93,0,0,1,.66-1.57,7.15,7.15,0,0,1,1.63-1.47l-2.37-1.37,1.4-.81,2.34,1.36a16.79,16.79,0,0,1,3.45-1.27,24.33,24.33,0,0,1,3.46-.62Zm-6.83,4.21a2.89,2.89,0,0,0,1.74.38,12.11,12.11,0,0,0,2.39-.54l-3.76-2.17Q34.72,465.1,36.42,466.08Zm13.2,1.1a3.05,3.05,0,0,0-1.88-.33,15.61,15.61,0,0,0-2.63.57l3.74,2.16C50.45,468.61,50.7,467.81,49.62,467.18Z"/><path class="cls-18" d="M41.09,471.73c0-.1,0-1.36,0-1.36l1.53,1-.66,1Z"/><polygon class="cls-18" points="54.47 472.59 54.47 471.23 51.15 471.49 53.06 472.79 54.47 472.59"/><polygon class="cls-18" points="54.76 467.61 54.76 466.24 52.27 467.14 54.76 467.61"/><path class="cls-18" d="M44.44,467.54l.83-.79,2.92,2-.18.59s-2.18-.92-2.25-1S44.44,467.54,44.44,467.54Z"/><path class="cls-18" d="M36.8,463.27l3.88,2.2.79-.58s-.49-.56-.52-.61a4.93,4.93,0,0,0-1.21-1c-.29-.06-2.13-.88-2.13-.88Z"/><polygon class="cls-18" points="43.25 461.87 43.25 460.51 41.47 459.93 41.09 461 41.18 461.48 43.25 461.87"/><polygon class="cls-18" points="31.42 460.89 31.42 459.53 33.49 459.75 32.82 461.07 31.42 460.89"/><path class="cls-18" d="M31.5,465.49v-1.41h2.36l-.57,1.26-1,1.13Z"/><path class="cls-20" d="M43.25,460.51a5.36,5.36,0,0,0-.92.08q-.61.09-1.38.24c-.51.11-1,.25-1.59.41a12.17,12.17,0,0,0-1.57.6l4,2.32.72-.25c1-.34,2-.63,2.89-.87a14.19,14.19,0,0,1,2.61-.43,9.46,9.46,0,0,1,2.39.16,7.68,7.68,0,0,1,2.29.9,4.58,4.58,0,0,1,1.73,1.52,2.07,2.07,0,0,1,.26,1.57,3.57,3.57,0,0,1-1,1.55,9.66,9.66,0,0,1-1.83,1.45l2.55,1.47-1.39.81-2.58-1.49A21.61,21.61,0,0,1,46.67,472a25.81,25.81,0,0,1-4.23.79l-1.35-2.42a10,10,0,0,0,1.13-.08c.5-.06,1.06-.16,1.68-.29s1.28-.3,2-.5a14.85,14.85,0,0,0,2-.74l-4-2.3-.52.18-.55.17a27.64,27.64,0,0,1-2.76.77,12.31,12.31,0,0,1-2.36.32,7.78,7.78,0,0,1-2.08-.2,7.14,7.14,0,0,1-1.93-.77A4.89,4.89,0,0,1,32,465.49a2.38,2.38,0,0,1-.46-1.55,2.94,2.94,0,0,1,.66-1.56,7.41,7.41,0,0,1,1.63-1.48l-2.37-1.37,1.4-.8,2.34,1.35a17.36,17.36,0,0,1,3.45-1.26,25.91,25.91,0,0,1,3.46-.63Zm-6.83,4.22a2.88,2.88,0,0,0,1.74.37,10.83,10.83,0,0,0,2.39-.54l-3.76-2.17Q34.72,463.74,36.42,464.73Zm13.2,1.1a3,3,0,0,0-1.88-.34,14.81,14.81,0,0,0-2.63.58l3.74,2.16C50.45,467.25,50.7,466.45,49.62,465.83Z"/></g><g id="Coin-7" data-name="Coin"><ellipse class="cls-16" cx="46.47" cy="463.86" rx="34.96" ry="20.19"/><polygon class="cls-16" points="11.52 464.17 11.52 454.97 18.43 461.12 11.52 464.17"/><polygon class="cls-16" points="81.44 455.21 81.44 463.86 77.9 467.61 76.17 457.7 81.44 455.21"/><ellipse class="cls-17" cx="46.47" cy="455.21" rx="34.96" ry="20.19"/><path class="cls-18" d="M71.46,455.83c-.36,3.4-2.78,6.75-7.29,9.36-9.77,5.64-25.62,5.64-35.4,0-4.5-2.61-6.92-6-7.27-9.36-.42-4,2-8,7.27-11.08,9.78-5.65,25.63-5.65,35.4,0C69.44,447.79,71.87,451.85,71.46,455.83Z"/><path class="cls-19" d="M71.46,455.83c-.36,3.4-2.78,6.75-7.29,9.36-9.77,5.64-25.62,5.64-35.4,0-4.5-2.61-6.92-6-7.27-9.36.35-3.4,2.77-6.74,7.27-9.35,9.78-5.65,25.63-5.65,35.4,0C68.68,449.09,71.1,452.43,71.46,455.83Z"/><path class="cls-18" d="M46.11,451.1a6.64,6.64,0,0,0-.92.08c-.41.06-.87.14-1.38.25a15.71,15.71,0,0,0-1.6.41,10.71,10.71,0,0,0-1.56.59l4,2.32.72-.25c1-.34,2-.63,2.89-.87a14.09,14.09,0,0,1,2.6-.43,9.07,9.07,0,0,1,2.4.17,7.34,7.34,0,0,1,2.28.89,4.63,4.63,0,0,1,1.74,1.52,2.06,2.06,0,0,1,.25,1.57,3.45,3.45,0,0,1-.94,1.55,10.08,10.08,0,0,1-1.84,1.45l2.56,1.47-1.39.81-2.58-1.49a21.72,21.72,0,0,1-3.84,1.45,25.42,25.42,0,0,1-4.23.79L44,461a10.47,10.47,0,0,0,1.12-.09c.51-.06,1.07-.16,1.69-.29s1.27-.3,2-.5a14.19,14.19,0,0,0,2-.73l-4-2.31-.53.18-.54.17c-1,.33-1.93.59-2.77.78a12.87,12.87,0,0,1-2.36.31,8.31,8.31,0,0,1-2.08-.19,7.46,7.46,0,0,1-1.92-.78,4.93,4.93,0,0,1-1.68-1.44,2.41,2.41,0,0,1-.45-1.55A2.94,2.94,0,0,1,35,453a7.41,7.41,0,0,1,1.63-1.48l-2.37-1.37,1.39-.8L38,450.67a17.36,17.36,0,0,1,3.45-1.26,25.78,25.78,0,0,1,3.45-.63Zm-6.84,4.22a2.91,2.91,0,0,0,1.75.37,11.45,11.45,0,0,0,2.39-.53L39.65,453C38.27,453.89,38.14,454.66,39.27,455.32Zm13.2,1.1a3,3,0,0,0-1.88-.34,14.73,14.73,0,0,0-2.62.58l3.74,2.16C53.3,457.84,53.56,457,52.47,456.42Z"/><path class="cls-18" d="M44,461c0-.1,0-1.36,0-1.36l1.53,1-.67,1Z"/><polygon class="cls-18" points="57.33 461.82 57.33 460.47 54.01 460.72 55.92 462.02 57.33 461.82"/><polygon class="cls-18" points="57.61 456.85 57.61 455.48 55.12 456.38 57.61 456.85"/><path class="cls-18" d="M47.3,456.78l.83-.8,2.92,2-.18.6s-2.18-.92-2.25-1Z"/><path class="cls-18" d="M39.66,452.5l3.87,2.2.8-.57s-.49-.56-.53-.62a5.33,5.33,0,0,0-1.2-1c-.29-.05-2.13-.87-2.13-.87Z"/><polygon class="cls-18" points="46.11 451.1 46.11 449.75 44.33 449.17 43.95 450.23 44.04 450.72 46.11 451.1"/><polygon class="cls-18" points="34.28 450.13 34.28 448.77 36.34 448.99 35.68 450.31 34.28 450.13"/><path class="cls-18" d="M34.35,454.73s0-1.41,0-1.41h2.36l-.58,1.26-1,1.13Z"/><path class="cls-20" d="M46.11,449.75a5.12,5.12,0,0,0-.92.07c-.41.06-.87.14-1.38.25s-1.05.24-1.6.41a10.73,10.73,0,0,0-1.56.6l4,2.32.72-.26c1-.34,2-.62,2.89-.86a13.29,13.29,0,0,1,2.6-.43,9.07,9.07,0,0,1,2.4.16,7.59,7.59,0,0,1,2.28.89,4.63,4.63,0,0,1,1.74,1.52,2.07,2.07,0,0,1,.25,1.57,3.4,3.4,0,0,1-.94,1.55A9.67,9.67,0,0,1,54.77,459l2.56,1.48-1.39.8-2.58-1.49a20.26,20.26,0,0,1-3.84,1.45,25.44,25.44,0,0,1-4.23.8L44,459.61a10.47,10.47,0,0,0,1.12-.09,16.23,16.23,0,0,0,1.69-.29c.62-.13,1.27-.3,2-.5a13,13,0,0,0,2-.73l-4-2.31c-.17.06-.35.13-.53.18l-.54.17c-1,.33-1.93.59-2.77.78a12.92,12.92,0,0,1-2.36.32,8.3,8.3,0,0,1-2.08-.2,6.81,6.81,0,0,1-1.92-.78,4.92,4.92,0,0,1-1.68-1.43,2.43,2.43,0,0,1-.45-1.55,2.93,2.93,0,0,1,.66-1.57,7.39,7.39,0,0,1,1.63-1.47l-2.37-1.37,1.39-.81L38,449.32a16.79,16.79,0,0,1,3.45-1.27,24.2,24.2,0,0,1,3.45-.62ZM39.27,454a2.92,2.92,0,0,0,1.75.38,12.27,12.27,0,0,0,2.39-.54l-3.76-2.17Q37.58,453,39.27,454Zm13.2,1.1a3,3,0,0,0-1.88-.33,15.53,15.53,0,0,0-2.62.57l3.74,2.16C53.3,456.49,53.56,455.69,52.47,455.06Z"/></g><g id="Coin-8" data-name="Coin"><ellipse class="cls-15" cx="217.47" cy="479.81" rx="34.96" ry="20.19"/><ellipse class="cls-16" cx="226.12" cy="474.62" rx="34.96" ry="20.19"/><polygon class="cls-16" points="191.17 474.93 191.17 465.73 198.08 471.88 191.17 474.93"/><polygon class="cls-16" points="261.09 465.97 261.09 474.62 257.56 478.37 255.83 468.47 261.09 465.97"/><ellipse class="cls-17" cx="226.12" cy="465.97" rx="34.96" ry="20.19"/><path class="cls-18" d="M251.11,466.6c-.35,3.4-2.78,6.75-7.28,9.35-9.78,5.64-25.63,5.64-35.4,0-4.51-2.6-6.93-5.95-7.28-9.35-.42-4,2-8.05,7.28-11.08,9.77-5.65,25.62-5.65,35.4,0C249.1,458.55,251.53,462.62,251.11,466.6Z"/><path class="cls-19" d="M251.11,466.6c-.35,3.4-2.78,6.75-7.28,9.35-9.78,5.64-25.63,5.64-35.4,0-4.51-2.6-6.93-5.95-7.28-9.35.35-3.4,2.77-6.75,7.28-9.35,9.77-5.65,25.62-5.65,35.4,0C248.33,459.85,250.76,463.2,251.11,466.6Z"/><path class="cls-18" d="M225.76,461.87a5.12,5.12,0,0,0-.92.07c-.41.06-.87.14-1.38.25s-1,.24-1.59.41a10.86,10.86,0,0,0-1.57.6l4,2.32.72-.26c1-.34,2-.63,2.89-.86a13.39,13.39,0,0,1,2.61-.43,9,9,0,0,1,2.39.16,7.65,7.65,0,0,1,2.29.89,4.58,4.58,0,0,1,1.73,1.52,2,2,0,0,1,.25,1.57,3.4,3.4,0,0,1-.94,1.55,9.28,9.28,0,0,1-1.83,1.45l2.55,1.48-1.39.8L233,471.9a20.16,20.16,0,0,1-3.83,1.45,24.79,24.79,0,0,1-4.23.79l-1.35-2.41a10.61,10.61,0,0,0,1.13-.09,16.54,16.54,0,0,0,1.68-.29c.62-.13,1.27-.3,2-.5a13.55,13.55,0,0,0,2-.73l-4-2.31c-.17.06-.34.13-.52.18l-.55.17c-1,.33-1.93.59-2.76.78a12.25,12.25,0,0,1-2.36.31,7.79,7.79,0,0,1-2.08-.19,6.87,6.87,0,0,1-1.93-.78,4.87,4.87,0,0,1-1.67-1.43,2.38,2.38,0,0,1-.46-1.55,2.93,2.93,0,0,1,.66-1.57,7.15,7.15,0,0,1,1.63-1.47l-2.37-1.37,1.4-.81,2.34,1.36a16.79,16.79,0,0,1,3.45-1.27,24.45,24.45,0,0,1,3.45-.62Zm-6.83,4.21a2.89,2.89,0,0,0,1.74.38,12.11,12.11,0,0,0,2.39-.54l-3.76-2.17Q217.23,465.1,218.93,466.08Zm13.2,1.1a3.07,3.07,0,0,0-1.89-.33,15.74,15.74,0,0,0-2.62.57l3.74,2.16C233,468.61,233.21,467.81,232.13,467.18Z"/><path class="cls-18" d="M223.6,471.73c0-.1,0-1.36,0-1.36l1.53,1-.66,1Z"/><polygon class="cls-18" points="236.98 472.59 236.98 471.23 233.66 471.49 235.57 472.79 236.98 472.59"/><polygon class="cls-18" points="237.26 467.61 237.26 466.24 234.78 467.14 237.26 467.61"/><path class="cls-18" d="M227,467.54l.83-.79,2.92,2-.18.59s-2.18-.92-2.25-1S227,467.54,227,467.54Z"/><path class="cls-18" d="M219.31,463.27l3.88,2.2.79-.58s-.49-.56-.52-.61a4.93,4.93,0,0,0-1.21-1c-.29-.06-2.13-.88-2.13-.88Z"/><polygon class="cls-18" points="225.76 461.87 225.76 460.51 223.98 459.93 223.6 461 223.69 461.48 225.76 461.87"/><polygon class="cls-18" points="213.93 460.89 213.93 459.53 216 459.75 215.33 461.07 213.93 460.89"/><path class="cls-18" d="M214,465.49v-1.41h2.36l-.57,1.26-1,1.13Z"/><path class="cls-20" d="M225.76,460.51a5.36,5.36,0,0,0-.92.08q-.61.09-1.38.24c-.51.11-1,.25-1.59.41a12.17,12.17,0,0,0-1.57.6l4,2.32.72-.25c1-.34,2-.63,2.89-.87a14.19,14.19,0,0,1,2.61-.43,9.46,9.46,0,0,1,2.39.16,7.68,7.68,0,0,1,2.29.9,4.58,4.58,0,0,1,1.73,1.52,2,2,0,0,1,.25,1.57,3.45,3.45,0,0,1-.94,1.55,9.66,9.66,0,0,1-1.83,1.45l2.55,1.47-1.39.81L233,470.55a21.61,21.61,0,0,1-3.83,1.45,25.81,25.81,0,0,1-4.23.79l-1.35-2.42a10,10,0,0,0,1.13-.08c.5-.06,1.06-.16,1.68-.29s1.27-.3,2-.5a14.85,14.85,0,0,0,2-.74l-4-2.3-.52.18-.55.17a27.64,27.64,0,0,1-2.76.77,12.31,12.31,0,0,1-2.36.32,7.78,7.78,0,0,1-2.08-.2,7.14,7.14,0,0,1-1.93-.77,4.89,4.89,0,0,1-1.67-1.44,2.38,2.38,0,0,1-.46-1.55,2.94,2.94,0,0,1,.66-1.56,7.41,7.41,0,0,1,1.63-1.48l-2.37-1.37,1.4-.8,2.34,1.35a17.36,17.36,0,0,1,3.45-1.26,26.07,26.07,0,0,1,3.45-.63Zm-6.83,4.22a2.88,2.88,0,0,0,1.74.37,10.83,10.83,0,0,0,2.39-.54l-3.76-2.17Q217.23,463.74,218.93,464.73Zm13.2,1.1a3,3,0,0,0-1.89-.34,14.92,14.92,0,0,0-2.62.58l3.74,2.16C233,467.25,233.21,466.45,232.13,465.83Z"/></g><ellipse class="cls-1" cx="404.91" cy="469.14" rx="43.61" ry="25.18"/><g id="Girl_10"><path id="_Контур_" data-name="&lt;Контур&gt;" class="cls-21" d="M402.91,207.24c1.95-3.13,16.84-5.19,21.74,7.43,1.86,4.78,1.57,17,3.12,24.69s5.22,12,6.53,18.27-.83,16.69-15.85,18.53-26.57-3.43-30.12-8.22-3.62-15,.07-20.43,6.48-9.91,6.39-17Z"/><path class="cls-22" d="M385.07,260s-3.53,24.9,3.14,42.6,4.82-4.56,4.82-4.56l-1.6-5.29s-1.34-20.36-.79-25.35.42-9.28.79-9.68-1.33-1.19-2-1.29S385.07,260,385.07,260Z"/><path id="_Контур_2" data-name="&lt;Контур&gt;" class="cls-21" d="M412.74,205.06s-11.21-3.23-18,2.83c-6.21,5.54-5.69,13.08-4.79,16.62s2.72,8.37,5.53,8.64S412.74,205.06,412.74,205.06Z"/><path id="_Контур_3" data-name="&lt;Контур&gt;" class="cls-22" d="M417,235.64s-.74,12.5-.51,13.42,4.91,1.8,6.22,2.89-6.8,13.77-10.92,15.65-16.89-2.92-17.77-9.27c-.82-5.85,3.65-10.39,5.37-12a28.24,28.24,0,0,1,3.52-.09l.38-6.06C408.91,238.43,417,235.64,417,235.64Z"/><path id="_Контур_4" data-name="&lt;Контур&gt;" class="cls-5" d="M418.74,250.27c3.51.54,7.53,2.42,8.08,4.34.64,2.24,2,12.81-1,20.86s-5.09,13.16-6.83,16.62c0,0-15.19,6.52-27.44-1.08,0,0-.84-8.62-.9-13.23-11.3-9.86-1.64-22,7.94-31.47a19.92,19.92,0,0,1,3.45-.05s-8.55,10.11-2.61,15.85C412.14,258.26,414.67,252.55,418.74,250.27Z"/><path id="_Контур_5" data-name="&lt;Контур&gt;" class="cls-22" d="M393.68,220.16h0c1.26-8,7.06-14.1,15.34-13.61a15.91,15.91,0,0,1,8,29.09,15.79,15.79,0,0,1-1.28,3.51c-2.94,3.42-10.72,5.58-13.29,5.62-2.23,0-4.14-2.05-6.23-5.5C391.9,232.08,393,224.12,393.68,220.16Z"/><path class="cls-21" d="M411.59,206.7c5.81,1.13,10.58,2.77,12.16,8.47,1.08,3.93,2.49,11.41,1.15,14.57l-.84,2.28-7,3.62s-3.28-2.73-2.26-10.75a5.7,5.7,0,0,0-1-3,8.63,8.63,0,0,1-1-2.42,9,9,0,0,0-4.56-4.93c-5.23-2.94-12.9-.4-14,.66C397.81,207.9,404.83,205.38,411.59,206.7Z"/><path class="cls-23" d="M422.14,459.79c-2.94,2.39-7.51.74-7.73.95-3,3-7.45,5.61-10.77,8.23-1.83,1.44-4.68,3.37-4.17,6.14.93,4.95,8.86,3.43,11.85,1.91s5.43-4,8.26-5.78c2-1.26,4-1.91,4.32-4.46C424.09,465.24,422.66,459.73,422.14,459.79Z"/><path class="cls-24" d="M423.86,465.76c-.39,2.44-2.35,3.11-4.35,4.35-2.88,1.79-5.41,4.37-8.4,5.88-2.76,1.4-9.66,2.79-11.6-.74,1.06,4.77,8.85,3.27,11.81,1.77s5.43-4,8.26-5.78c2-1.26,4-1.91,4.32-4.46A4.69,4.69,0,0,0,423.86,465.76Z"/><path class="cls-23" d="M401.52,455.67c-2.69,2.19-6.75,1-6.95,1.16-2.74,2.75-6.8,5.11-9.84,7.5-1.68,1.32-4.3,3.09-3.83,5.62.85,4.54,8.11,3.14,10.85,1.76s5-3.69,7.57-5.3c1.85-1.15,3.67-1.75,4-4.08C403.45,460.92,402,455.61,401.52,455.67Z"/><path class="cls-24" d="M403.24,461.39c-.35,2.23-2.15,2.85-4,4-2.64,1.64-5,4-7.7,5.38-2.53,1.29-8.84,2.56-10.62-.68,1,4.37,8.1,3,10.81,1.63s5-3.69,7.57-5.3c1.85-1.15,3.67-1.75,4-4.08A4,4,0,0,0,403.24,461.39Z"/><path class="cls-22" d="M385.68,318.94c1.29-10.13,5-24.85,5-24.85A29.85,29.85,0,0,0,402,296.88c6.54.33,17-1.65,17-1.65a104.44,104.44,0,0,0,6,9.27c2.92,4.05,8.6,12.94,7.23,28.47-.9,10.15-6.58,53.24-6.58,53.24a80.57,80.57,0,0,1,3.49,22.35c-.06,6.27-1.71,16.92-3.56,26.77l-3.39,24.46s-4.51,3.26-7.73.95l.41-23.93c-.4-5.86-1-14.5-1.35-20-.61-9-2.22-23.26-2.68-26.83s-1.61-9.79-2.15-16.77-3.18-42.45-3.18-42.45l-.36,6.64s-.35,10.79-1.9,24.09-2.09,19.21-2.09,19.21,2.69,4.95,3,8.59c.27,2.88,3.56,25.63,1.6,37.2l-4,29.42a7.73,7.73,0,0,1-7,.92l-2.37-29.65c-1.59-11.29-5-35.21-5.48-38.32-.68-4.09-1.24-6.11-2-19S384.38,329.07,385.68,318.94Z"/><path class="cls-25" d="M419,292.09l8.72,17.53s13.32,19.49-.48,69.6l2.59,15.46s-26.12,16.76-43.6,0c0,0-6.06-46.31-2.84-67.66a246,246,0,0,1,8.14-36.28s4.28,4.73,26.31,1.61"/><path id="_Контур_6" data-name="&lt;Контур&gt;" class="cls-22" d="M364.34,304.54c2,.38,3.91-.05,6.71.71a21.45,21.45,0,0,0,6.47,1c2.38,0,9.06-3.33,14.79-7.35,6.75-4.73,13.45-12.9,15.87-16.83,5.21-8.48,10.2-17.23,11.74-21.71,1.84-5.38,1.8-1.72,5-1.8,3.73-.09,5.74,1.28,2.94,8.58s-5.35,12.38-11.59,21a69.09,69.09,0,0,1-16.69,16.66,86.71,86.71,0,0,1-18.32,9.79c-1.87.77-3.06,1.8-6.45,3.68a24,24,0,0,1-11,3.16c-3.24-.08-4.4-.62-4.67-1.28-.34-.83.29-1.4,1.77-1.54a19.57,19.57,0,0,0,6.91-1.37s-3.23.46-5.18.56a19.62,19.62,0,0,1-5.19-.41c-1.64-.39-2.56-2.71-1.07-2.89s2.69.1,5.59-.09a19.39,19.39,0,0,0,4.52-.83,35.71,35.71,0,0,1-5.79-.42,8.13,8.13,0,0,1-4.27-1.71c-.63-.52-.74-2,1.14-2,1.69,0,3.81.78,7,.34,2.35-.33,4-.88,3.6-1.19s-1.73,0-3.67-.71-3.3-2.41-2.85-3.43S362.32,304.17,364.34,304.54Z"/><path class="cls-26" d="M426.13,274.06s-8.55.45-13.41-4.91l5.27-11s2.43-6.09,8.13-4.59S431.91,263.08,426.13,274.06Z"/><path class="cls-26" d="M398.58,246.31s-6.94-2.12-14.31,13.25l2.76,1.66S394.28,250.25,398.58,246.31Z"/></g><path class="cls-1" d="M195.1,339,81.5,273.42a6.38,6.38,0,0,1,0-11.05h0a6.38,6.38,0,0,1,6.38,0L201.48,328a6.38,6.38,0,0,1-.73,11.41h0A6.36,6.36,0,0,1,195.1,339Z"/><path class="cls-27" d="M146.05,299.33c-40.66-23.47-73.73-80.76-73.73-127.7s33.07-66,73.73-42.56,73.73,80.75,73.73,127.7S186.7,322.8,146.05,299.33Zm0-155c-33.38-19.27-60.54-3.59-60.54,34.95s27.16,85.57,60.54,104.84,60.53,3.6,60.53-34.94S179.43,163.57,146.05,144.3Z"/><polygon class="cls-27" points="83.82 129.6 97.33 122.22 95.31 131.48 83.82 129.6"/><path class="cls-27" d="M185.62,311.28c.33-.15,14.77-8.23,14.77-8.23l-11.16-1.79Z"/><ellipse class="cls-5" cx="136.64" cy="219.42" rx="54.81" ry="94.94" transform="translate(-91.41 97.72) rotate(-30)"/><path class="cls-28" d="M136.64,304.56C96,281.08,62.91,223.8,62.91,176.85s33.08-66,73.73-42.56,73.73,80.76,73.73,127.7S177.3,328,136.64,304.56Zm0-155c-33.37-19.27-60.53-3.6-60.53,34.94s27.16,85.58,60.53,104.85,60.54,3.59,60.54-34.95S170,168.8,136.64,149.53Z"/><path class="cls-28" d="M136.64,272.16C111.46,257.62,91,222.13,91,193.05s20.49-40.91,45.67-26.37,45.68,50,45.68,79.11S161.83,286.71,136.64,272.16Zm0-90.24c-17.91-10.34-32.48-1.93-32.48,18.75s14.57,45.92,32.48,56.26,32.48,1.92,32.48-18.76S154.55,192.26,136.64,181.92Z"/><path class="cls-28" d="M136.64,240.28c-10-5.75-18.06-19.79-18.06-31.29s8.1-16.18,18.06-10.43,18.07,19.79,18.07,31.29S146.61,246,136.64,240.28Zm0-26.48c-2.68-1.55-4.87-.29-4.87,2.81a10.79,10.79,0,0,0,4.87,8.43c2.69,1.55,4.87.29,4.87-2.81A10.76,10.76,0,0,0,136.64,213.8Z"/><polygon class="cls-29" points="11.02 290.9 4.26 290.99 26.22 281.67 13.49 289.58 11.02 290.9"/><ellipse class="cls-19" cx="12.75" cy="291.9" rx="1.41" ry="2.44" transform="translate(-144.25 45.49) rotate(-30)"/><ellipse class="cls-19" cx="136.96" cy="220.03" rx="1.41" ry="2.44" transform="translate(-91.67 97.97) rotate(-30)"/><polygon class="cls-29" points="15.64 300.69 14.03 293.96 31.69 282.7 30.92 284.29 15.64 300.69"/><path class="cls-19" d="M14,294c.15-.13,124.15-71.81,124.15-71.81l-2.28-4.3-124.38,72Z"/></g></g></svg>