<svg id="Layer_1" data-name="Layer 1" xmlns="http://www.w3.org/2000/svg" xmlns:xlink="http://www.w3.org/1999/xlink" viewBox="0 0 410.14 326.8"><defs><linearGradient id="linear-gradient" x1="201.59" y1="199.16" x2="211.26" y2="373.16" gradientUnits="userSpaceOnUse"><stop offset="0.01"/><stop offset="0.13" stop-opacity="0.69"/><stop offset="1" stop-opacity="0"/></linearGradient><linearGradient id="linear-gradient-2" x1="198.64" y1="-10.22" x2="235.46" y2="448.25" xlink:href="#linear-gradient"/><linearGradient id="linear-gradient-3" x1="125.2" y1="-15.74" x2="156.06" y2="368.4" xlink:href="#linear-gradient"/><linearGradient id="linear-gradient-4" x1="280.3" y1="17.87" x2="311.15" y2="402.03" xlink:href="#linear-gradient"/><linearGradient id="linear-gradient-5" x1="36.73" y1="221.84" x2="48.7" y2="341.98" xlink:href="#linear-gradient"/><linearGradient id="linear-gradient-6" x1="135.26" y1="178.5" x2="147.22" y2="298.64" xlink:href="#linear-gradient"/><linearGradient id="linear-gradient-7" x1="109.29" y1="369.87" x2="109.88" y2="275.2" xlink:href="#linear-gradient"/><linearGradient id="linear-gradient-8" x1="188.61" y1="170.74" x2="213" y2="267.86" xlink:href="#linear-gradient"/></defs><title>Cleaning PC</title><path d="M420.2,262.19c-2,17.57-9.62,34.05-20.31,48.24a131.48,131.48,0,0,1-9.13,10.82c-.64.68-1.29,1.35-1.94,2-24.93,25.49-60.11,38.27-95.67,35.67A935.87,935.87,0,0,1,148.3,336.87c-24.82-5.79-49.77-11.28-75.22-12.42-20.72-.92-33.5-6.58-41.55-14.35-15.95-15.39-13.3-39.05-16.89-50.5-6.17-19.66-4-40.82-1.82-61.31,1.42-13.12,3.07-26.9,10.83-37.58,5.87-8.08,14.64-13.51,23.42-18.27,37.57-20.35,80.06-32.73,112.64-60.36,24.47-20.76,47.11-46.62,79.08-49.29s64.9,11.11,85.47,35.74c15.48,18.55,23.82,42.07,38.26,61.43,8.22,11,18.28,20.54,26.65,31.42,13.77,17.93,22.66,39.28,27.77,61.3C419.93,235.62,421.67,249,420.2,262.19Z" transform="translate(-10.59 -32.47)" fill="#68e1fd" opacity="0.18" style="isolation:isolate"/><rect x="153.22" y="225.57" width="102.58" height="52.39" fill="#68e1fd"/><rect x="153.22" y="225.57" width="102.58" height="52.39" fill="url(#linear-gradient)"/><path d="M399.89,310.1v.33a131.48,131.48,0,0,1-9.13,10.82c-.64.68-1.29,1.35-1.94,2-24.93,25.49-60.11,38.27-95.67,35.67A935.87,935.87,0,0,1,148.3,336.87c-13.45-3.14-26.93-6.19-40.51-8.5a282.48,282.48,0,0,0-34.71-3.92c-12.27-.54-21.76-2.75-29.12-6.08l-.65-.3a44.11,44.11,0,0,1-7.15-4.14,38.48,38.48,0,0,1-4.63-3.83Z" transform="translate(-10.59 -32.47)" fill="#68e1fd" opacity="0.54" style="isolation:isolate"/><rect x="44.88" y="54.69" width="314.5" height="191.07" rx="15.42" fill="#68e1fd"/><path d="M370,102.58V228.25H55.47V102.58A15.42,15.42,0,0,1,70.89,87.16H354.55A15.43,15.43,0,0,1,370,102.58Z" transform="translate(-10.59 -32.47)" fill="url(#linear-gradient-2)"/><polygon points="145.04 55.62 44.88 195.78 122.94 195.78 228.2 55.01 145.04 55.62" fill="url(#linear-gradient-3)"/><path d="M370,102.58v21.84L292.34,228.25H214.28L314.43,88.09l44.37-.33A15.41,15.41,0,0,1,370,102.58Z" transform="translate(-10.59 -32.47)" fill="url(#linear-gradient-4)"/><path d="M370,228.25v34.56a15.42,15.42,0,0,1-15.42,15.42H70.89a15.42,15.42,0,0,1-15.42-15.42V228.25Z" transform="translate(-10.59 -32.47)" fill="#68e1fd"/><path d="M78.77,241.08a2.66,2.66,0,0,0-.5.82,1,1,0,0,0,.14.9,1.38,1.38,0,0,0,.8.37,14.61,14.61,0,0,0,4,.28,2.5,2.5,0,0,0,1.93-.77,2.57,2.57,0,0,0,.38-1.16c.07-.57.12-1.14.14-1.72a.49.49,0,0,0-.07-.32.52.52,0,0,0-.18-.12,7.31,7.31,0,0,0-4-.47C80.31,239.08,79.46,240.25,78.77,241.08Z" transform="translate(-10.59 -32.47)" fill="#f3bdbb"/><path d="M95.57,241.19a2.61,2.61,0,0,1-.5-.81,1,1,0,0,1,.14-.91,1.33,1.33,0,0,1,.8-.37,15,15,0,0,1,4-.27c.71,0,.4.77.83,1.34a25.77,25.77,0,0,1,2.38,2.92c.08.57-3.68.52-5,.29C97.11,243.2,96.26,242,95.57,241.19Z" transform="translate(-10.59 -32.47)" fill="#f3bdbb"/><path d="M80.15,238.63a1.2,1.2,0,0,0,.3,1,1.18,1.18,0,0,0,.66.19,33.78,33.78,0,0,0,4.15.08,1.19,1.19,0,0,0,.72-.17,1.36,1.36,0,0,0,.38-1c.66-10.28,1.79-20.54,3.36-30.72q2.61,12.93,4,26.05a13.24,13.24,0,0,0,1,4.58c.11.22.16,1.71.39,1.8a1.06,1.06,0,0,0,.56,0c1.66-.21,3.52-.36,5.18-.57-1.63-5.92-.81-13.51-.66-19.65.19-8.16-1-16.35-.31-24.49l-16.12.82c-.84,0-2.67.66-3.26.06-.71,10.86-.22,22-.33,32.83C80.2,232.52,80.18,235.58,80.15,238.63Z" transform="translate(-10.59 -32.47)" fill="#2e2e3f"/><path d="M70.28,180.12a3.41,3.41,0,0,0-.76.6,2.74,2.74,0,0,0-.74,1.58,1.94,1.94,0,0,0,.6,1.6,2.24,2.24,0,0,0,1.6.49,2,2,0,0,0,1.13-.37,2.54,2.54,0,0,0,.72-1.83,4,4,0,0,0-.34-2.31c-.26-.45-.46-.38-.91-.26A5.38,5.38,0,0,0,70.28,180.12Z" transform="translate(-10.59 -32.47)" fill="#f5bbb9"/><rect x="111.5" y="142.93" width="13.79" height="8.98" transform="translate(34.41 -59.3) rotate(15.93)" fill="#6868f6"/><rect x="106.27" y="113.01" width="1.88" height="8.45" rx="0.89" fill="#575b85"/><path d="M91.28,160.62a2.2,2.2,0,0,0,.24,1.79,1.5,1.5,0,0,0,.88.43,4.93,4.93,0,0,0,1.33.06,4.42,4.42,0,0,0,1.25-.21,2,2,0,0,0,1-.76,3,3,0,0,0,.31-1.28l.2-2.18a1.56,1.56,0,0,0,0-.57,1.2,1.2,0,0,0-1-.65,5.93,5.93,0,0,0-2.14.1c-.42.08-.84.18-1.25.29s-.69,0-.69.46A17.68,17.68,0,0,1,91.28,160.62Z" transform="translate(-10.59 -32.47)" fill="#f3bdbb"/><path d="M91.5,148.4a1.68,1.68,0,0,0,.4-.11,1.08,1.08,0,0,0,.33-.4,3.06,3.06,0,0,1,2-1.22,8.83,8.83,0,0,1,2.41,0,4.32,4.32,0,0,1,2.78.86,4.39,4.39,0,0,1,.82,1.24,5.62,5.62,0,0,1,.67,1.93c.15,1.53-.89,2.88-1.49,4.3A13.47,13.47,0,0,1,98,158.2a4.29,4.29,0,0,1-3.23,1.54,6.28,6.28,0,0,1-3.5-1A2.83,2.83,0,0,1,90,157.34a3.09,3.09,0,0,1-.09-1.25c.08-1.61.11-3.24.25-4.86C90.25,150.3,90.4,148.66,91.5,148.4Z" transform="translate(-10.59 -32.47)" fill="#b55f40"/><path d="M88.65,163.45c.18-1,.44-2.14,1.34-2.62s1.9-.12,2.86.07a8.5,8.5,0,0,0,2.25.15c.77,0,1.7-.12,2.14.51.32.48.24,1.24.75,1.52a1.33,1.33,0,0,0,.86,0,43.63,43.63,0,0,0,6.38-1.55,14.39,14.39,0,0,0,5.57-3.36,18.19,18.19,0,0,0,2.46-3.32,2.41,2.41,0,0,1,.62-.76,2,2,0,0,1,1.89.14,6.21,6.21,0,0,1,1.61,1.17.81.81,0,0,1,.21.32.75.75,0,0,1-.11.5c-2.17,4.52-4.5,9.24-8.57,12.19-1.07.77-2.24,1.41-3.28,2.22a11.94,11.94,0,0,0-3.26,4c-1.84,3.64-1.18,8-.6,12.07A13.56,13.56,0,0,1,102,191a10,10,0,0,1-1.84,3.84,5.86,5.86,0,0,1-2.09,2.08,6.28,6.28,0,0,1-2.06.45,69.41,69.41,0,0,1-12.39.55c-1.52-.12-3.28-.51-3.93-1.89a4.81,4.81,0,0,1-.07-2.84,82.67,82.67,0,0,0,1.2-12.56c-.72.5-.87,1.49-1.29,2.27A4.41,4.41,0,0,1,76.41,185a13.5,13.5,0,0,1-3.86,0,1.21,1.21,0,0,1-.7-.24,1.11,1.11,0,0,1-.26-.75,13.11,13.11,0,0,1,.15-3.31,2.8,2.8,0,0,1,.35-1.08,4.51,4.51,0,0,1,2.13-1.33,7.65,7.65,0,0,0,3.43-3.63A17.9,17.9,0,0,0,79,169.72c.25-1.56.52-3.28,1.74-4.28a6.14,6.14,0,0,1,2.79-1.05C85.39,164,86.81,163.81,88.65,163.45Z" transform="translate(-10.59 -32.47)" fill="#68e1fd"/><path d="M55.28,231.53H74.35s-1.77,11-2.55,11.2-13.77,0-13.77,0Z" transform="translate(-10.59 -32.47)" fill="#2e2e3f"/><circle cx="54.34" cy="199.21" r="1.71" fill="#2e2e3f"/><path d="M64.48,231l10.41,9.59s1,.63.91-.52l-10.69-9.42S64.32,230.25,64.48,231Z" transform="translate(-10.59 -32.47)" fill="#2e2e3f"/><path d="M115.35,149.46a.67.67,0,0,1,.08-.4.59.59,0,0,1,.24-.17,14.05,14.05,0,0,0,1.31-1,1.89,1.89,0,0,1,1.53-.42.73.73,0,0,1,.4.23,1,1,0,0,1,.13.33,6.11,6.11,0,0,1,.18,1.9,1.54,1.54,0,0,1-.45,1.16c-.17.12-.38.19-.54.31a1.85,1.85,0,0,0-.51,1.4,20.33,20.33,0,0,1-.27,2.2.71.71,0,0,1-.21.47.68.68,0,0,1-.66,0c-.53-.25-1.82-.83-1.66-1.56.09-.4.29-.77.36-1.18a8.47,8.47,0,0,0,.13-1.51C115.41,150.61,115.38,150,115.35,149.46Z" transform="translate(-10.59 -32.47)" fill="#f3bdbb"/><rect x="98.27" y="105.98" width="18.08" height="2.1" rx="1.05" fill="#575b85"/><rect x="106.75" y="107.34" width="0.7" height="6.3" fill="#575b85"/><rect x="25.52" y="210.37" width="118.82" height="5.28" rx="2.64" fill="#2e2e3f"/><path d="M44,196.87v121.5a44.93,44.93,0,0,1-7.8-4.44V196.87a3.9,3.9,0,1,1,7.8,0Z" transform="translate(-10.59 -32.47)" fill="#2e2e3f"/><rect x="136.1" y="160.51" width="7.8" height="131.21" rx="3.9" fill="#2e2e3f"/><path d="M44,196.87v121.5a44.93,44.93,0,0,1-7.8-4.44V196.87a3.9,3.9,0,1,1,7.8,0Z" transform="translate(-10.59 -32.47)" fill="url(#linear-gradient-5)"/><rect x="136.1" y="160.51" width="7.8" height="131.21" rx="3.9" fill="url(#linear-gradient-6)"/><rect x="36.19" y="256.02" width="30.71" height="3.14" rx="1.57" transform="translate(-177.63 79.42) rotate(-45)" fill="#2e2e3f"/><rect x="123.54" y="256.02" width="30.71" height="3.14" rx="1.57" transform="translate(212.23 -55.24) rotate(45)" fill="#2e2e3f"/><path d="M146.85,76s3.14,15.66-12.91,21.1c0,0,18.78-7.2,24.26,7.73,0,0-4.26-17.75,10.3-22.83C168.5,82,151.11,92.76,146.85,76Z" transform="translate(-10.59 -32.47)" fill="#68e1fd"/><path d="M110.67,78.88s-.84,10.59-10.28,13.81c0,0,12.89-5.06,14.14,5.83,0,0-2-11.86,8.26-12.89C122.79,85.63,110.83,90.47,110.67,78.88Z" transform="translate(-10.59 -32.47)" fill="#68e1fd"/><path d="M153,113.71s-.89,11.58-10.87,15.11c0,0,13.63-5.54,15,6.37,0,0-2.15-13,8.74-14.09C165.83,121.1,153.17,126.38,153,113.71Z" transform="translate(-10.59 -32.47)" fill="#68e1fd"/><path d="M175.88,322.39a6,6,0,0,1-6,6H107.79a282.48,282.48,0,0,0-34.71-3.92c-12.27-.54-21.76-2.75-29.12-6.08l-.65-.3a6,6,0,0,1,4.14-1.66H169.9A6,6,0,0,1,175.88,322.39Z" transform="translate(-10.59 -32.47)" fill="url(#linear-gradient-7)"/><circle cx="199.81" cy="215.35" r="10.59" fill="url(#linear-gradient-8)"/></svg>