<svg xmlns="http://www.w3.org/2000/svg" xmlns:xlink="http://www.w3.org/1999/xlink" version="1.1" id="Testing" x="0px" y="0px" viewBox="0 0 1920 1080" style="enable-background:new 0 0 1920 1080;" xml:space="preserve">
<style type="text/css">
	.st0{opacity:0.1;fill:#2A94F4;}
	.st1{opacity:0.1;fill:#34C3EA;}
	.st2{fill:#0B4870;}
	.st3{fill:#0E538C;}
	.st4{fill:#163C47;}
	.st5{fill:#CCE9FF;}
	.st6{fill:#2A94F4;}
	.st7{fill:#F7F7F7;}
	.st8{fill:#31A1F4;}
	.st9{fill:#D3D3D3;}
	.st10{fill:#FFFFFF;}
	.st11{fill:#ADCFE0;}
	.st12{fill:#E9F8FF;}
	.st13{fill:#FFBE55;}
	.st14{opacity:8.000000e-02;}
	.st15{clip-path:url(#SVGID_2_);}
</style>
<path class="st0" d="M326.9,269.1C668.7,190.9,705.3-0.1,926.2,0s245.8,192.7,450.1,124.6s394-16.3,419.4,279  s-77.9,530.7-630.4,424.2S690.9,996,442.4,960.2C193.9,924.5-14.9,347.3,326.9,269.1z"/>
<ellipse class="st1" cx="954.3" cy="1018.1" rx="429.3" ry="55.1"/>
<g>
	<g>
		<rect x="893" y="629.4" class="st2" width="122.6" height="372.4"/>
	</g>
</g>
<g>
	<path class="st3" d="M434.5,844.9h1039.5c5.3,0,9.6-4.3,9.6-9.6V107.7c0-5.3-4.3-9.6-9.6-9.6H434.5c-5.3,0-9.6,4.3-9.6,9.6v727.7   C424.9,840.7,429.2,844.9,434.5,844.9z"/>
</g>
<g>
	<path class="st4" d="M920.1,781.5c0,18.9,15.3,34.2,34.2,34.2c18.9,0,34.2-15.3,34.2-34.2c0-18.9-15.3-34.1-34.2-34.1   C935.4,747.3,920.1,762.6,920.1,781.5z"/>
</g>
<rect x="678.5" y="957.5" class="st3" width="551.6" height="60.6"/>
<g>
	<g>
		
			<rect x="462.4" y="134.7" transform="matrix(-1 -1.224647e-16 1.224647e-16 -1 1906.7004 843.8487)" class="st5" width="982" height="574.5"/>
	</g>
	<rect x="505.1" y="177.4" class="st6" width="894.8" height="55"/>
	<rect x="505.1" y="232.4" class="st7" width="894.8" height="339.2"/>
	<rect x="479.2" y="433.9" class="st8" width="413.4" height="233.1"/>
	<rect x="479.2" y="410.8" class="st9" width="419.4" height="23.1"/>
	<g>
		<g>
			<rect x="668.8" y="464.3" class="st10" width="161.6" height="2.8"/>
			<g>
				<rect x="497.9" y="453.9" class="st10" width="367.5" height="2.8"/>
				<rect x="497.9" y="464.3" class="st10" width="161.6" height="2.8"/>
				<rect x="838.2" y="464.3" class="st10" width="27.2" height="2.8"/>
			</g>
		</g>
		<g>
			
				<rect x="532.8" y="487.9" transform="matrix(-1 -1.224647e-16 1.224647e-16 -1 1227.2201 978.5401)" class="st10" width="161.6" height="2.8"/>
			<g>
				
					<rect x="497.9" y="498.3" transform="matrix(-1 -1.224647e-16 1.224647e-16 -1 1363.2242 999.412)" class="st10" width="367.5" height="2.8"/>
				
					<rect x="703.8" y="487.9" transform="matrix(-1 -1.224647e-16 1.224647e-16 -1 1569.1371 978.5401)" class="st10" width="161.6" height="2.8"/>
				
					<rect x="497.9" y="487.9" transform="matrix(-1 -1.224647e-16 1.224647e-16 -1 1022.8893 978.5401)" class="st10" width="27.2" height="2.8"/>
			</g>
		</g>
		<rect x="497.9" y="474.7" class="st10" width="367.5" height="2.8"/>
		<g>
			<rect x="668.8" y="522.4" class="st10" width="161.6" height="2.8"/>
			<g>
				<rect x="497.9" y="512" class="st10" width="367.5" height="2.8"/>
				<rect x="497.9" y="522.4" class="st10" width="161.6" height="2.8"/>
				<rect x="838.2" y="522.4" class="st10" width="27.2" height="2.8"/>
			</g>
		</g>
		<g>
			
				<rect x="532.8" y="545.9" transform="matrix(-1 -1.224647e-16 1.224647e-16 -1 1227.2201 1094.7303)" class="st10" width="161.6" height="2.8"/>
			<g>
				
					<rect x="497.9" y="556.4" transform="matrix(-1 -1.224647e-16 1.224647e-16 -1 1363.2242 1115.6022)" class="st10" width="367.5" height="2.8"/>
				
					<rect x="703.8" y="545.9" transform="matrix(-1 -1.224647e-16 1.224647e-16 -1 1569.1371 1094.7303)" class="st10" width="161.6" height="2.8"/>
				
					<rect x="497.9" y="545.9" transform="matrix(-1 -1.224647e-16 1.224647e-16 -1 1022.8893 1094.7303)" class="st10" width="27.2" height="2.8"/>
			</g>
		</g>
		<rect x="497.9" y="532.8" class="st10" width="367.5" height="2.8"/>
	</g>
	<rect x="883.3" y="433.9" class="st11" width="15.2" height="233.1"/>
	<rect x="929.3" y="330.4" class="st8" width="470.6" height="55"/>
	<rect x="929.3" y="385.4" class="st7" width="470.6" height="281.5"/>
	<path class="st12" d="M895.7,437.2h-9.6c-1.6,0-2.8,1.3-2.8,2.8v11.1c0,1.6,1.3,2.8,2.8,2.8h9.6c1.6,0,2.8-1.3,2.8-2.8V440   C898.6,438.5,897.3,437.2,895.7,437.2z"/>
</g>
<g>
	<g>
		
			<rect x="1117.5" y="683.4" transform="matrix(0.6072 -0.7946 0.7946 0.6072 -156.4399 1213.4977)" class="st13" width="63.1" height="163.1"/>
		
			<rect x="1117.5" y="683.4" transform="matrix(0.6072 -0.7946 0.7946 0.6072 -156.4399 1213.4977)" class="st14" width="63.1" height="163.1"/>
		<path class="st13" d="M1441.5,968.9l-18.9,24.7c-12.2,16-35.1,19.1-51.1,6.8l-205.5-157l63.2-82.6l205.5,157    C1450.7,930,1453.7,952.9,1441.5,968.9z"/>
	</g>
	<circle class="st13" cx="850.2" cy="525.6" r="316.1"/>
	<g>
		<defs>
			<circle id="SVGID_1_" cx="850.2" cy="527.5" r="261.3"/>
		</defs>
		<clipPath id="SVGID_2_">
			<use xlink:href="#SVGID_1_" style="overflow:visible;"/>
		</clipPath>
		<g class="st15">
			<g>
				
					<rect x="252.2" y="209.9" transform="matrix(-1 -1.224647e-16 1.224647e-16 -1 1569.1373 1101.5652)" class="st5" width="1064.7" height="681.8"/>
			</g>
			<rect x="298.6" y="204.9" class="st7" width="970.1" height="442.3"/>
			<rect x="282.1" y="402.4" class="st6" width="734.6" height="414.1"/>
			<rect x="282.1" y="361.5" class="st9" width="745.2" height="41"/>
			<g>
				<g>
					<rect x="619.1" y="456.5" class="st10" width="287.1" height="5"/>
					<g>
						<rect x="315.3" y="438" class="st10" width="653" height="5"/>
						<rect x="315.3" y="456.5" class="st10" width="287.1" height="5"/>
						<rect x="920.1" y="456.5" class="st10" width="48.3" height="5"/>
					</g>
				</g>
				<g>
					
						<rect x="377.4" y="498.4" transform="matrix(-1 -1.224647e-16 1.224647e-16 -1 1042.0022 1001.7803)" class="st10" width="287.1" height="5"/>
					<g>
						
							<rect x="315.3" y="516.9" transform="matrix(-1 -1.224647e-16 1.224647e-16 -1 1283.6774 1038.869)" class="st10" width="653" height="5"/>
						
							<rect x="681.2" y="498.4" transform="matrix(-1 -1.224647e-16 1.224647e-16 -1 1649.5781 1001.7803)" class="st10" width="287.1" height="5"/>
						
							<rect x="315.3" y="498.4" transform="matrix(-1 -1.224647e-16 1.224647e-16 -1 678.9128 1001.7803)" class="st10" width="48.3" height="5"/>
					</g>
				</g>
				<rect x="315.3" y="475.1" class="st10" width="653" height="5"/>
				<g>
					<rect x="619.1" y="559.8" class="st10" width="287.1" height="5"/>
					<g>
						<rect x="315.3" y="541.2" class="st10" width="653" height="5"/>
						<rect x="315.3" y="559.8" class="st10" width="287.1" height="5"/>
						<rect x="920.1" y="559.8" class="st10" width="48.3" height="5"/>
					</g>
				</g>
				<g>
					
						<rect x="377.4" y="601.6" transform="matrix(-1 -1.224647e-16 1.224647e-16 -1 1042.0022 1208.2467)" class="st10" width="287.1" height="5"/>
					<g>
						
							<rect x="315.3" y="620.1" transform="matrix(-1 -1.224647e-16 1.224647e-16 -1 1283.6774 1245.3353)" class="st10" width="653" height="5"/>
						
							<rect x="681.2" y="601.6" transform="matrix(-1 -1.224647e-16 1.224647e-16 -1 1649.5781 1208.2467)" class="st10" width="287.1" height="5"/>
						
							<rect x="315.3" y="601.6" transform="matrix(-1 -1.224647e-16 1.224647e-16 -1 678.9128 1208.2467)" class="st10" width="48.3" height="5"/>
					</g>
				</g>
				<rect x="315.3" y="578.3" class="st10" width="653" height="5"/>
			</g>
			<rect x="1000.3" y="402.4" class="st5" width="27.1" height="414.1"/>
			<path class="st7" d="M1024.5,408.3h-21.5c-1.6,0-2.8,1.3-2.8,2.8v24c0,1.6,1.3,2.8,2.8,2.8h21.5c1.6,0,2.8-1.3,2.8-2.8v-24     C1027.3,409.6,1026.1,408.3,1024.5,408.3z"/>
		</g>
	</g>
</g>
</svg>