<svg xmlns="http://www.w3.org/2000/svg" xmlns:xlink="http://www.w3.org/1999/xlink" version="1.1" x="0px" y="0px" width="500px" height="421px" viewBox="0 0 500 421" enable-background="new 0 0 500 421" xml:space="preserve">
<g id="BACKGROUND">
</g>
<g id="OBJECTS">
</g>
<g id="DESIGNED_BY_FREEPIK">
	<path opacity="0.1" fill="#FFBE55" d="M377.85,155.097c-13.779-5.67-28.38-8.26-42-14.49c-14.08-6.42-19.51-16.06-30.239-27.45   c-19.41-20.609-52.44-16.649-76.23-4.62c-3.83,1.94-7.42,4.08-10.67,6.37c-11.38,7.99-20.53,19.62-31.71,27.63   c-10.56,7.57-23.45,9.41-35.53,10.681c-21.05,2.199-64.97,23.35-57.04,62.54c2.88,14.26,13.061,23.949,18.261,36.859   c5.55,13.74,4.96,30.88,13.79,42.79c3.88,5.23,9.229,8.69,14.729,11.311c36.61,17.43,77.71,16.62,116.53,14.699   c30.63-1.51,79.83,6.5,106.74-13.069c13.359-9.72,6.409-36.28,15.659-50.55c7.771-11.99,18.341-19.86,23.53-34.87   C412.51,197.387,399.91,164.156,377.85,155.097z M341.24,237.797v29.609l-26.5,15.87l-25.55-15.3l-0.431,0.29l-9.02,5.5v26.89   l-26.5,15.87l-26.5-15.87v-28.47l-6.83-3.82l-1.01-0.16l-25.16,15.07l-26.5-15.87v-29.609l26.5-16.271l22.99,14.11l10.01-5.51   v-28.58l26.5-16.271l25.979,15.95l8.42-4.63l0.601-0.58v-27.75l-10.29-5.811l-24.71,14.79l-25.431-15.22l-0.619,0.26l-8.171,4.761   l1.221,0.75v29.609l-26.5,15.87l-26.5-15.87v-0.2L138,214.137l-1-1.721l30.24-17.51v-27.109l26.5-16.271l23.34,14.33h0.01   l9.271-5.4l0.38-0.159v-28.53l26.5-16.271l26.5,16.271v29.41l10.09,5.64l24.91-15.29l26.5,16.271v29.609l-26.5,15.87l-25.641-15.35   l-0.38,0.359l-8.979,4.94v27.93l-26.5,15.87l-25.4-15.21l-9.149,5.03l1.55,0.95v28.6l0.33,0.05l7.149,4l25.521-15.67l26.5,16.271   v0.38l7.979-4.87l0.521-0.351v-28.409l26.5-16.271l21.02,12.91l16.46-9.01l2.04,0.71l-16.62,9.45L341.24,237.797z"/>
	<g>
		<polygon fill="#2A94F4" points="167.24,194.906 167.24,197.206 138,214.137 137,212.416   "/>
		<polygon fill="#2A94F4" points="227.81,162.026 227.19,162.286 219.02,167.047 217.09,165.856 226.36,160.456 226.74,160.297     226.74,161.387   "/>
		<polygon fill="#2A94F4" points="227.84,231.816 218.69,236.847 216.73,235.637 226.74,230.127 226.74,231.156   "/>
		<polygon fill="#2A94F4" points="355.26,225.137 337.64,235.587 335.76,234.437 353.22,224.427   "/>
		<g>
			<polygon opacity="0.8" fill="#FFBE55" points="193.74,182.576 193.74,213.276 167.24,197.406 167.24,167.797 191.01,181.057      193.03,182.187 193.04,182.187    "/>
			<polygon fill="#FFBE55" points="220.24,167.797 220.24,197.406 193.74,213.276 193.74,182.576    "/>
			<polygon opacity="0.6" fill="#FFBE55" points="220.24,167.797 193.74,182.576 193.04,182.187 193.03,182.187 191.01,181.057      167.24,167.797 193.74,151.526 217.08,165.856 217.09,165.856 219.02,167.047    "/>
		</g>
		<g>
			<polygon opacity="0.8" fill="#FFBE55" points="314.74,182.576 314.74,213.276 289.1,197.927 288.24,197.406 288.24,167.797      295.09,171.616 295.1,171.627    "/>
			<polygon fill="#FFBE55" points="341.24,167.797 341.24,197.406 314.74,213.276 314.74,182.576    "/>
			<polygon opacity="0.6" fill="#FFBE55" points="341.24,167.797 314.74,182.576 295.1,171.627 295.09,171.616 288.24,167.797      289.83,166.816 314.74,151.526    "/>
		</g>
		<g>
			<polygon opacity="0.8" fill="#FFBE55" points="193.74,252.576 193.74,283.276 167.24,267.406 167.24,237.797    "/>
			<polygon fill="#FFBE55" points="220.24,237.797 220.24,267.406 218.9,268.206 193.74,283.276 193.74,252.576 215.24,240.587      217.24,239.467    "/>
			<polygon opacity="0.6" fill="#FFBE55" points="220.24,237.797 217.24,239.467 215.24,240.587 193.74,252.576 167.24,237.797      193.74,221.526 216.73,235.637 218.69,236.847    "/>
		</g>
		<g>
			<polygon opacity="0.8" fill="#FFBE55" points="314.74,252.576 314.74,283.276 289.19,267.977 288.24,267.406 288.24,237.797      311.41,250.717 313.37,251.807    "/>
			<polygon fill="#FFBE55" points="341.24,237.797 341.24,267.406 314.74,283.276 314.74,252.576    "/>
			<polygon opacity="0.6" fill="#FFBE55" points="341.24,237.797 314.74,252.576 313.37,251.807 311.41,250.717 288.24,237.797      314.74,221.526 335.76,234.437 337.64,235.587    "/>
		</g>
		<g>
			<polygon opacity="0.8" fill="#FFBE55" points="253.24,146.547 253.24,177.246 227.81,162.026 226.74,161.387 226.74,131.767         "/>
			<polygon fill="#2A94F4" points="289.83,166.816 288.24,167.797 288.24,168.267 277.95,162.456 279.74,161.387 279.74,161.177         "/>
			<polygon fill="#FFBE55" points="279.74,131.767 279.74,161.387 277.95,162.456 253.24,177.246 253.24,146.547    "/>
			<polygon opacity="0.6" fill="#FFBE55" points="279.74,131.767 253.24,146.547 226.74,131.767 253.24,115.496    "/>
		</g>
		<g>
			<polygon opacity="0.8" fill="#FFBE55" points="253.24,216.326 253.24,247.026 227.84,231.816 226.74,231.156 226.74,201.547      252.53,215.927    "/>
			<polygon fill="#FFBE55" points="279.74,201.547 279.74,231.156 253.24,247.026 253.24,216.326    "/>
			<polygon fill="#2A94F4" points="289.1,197.927 288.72,198.286 279.74,203.227 279.74,201.547 279.22,201.227 287.64,196.597      288.24,196.017 288.24,197.406    "/>
			<polygon opacity="0.6" fill="#FFBE55" points="279.74,201.547 253.24,216.326 252.53,215.927 226.74,201.547 253.24,185.276      279.22,201.227    "/>
		</g>
		<g>
			<polygon opacity="0.8" fill="#FFBE55" points="253.24,285.826 253.24,316.526 226.74,300.656 226.74,271.047 234.95,275.627      234.98,275.637    "/>
			<polygon fill="#2A94F4" points="289.19,267.977 288.76,268.267 279.74,273.767 279.74,271.427 287.72,266.557 288.24,266.206      288.24,267.406    "/>
			<polygon fill="#FFBE55" points="279.74,271.047 279.74,300.656 253.24,316.526 253.24,285.826 257.25,283.587 259.57,282.297         "/>
			<polygon fill="#2A94F4" points="227.72,270.446 226.74,271.047 226.74,272.187 219.91,268.366 218.9,268.206 220.24,267.406      220.24,266.396 220.57,266.446    "/>
			<polygon opacity="0.6" fill="#FFBE55" points="279.74,271.047 259.57,282.297 257.25,283.587 253.24,285.826 234.98,275.637      234.95,275.627 226.74,271.047 227.72,270.446 253.24,254.776    "/>
		</g>
	</g>
	<circle fill="#2A94F4" cx="140.25" cy="211.276" r="7.25"/>
	<circle fill="#2A94F4" cx="351.934" cy="225.541" r="7.25"/>
	<g>
		<path fill="#0B4870" d="M123.497,220.303c0,0-13.889-1.963-14.923,30.61c-0.518,6.204,0,9.102,0,9.102l9.075-0.619    C117.649,259.396,119.107,219.786,123.497,220.303z"/>
		<g>
			<g>
				<path fill="#2A94F4" d="M148.928,358.295c0,0,3.354,4.518,2.896,5.233c-0.461,0.716-3.989,0.817-6.137,0      c-2.147-0.819-2.198-6.111-3.169-8.386c-0.408-0.952,0.463-3.763,1.688-3.968c1.223-0.202,2.554,0.396,2.554,0.396      S145.489,354.774,148.928,358.295z"/>
			</g>
			<g>
				<g>
					<path fill="#EEBEA7" d="M146.782,351.535c0,0,0.704,1.922,0.963,3.758c0.214,1.523,2.391,4.758,2.288,5.168       c-0.102,0.407-2.863,0.779-3.988-0.276c-1.125-1.054-1.85-4.121-2.097-5.956c-0.231-1.708-0.522-2.553-0.522-2.553       S145.707,350.41,146.782,351.535z"/>
				</g>
			</g>
			<g>
				<path fill="#2A94F4" d="M119.726,358.37c0,0,3.234,4.442,2.773,5.158s-3.987,0.817-6.135,0c-2.148-0.819-2.2-6.111-3.171-8.386      c-0.407-0.952,0.465-3.763,1.688-3.968c1.224-0.202,2.658,0.438,2.658,0.438S116.287,354.848,119.726,358.37z"/>
			</g>
			<g>
				<g>
					<path fill="#EEBEA7" d="M117.539,351.613c0,0,0.256,2.097,0.666,3.58c0.408,1.483,2.606,4.857,2.505,5.268       c-0.103,0.407-2.863,0.779-3.989-0.276c-1.124-1.054-1.994-4.106-2.096-5.956c-0.103-1.848,0.256-3.054,0.256-3.054       S116.466,350.488,117.539,351.613z"/>
				</g>
			</g>
			<g>
				<polygon fill="#2A94F4" points="142.428,354.745 142.428,359.474 143.041,359.474 143.041,355.818     "/>
			</g>
			<g>
				<polygon fill="#2A94F4" points="113.104,354.745 113.104,359.474 113.717,359.474 113.717,355.818     "/>
			</g>
			<g>
				<path fill="#FFBE55" d="M129.969,243.408c0,0,2.639,0.828,4.144,2.898c1.507,2.07,1.742,4.963,1.81,6.443      s0.471,7.197,0.471,7.197l-4.473,1.255L129.969,243.408z"/>
				<g>
					<g>
						<path fill="#0B4870" d="M133.701,278.082c0,0,2.877,13.394,3.539,16.766c0.661,3.371,2.512,19.703,2.711,22.48        c0.199,2.775,3.004,13.239,2.872,14.232c-0.132,0.99,4.159,20.913,4.159,20.913s-1.465,1.181-3.011,0.107        c-0.795-0.553-9.417-18.651-9.417-23.61c0-6.854-5.068-15.803-5.723-17.336c-6.075-14.247-4.879-18.604-5.673-19.528        s-0.862,0.573-1.325,2.622c-0.463,2.05-1.454,19.769-2.049,22.018c-0.595,2.247-0.133,9.851-0.463,13.688        c-0.331,3.834-1.783,21.18-1.783,21.18s-1.125,1.762-2.701,0.047c-0.339-0.37-2.723-19.324-2.789-23.886        c-0.066-4.562-0.136-10.854-0.264-12.827c-1.226-18.905-4.236-21.605,0.505-34.986        C121.169,254.91,133.701,278.082,133.701,278.082z"/>
					</g>
				</g>
				<g>
					<path fill="#FFBE55" d="M125.375,241.721c0,0,3.545,1.477,4.594,1.688c1.049,0.21,4.596,5.447,5.31,7.377s0,4.826-1.469,8.226       c-1.47,3.399-0.085,4.533-0.755,7.933c-0.672,3.399,1.496,10.646,1.621,12.536s-19.73,2.194-23.632-1.247       c0,0,3.921-5.876,4.425-6.715c0.504-0.84,0.086-5.415-0.376-6.59c-0.462-1.174-3.535-11.167-3.535-11.167       s-2.514-7.675-0.243-9.438c1.973-1.532,7.348-2.078,8.313-2.414C120.594,241.573,123.401,241.428,125.375,241.721z"/>
				</g>
				<g>
					<path fill="#EEBEA7" d="M126.815,238.233c0,0-0.081,0.758-0.18,1.805c-0.042,0.465-0.09,0.986-0.132,1.522       c-0.123,1.528-0.224,3.18-0.165,4.021c0,0-3.14,3.147-6.711-3.672c0,0,1.503-2.812,0.371-6.642       C118.868,231.438,126.815,238.233,126.815,238.233z"/>
				</g>
				<g>
					<g>
						<g>
							<path fill="#EEBEA7" d="M127.887,220.818c0,0,7.041,2.211,3.22,14.361c-3.822,12.15-13.438-1.407-12.432-8.811         C119.68,218.967,127.887,220.818,127.887,220.818z"/>
						</g>
					</g>
				</g>
				<g>
					<g>
						<g>
							<path fill="#0B4870" d="M131.825,227.907c0,0-3.499,3.433-9.353,3.861c0,0-2.25,2.639-2.424,3.674         c0,0-6.125-10.23,1.199-14.24C129.007,216.953,134.186,225.708,131.825,227.907z"/>
						</g>
					</g>
				</g>
				<g>
					<g>
						<g>
							<path fill="#EEBEA7" d="M122.427,231.699c-0.045-0.883-0.59-2.896-1.904-2.333c-1.313,0.563,0.081,4.662,0.953,4.41         C121.476,233.776,122.534,233.793,122.427,231.699z"/>
						</g>
					</g>
				</g>
				<path fill="#A77860" d="M126.636,240.038c-0.042,0.465-0.09,0.986-0.132,1.522h-0.001c-4.071-2.008-4.694-4.907-4.713-4.996      C124.691,240.312,126.636,240.038,126.636,240.038z"/>
				<path fill="#1D3B54" d="M135.646,252.665c0,0,0.192,4.278-0.767,6.73l-0.881-0.458      C133.998,258.938,135.629,254.658,135.646,252.665z"/>
				<g>
					<g>
						<g>
							<path fill="#EEA886" d="M120.374,266.576c0,0,1.625-1.076,1.88-1.234c0.252-0.156,1.14-0.105,2.054,0.184         c0.888,0.279,1.887,0.666,2.164,0.821c0.144,0.081,0.287,0.108,0.225,0.527c-0.062,0.419-0.345,0.739-0.345,0.739         s0.165,0.554-0.213,0.922c0,0,0.132,0.528-0.367,0.876c0,0,0.115,0.519-0.269,0.741c0,0-0.831,0.113-1.144,0.046         c-0.445-0.094-2.769-0.628-4.399-1.058C119.96,269.141,119.285,268.739,120.374,266.576z"/>
						</g>
					</g>
					<g>
						<path fill="#EEA886" d="M125.979,266.215c0,0,4.212,0.924,4.159,1.25c-0.075,0.475-1.118,0.648-4.316-0.231        C122.713,266.377,125.979,266.215,125.979,266.215z"/>
					</g>
					<path fill="#FFBE55" d="M115.601,243.615c-0.955-0.578-4.144-0.514-5.39,2.479c-1.246,2.993-2.264,6.4-3.137,7.965       c-0.874,1.562-3.842,8.705-2.961,9.562c0.882,0.856,2.693,1.878,5.42,2.519c2.814,0.663,10.977,3.704,10.977,3.704l1.044-4.421       c0,0-3.59-1.712-5.662-2.544c-1.844-0.738-1.616-0.934-4.656-2.01c0,0,1.746-4.445,2.53-5.635       C114.551,254.049,119.899,246.217,115.601,243.615z"/>
				</g>
				<g>
					<path fill="#D3D3D3" d="M126.715,274.107l10.923-0.882c0.492-0.039,0.936-0.311,1.194-0.729l11.321-18.365       c0.633-1.025-0.097-2.348-1.302-2.36l-11.704-0.124c-0.574-0.007-1.104,0.305-1.377,0.809l-10.541,19.369       C124.642,272.906,125.488,274.207,126.715,274.107z"/>
				</g>
				<g>
					<g>
						<path fill="#EEA886" d="M142.01,267.357c0,0,0.687-0.639,1.299-1.531s2.616-4.303,2.432-4.518        c-0.183-0.214-3.156-0.286-3.694,0.199c-0.539,0.484,0.531,0.676,0.531,0.676s-1.627,0.166-1.511,0.626        c0.117,0.46,1.095,0.331,1.095,0.331s-1.308,0.252-1.108,0.654c0.196,0.403,0.825,0.398,0.825,0.398s-1.158,0.146-1.016,0.586        c0.145,0.44,1.979,0.855,1.733,1.222C142.351,266.366,142.01,267.357,142.01,267.357z"/>
					</g>
				</g>
				<path fill="#EEBEA7" d="M119.108,242.037c0,0,3.944,6.423,7.073,6.346c3.127-0.074,0.993-5.938,0.993-5.938      S124.773,240.525,119.108,242.037z"/>
				
					<ellipse transform="matrix(0.7072 0.707 -0.707 0.7072 225.959 -21.0351)" fill="#F7F7F7" cx="138.378" cy="262.313" rx="1.803" ry="2.706"/>
			</g>
		</g>
	</g>
	<g>
		<g>
			<g>
				<path fill="#0B4870" d="M393.579,354.217c0,0,1.615,1.151,2.51,1.959c0.895,0.807,2.111,1.685,2.855,3.746      c0.756,2.085,1.542,3.589-0.477,3.712c-2.019,0.124-7.088-1.408-7.391-3.257c-0.298-1.829-2.668-1.613-2.978-2.915      c-0.31-1.303,0.104-2.905,0.104-2.905L393.579,354.217z"/>
			</g>
		</g>
		<g>
			<g>
				<path fill="#EEA886" d="M393.31,352.701l0.27,1.516c0,0-0.831,1.537-5.375,0.34l0.232-1.491L393.31,352.701z"/>
			</g>
		</g>
		<g>
			<g>
				<path fill="#0B4870" d="M364.579,354.217c0,0-1.615,1.151-2.51,1.959c-0.895,0.807-2.11,1.685-2.856,3.746      c-0.755,2.085-1.585,3.459,0.434,3.582c2.019,0.124,7.132-1.278,7.434-3.127c0.299-1.829,2.67-1.613,2.979-2.915      c0.31-1.303-0.104-2.905-0.104-2.905L364.579,354.217z"/>
			</g>
		</g>
		<g>
			<g>
				<path fill="#EEA886" d="M364.849,352.701l-0.27,1.516c0,0,0.83,1.537,5.375,0.34l-0.234-1.491L364.849,352.701z"/>
			</g>
		</g>
		<g>
			<g>
				<path fill="#D3D3D3" d="M362.909,317.422c0,3.325,1.317,34.959,1.317,34.959c0.333,1.108,4.837,1.053,5.945,0.5      c1.11-0.556,0.917-31.676,1.122-35.029c0.204-3.355,2.898-28.031,3.87-27.919c0.974,0.109,6.471,23.354,7.247,25.904      c0.775,2.55,5.249,37.024,5.249,37.024c3.792,1.317,6.251,0,6.251,0s-1.449-34.753-1.451-38.879      c-0.001-1.531-0.453-2.691-0.887-10.833c-0.33-6.207-2.057-18.924-3.213-27.675c-0.043-0.313-0.081-0.611-0.119-0.897      c-0.227-1.703-0.396-2.955-0.479-3.555c-0.035-0.261-0.055-0.397-0.055-0.397c-0.311-0.144-0.636-0.275-0.977-0.398      c-8.121-2.918-23.783,0.171-23.783,0.171s-0.009,0.077-0.027,0.222c-0.021,0.178-0.053,0.453-0.095,0.809      c-0.09,0.772-0.224,1.921-0.379,3.254c0,0.011-0.002,0.02-0.003,0.029c-0.005,0.04-0.01,0.082-0.015,0.123      c-0.546,4.744-1.249,6.576-1.245,12.416C361.185,288.364,362.909,314.095,362.909,317.422z"/>
			</g>
		</g>
		<g>
			<path fill="#0B4870" d="M349.515,258.324c0.846,2.492,8.457,1.872,14.309,0.812c0.014-0.001,0.027-0.004,0.039-0.006     c-0.009,0.644-0.032,1.298-0.066,1.941c-0.123,2.356-0.385,4.543-0.513,5.312c-0.164,0.986-1.194,8.922-1.487,12.283     c-0.069,0.791,12.456,2.09,17.283,1.828c6.129-0.333,9.697-1.869,9.697-1.869s-2.023-14.908-2.07-16.357     c-0.008-0.216,0.01-0.592,0.047-1.082c2.65-0.324,5.712-0.766,7.48-1.241c7.707-2.083,6.918-5.983,6.863-6.476     c-0.151-1.339-2.365-6.96-4.644-11.406c-2.235-4.361-3.816-9.498-7.552-10.43c-2.01-0.502-9.424-2.968-9.424-2.968l-8.151-0.062     c0,0-5.251,1.302-7.309,2.331c-2.059,1.028-6.085,0.671-7.862,6.356C355.827,238.337,348.638,255.748,349.515,258.324z      M387.306,256.236c0.342-2.479,0.773-4.925,1.135-5.698c0.75-1.591,1.265-5.939,1.265-5.939s3.86,5.991,4.428,7.33     c0.517,1.222-0.649,1.872-2.653,2.867C390.804,255.133,389.122,255.684,387.306,256.236z M357.443,251.257     c0.392-1.043,3.52-7.062,3.52-7.062s1.488,6.256,2.328,9.72c-2.44,0.122-4.882,0.174-5.937-0.024     C356.53,253.734,356.745,253.115,357.443,251.257z"/>
		</g>
		<g>
			<path fill="#2A94F4" d="M370.701,228.77l0.044-0.012c0.057-0.019,5.491-1.791,8.857-0.166l0.041,0.019l-4.954,7.933     L370.701,228.77z M379.526,228.646c-3.177-1.499-8.181,0.007-8.71,0.174"/>
		</g>
		<g>
			<g>
				<path fill="#F1B99E" d="M376.392,208.018c0,0,6.402,1.009,5.428,11.022c-0.976,10.015-6.625,9.193-7.002,9.182      c-0.378-0.009-5.671,0.185-6.084-12.043C368.733,216.179,368.553,207.141,376.392,208.018z"/>
			</g>
		</g>
		<g>
			<g>
				<path fill="#F1B99E" d="M379.38,223.366c0,0-0.193,4.347,0.204,5.237c0.397,0.893-5.36,3.383-8.826,0.19      c0,0,0.936-4.33,0.703-5.917C371.229,221.289,379.38,223.366,379.38,223.366z"/>
			</g>
		</g>
		<g>
			<g>
				<path fill="#EEA886" d="M381.917,216.213c0,0,0.701-0.748,0.958,0.008c0.257,0.758-0.957,4.138-0.999,4.295      c0,0-0.129,0.295-0.296,0.135C381.411,220.488,381.917,216.213,381.917,216.213z"/>
			</g>
		</g>
		<g>
			<g>
				<path fill="#EEA886" d="M368.906,216.084c0,0-0.687-0.762-0.958-0.007c-0.272,0.752,0.865,4.153,0.917,4.314      c0,0,0.121,0.296,0.292,0.137C369.33,220.37,368.906,216.084,368.906,216.084z"/>
			</g>
		</g>
		<g>
			<g>
				<path fill="#FFBE55" d="M381.915,217.748l-0.917,1.225c0,0,0.026-2.686-0.12-3.105c-0.148-0.422-0.373-1.708-0.496-2.013      c-0.122-0.303-2.709,6.319-11.648,2.324c0,0,1.614,0.047,1.159,0.219s-0.232,3.145-0.232,3.145l-0.752-0.849      c0,0-1.153-7.705-0.868-8.509c0.284-0.801,1.191-5.63,10.93-2.763c0,0,3.404,0.148,3.645,1.452      C382.911,210.492,381.915,217.748,381.915,217.748z"/>
			</g>
		</g>
		<g>
			<path fill="#A77860" d="M371.448,226.397c0,0,1.442,1.846,3.723,1.846c1.501,0,2.682-0.523,4.178-1.979     c0,0-0.756,2.869-4.167,3.126C375.182,229.39,372.576,229.556,371.448,226.397z"/>
		</g>
		<g>
			<path fill="#EEA886" d="M369.477,253.89c0,0,0.593,0.025,1.264-0.645c0.671-0.669,2.785-0.695,3.353,0     c0.567,0.697,0.749,3.019,0.749,3.019s-4.387,0.93-5.365,0.901C368.496,257.141,369.477,253.89,369.477,253.89z"/>
		</g>
		<g>
			<g>
				<path fill="#EEA886" d="M379.956,256.676c0,0-1.145-1.992-1.332-2.546c-0.189-0.551-1.635-0.401-1.022,0.87      c0.613,1.273,1.015,2.075,1.015,2.075L379.956,256.676z"/>
			</g>
		</g>
		<g>
			<path fill="#FFFFFF" d="M377.71,259.167h-4.26c-0.545,0-0.996-0.425-1.023-0.969l-0.495-9.307     c-0.031-0.585,0.43-1.073,1.015-1.079l5.1-0.041c0.584-0.006,1.055,0.479,1.032,1.062l-0.345,9.349     C378.715,258.732,378.263,259.167,377.71,259.167z"/>
		</g>
		<g>
			<g>
				<path fill="#EEA886" d="M380.157,257.182c0,0,0.041-0.876-1.666-1.607c-2.271-0.972-5.284-1.932-5.781-1.629      c-0.714,0.43-0.314,0.971,1.11,1.376c1.427,0.407,1.897,0.536,1.897,0.536s-2.764-0.149-3.367,0.205      c-0.604,0.355-0.607,1.117-0.151,1.221c0.456,0.109,1.523,0.141,1.523,0.141s-1.166,0.092-1.264,0.567      c-0.072,0.35-0.095,0.847,1.021,1.009c0,0-0.718,0.861,0.428,1.348c1.147,0.487,3.2,0.892,4.229,1.019      c2.14,0.261,6.171-0.438,6.171-0.438l-1.35-3.013c0,0-1.146,0.343-1.919,0.038C380.035,257.562,380.157,257.182,380.157,257.182      z"/>
			</g>
		</g>
	</g>
</g>
</svg>