<svg id="Layer_1" data-name="Layer 1" xmlns="http://www.w3.org/2000/svg" xmlns:xlink="http://www.w3.org/1999/xlink" viewBox="0 0 413.56 342.93"><defs><linearGradient id="linear-gradient" x1="93.68" y1="6.47" x2="101.31" y2="185.33" gradientUnits="userSpaceOnUse"><stop offset="0.02" stop-color="#fff" stop-opacity="0"/><stop offset="0.58" stop-color="#fff" stop-opacity="0.39"/><stop offset="1" stop-color="#fff"/></linearGradient><linearGradient id="linear-gradient-2" x1="145.08" y1="-22.59" x2="156.06" y2="235.1" xlink:href="#linear-gradient"/><linearGradient id="linear-gradient-3" x1="85.7" y1="-21.69" x2="96.9" y2="241.03" xlink:href="#linear-gradient"/><linearGradient id="linear-gradient-4" x1="141.69" y1="-31.42" x2="152.91" y2="231.92" xlink:href="#linear-gradient"/><linearGradient id="linear-gradient-5" x1="82.37" y1="-28.9" x2="93.6" y2="234.45" xlink:href="#linear-gradient"/><linearGradient id="linear-gradient-6" x1="139.13" y1="-31.31" x2="150.35" y2="232.03" xlink:href="#linear-gradient"/><linearGradient id="linear-gradient-7" x1="242.75" y1="-22.15" x2="253.97" y2="241.2" xlink:href="#linear-gradient"/><linearGradient id="linear-gradient-8" x1="296.31" y1="-12.57" x2="306.07" y2="216.3" xlink:href="#linear-gradient"/><linearGradient id="linear-gradient-9" x1="239.55" y1="-29" x2="250.77" y2="234.34" xlink:href="#linear-gradient"/><linearGradient id="linear-gradient-10" x1="296.93" y1="-24.44" x2="308.15" y2="238.87" xlink:href="#linear-gradient"/><linearGradient id="linear-gradient-11" x1="236.99" y1="-28.9" x2="248.21" y2="234.45" xlink:href="#linear-gradient"/><linearGradient id="linear-gradient-12" x1="293.74" y1="-31.31" x2="304.96" y2="232.03" xlink:href="#linear-gradient"/><linearGradient id="linear-gradient-13" x1="200.46" y1="216.38" x2="205.17" y2="431.72" gradientUnits="userSpaceOnUse"><stop offset="0.01"/><stop offset="0.83" stop-opacity="0.07"/><stop offset="1" stop-opacity="0"/></linearGradient><linearGradient id="linear-gradient-14" x1="201.72" y1="238.38" x2="202.85" y2="289.91" xlink:href="#linear-gradient-13"/><linearGradient id="linear-gradient-15" x1="205.04" y1="174.63" x2="198.06" y2="119.77" xlink:href="#linear-gradient-13"/><linearGradient id="linear-gradient-16" x1="204.99" y1="231.01" x2="201.25" y2="178.65" gradientUnits="userSpaceOnUse"><stop offset="0.01"/><stop offset="1" stop-opacity="0"/></linearGradient><linearGradient id="linear-gradient-17" x1="200.43" y1="187.49" x2="202.67" y2="362.55" xlink:href="#linear-gradient-13"/><linearGradient id="linear-gradient-18" x1="271.04" y1="226.45" x2="274.6" y2="228" xlink:href="#linear-gradient-13"/><linearGradient id="linear-gradient-19" x1="204.1" y1="133.23" x2="200.11" y2="161.9" gradientUnits="userSpaceOnUse"><stop offset="0.01"/><stop offset="0.12" stop-opacity="0.75"/><stop offset="1" stop-opacity="0"/></linearGradient><linearGradient id="linear-gradient-20" x1="203.61" y1="94.96" x2="200.62" y2="163.29" xlink:href="#linear-gradient-13"/><linearGradient id="linear-gradient-21" x1="197.28" y1="140.49" x2="206.9" y2="140.49" xlink:href="#linear-gradient-13"/><linearGradient id="linear-gradient-22" x1="155.36" y1="234.5" x2="163.84" y2="203.32" xlink:href="#linear-gradient-16"/><linearGradient id="linear-gradient-23" x1="203" y1="192.21" x2="261.19" y2="195.53" xlink:href="#linear-gradient-13"/><linearGradient id="linear-gradient-24" x1="88.74" y1="227.36" x2="169.04" y2="227.36" xlink:href="#linear-gradient"/><linearGradient id="linear-gradient-25" x1="266.15" y1="235.36" x2="267.15" y2="217.65" xlink:href="#linear-gradient-13"/><linearGradient id="linear-gradient-26" x1="116.42" y1="212.75" x2="114.43" y2="266.28" xlink:href="#linear-gradient-13"/><linearGradient id="linear-gradient-27" x1="126.11" y1="213.11" x2="124.11" y2="266.64" xlink:href="#linear-gradient-13"/><linearGradient id="linear-gradient-28" x1="136.16" y1="213.48" x2="134.17" y2="267.02" xlink:href="#linear-gradient-13"/><linearGradient id="linear-gradient-29" x1="299.83" y1="213.72" x2="301.33" y2="186.11" xlink:href="#linear-gradient-13"/><linearGradient id="linear-gradient-30" x1="289.58" y1="214.85" x2="308.42" y2="214.85" xlink:href="#linear-gradient"/></defs><title>CEO</title><path d="M413.18,272.67c-3.12,15.46-12.78,28.89-24.16,39.79a134.89,134.89,0,0,1-73.61,35.79c-14.43,2.05-29.08,1.74-43.64,1.4-63-1.49-127.94.36-190.68-6.13-46.71-4.83-77.27-54.24-80.06-98-.1-1.57-.17-3.13-.21-4.69-1.23-40.07,14.46-79.06,33.53-114.49a386.7,386.7,0,0,1,23.89-39c21.95-31.14,49.46-58,84.71-71.08,37-13.74,78.28-10.63,116.45-.7,13.55,3.52,27.2,8,38.27,16.61,24.61,19.07,30.89,52.78,42.94,81.5,2.1,5,4.42,9.93,6.9,14.75,14.38,28.07,34.21,53.3,49.86,80.81,5.65,9.93,10.82,20.62,13.93,31.62C414.25,251.26,415.33,262,413.18,272.67Z" transform="translate(-0.75 -6.96)" fill="#808080" opacity="0.18" style="isolation:isolate"/><path d="M347.51,128.37v65.55H58.24V87.29q3.4-4.82,7-9.49,1.43-1.89,2.93-3.75,3-3.8,6.16-7.46C86.75,52.1,100.75,39.26,116.59,29.3q2.7-1.69,5.48-3.29A141.13,141.13,0,0,1,143,16.21c2.26-.84,4.55-1.62,6.85-2.34,33-10.32,69.08-8,103,0q3.3.78,6.59,1.64c4,1,7.91,2.13,11.8,3.41q2.78.9,5.49,1.91a79.74,79.74,0,0,1,21,11.29c11.54,8.94,19.05,21.11,25,34.47,1.09,2.44,2.13,4.94,3.13,7.46.77,1.91,1.51,3.84,2.24,5.78,4.23,11.26,8,22.88,12.55,33.79C342.71,118.64,345,123.55,347.51,128.37Z" transform="translate(-0.75 -6.96)" fill="#808080" opacity="0.38" style="isolation:isolate"/><path d="M116.59,29.3V66.59H74.31C86.75,52.1,100.75,39.26,116.59,29.3Z" transform="translate(-0.75 -6.96)" fill="url(#linear-gradient)"/><path d="M173.45,13.87V66.59H122.07V26A141.13,141.13,0,0,1,143,16.21c2.26-.84,4.55-1.62,6.85-2.34Z" transform="translate(-0.75 -6.96)" fill="url(#linear-gradient-2)"/><path d="M116.59,74.05v52.71H65.22v-49q1.43-1.89,2.93-3.75Z" transform="translate(-0.75 -6.96)" fill="url(#linear-gradient-3)"/><rect x="121.32" y="67.09" width="51.37" height="52.71" fill="url(#linear-gradient-4)"/><rect x="64.47" y="127.27" width="51.37" height="52.71" fill="url(#linear-gradient-5)"/><rect x="121.32" y="127.27" width="51.37" height="52.71" fill="url(#linear-gradient-6)"/><path d="M271.2,18.92V66.59H219.83V13.87h33q3.3.78,6.59,1.64C263.35,16.54,267.31,17.64,271.2,18.92Z" transform="translate(-0.75 -6.96)" fill="url(#linear-gradient-7)"/><path d="M322.69,66.59h-46V20.83a79.74,79.74,0,0,1,21,11.29C309.21,41.06,316.72,53.23,322.69,66.59Z" transform="translate(-0.75 -6.96)" fill="url(#linear-gradient-8)"/><rect x="219.08" y="67.09" width="51.37" height="52.71" fill="url(#linear-gradient-9)"/><path d="M328.06,79.83v46.93H276.69V74.05h49.13C326.59,76,327.33,77.89,328.06,79.83Z" transform="translate(-0.75 -6.96)" fill="url(#linear-gradient-10)"/><rect x="219.08" y="127.27" width="51.37" height="52.71" fill="url(#linear-gradient-11)"/><rect x="275.94" y="127.27" width="51.37" height="52.71" fill="url(#linear-gradient-12)"/><path d="M413.18,272.67c-3.12,15.46-12.78,28.89-24.16,39.79a134.89,134.89,0,0,1-73.61,35.79c-14.43,2.05-29.08,1.74-43.64,1.4-63-1.49-127.94.36-190.68-6.13-46.71-4.83-77.27-54.24-80.06-98-.1-1.57-.17-3.13-.21-4.69H411.3C414.25,251.26,415.33,262,413.18,272.67Z" transform="translate(-0.75 -6.96)" fill="#808080" opacity="0.41" style="isolation:isolate"/><rect x="67.79" y="246.81" width="268.66" height="91.27" fill="#808080"/><rect x="67.79" y="246.81" width="268.66" height="91.27" opacity="0.52" fill="url(#linear-gradient-13)"/><rect x="67.79" y="247.9" width="268.66" height="17.36" opacity="0.46" fill="url(#linear-gradient-14)"/><path d="M191,92.62h20.49A26.41,26.41,0,0,1,237.86,119v52.64a0,0,0,0,1,0,0H164.55a0,0,0,0,1,0,0V119A26.41,26.41,0,0,1,191,92.62Z" fill="#3f3d56"/><path d="M191,92.62h20.49A26.41,26.41,0,0,1,237.86,119v52.64a0,0,0,0,1,0,0H164.55a0,0,0,0,1,0,0V119A26.41,26.41,0,0,1,191,92.62Z" fill="url(#linear-gradient-15)"/><path d="M188.74,154.19l-27.1,9a11.39,11.39,0,0,0-4.15,6.81c-.84,4.49,4.65,22,5.48,30.93s1.83,20.78,1.83,20.78L170,244.8h61.18l3.66-43.23s9-30.59,9-33.91a17.54,17.54,0,0,0-1.33-6.32l-28.35-8.4Z" transform="translate(-0.75 -6.96)" fill="#808080"/><path d="M188.74,154.19l-27.1,9a11.39,11.39,0,0,0-4.15,6.81c-.84,4.49,4.65,22,5.48,30.93s1.83,20.78,1.83,20.78L170,244.8h61.18l3.66-43.23s9-30.59,9-33.91a17.54,17.54,0,0,0-1.33-6.32l-28.35-8.4Z" transform="translate(-0.75 -6.96)" fill="url(#linear-gradient-16)"/><polygon points="190.23 146.56 187.99 147.23 190.65 215.89 211.93 216.06 213.09 146.94 190.23 146.56" fill="#fff"/><path d="M197.22,165.08l2.66,3.32a13.83,13.83,0,0,1-.67,4.08c-.66,1.83-5.48,41.89-5.48,41.89l7.48,9.48,8.48-11.8-5.49-43.48,2.08-4.65-2.91-3.16-2.91-.34Z" transform="translate(-0.75 -6.96)" fill="#62021d"/><polygon points="342.77 241.82 59.48 241.82 73.94 205.91 319.33 205.91 342.77 241.82" fill="#808080"/><polygon points="342.77 241.82 59.48 241.82 73.94 205.91 319.33 205.91 342.77 241.82" fill="url(#linear-gradient-17)"/><path d="M276.94,217.32l-2.29,4.53a.47.47,0,0,0,.42.69h0a.47.47,0,0,0,.42-.26l2.33-4.51a.47.47,0,0,0-.24-.65l0,0A.46.46,0,0,0,276.94,217.32Z" transform="translate(-0.75 -6.96)" fill="#808080"/><path d="M274.62,219.65l-6.85,13.56a1.41,1.41,0,0,0,1.26,2h0a1.43,1.43,0,0,0,1.26-.77l7-13.51a1.41,1.41,0,0,0-.71-1.94l-.12-.06A1.4,1.4,0,0,0,274.62,219.65Z" transform="translate(-0.75 -6.96)" fill="#808080"/><path d="M274.62,219.65l-6.85,13.56a1.41,1.41,0,0,0,1.26,2h0a1.43,1.43,0,0,0,1.26-.77l7-13.51a1.41,1.41,0,0,0-.71-1.94l-.12-.06A1.4,1.4,0,0,0,274.62,219.65Z" transform="translate(-0.75 -6.96)" fill="url(#linear-gradient-18)"/><path d="M212.06,209.74a16.4,16.4,0,0,0-5.41-.44,6.89,6.89,0,0,0-4.64,1.64c-1.79,1.85-1.28,5,.26,7.09s3.82,3.41,5.78,5.08a9.92,9.92,0,0,0,2.62,1.9,7.84,7.84,0,0,0,2.41.44,20.13,20.13,0,0,0,5.75-.19,7.69,7.69,0,0,0,4.79-3c1.59-2.34,1.62-8.37-1.29-9.23-1.74-.51-3.44-.42-5.22-1.2A40.6,40.6,0,0,0,212.06,209.74Z" transform="translate(-0.75 -6.96)" fill="#ffdad2"/><path d="M195.57,210.21a9.48,9.48,0,0,1,2.54-.74,5.92,5.92,0,0,1,5.25,2.15,5.51,5.51,0,0,1,.66,5.59,23,23,0,0,1-2.66,3.51c-1.05,1.41-1.7,3.1-2.92,4.35-2.87,2.94-8.38,3-12.19,2.51a6.11,6.11,0,0,1-4.53-2.62c-1.55-2.59-.44-6.79,1.45-8.93,1.17-1.32,3-1.65,4.56-2.35l6.94-3.08Z" transform="translate(-0.75 -6.96)" fill="#ffdad2"/><path d="M194.39,145.3s.5,5.73-3.61,7.35,7.48,16.34,20.45,3.62a2.34,2.34,0,0,0,2.61-2.37c.13-2.62-5.86-.75-5.61-9.48S195.52,140.56,194.39,145.3Z" transform="translate(-0.75 -6.96)" fill="#ffdad2"/><path d="M197.48,153.14c1.35,1.87,3.81,3.21,6,2.41a7.79,7.79,0,0,0,3.27-3c1.24-1.7,2.55-3.59,2.45-5.69a2,2,0,0,0-.65-1.55,2.47,2.47,0,0,0-1.19-.42,22.69,22.69,0,0,0-10.19.79c-1.87.58-2.42.79-1.8,2.71A16.79,16.79,0,0,0,197.48,153.14Z" transform="translate(-0.75 -6.96)" fill="url(#linear-gradient-19)"/><path d="M187.16,121.61s-.25,16.2,5.24,23.19,13.34,9,19.45,0c2.84-4.18,4.49-19.83,3.37-22.2s-16.59-14.09-23.07-8.35S187.16,121.61,187.16,121.61Z" transform="translate(-0.75 -6.96)" fill="#ffdad2"/><path d="M187.2,110.08a12.8,12.8,0,0,0-3,3.1,6.14,6.14,0,0,0-1,4.13,14.65,14.65,0,0,0,1.69,4c1.5,3.1,1.81,6.63,2.92,9.88q.62-4,1-8.12a10.77,10.77,0,0,0,4.29.85c7.12.38,14.26.15,21.38-.08a22.49,22.49,0,0,1-.47,5.67,6.1,6.1,0,0,0,.55,3.82c1.65-1.54.38-4.6,2.09-6.08a5.65,5.65,0,0,0,1.08-.92c.54-.76.19-1.85.55-2.71a4.53,4.53,0,0,1,1.54-1.6c1.86-1.5,3-4.2,2-6.36a8,8,0,0,0-3.09-3l-2.72-1.81c-.94-.62-2.43-1.47-3.44-2-1.3-.66-2.32-1.76-3.55-2.54a14.65,14.65,0,0,0-7-1.74c-4.31-.24-8.86,0-12.55,2.29A4.45,4.45,0,0,0,187.2,110.08Z" transform="translate(-0.75 -6.96)" fill="#3f3d56"/><path d="M204.34,139.07a2.75,2.75,0,0,1,.86,0c.94.23,1.39,1.27,1.7,2.18-.09-.27-4.26.15-4.7.18-1.62.11-3.26.43-4.87.45C196.67,138.4,202.42,139.17,204.34,139.07Z" transform="translate(-0.75 -6.96)" fill="#3f3d56"/><path d="M187.2,110.08a12.8,12.8,0,0,0-3,3.1,6.14,6.14,0,0,0-1,4.13,14.65,14.65,0,0,0,1.69,4c1.5,3.1,1.81,6.63,2.92,9.88q.62-4,1-8.12a10.77,10.77,0,0,0,4.29.85c7.12.38,14.26.15,21.38-.08a22.49,22.49,0,0,1-.47,5.67,6.1,6.1,0,0,0,.55,3.82c1.65-1.54.38-4.6,2.09-6.08a5.65,5.65,0,0,0,1.08-.92c.54-.76.19-1.85.55-2.71a4.53,4.53,0,0,1,1.54-1.6c1.86-1.5,3-4.2,2-6.36a8,8,0,0,0-3.09-3l-2.72-1.81c-.94-.62-2.43-1.47-3.44-2-1.3-.66-2.32-1.76-3.55-2.54a14.65,14.65,0,0,0-7-1.74c-4.31-.24-8.86,0-12.55,2.29A4.45,4.45,0,0,0,187.2,110.08Z" transform="translate(-0.75 -6.96)" fill="url(#linear-gradient-20)"/><path d="M204.34,139.07a2.75,2.75,0,0,1,.86,0c.94.23,1.39,1.27,1.7,2.18-.09-.27-4.26.15-4.7.18-1.62.11-3.26.43-4.87.45C196.67,138.4,202.42,139.17,204.34,139.07Z" transform="translate(-0.75 -6.96)" fill="url(#linear-gradient-21)"/><path d="M193.4,149.91s7.1,10.72,8.72,11.1l-7.73,7.48s-5.36-12-4.49-15.34Z" transform="translate(-0.75 -6.96)" fill="#fff"/><path d="M209.58,150.52c-.89,2.85-3.61,10.42-7.46,10.49l6.74,8s5.36-7.61,5.23-16.05l-3.33-2.77A.75.75,0,0,0,209.58,150.52Z" transform="translate(-0.75 -6.96)" fill="#fff"/><path d="M158.86,166.37S139.5,208.17,140,211.91s-1,5.49.25,7.48,38.4,9.23,38.4,9.23l3.49-15.71-17.7-4.24-4-1.16c7.41-10.56,10.09-26.33,5.86-38.52C164.47,163.61,161,164.52,158.86,166.37Z" transform="translate(-0.75 -6.96)" fill="#808080"/><path d="M158.86,166.37S139.5,208.17,140,211.91s-1,5.49.25,7.48,38.4,9.23,38.4,9.23l3.49-15.71-17.7-4.24-4-1.16c7.41-10.56,10.09-26.33,5.86-38.52C164.47,163.61,161,164.52,158.86,166.37Z" transform="translate(-0.75 -6.96)" fill="url(#linear-gradient-22)"/><path d="M243.18,162s24.68,44.14,24.19,47.88,1,5.49-.25,7.49-38.41,9.22-38.41,9.22l-3.49-15.71,17.71-4.24L240,202.48a32.65,32.65,0,0,1-4.79-27.27C237.39,167.18,240.32,159.53,243.18,162Z" transform="translate(-0.75 -6.96)" fill="#808080"/><path d="M243.18,162s24.68,44.14,24.19,47.88,1,5.49-.25,7.49-38.41,9.22-38.41,9.22l-3.49-15.71,17.71-4.24L240,202.48a32.65,32.65,0,0,1-4.79-27.27C237.39,167.18,240.32,159.53,243.18,162Z" transform="translate(-0.75 -6.96)" fill="url(#linear-gradient-23)"/><polygon points="181.4 205.94 184.46 206.5 181.42 220.63 178.35 219.96 181.4 205.94" fill="#fff"/><polygon points="224.73 204.75 221.82 205.5 225.06 220.05 227.96 219.63 224.73 204.75" fill="#fff"/><path d="M221.94,213.56c-3.67.51-7.39-.18-11.09-.27s-7.69.51-10.36,3.08a4.56,4.56,0,0,0-1.61,4.15" transform="translate(-0.75 -6.96)" fill="none"/><path d="M203.07,208.1c2.65-.39,10.22,1.68,10,2-.64,1.16-3.7,3.94-4.63,4.88a5.23,5.23,0,0,1-1.7,1.26,6,6,0,0,1-1.84.36,70.29,70.29,0,0,1-7.11.26,3.35,3.35,0,0,1-1.63-.31c-1.65-1-2.95-4.14-1.88-5.45C195.74,209.39,201,208.4,203.07,208.1Z" transform="translate(-0.75 -6.96)" fill="#ffdad2"/><rect x="59.48" y="241.82" width="283.39" height="6.48" fill="#808080"/><polygon points="169.2 237.34 83.92 237.34 87.91 217.39 166.71 217.39 169.2 237.34" fill="#808080"/><polygon points="169.04 237.34 88.74 237.34 92.5 217.39 166.69 217.39 169.04 237.34" fill="url(#linear-gradient-24)"/><rect x="256.99" y="226.53" width="18.95" height="6.56" rx="3.28" fill="#808080"/><rect x="256.99" y="226.53" width="18.95" height="6.56" rx="3.28" fill="url(#linear-gradient-25)"/><path d="M118.93,237.36a3.37,3.37,0,0,1-.47.54,2.81,2.81,0,0,1-.62.45,3.25,3.25,0,0,1-.79.31,3.51,3.51,0,0,1-.94.12,4,4,0,0,1-1.57-.3,3.7,3.7,0,0,1-2.06-2.07,4.13,4.13,0,0,1-.29-1.59,4.27,4.27,0,0,1,.29-1.58,3.85,3.85,0,0,1,.83-1.25,3.63,3.63,0,0,1,1.24-.82,4,4,0,0,1,1.56-.3,4.28,4.28,0,0,1,.81.08,3.48,3.48,0,0,1,.75.25,3.34,3.34,0,0,1,.64.37,2.51,2.51,0,0,1,.48.5l-.64.47a2,2,0,0,0-.31-.36,1.77,1.77,0,0,0-.47-.32,2.51,2.51,0,0,0-.58-.23,2.86,2.86,0,0,0-.67-.08,3.19,3.19,0,0,0-1.31.26,3,3,0,0,0-1,.72,3.1,3.1,0,0,0-.61,1,3.73,3.73,0,0,0-.22,1.25,3.69,3.69,0,0,0,.22,1.25,3.24,3.24,0,0,0,.62,1.05,3,3,0,0,0,1,.71,3,3,0,0,0,1.3.27,2.9,2.9,0,0,0,1.23-.27,2.35,2.35,0,0,0,1-.85Z" transform="translate(-0.75 -6.96)" fill="url(#linear-gradient-26)"/><path d="M123.67,237.9h4v.68H122.9v-7.52h4.67v.68h-3.9v2.58h3.64V235h-3.64Z" transform="translate(-0.75 -6.96)" fill="url(#linear-gradient-27)"/><path d="M139.29,234.82a4.13,4.13,0,0,1-.3,1.59,3.78,3.78,0,0,1-.82,1.24,3.85,3.85,0,0,1-1.25.83,3.93,3.93,0,0,1-1.55.3,4,4,0,0,1-1.56-.3,3.84,3.84,0,0,1-2.07-2.07,4.13,4.13,0,0,1-.29-1.59,4.08,4.08,0,0,1,.29-1.58,3.85,3.85,0,0,1,.83-1.25,3.63,3.63,0,0,1,1.24-.82,4,4,0,0,1,1.56-.3,3.93,3.93,0,0,1,1.55.3,3.67,3.67,0,0,1,1.25.82,3.82,3.82,0,0,1,.82,1.25A4.08,4.08,0,0,1,139.29,234.82Zm-.81,0a3.69,3.69,0,0,0-.21-1.25,3.07,3.07,0,0,0-.62-1.05,3,3,0,0,0-1-.72,3.21,3.21,0,0,0-1.3-.26,3.18,3.18,0,0,0-1.3.26,3,3,0,0,0-1,.72,3.05,3.05,0,0,0-.61,1.05,3.46,3.46,0,0,0-.22,1.25,3.5,3.5,0,0,0,.22,1.25,3,3,0,0,0,2.9,2,3.05,3.05,0,0,0,1.3-.27,2.94,2.94,0,0,0,1-.71,3,3,0,0,0,.62-1A3.73,3.73,0,0,0,138.48,234.83Z" transform="translate(-0.75 -6.96)" fill="url(#linear-gradient-28)"/><path d="M287.15,196.63v0c-.54-.83-.24-2.17-1.1-2.65a3,3,0,0,0-1.2-.19c-1.62-.14-2.8-1.56-3.68-2.93a14.33,14.33,0,0,1-1.87-3.83,7.14,7.14,0,0,1,0-4.22,1.93,1.93,0,0,1,.91-1.2,2.09,2.09,0,0,1,1.47.1,14,14,0,0,1,6.17,4.69c.83,1.05,1.38,2.3,2.18,3.35,1.17,1.52,1.39-1,1.28-1.89a3.22,3.22,0,0,1,.57-2.27,2,2,0,0,0,.36-.62,1.32,1.32,0,0,0-.05-.59c-.34-1.1-1.39-1.89-1.66-3a4.79,4.79,0,0,1,.09-2c.36-1.9.91-5.39,2.95-6.28a3,3,0,0,1,3.14.74,24.88,24.88,0,0,1,2.79,3.56,4.61,4.61,0,0,1,.48,4.4,7.42,7.42,0,0,0-1,2.33c-.12,1.87,2.26,3.22,2.07,5.08s-2.43,2.54-2.94,4.21c-.36,1.2.8,4.34,2.43,3.75,1.14-.42,1.84-3.77,2.33-4.83a42.61,42.61,0,0,1,6.3-9.68c.66-.76,1.79-1.54,2.56-.89a1.67,1.67,0,0,1,.46,1.2,9.69,9.69,0,0,1-1.13,4.37l-4.52,10.43a29.42,29.42,0,0,1,15.8-8.79c2.57-.51.58,4.06-1.11,4.56-.85.25-1.83.18-2.53.72a4.51,4.51,0,0,0-1.11,1.95,7.14,7.14,0,0,1-2.39,2.94c-1.67,1.18-3.77,1.56-5.68,2.3a7.41,7.41,0,0,0-3.44,2.4c-.75,1-.7,2.38-1.45,3.4s-2.38,1.08-3.71,1a40.82,40.82,0,0,1-5.06-.58c-1.21-.25-3.39-.57-4-1.7a9,9,0,0,1-1.52-4.27c0-1.11.37-2.37-.32-3.23S287.78,197.57,287.15,196.63Z" transform="translate(-0.75 -6.96)" fill="#808080"/><path d="M287.15,196.63v0c-.54-.83-.24-2.17-1.1-2.65a3,3,0,0,0-1.2-.19c-1.62-.14-2.8-1.56-3.68-2.93a14.33,14.33,0,0,1-1.87-3.83,7.14,7.14,0,0,1,0-4.22,1.93,1.93,0,0,1,.91-1.2,2.09,2.09,0,0,1,1.47.1,14,14,0,0,1,6.17,4.69c.83,1.05,1.38,2.3,2.18,3.35,1.17,1.52,1.39-1,1.28-1.89a3.22,3.22,0,0,1,.57-2.27,2,2,0,0,0,.36-.62,1.32,1.32,0,0,0-.05-.59c-.34-1.1-1.39-1.89-1.66-3a4.79,4.79,0,0,1,.09-2c.36-1.9.91-5.39,2.95-6.28a3,3,0,0,1,3.14.74,24.88,24.88,0,0,1,2.79,3.56,4.61,4.61,0,0,1,.48,4.4,7.42,7.42,0,0,0-1,2.33c-.12,1.87,2.26,3.22,2.07,5.08s-2.43,2.54-2.94,4.21c-.36,1.2.8,4.34,2.43,3.75,1.14-.42,1.84-3.77,2.33-4.83a42.61,42.61,0,0,1,6.3-9.68c.66-.76,1.79-1.54,2.56-.89a1.67,1.67,0,0,1,.46,1.2,9.69,9.69,0,0,1-1.13,4.37l-4.52,10.43a29.42,29.42,0,0,1,15.8-8.79c2.57-.51.58,4.06-1.11,4.56-.85.25-1.83.18-2.53.72a4.51,4.51,0,0,0-1.11,1.95,7.14,7.14,0,0,1-2.39,2.94c-1.67,1.18-3.77,1.56-5.68,2.3a7.41,7.41,0,0,0-3.44,2.4c-.75,1-.7,2.38-1.45,3.4s-2.38,1.08-3.71,1a40.82,40.82,0,0,1-5.06-.58c-1.21-.25-3.39-.57-4-1.7a9,9,0,0,1-1.52-4.27c0-1.11.37-2.37-.32-3.23S287.78,197.57,287.15,196.63Z" transform="translate(-0.75 -6.96)" fill="url(#linear-gradient-29)"/><circle cx="298.23" cy="208.13" r="9.42" fill="#808080"/><path d="M308.39,205.18a9.41,9.41,0,0,1-18.81,0Z" transform="translate(-0.75 -6.96)" fill="#808080"/><path d="M308.42,215.1a9.42,9.42,0,1,1-17.29-5.17,9.45,9.45,0,0,1-1.53-4.75h18.81a9.46,9.46,0,0,1-1.54,4.75A9.34,9.34,0,0,1,308.42,215.1Z" transform="translate(-0.75 -6.96)" fill="url(#linear-gradient-30)"/></svg>