<svg xmlns="http://www.w3.org/2000/svg" xmlns:xlink="http://www.w3.org/1999/xlink" version="1.1" x="0px" y="0px" viewBox="0 0 500 421" enable-background="new 0 0 500 421" xml:space="preserve">
<g id="BACKGROUND">
</g>
<g id="OBJECTS">
	<path opacity="0.5" fill="#A7DEF6" d="M270.616,131.949c3.829,1.937,7.419,4.082,10.674,6.369   c11.376,7.99,20.529,19.622,31.708,27.636c10.558,7.567,23.45,9.407,35.529,10.67c21.058,2.205,64.976,23.351,57.046,62.542   c-2.885,14.262-13.06,23.949-18.269,36.864c-5.54,13.739-4.959,30.875-13.781,42.785c-3.88,5.237-9.237,8.696-14.738,11.316   c-36.604,17.431-77.709,16.621-116.522,14.699c-30.634-1.517-79.837,6.499-106.745-13.073c-13.359-9.718-6.412-36.282-15.656-50.55   c-7.769-11.989-18.341-19.862-23.535-34.871c-8.836-25.536,3.76-58.768,25.818-67.833c13.783-5.665,28.384-8.26,42.008-14.481   c14.078-6.429,19.501-16.06,30.236-27.458C213.795,115.962,246.825,119.916,270.616,131.949z"/>
	<g>
		<path fill="#FFFFFF" d="M302.159,289.573H176.033V108.095h139.983v169.658C316.016,284.281,309.812,289.573,302.159,289.573z"/>
		<rect x="176" y="108.095" fill="#FFBE55" width="139.749" height="8.426"/>
	</g>
	<g>
		<g>
			<path fill="#D1E7F5" d="M280.716,207.901c1.885,0,1.885-2.132,0-2.132c-23.382,0-46.764,0-70.146,0c-1.885,0-1.885,2.132,0,2.132     l0,0H280.716z"/>
		</g>
	</g>
	<rect x="199.975" y="130.082" opacity="0.07" fill="#2E4661" width="88.477" height="63.962"/>
	<g>
		<g>
			<g opacity="0.5">
				<rect x="202.997" y="126.371" fill="#A7DEF6" width="89.078" height="64.153"/>
				<rect x="202.997" y="126.371" fill="#A7DEF6" width="88.956" height="5.107"/>
			</g>
			<path opacity="0.03" fill="#272525" d="M291.888,142.503v-0.198h-10.935v-10.73h-0.198v10.73h-13.108v-10.73h-0.198v10.73     h-13.108v-10.73h-0.198v10.73h-13.108v-10.73h-0.198v10.73h-13.108v-10.73h-0.198v10.73h-13.108v-10.73h-0.197v10.73h-10.917     v0.198h10.917v12.124h-10.917v0.197h10.917v12.124h-10.917v0.199h10.917v12.123h-10.917v0.198h10.917v11.28h0.197v-11.28h13.108     v11.28h0.198v-11.28h13.108v11.28h0.198v-11.28h13.108v11.28h0.198v-11.28h13.108v11.28h0.198v-11.28h13.108v11.28h0.198v-11.28     h10.935v-0.198h-10.935v-12.123h10.935v-0.199h-10.935v-12.124h10.935v-0.197h-10.935v-12.124H291.888z M267.449,142.503v12.124     h-13.108v-12.124H267.449z M241.035,154.824h13.108v12.124h-13.108V154.824z M240.837,166.947h-13.108v-12.124h13.108V166.947z      M254.341,154.824h13.108v12.124h-13.108V154.824z M254.143,142.503v12.124h-13.108v-12.124H254.143z M240.837,142.503v12.124     h-13.108v-12.124H240.837z M214.422,142.503h13.108v12.124h-13.108V142.503z M214.422,154.824h13.108v12.124h-13.108V154.824z      M214.422,179.269v-12.123h13.108v12.123H214.422z M227.729,179.269v-12.123h13.108v12.123H227.729z M241.035,179.269v-12.123     h13.108v12.123H241.035z M254.341,179.269v-12.123h13.108v12.123H254.341z M280.755,179.269h-13.108v-12.123h13.108V179.269z      M280.755,166.947h-13.108v-12.124h13.108V166.947z M280.755,154.627h-13.108v-12.124h13.108V154.627z"/>
		</g>
		<path fill="#FFBE55" d="M282.489,139.702c-1.501,0-2.718,1.216-2.718,2.717c0,0.757,0.31,1.442,0.81,1.935    c-3.151,2.714-6.303,5.428-9.455,8.142c-0.24,0.207-0.479,0.413-0.718,0.62c-0.466-0.376-1.058-0.601-1.703-0.601    c-1.501,0-2.717,1.216-2.717,2.718c0,0.955,0.493,1.794,1.239,2.278c-0.691,1.662-1.381,3.324-2.071,4.986    c-0.294,0.709-0.588,1.418-0.883,2.126c-0.197-0.046-0.403-0.073-0.615-0.073c-1.003,0-1.877,0.545-2.348,1.354    c-3.045-1.925-6.089-3.85-9.134-5.773c-2.256-1.427-4.512-2.853-6.768-4.278c0.125-0.313,0.195-0.652,0.195-1.009    c0-1.5-1.217-2.718-2.718-2.718c-1.502,0-2.718,1.217-2.718,2.718c0,0.191,0.02,0.376,0.057,0.555    c-4.27,1.743-8.539,3.485-12.809,5.229c-0.419,0.171-0.837,0.342-1.256,0.512c-0.418-0.963-1.376-1.636-2.493-1.636    c-1.501,0-2.718,1.217-2.718,2.718c0,0.779,0.33,1.48,0.855,1.976c-0.635,0.72-1.268,1.439-1.903,2.16    c-3.027,3.435-6.054,6.871-9.081,10.308c-0.434-0.294-0.957-0.466-1.52-0.466c-1.501,0-2.718,1.217-2.718,2.718    c0,1.501,1.217,2.718,2.718,2.718c1.501,0,2.718-1.217,2.718-2.718c0-0.579-0.184-1.116-0.493-1.558    c2.584-2.934,5.168-5.868,7.753-8.801c1.121-1.273,2.244-2.546,3.365-3.819c0.315,0.128,0.66,0.2,1.022,0.2    c1.501,0,2.718-1.217,2.718-2.718c0-0.037-0.004-0.072-0.005-0.108c0.061-0.025,0.123-0.05,0.186-0.076    c4.678-1.91,9.356-3.819,14.035-5.729c0.483,0.753,1.326,1.253,2.287,1.253c0.788,0,1.496-0.338,1.992-0.873    c2.046,1.293,4.092,2.586,6.139,3.88c3.319,2.098,6.638,4.196,9.958,6.293c-0.02,0.134-0.034,0.268-0.034,0.407    c0,1.501,1.217,2.718,2.718,2.718c1.501,0,2.718-1.217,2.718-2.718c0-0.939-0.477-1.768-1.202-2.256    c0.987-2.374,1.974-4.749,2.96-7.124c0.184,0.039,0.375,0.061,0.571,0.061c1.5,0,2.718-1.217,2.718-2.718    c0-0.499-0.137-0.966-0.372-1.369c0.557-0.48,1.115-0.96,1.673-1.44c2.388-2.056,4.776-4.113,7.164-6.168    c0.515-0.443,1.03-0.888,1.545-1.332c0.325,0.138,0.683,0.213,1.057,0.213c1.501,0,2.718-1.217,2.718-2.718    C285.207,140.919,283.99,139.702,282.489,139.702z"/>
	</g>
	<g>
		<path fill="#FFBE55" d="M220.362,228.074c-6.219,0-11.785,2.754-15.559,7.106l15.559,13.481l15.558-13.481    C232.147,230.828,226.581,228.074,220.362,228.074z"/>
		<path fill="#4AACEA" d="M242.222,245.644l-20.376,2.93v20.586c11.378,0,20.586-9.207,20.586-20.586    C242.432,247.579,242.357,246.602,242.222,245.644z"/>
		<path fill="#D1E7F5" d="M204.826,235.248c-7.334,8.701-6.229,21.675,2.472,29.009c0.761,0.642,1.556,1.215,2.376,1.728    l10.893-17.468L204.826,235.248z"/>
		<path fill="#0E538C" d="M220.539,269.131c-3.858,0.001-7.729-1.076-11.129-3.269l11.131-17.317L220.539,269.131z"/>
		<path opacity="0.5" fill="#A7DEF6" d="M243.268,244.511c-0.57-4.007-2.291-7.637-4.818-10.552l-15.558,13.481L243.268,244.511z"/>
	</g>
	<g>
		<rect x="254.838" y="250.093" fill="#D1E7F5" width="7.563" height="18.216"/>
		<rect x="254.838" y="243.04" fill="#FFBE55" width="7.563" height="8.561"/>
	</g>
	<g>
		<rect x="280.839" y="250.915" fill="#D1E7F5" width="7.563" height="18.216"/>
		<rect x="280.839" y="235.541" fill="#FFBE55" width="7.612" height="16.881"/>
	</g>
	<g>
		<rect x="268.049" y="249.477" fill="#D1E7F5" width="7.563" height="19.244"/>
		<rect x="268.049" y="247.765" fill="#FFBE55" width="7.563" height="12.772"/>
	</g>
	<g>
		<path fill="#0E538C" d="M326.19,233.287c0,0,8.787,2.425,13.186,1.528c4.4-0.897,1.889-23.491-0.353-25.856    c-2.241-2.364-7.145-3.304-8.218-3.479C327.153,204.889,328.764,230.759,326.19,233.287z"/>
		<path fill="#4AACEA" d="M336.142,229.245c-1.118-1.22-3.76-2.134-6.3,2.845c-2.54,4.98-5.792,12.5-7.214,13.108    c-1.423,0.61-8.638,1.422-13.617,1.422c-0.884,0,1.221-0.007,0.291-0.017c-0.001,0.48-0.003,0.958-0.008,1.435l0.631,0.208    c0,0,8.841,1.626,11.279,1.829c2.439,0.204,3.151,0.814,7.723-5.385C333.5,238.491,337.259,230.464,336.142,229.245z"/>
		<path fill="#FFC2B0" d="M310.765,246.612c-4.105-0.039-8.527-0.195-8.527-0.195s-0.683,0.838,2.193,1.423    c2.122,0.431,4.02,0.102,4.02,0.102l2.395,0.15C310.812,247.599,310.784,247.105,310.765,246.612z"/>
		<path fill="#FFC2B0" d="M344.825,292.99c0,0,1.603,42.48,1.238,44.154c-0.363,1.676-2.304,0.114-2.304,0.114l-6.431-49.316    l4.149-1.948L344.825,292.99z"/>
		<path fill="#FFC2B0" d="M333.626,284.87c0,0,2.535,31.876-2.684,52.433l-2.026,0.039c0,0-0.403-34.443-2.889-49.863l0.888-6.329    L333.626,284.87z"/>
		<g>
			<path fill="#4AACEA" d="M320.87,340.505c3.517-1.468,5.981-1.935,6.104-1.954c1.284,0.797,3.11,0.503,4.25-0.382     c0.418,0.676,0.577,1.832,0.467,2.354c-0.313,1.495-2.08,1.612-9.538,2.511C314.695,343.935,317.282,342.003,320.87,340.505z"/>
		</g>
		<g>
			<g>
				<path fill="#4AACEA" d="M336.046,340.794c3.489-1.529,5.944-2.039,6.067-2.063c1.299,0.775,3.119,0.447,4.243-0.459      c0.43,0.669,0.609,1.824,0.51,2.347c-0.287,1.497-2.051,1.647-9.491,2.684C329.934,344.337,332.485,342.358,336.046,340.794z"/>
			</g>
		</g>
		<path fill="#FFC2B0" d="M346.124,336.287l0.308,2.113c0,0-2.315,1.527-5.656,2.298c0,0,0.986-1.427-0.551-1.465    c0,0,4.055-1.571,4.114-2.906C344.399,334.992,346.124,336.287,346.124,336.287z"/>
		<path fill="#FFC2B0" d="M331.125,336.221l0.206,2.143c0,0-2.279,1.463-5.633,2.173c0,0,1.031-1.485-0.504-1.55    c0,0,4.062-1.425,4.147-2.756C329.424,334.896,331.125,336.221,331.125,336.221z"/>
		<path fill="#4AACEA" d="M345.839,294.119c-0.042,0.349-0.096,0.72-0.333,0.977c-0.316,0.343-0.841,0.365-1.308,0.365    c-6.817-0.015-14.622-0.028-21.44-0.041c0.081-14.963,3.674-25.799,5.017-38.698c0.154-1.479,0.313-2.979,0.847-4.368    c1.647-4.277,7.029-6.678,11.354-5.025c3.527,1.349,5.953,4.785,6.611,8.132C349.037,267.908,347.355,281.568,345.839,294.119z"/>
		<path fill="#FFBE55" d="M327.496,257.912c-0.377-0.674,1.618-8.985,1.55-9.755c-0.526-5.997,0.618-8.684-0.138-14.659    c-0.171-1.355-0.865-2.826-0.321-4.079c2.424-5.595,1.494-6.229,4.714-7.307c3.333-1.116,9.387-1.74,10.339-0.437    c2.514,3.443,1.142,10.132,0.361,11.538c-1.115,2.001-1.416,4.336-1.698,6.609c-0.186,1.503-0.372,3.016-0.314,4.53    c0.086,2.239,4.629,7.22,5.106,12.327"/>
		<g>
			<polygon fill="#748FB0" points="321.563,246.617 301.271,246.617 290.932,226.337 292.021,225.789 302.022,245.398      321.563,245.398    "/>
			<polygon fill="#8DB0DA" points="321.563,246.617 301.271,246.617 301.646,245.833 321.186,245.833    "/>
		</g>
		<g>
			<g>
				<path fill="#FFC2B0" d="M305.749,241.401c0.145-0.171,0.336-0.293,0.524-0.413c0.634-0.406,1.501-1.376,2.245-1.419      c0.782-0.046,1.6,0.482,2.353,0.642c0.953,0.201,2.109,0.725,2.872,1.323c0.222,0.174,0.188,0.447,0.221,0.707      c0.04,0.34,0.082,0.679,0.124,1.02c0.004,0.023,0.006,0.051-0.009,0.07c-0.014,0.02-0.04,0.026-0.064,0.032      c-0.591,0.117-1.103,0.046-1.706,0.055c-0.233,0.003-0.539,0.034-0.771,0.057c-0.219,0.02-0.445,0.215-0.661,0.26      c-0.678,0.142-1.37,0.22-2.064,0.235c-0.375,0.008-0.764-0.006-1.108-0.156c-0.132-0.057-1.426-0.977-1.472-1.005      c-0.133-0.085-0.648-0.691-0.668-0.754C305.493,241.822,305.599,241.576,305.749,241.401z"/>
				<path fill="#FFC2B0" d="M306.223,239.849c0,0-0.898,0.254-1.07,0.316c-0.171,0.063-1.341,3.596-1.341,3.596      s0.527,0.833,2.169-2.575l2.015-0.019l0.698-1.597L306.223,239.849z"/>
			</g>
			<path fill="#4AACEA" d="M342.086,222.375c-3.795-0.399-8.017,9.326-8.966,11.149c-1.934,3.716-4.377,7.463-5.852,8.726     c-3.351,2.871-10.381,0.378-14.469-1.413c-0.352,0.699-0.371,1.482-0.434,2.757c0.565,0.418,1.554,0.871,2.134,1.27     c1.412,0.972,2.904,1.563,4.442,2.323c1.616,0.799,3.329,1.452,5.113,1.752c1.718,0.288,3.509,0.219,5.144-0.425     c0.774-0.305,1.497-0.73,2.148-1.247c2.563-2.033,9.873-14.544,10.639-15.943C344.7,226.371,344.566,222.637,342.086,222.375z"/>
		</g>
		<g>
			<path fill="#FFC2B0" d="M333.551,219.655c-0.4-0.007-0.812-0.039-1.179-0.201c-0.462-0.205-0.814-0.596-1.109-1.007     c-1.043-1.451-1.542-3.242-1.648-5.026c-0.105-1.784,0.162-3.57,0.544-5.316c0.063-0.284,0.129-0.573,0.275-0.826     c0.197-0.342,0.525-0.591,0.873-0.779c1.484-0.809,3.308-0.626,4.941-0.189c0.817,0.219,1.636,0.505,2.301,1.029     c0.543,0.43,0.957,1,1.347,1.574c0.403,0.592,0.794,1.206,0.996,1.892c0.175,0.598,0.201,1.228,0.2,1.851     c-0.003,1.152-0.101,2.307-0.368,3.427c-0.124,0.52-0.29,1.044-0.614,1.467c-0.591,0.774-1.932,1.242-2.822,1.535     C336.085,219.483,334.816,219.678,333.551,219.655z"/>
			<path fill="#FFC2B0" d="M338.278,222.47c0.065,0.588-3.825,0.518-3.852,0.353c-0.401-2.54-0.57-4.504-1.357-6.749     c1.041-0.254,3.638-0.905,5.516-0.434C338.875,215.711,338.191,221.691,338.278,222.47z"/>
			<path fill="#4AACEA" d="M340.069,222.085c-0.044,0.433-0.501,0.654-0.89,0.801c-1.82,0.695-5.005,1.658-6.626,2.774     c-0.388-0.583-0.218-2.863-0.044-3.298c0.117-0.294,2.49-0.583,3.102-0.613C336.131,221.726,340.112,221.669,340.069,222.085z"/>
		</g>
		<path fill="#0E538C" d="M345.047,237.013c0,0,2.796-0.789,3.393-1.619c0.322-0.448-1.742-15.436-1.776-15.944    c-0.09-1.349-0.306-2.693-0.589-4.008c-1.011-4.694-3.456-9.814-7.906-11.25c-2.337-0.754-4.593-0.217-6.836,0.637    c-0.462,0.176-2.032,0.808-1.297,1.61c0,0,10.598,23.402,9.405,32.368c0,0,3.778-0.443,5.369-1.662"/>
	</g>
	<g>
		<g>
			<g>
				<path fill="#122F3A" d="M171.236,311.179c0,1.214-6.381,2.197-14.254,2.197c-7.872,0-14.254-0.983-14.254-2.197      c0-1.213,6.584-1.551,14.457-1.551C165.057,309.628,171.236,309.966,171.236,311.179z"/>
			</g>
		</g>
		<g>
			<g>
				<path fill="#A7DEF6" d="M183.369,252.301c0,0-0.007,0.122-0.013,0.347c-0.144,2.762-1.494,21.474-12.264,37.418      c-11.67,17.268-5.48,23.784-5.48,23.784h-6.804c0,0,3-50.595,24.268-61.399C183.171,252.396,183.273,252.349,183.369,252.301z"/>
			</g>
		</g>
		<g>
			<g>
				<g>
					<path fill="#6A90A3" d="M183.369,252.301c0,0-0.007,0.122-0.013,0.347c-1.139,1.861-8.256,13.743-14.65,28.87       c-7.158,16.913-5.794,30.396-5.781,30.533c0.014,0.089-0.054,0.177-0.15,0.184h-0.02c-0.083,0-0.157-0.061-0.171-0.15       c-0.013-0.136-1.383-13.709,5.802-30.696c6.428-15.194,13.586-27.117,14.69-28.938       C183.171,252.396,183.273,252.349,183.369,252.301z"/>
				</g>
			</g>
		</g>
		<g opacity="0.24">
			<g>
				<path d="M161.287,295.025l3.528,7.605c0,0-1.194,4.618-0.784,6.757c0.41,2.139,0.593,2.68,0.593,2.68h-1.989l-1.554-15.933      L161.287,295.025z"/>
			</g>
		</g>
		<g>
			<g>
				<path fill="#A7DEF6" d="M158.604,313.85h-5.856c0,0-3.245-16.101-16.783-28.562c-0.184-0.172-0.232-0.402-0.177-0.607      c0.027-0.109,0.081-0.211,0.157-0.3c0.15-0.185,0.388-0.293,0.661-0.245c3.177,0.578,9.816,2.85,16.878,11.636      C163.307,307.994,158.604,313.85,158.604,313.85z"/>
			</g>
		</g>
		<g>
			<g>
				<path fill="#A7DEF6" d="M164.814,314.668h-5.665c0,0-0.947-2.706-5.665-18.896c-4.397-15.065,5.317-38.842,6.701-42.088v-0.006      c0.102-0.245,0.157-0.368,0.157-0.368c0.048-0.028,0.102-0.055,0.15-0.068c2.304-0.709,6.313,11.459,2.999,21.507      C157.036,294.353,164.814,314.668,164.814,314.668z"/>
			</g>
		</g>
		<g>
			<g>
				<g>
					<path fill="#6A90A3" d="M160.758,313.243c0.034,0.089-0.014,0.184-0.096,0.219c-0.02,0.007-0.041,0.013-0.061,0.013       c-0.068,0-0.136-0.04-0.163-0.108c-2.761-7.239-5.774-23.307-2.761-37.902c2.604-12.611,2.563-20.096,2.508-21.78v-0.006       c0.102-0.245,0.157-0.368,0.157-0.368c0.048-0.028,0.102-0.055,0.15-0.068c0.014,0.021,0.021,0.04,0.021,0.062       c0.007,0.074,0.47,7.832-2.502,22.229C155.011,290.06,158.01,306.045,160.758,313.243z"/>
				</g>
			</g>
		</g>
		<g>
			<g>
				<g>
					<path fill="#6A90A3" d="M156.095,312.712c0.007,0.096-0.061,0.177-0.157,0.184c0,0-0.007,0-0.013,0       c-0.089,0-0.164-0.061-0.17-0.15c-1.547-17.506-19.237-27.656-19.967-28.064c0.027-0.109,0.081-0.211,0.157-0.3       C136.503,284.688,154.514,294.94,156.095,312.712z"/>
				</g>
			</g>
		</g>
		<g>
			<g>
				<path fill="#FFBE55" d="M168.39,340.089c0,0-3.306,1.205-11.408,1.018c-6.167-0.142-12.261-1.018-12.261-1.018l-1.993-29.007      c0,0,4.119,0.926,14.457,0.926c10.951,0,14.051-0.926,14.051-0.926L168.39,340.089z"/>
			</g>
		</g>
	</g>
</g>
<g id="DESIGNED_BY_FREEPIK">
</g>
</svg>