<svg xmlns="http://www.w3.org/2000/svg" viewBox="0 0 466.35 500"><defs><style>.cls-1{fill:#b1b4c4;}.cls-2{fill:#616e84;}.cls-3{fill:#20232d;}.cls-4,.cls-6{fill:#fff;}.cls-5{fill:#2b303f;}.cls-13,.cls-6{opacity:0.1;}.cls-7{fill:#757b89;}.cls-8{fill:#dadce5;}.cls-9{fill:#e9eaf2;}.cls-10{fill:#efda86;}.cls-11{fill:#d1b66b;}.cls-12{fill:#e2c979;}.cls-14{opacity:0.05;}.cls-15,.cls-25{fill:#d6d8e5;}.cls-15{opacity:0.4;}.cls-16{fill:#ffcea9;}.cls-17{fill:#ededed;}.cls-18{fill:#2b2a30;}.cls-19{fill:#bf4b4b;}.cls-20{fill:#e26161;}.cls-21{fill:#f4f4f4;}.cls-22{fill:#38226d;}.cls-23{fill:#8c50ff;}.cls-24{fill:#3a2c6d;}.cls-26{fill:#e4e6ef;}.cls-27{fill:#28221c;}.cls-28{fill:#99b524;}.cls-29{fill:#a6ce28;}</style></defs><title>Delivery_app_SVG</title><g id="Слой_2" data-name="Слой 2"><g id="Слой_1-2" data-name="Слой 1"><path class="cls-1" d="M376,355.45l-93.69-54.09c-7.93-4.58-14.37-16.87-14.37-27.45V12.59C268,2,274.41-2.86,282.34,1.72L376,55.81C384,60.4,390.4,72.69,390.4,83.27V344.59C390.4,355.17,384,360,376,355.45Z"/><polygon class="cls-1" points="377.63 360.16 385.06 356.41 377.94 344.2 377.63 360.16"/><polygon class="cls-1" points="266.52 4.33 273.35 0.75 271.97 10.82 266.52 4.33"/><path class="cls-2" d="M370.05,358.44l-93.68-54.09c-7.94-4.58-14.37-16.87-14.37-27.46V15.57C262,5,268.43.13,276.37,4.71L370.05,58.8c7.94,4.58,14.37,16.87,14.37,27.45V347.58C384.42,358.16,378,363,370.05,358.44Z"/><path class="cls-3" d="M383.43,86.92V348.24c0,10.58-6.43,15.44-14.37,10.87l-36.74-21.22L320.9,331.3,275.37,305c-7.93-4.59-14.36-16.87-14.36-27.46V16.24C261,5.65,267.44.8,275.37,5.37l93.69,54.09C377,64.05,383.43,76.33,383.43,86.92Z"/><path class="cls-4" d="M376.67,84.27V338.78c0,6.41-4.5,9-10.05,5.8l-29.29-16.9-2.59-1.5-.86-.5L327.55,322l-18.32-10.56h0l-7.6-4.39-3.06-1.76-20.76-12c-5.55-3.21-10.05-11-10.05-17.43V21.39c0-6.42,4.5-9,10.05-5.81L314.39,36.7v.1a17.32,17.32,0,0,0,7.82,13.56c4.33,2.48,7.84.47,7.84-4.52,0,0,0-.08,0-.11l36.59,21.12C372.17,70.05,376.67,77.85,376.67,84.27Z"/><ellipse class="cls-5" cx="322.22" cy="44.09" rx="2.42" ry="4.2" transform="translate(21.13 167.02) rotate(-30)"/><path class="cls-6" d="M322.22,45.53A2.77,2.77,0,0,1,321,43.37c0-.79.56-1.12,1.25-.72a2.77,2.77,0,0,1,1.24,2.16C323.46,45.6,322.9,45.92,322.22,45.53Z"/><path class="cls-7" d="M387.23,121.3h0c-.77.45-1.39,0-1.39-1V109.12a3.31,3.31,0,0,1,1.39-2.65h0c.76-.44,1.38,0,1.38,1v11.14A3.31,3.31,0,0,1,387.23,121.3Z"/><path class="cls-7" d="M387.23,139.56h0c-.77.44-1.39,0-1.39-1.05V127.37a3.29,3.29,0,0,1,1.39-2.64h0c.76-.44,1.38,0,1.38,1v11.15A3.31,3.31,0,0,1,387.23,139.56Z"/><path class="cls-8" d="M293.25,43.29c-8.17-4.72-14.82-.88-14.82,8.56a25.28,25.28,0,0,0,1.29,7.73c3.71,11.51,10.82,25.5,12.91,29.52a1.75,1.75,0,0,0,.62.69.56.56,0,0,0,.63,0c2.09-1.6,9.2-7.39,12.91-14.61A13.66,13.66,0,0,0,308.08,69C308.08,59.53,301.43,48,293.25,43.29Zm0,26A17.07,17.07,0,0,1,285.55,56c0-4.9,3.46-6.9,7.7-4.45A17.05,17.05,0,0,1,301,64.85C301,69.76,297.5,71.75,293.25,69.3Z"/><path class="cls-9" d="M358.6,233.07l-73-42.15c-4-2.28-7.16-8.41-7.16-13.68v-50.7c0-5.27,3.2-7.69,7.16-5.41l73,42.16c4,2.28,7.16,8.4,7.16,13.68v50.69C365.76,232.93,362.56,235.36,358.6,233.07Z"/><path class="cls-9" d="M362.18,92.83l-39-22.52c-2-1.14-3.58-4.2-3.58-6.84v-.21c0-2.63,1.6-3.84,3.58-2.7l39,22.52c2,1.14,3.58,4.2,3.58,6.84v.21C365.76,92.76,364.16,94,362.18,92.83Z"/><path class="cls-9" d="M362.18,111.59l-39-22.53c-2-1.14-3.58-4.2-3.58-6.83V82c0-2.64,1.6-3.85,3.58-2.71l39,22.53c2,1.14,3.58,4.2,3.58,6.83v.21C365.76,111.52,364.16,112.73,362.18,111.59Z"/><path class="cls-9" d="M362.18,131.42l-39-22.52c-2-1.14-3.58-4.21-3.58-6.84v-.21c0-2.64,1.6-3.85,3.58-2.71l39,22.53c2,1.14,3.58,4.2,3.58,6.84v.21C365.76,131.35,364.16,132.56,362.18,131.42Z"/><path class="cls-9" d="M362.18,151.25,282,105c-2-1.14-3.58-4.2-3.58-6.83v-.21c0-2.64,1.6-3.85,3.58-2.71l80.17,46.29c2,1.14,3.58,4.2,3.58,6.84v.21C365.76,151.18,364.16,152.39,362.18,151.25Z"/><path class="cls-9" d="M362.18,257.2,282,210.91c-2-1.14-3.58-4.2-3.58-6.84v-.21c0-2.63,1.6-3.84,3.58-2.7l80.17,46.29c2,1.14,3.58,4.2,3.58,6.84v.2C365.76,257.13,364.16,258.34,362.18,257.2Z"/><path class="cls-9" d="M362.18,278.6,282,232.31c-2-1.14-3.58-4.2-3.58-6.84v-.21c0-2.63,1.6-3.85,3.58-2.7l80.17,46.28c2,1.15,3.58,4.21,3.58,6.84v.21C365.76,278.53,364.16,279.74,362.18,278.6Z"/><path class="cls-9" d="M362.18,300,282,253.71c-2-1.15-3.58-4.21-3.58-6.84v-.21c0-2.64,1.6-3.85,3.58-2.71l80.17,46.29c2,1.14,3.58,4.2,3.58,6.84v.21C365.76,299.92,364.16,301.14,362.18,300Z"/><path class="cls-9" d="M327.17,301.18,282.9,275.62c-2-1.14-3.58-4.2-3.58-6.84v-.21c0-2.63,1.61-3.85,3.58-2.7l44.27,25.55c2,1.14,3.58,4.21,3.58,6.84v.21C330.75,301.1,329.14,302.32,327.17,301.18Z"/><polygon class="cls-10" points="420.24 380.43 374.13 353.81 420.24 327.19 466.35 353.81 420.24 380.43"/><polygon class="cls-11" points="463.24 408.22 420.24 433.05 420.24 383.4 463.24 358.58 463.24 408.22"/><polygon class="cls-12" points="420.24 433.05 377.25 408.22 377.25 358.58 420.24 383.4 420.24 433.05"/><polygon class="cls-13" points="377.25 358.58 377.25 371.57 420.24 396.11 420.24 383.46 377.25 358.58"/><polygon class="cls-13" points="463.24 358.58 463.24 372.5 420.25 396.11 420.24 383.46 463.24 358.58"/><polygon class="cls-12" points="374.13 353.81 374.13 367.58 420.24 393.84 420.24 380.43 374.13 353.81"/><polygon class="cls-11" points="420.24 393.84 466.35 368.65 466.35 353.81 420.24 380.43 420.24 393.84"/><polygon class="cls-10" points="365.16 411.82 319.05 385.2 365.16 358.58 411.27 385.2 365.16 411.82"/><polygon class="cls-11" points="408.15 439.62 365.16 464.44 365.16 414.8 408.15 389.98 408.15 439.62"/><polygon class="cls-12" points="365.16 464.44 322.17 439.62 322.17 389.98 365.16 414.8 365.16 464.44"/><polygon class="cls-13" points="322.17 389.98 322.17 402.97 365.16 427.5 365.16 414.85 322.17 389.98"/><polygon class="cls-13" points="408.15 389.98 408.15 403.89 365.16 427.5 365.16 414.85 408.15 389.98"/><polygon class="cls-12" points="319.05 385.2 319.05 398.97 365.16 425.23 365.16 411.82 319.05 385.2"/><polygon class="cls-11" points="365.16 425.23 411.27 400.05 411.27 385.2 365.16 411.82 365.16 425.23"/><polygon class="cls-14" points="364.95 399.39 342.62 386.2 366.8 372.24 389.13 385.43 364.95 399.39"/><polygon class="cls-10" points="367.85 370.17 343.66 356.21 367.85 342.24 392.03 356.21 367.85 370.17"/><polygon class="cls-11" points="390.39 384.75 367.85 397.76 367.85 371.73 390.39 358.71 390.39 384.75"/><polygon class="cls-12" points="367.85 397.76 345.3 384.75 345.3 358.71 367.85 371.73 367.85 397.76"/><polygon class="cls-13" points="345.3 358.71 345.3 365.52 367.85 378.39 367.85 371.75 345.3 358.71"/><polygon class="cls-13" points="390.39 358.71 390.39 366.01 367.85 378.39 367.85 371.75 390.39 358.71"/><polygon class="cls-12" points="343.66 356.21 343.66 363.43 367.85 377.2 367.85 370.17 343.66 356.21"/><polygon class="cls-11" points="367.85 377.2 392.03 363.99 392.03 356.21 367.85 370.17 367.85 377.2"/><polygon class="cls-15" points="327.1 500 292.69 480.04 329.56 458.75 363.97 478.71 327.1 500"/><polygon class="cls-10" points="330.97 455.67 294.1 434.38 330.97 413.09 367.85 434.38 330.97 455.67"/><polygon class="cls-11" points="365.35 477.89 330.97 497.75 330.97 458.05 365.35 438.19 365.35 477.89"/><polygon class="cls-12" points="330.97 497.75 296.59 477.89 296.59 438.19 330.97 458.05 330.97 497.75"/><polygon class="cls-13" points="296.59 438.19 296.59 448.58 330.97 468.2 330.97 458.09 296.59 438.19"/><polygon class="cls-13" points="365.35 438.19 365.35 449.32 330.97 468.2 330.97 458.09 365.35 438.19"/><polygon class="cls-12" points="294.1 434.38 294.1 445.39 330.97 466.39 330.97 455.67 294.1 434.38"/><polygon class="cls-11" points="330.97 466.39 367.85 446.25 367.85 434.38 330.97 455.67 330.97 466.39"/><polygon class="cls-15" points="75.52 294.93 36.65 272.49 91.57 241.55 130.44 263.99 75.52 294.93"/><polygon class="cls-10" points="77.77 246.6 38.9 224.16 93.82 193.22 132.69 215.66 77.77 246.6"/><polygon class="cls-11" points="130.06 261.53 77.77 290.95 77.77 249.1 130.06 219.68 130.06 261.53"/><polygon class="cls-12" points="77.77 290.95 41.53 270.03 41.53 228.18 77.77 249.1 77.77 290.95"/><polygon class="cls-13" points="41.53 228.18 41.53 239.13 77.77 259.81 77.77 249.15 41.53 228.18"/><polygon class="cls-13" points="130.06 219.68 130.06 231.42 77.77 259.81 77.77 249.15 130.06 219.68"/><polygon class="cls-12" points="38.9 224.16 38.9 235.76 77.77 257.9 77.77 246.6 38.9 224.16"/><polygon class="cls-11" points="77.77 257.9 132.69 228.18 132.69 215.66 77.77 246.6 77.77 257.9"/><polygon class="cls-15" points="20.81 323.36 3.25 313.54 29.64 298.68 47.2 308.5 20.81 323.36"/><polygon class="cls-10" points="23.19 300.72 4.51 289.94 30.9 275.07 49.57 285.85 23.19 300.72"/><polygon class="cls-11" points="48.31 307.89 23.19 322.02 23.19 301.92 48.31 287.79 48.31 307.89"/><polygon class="cls-12" points="23.19 322.02 5.78 311.97 5.78 291.87 23.19 301.92 23.19 322.02"/><polygon class="cls-13" points="5.78 291.87 5.78 297.13 23.19 307.06 23.19 301.94 5.78 291.87"/><polygon class="cls-13" points="48.31 287.79 48.31 293.42 23.19 307.06 23.19 301.94 48.31 287.79"/><polygon class="cls-12" points="4.51 289.94 4.51 295.51 23.19 306.15 23.19 300.72 4.51 289.94"/><polygon class="cls-11" points="23.19 306.15 49.57 291.87 49.57 285.85 23.19 300.72 23.19 306.15"/><polygon class="cls-15" points="155.59 328.27 101.9 297.23 140.77 274.79 194.46 305.83 155.59 328.27"/><polygon class="cls-10" points="160.65 281.06 106.96 250.02 145.83 227.58 199.52 258.62 160.65 281.06"/><polygon class="cls-11" points="196.89 304.49 160.65 325.41 160.65 283.57 196.89 262.64 196.89 304.49"/><polygon class="cls-12" points="160.65 325.41 109.59 295.89 109.59 254.05 160.65 283.57 160.65 325.41"/><polygon class="cls-13" points="109.59 254.05 109.59 265 160.65 294.27 160.65 283.61 109.59 254.05"/><polygon class="cls-13" points="196.89 262.64 196.89 274.37 160.65 294.27 160.65 283.61 196.89 262.64"/><polygon class="cls-12" points="106.96 250.02 106.96 261.63 160.65 292.36 160.65 281.06 106.96 250.02"/><polygon class="cls-11" points="160.65 292.36 199.52 271.13 199.52 258.62 160.65 281.06 160.65 292.36"/><polygon class="cls-15" points="417.81 478.71 385.21 459.97 409.93 445.69 442.52 464.44 417.81 478.71"/><polygon class="cls-10" points="421.6 448.23 387.46 428.49 412.18 414.22 446.32 433.96 421.6 448.23"/><polygon class="cls-11" points="444.65 463.13 421.6 476.44 421.6 449.82 444.65 436.52 444.65 463.13"/><polygon class="cls-12" points="421.6 476.44 389.13 457.66 389.13 431.05 421.6 449.82 421.6 476.44"/><polygon class="cls-13" points="389.13 431.05 389.13 438.02 421.6 456.63 421.6 449.85 389.13 431.05"/><polygon class="cls-13" points="444.65 436.52 444.65 443.98 421.6 456.63 421.6 449.85 444.65 436.52"/><polygon class="cls-12" points="387.46 428.49 387.46 435.87 421.6 455.42 421.6 448.23 387.46 428.49"/><polygon class="cls-11" points="421.6 455.42 446.32 441.92 446.32 433.96 421.6 448.23 421.6 455.42"/><polygon class="cls-10" points="91.19 201.91 59.65 183.69 91.19 165.49 122.73 183.69 91.19 201.91"/><polygon class="cls-14" points="87.73 239.75 57.89 223.04 89.44 204.83 119.27 221.54 87.73 239.75"/><polygon class="cls-11" points="120.6 220.92 91.19 237.9 91.19 203.94 120.6 186.96 120.6 220.92"/><polygon class="cls-12" points="91.19 237.9 61.78 220.92 61.78 186.96 91.19 203.94 91.19 237.9"/><polygon class="cls-13" points="61.78 186.96 61.78 195.85 91.19 212.63 91.19 203.97 61.78 186.96"/><polygon class="cls-13" points="120.6 186.96 120.6 196.48 91.19 212.63 91.19 203.97 120.6 186.96"/><polygon class="cls-12" points="59.65 183.69 59.65 193.11 91.19 211.08 91.19 201.91 59.65 183.69"/><polygon class="cls-11" points="91.19 211.08 122.73 193.85 122.73 183.69 91.19 201.91 91.19 211.08"/><polygon class="cls-15" points="81.3 362.13 41.19 339.11 84.21 314.27 124.32 337.3 81.3 362.13"/><polygon class="cls-10" points="85.8 310.43 42.77 285.59 85.8 260.75 128.82 285.59 85.8 310.43"/><polygon class="cls-11" points="125.91 336.36 85.8 359.52 85.8 313.2 125.91 290.04 125.91 336.36"/><polygon class="cls-12" points="85.8 359.52 45.68 336.36 45.68 290.04 85.8 313.2 85.8 359.52"/><polygon class="cls-13" points="45.68 290.04 45.68 302.16 85.8 325.05 85.8 313.25 45.68 290.04"/><polygon class="cls-13" points="125.91 290.04 125.91 303.03 85.8 325.05 85.8 313.25 125.91 290.04"/><polygon class="cls-12" points="42.77 285.59 42.77 298.43 85.8 322.94 85.8 310.43 42.77 285.59"/><polygon class="cls-11" points="85.8 322.94 128.82 299.44 128.82 285.59 85.8 310.43 85.8 322.94"/><g id="Men_2"><path id="_Контур_" data-name="&lt;Контур&gt;" class="cls-16" d="M160.93,200.12c1.69,3.86,6.43,22,10.45,26.76s24,5.19,24,5.19l-3.26-10.33-12.8-3.26-6.59-16.43Z"/><path id="_Контур_2" data-name="&lt;Контур&gt;" class="cls-16" d="M187.24,215.91c-7.62,1.92-9.41-2.89-10.42-6.87-2.42-9.63-3.94,10.8-.75,13.37,3.93,3.18,5.2,5.91,14.16,3.68,3.82-1,8-3.24,15.25-6.61,1.94-.9,3.45-1.51,7.17-3.24s7.6-4.63,9.55-7.46,2.22-4.15,1.82-4.8c-.5-.81-1.39-.63-2.43.56a21,21,0,0,1-5.48,5.08s2.4-2.49,3.71-4.11a20.52,20.52,0,0,0,2.88-4.71c.69-1.65-.73-3.88-1.81-2.71s-1.59,2.37-3.56,4.74a20.51,20.51,0,0,1-3.53,3.36,38.53,38.53,0,0,0,3.25-5.23,8.71,8.71,0,0,0,1.19-4.73c-.06-.87-1.27-1.89-2.42-.26-1,1.47-1.69,3.77-4.09,6.26-1.74,1.81-3.22,2.84-3.26,2.34s1.05-1.49,1.67-3.59,0-4.33-1.16-4.57-.94-.18-1.88,1.79-2.36,3.42-3.46,6.29a13,13,0,0,1-3.13,5.4C198.63,211.88,194.49,214.08,187.24,215.91Z"/><ellipse class="cls-15" cx="196.46" cy="381.37" rx="42.95" ry="24.8"/><path id="_Контур_3" data-name="&lt;Контур&gt;" class="cls-17" d="M176.07,177.12a7.44,7.44,0,0,0-9.48,2.86c-2.51,4.16-5.12,18.4-5.35,20.83,0,0,3.51,4.86,8.79,4.05Z"/><path class="cls-18" d="M195.53,378.2a14.66,14.66,0,0,0,11-1.34c2.65.08,17.07-6.09,19-.91,1.72,4.54-4.53,8.74-7.86,9.55-7.29,1.77-12.67,5.4-15.6,6-2.18.46-5,.77-6.74-.95C193.31,388.51,193.49,380.9,195.53,378.2Z"/><path class="cls-19" d="M202.13,390.26c2.93-.62,8.31-4.25,15.6-6,2.79-.67,7.61-3.73,8.1-7.38.64,4.18-5,7.89-8.1,8.64-7.29,1.77-12.67,5.4-15.6,6-2.18.46-5,.77-6.74-.95a4.23,4.23,0,0,1-.95-1.74C197,390.93,200,390.72,202.13,390.26Z"/><path class="cls-18" d="M172.14,367.69a14.6,14.6,0,0,0,11-1.33c2.66.08,17.07-6.09,19-.91,1.71,4.54-4.53,8.74-7.87,9.55-7.28,1.77-12.67,5.4-15.59,6-2.18.46-5,.77-6.74-.95C169.93,378,170.11,370.4,172.14,367.69Z"/><path class="cls-19" d="M178.75,379.76c2.92-.62,8.31-4.25,15.59-6,2.8-.67,7.61-3.73,8.1-7.38.65,4.18-5,7.89-8.1,8.64-7.28,1.77-12.67,5.4-15.59,6-2.18.46-5,.77-6.74-.95a4.35,4.35,0,0,1-1-1.74C173.59,380.43,176.57,380.22,178.75,379.76Z"/><path id="_Контур_4" data-name="&lt;Контур&gt;" class="cls-20" d="M171.86,328.52a87.35,87.35,0,0,1,3.33-15.79s-1-13.63-1.49-26.55c-.57-14.66-5.65-27.56-1.64-39.26L217.3,257s-2.74,58.45-3.34,65.53a133.76,133.76,0,0,1-2,16.41c-2.07,11.35-5.42,38.34-5.42,38.34-4.79,2.78-11.07,1.24-11.07,1.24s.35-34.13.66-42.31c.37-10,.68-9.22.68-9.22l-1.5-24.87-1-12.37s-1.25,9.08-2.06,17.19c-.71,7.07-2.42,13.46-4.33,26.63-1.65,11.42-4.34,34.36-4.34,34.36-4.78,2.78-11.28.47-11.28.47S170.56,338.43,171.86,328.52Z"/><path id="_Контур_5" data-name="&lt;Контур&gt;" class="cls-16" d="M178.47,177.36c3.44.17,6,1.06,6.44,0a45.63,45.63,0,0,0,.78-5.38c-.4-1-.74-2.07-.74-2.07-4.32-2.67-5.69-7.34-6.26-12.79-1-9.31,4.06-17.45,13.37-18.43,8.75-.91,15.18,5.24,16.9,13.68.93,4.17,2.77,12.05.28,18.91-1.39,3.83-3.19,6.87-5,7.47a43.12,43.12,0,0,1-5.18-.46h0s-.47,2.58-.79,4.24-.19,2.54,3.11,4.57-5,6.22-10.41,5.81-11.53-3.69-13.2-7.19C175.94,181.86,176.1,177.25,178.47,177.36Z"/><path id="_Контур_6" data-name="&lt;Контур&gt;" class="cls-21" d="M183.45,177.88c-.95,2.38,1.47,5.29,7.94,7.32s7.05-.58,7.05-.58,9.49,4.32,12.58,6.48c3.89,2.71,5.61,10.57,6.13,23.83.61,15.35.66,38.12.15,42.05,0,0-7.26,7.23-16.55,6.47s-24.91-9-28.7-15.33c.1-13.46,1.67-15.65-.51-23.4-5-17.75-7.61-25-5.19-36.81,2-9.72,4.8-10.93,8.64-10.83A78.14,78.14,0,0,1,183.45,177.88Z"/><path id="_Контур_7" data-name="&lt;Контур&gt;" class="cls-16" d="M231.75,227.62c-7.62,1.92-9.41-2.88-10.41-6.86-2.43-9.64-3.74-18.34-5.54-23.81-2.13-6.45-4.36-7.48-7.5-8.74-3.68-1.47-6.84,1.64-5.62,9.85,1.45,9.71,3.35,16.53,7,28,.94,3,3.07,8.33,6.26,10.91,3.93,3.18,9.85,3,18.81.81,3.83-1,8-3.23,15.25-6.61,1.94-.9,3.45-1.5,7.17-3.24s7.6-4.63,9.56-7.45,2.21-4.16,1.81-4.8c-.5-.81-1.39-.63-2.43.56a21,21,0,0,1-5.48,5.07s2.4-2.49,3.71-4.1a20.38,20.38,0,0,0,2.88-4.71c.69-1.65-.73-3.89-1.81-2.72s-1.59,2.38-3.56,4.74a20.85,20.85,0,0,1-3.53,3.37,39,39,0,0,0,3.25-5.24,8.69,8.69,0,0,0,1.19-4.73c-.06-.86-1.27-1.88-2.41-.25-1,1.46-1.7,3.76-4.1,6.25-1.74,1.81-3.22,2.85-3.26,2.35s1.05-1.5,1.67-3.6,0-4.33-1.16-4.57-.94-.18-1.87,1.79-2.37,3.42-3.47,6.3A12.91,12.91,0,0,1,245,221.6C243.14,223.59,239,225.8,231.75,227.62Z"/><path id="_Контур_8" data-name="&lt;Контур&gt;" class="cls-17" d="M205.48,186.9c5.09-.75,8.69,1.54,10.94,9.25s3.81,14,3.81,14a13.84,13.84,0,0,1-8.52,5.67c-6.09,1.47-8.28-1.44-8.28-1.44s-1.69-8.08-2.74-13.58S199.18,187.83,205.48,186.9Z"/><path class="cls-18" d="M208.67,151.18s8-12.22-9.39-14.71c-12.57-1.8-20.64,6.27-21.57,15-.9,8.37,4.26,17.06,8,20.51,1.82.65,5.73,1,10.86-1.31a60.3,60.3,0,0,0,.24-6.86S190.67,151,208.67,151.18Z"/></g><g id="Men_14"><path class="cls-22" d="M337.33,327.68l-2.59-1.5-.86-.5a5.32,5.32,0,0,0,2.2-1.05C336.35,324.6,336.88,326,337.33,327.68Z"/><path class="cls-23" d="M336.26,325.44a5.8,5.8,0,0,1-1.52.74L327.55,322c-1.48-6.91-4.81-22.53-6.59-30.63-2.32-10.57-2.72-16.67-3.92-23.22-1.45-7.93-4.59-44.94-4.59-44.94l-1.24.07-3.34,41.77a47.31,47.31,0,0,1,2.1,9.49c.72,5.35-.28,27.56-.74,36.89h0l-7.6-4.4-3.06-1.76C296.12,291.54,292,267.83,292,263c0-4.56.79-64.74.79-64.74l43.45,11.14c-.14,4.72-1.62,25.21-2.27,36.07s-.81,24.15-.81,24.15,1.87,7.9,3.08,17.2S336.26,325.44,336.26,325.44Z"/><path id="_Контур_9" data-name="&lt;Контур&gt;" class="cls-16" d="M325,118.15s-.53,10.29-.3,11.2,4.72,3.93,6,5-7.12,9.39-11.21,11.27-17.08-3.07-17.31-9.45,2.22-11.72,4.21-12S325,118.15,325,118.15Z"/><path class="cls-16" d="M296.76,137.24c-.6-4.53,2.38-8.84-.52-12.46-10.16,10-8.86,36.32-11.17,53.18-7.55,7.89-22.71,15.66-27,17.58-.78.36-1.46.74-1.3,1.57.61,3.29,1.56,4.54,3.53,7.72,10-4.33,17.27-6.81,29.8-18.72a28.2,28.2,0,0,0,3.18-4.17C296.89,171.19,297.79,145.09,296.76,137.24Z"/><path id="_Контур_10" data-name="&lt;Контур&gt;" class="cls-21" d="M326.1,131.13s-7.47,11.13-17.9,12.17c-3.28-3.23-3.58-14.76,1-18.44,0,0-4.18-3.38-7-2.72a14.76,14.76,0,0,0-6.43,8.21A67.15,67.15,0,0,0,292,154.17c.18,10.92,0,44.29,0,44.29s1.47,7.06,10.89,12.31,16.43,5.76,22.82,4.27c5.27-1.23,9.63-3.09,11.45-6.92-.47-7.65-3.89-27.63-2.61-37.25s3.31-16.81,3.83-24.59-1-7.63-4.93-10.4A61.07,61.07,0,0,0,326.1,131.13Z"/><path id="_Контур_11" data-name="&lt;Контур&gt;" class="cls-16" d="M301.65,102.8h0c1.23-8,7-14,15.23-13.59A15.84,15.84,0,0,1,325,118.14a16.28,16.28,0,0,1-1.28,3.5c-2.91,3.41-11.73,5.51-14.26,5.15-3.25-.47-5-1.82-6.56-5.38C300.12,115.14,301,106.75,301.65,102.8Z"/><path class="cls-24" d="M325,118.14h0l-.76-7s5.7-14.74-7.76-11.91c-8.88,1.87-11.11,2.68-13.82-3.28s6.83-11.32,18.15-9.83a15.64,15.64,0,0,1,14,15.87C334.47,106.41,333.3,115.28,325,118.14Z"/><polygon class="cls-10" points="287.1 180.41 255.56 162.2 287.1 143.99 318.64 162.2 287.1 180.41"/><polygon class="cls-11" points="316.51 199.43 287.1 216.41 287.1 182.45 316.51 165.47 316.51 199.43"/><polygon class="cls-12" points="287.1 216.41 257.69 199.43 257.69 165.47 287.1 182.45 287.1 216.41"/><polygon class="cls-13" points="257.69 165.47 257.69 174.35 287.1 191.14 287.1 182.48 257.69 165.47"/><polygon class="cls-13" points="316.51 165.47 316.51 174.99 287.1 191.14 287.1 182.48 316.51 165.47"/><polygon class="cls-12" points="255.56 162.2 255.56 171.62 287.1 189.58 287.1 180.41 255.56 162.2"/><polygon class="cls-11" points="287.1 189.58 318.64 172.36 318.64 162.2 287.1 180.41 287.1 189.58"/><path class="cls-16" d="M340.71,141.69c-3.91-1.12-.93-.19-3.91-1.12-10.16,10-8.89,27-11.2,43.91-5.6,9.27-26.42,21.84-26.42,21.84-.26,1.79.37,2.33,2.62,6,10-4.33,18.43-8.06,31-20,.49-.47,1.22-.59,1.43-1.24C337.77,180.32,341.74,149.53,340.71,141.69Z"/><path class="cls-16" d="M304.42,206.69c-.5-1.76-1.78-1.33-3.21-.88a8.47,8.47,0,0,1-4.92.42c-1.36-.42-2.35-1.6-3.51-2.38a4.59,4.59,0,0,0-2.22-.63c.07.45.76,3.08.76,3.08s-7.27.07-8-.08a1.22,1.22,0,0,0-1.16,2c-.16,0-.33,0-.49-.07-1.49-.33-2.12,2-.63,2.29.4.09.81.13,1.22.18-1,.38-1.22,2,0,2.22l.38.06a1.11,1.11,0,0,0,.53.08l.23,0a1.31,1.31,0,0,0,1.1,1.54c3.55.46,8.78,1.88,12-1.05a20,20,0,0,0,6.44-1.74C305,210.79,305,208.8,304.42,206.69Z"/><path class="cls-16" d="M268.1,198.89c-.17,0-.33,0-.5,0a1.22,1.22,0,0,0-.69-2.21c-.76,0-8.25-1.56-8.25-1.56l-.9-3.08c-.05-.17-1.3.61-1.34.65a5.05,5.05,0,0,0-2.26,3.74,8,8,0,0,0,2.15,5.78,7.42,7.42,0,0,0,5.07,2.2c.91.06,1.78.1,2.57.16a1.29,1.29,0,0,0,1.39-1.27l.23,0a1.37,1.37,0,0,0,.55,0l.38,0c1.27,0,1.37-1.58.5-2.16.41,0,.82.08,1.23.08C269.76,201.25,269.63,198.88,268.1,198.89Z"/><path class="cls-17" d="M292.52,144s-3.83-.19-5.42-2.43c.29-3.82,5.18-18.34,15-19.42a18.17,18.17,0,0,0-6.15,7.42C294.19,133.94,292.52,144,292.52,144Z"/><path class="cls-17" d="M342.48,163.18s-9.8,3.38-16.7-2.3c-.75-1.3,4-18,4-18s4.11-8.52,10.55-5.13S342.48,163.18,342.48,163.18Z"/></g><ellipse class="cls-15" cx="27.04" cy="375.02" rx="20.82" ry="12.02"/><ellipse class="cls-25" cx="30.01" cy="372.79" rx="20.82" ry="12.02"/><polygon class="cls-25" points="2.14 331.68 9.42 373.63 50.78 373.63 57.89 331.99 2.14 331.68"/><ellipse class="cls-26" cx="30.01" cy="331.16" rx="27.9" ry="16.11"/><path class="cls-27" d="M30,343.72c-6.84,0-13.21-1.51-18-4.24-4.07-2.35-6.4-5.38-6.4-8.32s2.33-6,6.4-8.31c4.74-2.74,11.11-4.24,18-4.24s13.22,1.5,18,4.24c4.06,2.35,6.39,5.38,6.39,8.31s-2.33,6-6.39,8.32C43.23,342.21,36.85,343.72,30,343.72Z"/><path class="cls-28" d="M42,318.47s-.55-34-12-46c-14,12.32-11.78,46.08-11.78,46.08l12,21.68v0C31.78,340.29,42,318.47,42,318.47Z"/><path class="cls-29" d="M30.18,340.21s-6.36-40.74-30-56C.17,284.16-4.06,340,30.18,340.21Z"/><path class="cls-29" d="M30,340.21s5.74-40,28.79-54.36C58.8,285.85,64.25,340,30,340.21Z"/></g></g></svg>