<svg width="300" height="199" viewBox="0 0 300 199" fill="none" xmlns="http://www.w3.org/2000/svg">
<path d="M9.3667 0H38.5418V29.0587H71.8848V154.804H78.7531V43.6835H101.06V71.7373H120.857L130.337 86.7388V154.804H143.727V94.4982H156.602V77.356H167.932V60.6105H176.082H196.921L213.592 77.356V154.804H226.014V86.7388H236.922V154.804H242.693V103.628H250.397V130.111H264.842V154.804H242.693H236.922H226.014H213.592H143.727H130.337H78.7531H71.8848H13.8663L9.3667 0Z" fill="#ECF2F8"/>
<rect x="191.101" y="83.1846" width="11.0052" height="12.1783" fill="#ECC100"/>
<rect x="191.101" y="123.857" width="11.0052" height="12.1783" fill="#ECC100"/>
<rect x="191.101" y="103.521" width="11.0052" height="12.1783" fill="#ECC100"/>
<rect x="169.994" y="84.2534" width="11.0052" height="12.1783" fill="#ECC100"/>
<rect x="169.994" y="124.926" width="11.0052" height="12.1783" fill="#ECC100"/>
<rect x="169.994" y="104.59" width="11.0052" height="12.1783" fill="#ECC100"/>
<rect x="84.7972" y="123.857" width="11.0052" height="12.1783" fill="#ECC100"/>
<rect x="107.845" y="123.857" width="11.0052" height="12.1783" fill="#ECC100"/>
<rect x="107.845" y="103.521" width="11.0052" height="12.1783" fill="#ECC100"/>
<rect x="107.845" y="84.2534" width="11.0052" height="12.1783" fill="#ECC100"/>
<rect x="84.7972" y="103.521" width="11.0052" height="12.1783" fill="#ECC100"/>
<rect x="84.7972" y="84.2534" width="11.0052" height="12.1783" fill="#ECC100"/>
<rect x="84.7972" y="63.917" width="11.0052" height="12.1783" fill="#ECC100"/>
<rect x="39.232" y="123.857" width="24.6588" height="12.1783" fill="#ECC100"/>
<rect x="39.232" y="96.4316" width="24.6588" height="12.1783" fill="#ECC100"/>
<rect x="39.232" y="70.0063" width="24.6588" height="12.1783" fill="#ECC100"/>
<rect x="39.232" y="42.5811" width="24.6588" height="12.1783" fill="#ECC100"/>
</svg>
