<svg width="301" height="199" viewBox="0 0 301 199" fill="none" xmlns="http://www.w3.org/2000/svg">
<path d="M291.475 0H262.3V29.0587H228.957V154.804H222.089V43.6835H199.782V71.7373H179.985L170.505 86.7388V154.804H157.115V94.4982H144.24V77.356H132.91V60.6105H124.76H103.921L87.2494 77.356V154.804H74.828V86.7388H63.9196V154.804H58.1488V103.628H50.4445V130.111H36.0001V154.804H58.1488H63.9196H74.828H87.2494H157.115H170.505H222.089H228.957H286.975L291.475 0Z" fill="#ECF2F8"/>
<rect width="11.0052" height="12.1783" transform="matrix(-1 0 0 1 109.741 83.1846)" fill="#ECC100"/>
<rect width="11.0052" height="12.1783" transform="matrix(-1 0 0 1 109.741 123.857)" fill="#ECC100"/>
<rect width="11.0052" height="12.1783" transform="matrix(-1 0 0 1 109.741 103.521)" fill="#ECC100"/>
<rect width="11.0052" height="12.1783" transform="matrix(-1 0 0 1 130.848 84.2534)" fill="#ECC100"/>
<rect width="11.0052" height="12.1783" transform="matrix(-1 0 0 1 130.848 124.926)" fill="#ECC100"/>
<rect width="11.0052" height="12.1783" transform="matrix(-1 0 0 1 130.848 104.59)" fill="#ECC100"/>
<rect width="11.0052" height="12.1783" transform="matrix(-1 0 0 1 216.045 123.857)" fill="#ECC100"/>
<rect width="11.0052" height="12.1783" transform="matrix(-1 0 0 1 192.997 123.857)" fill="#ECC100"/>
<rect width="11.0052" height="12.1783" transform="matrix(-1 0 0 1 192.997 103.521)" fill="#ECC100"/>
<rect width="11.0052" height="12.1783" transform="matrix(-1 0 0 1 192.997 84.2534)" fill="#ECC100"/>
<rect width="11.0052" height="12.1783" transform="matrix(-1 0 0 1 216.045 103.521)" fill="#ECC100"/>
<rect width="11.0052" height="12.1783" transform="matrix(-1 0 0 1 216.045 84.2534)" fill="#ECC100"/>
<rect width="11.0052" height="12.1783" transform="matrix(-1 0 0 1 216.045 63.917)" fill="#ECC100"/>
<rect width="24.6588" height="12.1783" transform="matrix(-1 0 0 1 261.61 123.857)" fill="#ECC100"/>
<rect width="24.6588" height="12.1783" transform="matrix(-1 0 0 1 261.61 96.4316)" fill="#ECC100"/>
<rect width="24.6588" height="12.1783" transform="matrix(-1 0 0 1 261.61 70.0063)" fill="#ECC100"/>
<rect width="24.6588" height="12.1783" transform="matrix(-1 0 0 1 261.61 42.5811)" fill="#ECC100"/>
</svg>
