<svg id="Layer_1" data-name="Layer 1" xmlns="http://www.w3.org/2000/svg" xmlns:xlink="http://www.w3.org/1999/xlink" viewBox="0 0 410.73 323.43"><defs><linearGradient id="linear-gradient" x1="239.94" y1="285.21" x2="274.25" y2="255.4" gradientUnits="userSpaceOnUse"><stop offset="0.01"/><stop offset="0.83" stop-opacity="0.07"/><stop offset="1" stop-opacity="0"/></linearGradient><linearGradient id="linear-gradient-2" x1="89.34" y1="252.41" x2="228.24" y2="270.4" xlink:href="#linear-gradient"/><linearGradient id="linear-gradient-3" x1="187.76" y1="161.9" x2="206.04" y2="200.7" xlink:href="#linear-gradient"/><linearGradient id="linear-gradient-4" x1="174.51" y1="168.14" x2="192.78" y2="206.94" xlink:href="#linear-gradient"/><linearGradient id="linear-gradient-5" x1="264.91" y1="349.06" x2="265.62" y2="316.79" gradientTransform="translate(530.48 668.09) rotate(180)" gradientUnits="userSpaceOnUse"><stop offset="0.01"/><stop offset="0.12" stop-opacity="0.75"/><stop offset="1" stop-opacity="0"/></linearGradient><linearGradient id="linear-gradient-6" x1="302.19" y1="236.77" x2="337.41" y2="355.36" gradientTransform="matrix(1, 0, 0, 1, 0, 0)" xlink:href="#linear-gradient-5"/><linearGradient id="linear-gradient-7" x1="315.63" y1="368.99" x2="320.42" y2="247.7" gradientTransform="matrix(1, 0, 0, 1, 0, 0)" xlink:href="#linear-gradient-5"/><linearGradient id="linear-gradient-8" x1="123.62" y1="284.01" x2="176.48" y2="239.02" xlink:href="#linear-gradient"/><linearGradient id="linear-gradient-9" x1="127.74" y1="359.53" x2="169.35" y2="272.93" xlink:href="#linear-gradient"/><linearGradient id="linear-gradient-10" x1="170.21" y1="278.21" x2="164.03" y2="381.12" xlink:href="#linear-gradient"/></defs><title>Entrepreneur</title><path d="M80.48,324.24c-16.86-6.48-33.83-13.95-46.87-26.44C13,278.09,4.93,247.54,8.7,219.3S27,165.07,45.76,143.64c13.19-15,28.56-28.22,40.45-44.33,19-25.74,30.37-60,59.17-73.88,11-5.3,23.37-6.92,35.54-7,33.64-.14,66.33,11.13,96.82,25.32,12.23,5.69,24.52,12.08,33.6,22C327.48,83.55,330.71,109,338,131.88A176,176,0,0,0,389.25,210c11.37,10,24.83,19.67,28.38,34.37,2.49,10.34-.55,21.19-4.46,31.08-4.65,11.73-10.74,23.21-20.05,31.73-19.55,17.87-48.6,19.25-75.07,19.66l-62.45,1c-28.16.44-55.28,9.23-83,8.46C139.15,335.3,112.54,336.55,80.48,324.24Z" transform="translate(-7.81 -18.45)" fill="#00d2ff" opacity="0.42" style="isolation:isolate"/><path d="M304.74,309.93s-19.21-10-29.91-12.6c-4.95-1.22-11.47-8.05-17.67-16.08-2-2.64-4-5.42-6-8.17,0,0-33.13-53.69-15.11-65.42,0,0,7.73-.17,12,2.13s13.65,21.76,15.22,25.2,18.65,35.33,19.79,36.05,3.05,3.34,9.88,7c8.36,4.5,21.5,17.68,21.5,17.68Z" transform="translate(-7.81 -18.45)" fill="#00d2ff"/><path d="M304.74,309.93s-19.21-10-29.91-12.6c-4.95-1.22-11.47-8.05-17.67-16.08-2-2.64-4-5.42-6-8.17,0,0-33.13-53.69-15.11-65.42,0,0,7.73-.17,12,2.13s13.65,21.76,15.22,25.2,18.65,35.33,19.79,36.05,3.05,3.34,9.88,7c8.36,4.5,21.5,17.68,21.5,17.68Z" transform="translate(-7.81 -18.45)" fill="url(#linear-gradient)"/><path d="M245.82,239.26Q247,223.6,247.44,210c-2.52-1.33-5.54-2.89-8-4-7.49-3.57-17.94-8.38-24.64-11.45-3.92-1.8-7.76-3.12-7.76-3.12s-26.79-2.57-29-2.43a68.28,68.28,0,0,0-8.43,2.88c-9.49,3.61-27.81,10.94-30.72,13-4.28,3.06-19.58,78-20,83.15-.4,4.94,20.81,11.71,40.44,16.9,0,7.6-.17,18.25-.34,28,0,1.66-.06,3.29-.09,4.87h85.93c-.12-1.67-.22-3.32-.3-4.87l0-.62c-.33-6.58-1.61-18.38-1.28-29.87,0,0-.21-12.1,1-17.32C244.43,262.05,245.82,239.26,245.82,239.26ZM136.87,283.35C137,273.59,150,255.42,150,255.42a6.37,6.37,0,0,1,.61-.23s.67-.09.67-.08,2-1.91,2-1.91c.47,1.73,4.78,26.26,5.84,40.54C147,291.34,136.8,288,136.87,283.35Z" transform="translate(-7.81 -18.45)" fill="#fff"/><path d="M245.82,239.26Q247,223.6,247.44,210c-2.52-1.33-5.54-2.89-8-4-7.49-3.57-17.94-8.38-24.64-11.45-3.92-1.8-7.76-3.12-7.76-3.12s-26.79-2.57-29-2.43a68.28,68.28,0,0,0-8.43,2.88c-9.49,3.61-27.81,10.94-30.72,13-4.28,3.06-19.58,78-20,83.15-.4,4.94,20.81,11.71,40.44,16.9,0,7.6-.17,18.25-.34,28,0,1.66-.06,3.29-.09,4.87h85.93c-.12-1.67-.22-3.32-.3-4.87l0-.62c-.33-6.58-1.61-18.38-1.28-29.87,0,0-.21-12.1,1-17.32C244.43,262.05,245.82,239.26,245.82,239.26ZM136.87,283.35C137,273.59,150,255.42,150,255.42a6.37,6.37,0,0,1,.61-.23s.67-.09.67-.08,2-1.91,2-1.91c.47,1.73,4.78,26.26,5.84,40.54C147,291.34,136.8,288,136.87,283.35Z" transform="translate(-7.81 -18.45)" fill="url(#linear-gradient-2)"/><path d="M247.41,332.87c-.56-4.07-1.1-8.14-1.58-12.12,0,0,0,0,0-.05-.15-1.33-.31-2.64-.46-3.94,0-.06,0-.13,0-.21-.63-5.48-1.15-10.74-1.53-15.55a49.84,49.84,0,0,1,.48-10.82c1.5-24.62,2.24-50.58,2.24-50.58.79-10.62,1.24-20.56,1.54-29.81,0,0-33.63-15.9-36.68-16.81,0,0,6.38,15,11.16,48.47,1.84,12.86,5.24,34.5,7.72,56.6h0c1.34,11.92,3.85,24.07,5.75,34.82.3,1.66.57,3.28.83,4.87h11.26C247.87,336.12,247.64,334.49,247.41,332.87Z" transform="translate(-7.81 -18.45)" fill="#00d2ff"/><path d="M191.42,293.32c1.32-12.45,2.52-24.87,1.94-31.68-4.64-54.73-17.76-69.21-19.66-71.33-1.48.56-7.08,2.66-8.72,3.31-9,3.54-27.27,10-29.74,11.8-4.27,3.06-21.13,81.68-21.64,86.76-.34,3.44,21.66,10.62,44.11,17-.21,6.16.37,14.84-1.67,23.9a20.79,20.79,0,0,0-1,4.75l31.29-.12c.19-1.62.39-3.24.58-4.87.6-4.89,1.22-9.9,1.84-15.23,9.38,2.43,15.76,4,15.76,4s8.82-14.9,11.38-20.94C216.35,299.67,205,297,191.42,293.32Zm-44.06-18.2a51.29,51.29,0,0,1,3.35-19.66c1.11,3.84,2.65,14.81,4,25.71C150.16,278.88,147.42,277.38,147.36,275.12Z" transform="translate(-7.81 -18.45)" fill="#00d2ff"/><path d="M176.7,189.78s3.41-6.44,2.47-24.72c-.26-5.06,26.59,12,26.59,12s-.09,1.75-.15,4.1c0,1-.05,2.06-.05,3.16,0,.31,0,.61,0,.91,0,.5,0,1,0,1.49s0,1.22.06,1.8.08,1.28.14,1.85a17.34,17.34,0,0,0,1,3.59C208,196.81,186.76,197,176.7,189.78Z" transform="translate(-7.81 -18.45)" fill="#e4aa8b"/><path d="M199.22,201.4l3.71,5c.88,1.18,1.49,1.92,1.4,3.5a7,7,0,0,1-2.19,4.66,1.52,1.52,0,0,1-1.29.52,1.67,1.67,0,0,1-.74-.52,17.1,17.1,0,0,1-3.65-4.56c-.53-1.16.13-2.1.59-3.24Z" transform="translate(-7.81 -18.45)" fill="#18202d"/><path d="M202.42,208.9c1.62,1.07,2.35,5.5,3.21,7.3,2,4.22,4.48,8.21,6.19,12.58,2.17,5.55,3,11.51,3.74,17.42q1.74,14.6,2.26,29.3c.26,7.27.29,14.57,1.39,21.76.69,4.52,1.78,9.26.14,13.52-1.25,3.25-3.92,5.71-6.57,8-2.08-1.83-4.23-3.77-5.26-6.34a17.48,17.48,0,0,1-1-4.65l-2.16-19.09c-.79-7.06-1.59-14.11-2.2-21.19-.44-5-.78-10-.77-15,0-4.36.29-8.72-.13-13.06-.44-4.59-1.67-9.08-2.25-13.66-.53-4.16-2.36-12.95,1.05-16.32C201.05,208.57,201.8,208.48,202.42,208.9Z" transform="translate(-7.81 -18.45)" fill="#18202d"/><path d="M204.52,195.2l-5.3,6.2s-8.51-1.65-11-6.09S204.52,195.2,204.52,195.2Z" transform="translate(-7.81 -18.45)" fill="#e4aa8b"/><path d="M205.73,189.78s-.61,4.72-6.51,11.62l10.56,12-.64-21.25Z" transform="translate(-7.81 -18.45)" fill="#fff"/><path d="M178.32,184.09s12.3,13.91,20.9,17.31l-6.12,14.21-17.51-26Z" transform="translate(-7.81 -18.45)" fill="#fff"/><path d="M205.73,189.78s-.61,4.72-6.51,11.62l10.56,12-.64-21.25Z" transform="translate(-7.81 -18.45)" fill="url(#linear-gradient-3)"/><path d="M178.32,184.09s12.3,13.91,20.9,17.31l-6.12,14.21-17.51-26Z" transform="translate(-7.81 -18.45)" fill="url(#linear-gradient-4)"/><path d="M226.39,328.25a10.52,10.52,0,0,1-3.26-.61s-1.7-1.1-3-1.8a9.57,9.57,0,0,0-1-.51,18.65,18.65,0,0,1-5.48-2.61c-2.15-1.63-9.15-8.18-9.15-8.18l4.53-7,2.08-6.89s16.32,1.63,18.5,2.92a6.75,6.75,0,0,1,.59.4c1.74,1.27,2.5,3,3.33,3.72.31.29,3.15,3.33,3,4.56a4.06,4.06,0,0,1-2.13,3.34s-.57,3.33-2.3,4.82a6,6,0,0,1-3.1,4.34S228.24,327.88,226.39,328.25Z" transform="translate(-7.81 -18.45)" fill="#e5ab8c"/><path d="M200.41,117.91s29.49-7.1,23.28,30.23-13.29,40.36-31.25,32.92-16.71-31.32-17.78-43S191,118.46,200.41,117.91Z" transform="translate(-7.81 -18.45)" fill="#e4a98a"/><path d="M184.92,143.77c-.44-3.28-6.95-4.39-7.4.54s3.15,13.53,5.6,12.64S185.52,148.29,184.92,143.77Z" transform="translate(-7.81 -18.45)" fill="#e4a98a"/><path d="M216.72,300.7l-12.18,20.94s-32.25-8.32-39.78-10.44L182,290.73S207.33,296.52,216.72,300.7Z" transform="translate(-7.81 -18.45)" fill="#00d2ff"/><path d="M205.65,188.53h0a28.22,28.22,0,0,1-22-13.79,32.69,32.69,0,0,0,21.86,9.59c0,.31,0,.61,0,.91,0,.5,0,1,0,1.49S205.62,188,205.65,188.53Z" transform="translate(-7.81 -18.45)" fill="#a07a64"/><rect x="181.36" y="326.31" width="167.76" height="15.47" rx="7.73" transform="translate(522.67 649.64) rotate(-180)" fill="#00d2ff"/><rect x="181.36" y="326.31" width="167.76" height="15.47" rx="7.73" transform="translate(522.67 649.64) rotate(-180)" fill="url(#linear-gradient-5)"/><path d="M248,327l2.55,8.21,108.22,6.58,30.83-78.18a6.87,6.87,0,0,0-6.39-9.39H291.49a22.15,22.15,0,0,0-20.59,14Z" transform="translate(-7.81 -18.45)" fill="#00d2ff"/><path d="M248,327l2.55,8.21,108.22,6.58,30.83-78.18a6.87,6.87,0,0,0-6.39-9.39H291.49a22.15,22.15,0,0,0-20.59,14Z" transform="translate(-7.81 -18.45)" fill="url(#linear-gradient-6)"/><path d="M247.84,341.88h111l29.28-74.26a6.53,6.53,0,0,0-6.07-8.92H294.94A21,21,0,0,0,275.39,272Z" transform="translate(-7.81 -18.45)" fill="#00d2ff"/><path d="M247.84,341.88h111l29.28-74.26a6.53,6.53,0,0,0-6.07-8.92H294.94A21,21,0,0,0,275.39,272Z" transform="translate(-7.81 -18.45)" fill="url(#linear-gradient-7)"/><path d="M100.87,199.8v33.87a6.54,6.54,0,0,1-6.54,6.54h-55a6.55,6.55,0,0,1-6.54-6.54V199.8a7.75,7.75,0,0,1,.09-1.09l38.92,26.18,28.88-26.5A6.55,6.55,0,0,1,100.87,199.8Z" transform="translate(-7.81 -18.45)" fill="#fff"/><path d="M188,148.11c-.78-2-1.78-4.16-3.79-4.84-2.63-.88-5.48,1.74-5.61,4.52s1.72,5.31,3.94,7a84.32,84.32,0,0,1-5,13,80.46,80.46,0,0,1-3.83-24c-1-.29-1.53-1.47-1.75-2.52-1.4-6.65,2.06-13.3,5.83-19a24.37,24.37,0,0,1,5.82-6.63c5.21-3.7,12.14-3.24,18.5-3.81,5.24-.47,10.71-1.71,15.59.24a16.43,16.43,0,0,1,8,7.7,37.7,37.7,0,0,1,3.43,10.78,40.58,40.58,0,0,1,.93,11.46,18.15,18.15,0,0,1-4.25,10.52c-.7.77-2.52,1.68-3.36,1.07a38.26,38.26,0,0,0,1.13-9.94c-.1-2.88-.12-4.61-2-6.78a4.51,4.51,0,0,0-3.06-1.74c-1.15,0-2.23.63-3.37.67-2.07.09-3.65-1.72-5.46-2.73a8.21,8.21,0,0,0-7.34-.18,9.72,9.72,0,0,0-5,5.54c-.52,1.45-1,3.3-2.52,3.63-2,.42-3.48-2.48-5.21-1.33C188.08,141.81,188.16,146.49,188,148.11Z" transform="translate(-7.81 -18.45)" fill="#18202d"/><path d="M154.71,281.17l23,7.54s-7.5-45.36-9.37-47.24-24-25.86-24-25.86,11.58,23.47,6.35,39.85" transform="translate(-7.81 -18.45)" fill="url(#linear-gradient-8)"/><path d="M204.54,321.64,210,311.58S125.9,286,124.78,284.31s1.4-44.71,1.4-44.71L113.6,292.18S140.07,307.51,204.54,321.64Z" transform="translate(-7.81 -18.45)" fill="url(#linear-gradient-9)"/><path d="M178.2,315.51v22.22l-23.13.13s3.24-15.83,2.64-28.65Z" transform="translate(-7.81 -18.45)" fill="url(#linear-gradient-10)"/><path d="M100,194.64l-28.88,26.5L32.17,195a6.55,6.55,0,0,1,6.45-5.44h55A6.53,6.53,0,0,1,100,194.64Z" transform="translate(-7.81 -18.45)" fill="#fff"/><circle cx="142.92" cy="70.71" r="21.92" fill="#fff"/><polygon points="134.12 103.21 128.15 86.65 157.97 86.65 153.24 102.78 134.12 103.21" fill="#fff"/><path d="M135.06,106.34h16.87a0,0,0,0,1,0,0v1.38a4.62,4.62,0,0,1-4.62,4.62h-7.63a4.62,4.62,0,0,1-4.62-4.62v-1.38A0,0,0,0,1,135.06,106.34Z" fill="#fff"/><g opacity="0.42" style="isolation:isolate"><path d="M146.45,122a29.55,29.55,0,0,1-2.6-11.09,15.39,15.39,0,0,1,3.78-10.73,4.1,4.1,0,0,1,2.77-1.56,3.6,3.6,0,0,1,3.15,2.09,3.58,3.58,0,0,1,2.09-.54c1.91.14,3.2,1.95,3.64,3.69a14.41,14.41,0,0,1,.14,5,58.81,58.81,0,0,1-2.95,13l-.94-.33a57.42,57.42,0,0,0,2.89-12.81,13.07,13.07,0,0,0-.11-4.71c-.35-1.39-1.33-2.83-2.74-2.93a2.52,2.52,0,0,0-1.58.45c.06.15.11.29.16.44a12.5,12.5,0,0,1,.44,5.73,4.18,4.18,0,0,1-1.16,2.51,2.22,2.22,0,0,1-1.7.55,1.74,1.74,0,0,1-1.23-.65,2.51,2.51,0,0,1-.43-1.36,9.7,9.7,0,0,1,1.66-6.34,6.67,6.67,0,0,1,1-1.18,2.75,2.75,0,0,0-2.3-1.71,3.23,3.23,0,0,0-2.09,1.25,14.6,14.6,0,0,0-3.51,10,28.66,28.66,0,0,0,2.52,10.72Zm6.73-19.7a5.25,5.25,0,0,0-.62.76,8.84,8.84,0,0,0-1.5,5.69,1.69,1.69,0,0,0,.24.84.7.7,0,0,0,.52.27,1.25,1.25,0,0,0,1-.31,3.19,3.19,0,0,0,.83-1.92,11.49,11.49,0,0,0-.4-5.27S153.19,102.33,153.18,102.31Z" transform="translate(-7.81 -18.45)" fill="#00d2ff"/></g><rect x="240.97" y="114.87" width="82.66" height="57.92" rx="5.59" fill="#fff"/><rect x="244.53" y="130.24" width="16.5" height="15.18" fill="#00d2ff" opacity="0.42" style="isolation:isolate"/><rect x="264.4" y="130.24" width="16.5" height="15.18" fill="#00d2ff" opacity="0.42" style="isolation:isolate"/><rect x="244.53" y="148.61" width="16.5" height="15.18" fill="#00d2ff" opacity="0.42" style="isolation:isolate"/><rect x="264.4" y="148.61" width="16.5" height="15.18" fill="#00d2ff" opacity="0.42" style="isolation:isolate"/><rect x="283.52" y="130.24" width="16.5" height="15.18" fill="#00d2ff" opacity="0.42" style="isolation:isolate"/><rect x="303.38" y="130.24" width="16.5" height="15.18" fill="#00d2ff" opacity="0.42" style="isolation:isolate"/><rect x="283.52" y="148.61" width="16.5" height="15.18" fill="#00d2ff" opacity="0.42" style="isolation:isolate"/><rect x="303.38" y="148.61" width="16.5" height="15.18" fill="#00d2ff" opacity="0.42" style="isolation:isolate"/></svg>