<svg id="Layer_1" data-name="Layer 1" xmlns="http://www.w3.org/2000/svg" xmlns:xlink="http://www.w3.org/1999/xlink" viewBox="0 0 406.82 284.29"><defs><linearGradient id="linear-gradient" x1="114.06" y1="1.85" x2="108.88" y2="350.35" gradientUnits="userSpaceOnUse"><stop offset="0.02" stop-color="#fff" stop-opacity="0"/><stop offset="0.39" stop-color="#fff" stop-opacity="0.39"/><stop offset="1" stop-color="#fff"/></linearGradient><linearGradient id="linear-gradient-2" x1="136.81" y1="178.79" x2="125.8" y2="249.4" gradientUnits="userSpaceOnUse"><stop offset="0.01"/><stop offset="0.83" stop-opacity="0.07"/><stop offset="1" stop-opacity="0"/></linearGradient><linearGradient id="linear-gradient-3" x1="293.98" y1="167.81" x2="289.66" y2="216.17" gradientUnits="userSpaceOnUse"><stop offset="0.01"/><stop offset="0.13" stop-opacity="0.56"/><stop offset="0.83" stop-opacity="0.07"/><stop offset="1" stop-opacity="0"/></linearGradient><linearGradient id="linear-gradient-4" x1="275.55" y1="168.27" x2="271.23" y2="216.64" xlink:href="#linear-gradient-3"/><linearGradient id="linear-gradient-5" x1="306.1" y1="134.28" x2="277.6" y2="122.19" gradientUnits="userSpaceOnUse"><stop offset="0.01"/><stop offset="0.12" stop-opacity="0.75"/><stop offset="1" stop-opacity="0"/></linearGradient><linearGradient id="linear-gradient-6" x1="228.95" y1="170.71" x2="238.01" y2="405.21" xlink:href="#linear-gradient-2"/><linearGradient id="linear-gradient-7" x1="230.99" y1="200.98" x2="234.31" y2="286.8" xlink:href="#linear-gradient-2"/><linearGradient id="linear-gradient-8" x1="277.49" y1="253.9" x2="199.75" y2="199.49" xlink:href="#linear-gradient-2"/><linearGradient id="linear-gradient-9" x1="315.97" y1="267.95" x2="328.35" y2="174.96" xlink:href="#linear-gradient-3"/></defs><title>COO</title><path d="M6.14,268.43c-12.11-29.35,3.93-62.27,21.06-89A819.26,819.26,0,0,1,92.4,91.25C108.91,71.78,127,52.58,150.3,42.1s50.15-11.28,75-5.59S273.33,54,294.72,68C311.16,78.67,327,90.87,338.8,106.51c8.62,11.39,14.94,24.32,21.2,37.15l26.58,54.46c13.07,26.78,26.49,56,20.81,85.22-1.76,9.08-12.42,27.32-19.13,33.67,0,0-240.62.63-308.34,0C33.29,316.58,28.17,321.68,6.14,268.43Z" transform="translate(-1.91 -33)" fill="#00d2ff" opacity="0.18" style="isolation:isolate"/><rect x="15.57" y="55.66" width="193.5" height="126.22" fill="#00d2ff"/><rect x="15.57" y="55.66" width="193.5" height="126.22" fill="url(#linear-gradient)"/><polygon points="165.67 217.58 91.83 217.58 95.28 200.3 163.51 200.3 165.67 217.58" fill="#00d2ff"/><polygon points="165.53 217.58 96 217.58 99.25 200.3 163.49 200.3 165.53 217.58" opacity="0.52" fill="url(#linear-gradient-2)"/><path d="M320,207c-.26,2.93-.53,6-.82,9.1-1,11.19-2.23,23.33-3.33,34.37-1.9,19-3.54,34.74-3.68,36.69-.4,5.2-28.76,6-41,3.69a133.4,133.4,0,0,1-23.93-7.32s2.22-29.75,1.57-55.06c-.77-29.72-4.34-55.79-3-56.84,2.42-1.94,25.88-9.22,25.88-9.22l24.32,2.11s23.74,10.54,25.82,12.27a.49.49,0,0,1,.09.18C322.3,178.66,321.41,191.07,320,207Z" transform="translate(-1.91 -33)" fill="#00d2ff"/><path d="M252.87,212.07s-2.81,5.75-4.4,10a20.24,20.24,0,0,0-1,3.36c-.21,1.38-1.47,3.71-3.07,6.15-2.43,3.72-5.65,7.7-7.11,8.88s-4.59,1-7.81-.67a14.33,14.33,0,0,1-6.72-7.5,11.38,11.38,0,0,1-.37-4.7,72.55,72.55,0,0,1,2.38-12.08c.73-2.75,1.59-5.64,2.51-8.54,4.28-13.52,10-27.51,11.22-29.53,2.26-3.65,7.23-5.83,7.23-5.83Z" transform="translate(-1.91 -33)" fill="#00d2ff"/><path d="M244.61,230.74c-.06.29-.12.58-.21.87a17,17,0,0,1-11,11.87c-3.54,1.12-8.31-.92-10.92-4a8.21,8.21,0,0,1-1.7-3.07c-.73-2.68-.26-6.43.3-9.83.28-1.62.57-3.16.78-4.48a13.87,13.87,0,0,1,2.82-6.41c.05,0,.08-.11.13-.16a11.68,11.68,0,0,1,6.72-4.3,8.77,8.77,0,0,1,8.28,3,19.08,19.08,0,0,1,3.13,4.53A18.64,18.64,0,0,1,244.61,230.74Z" transform="translate(-1.91 -33)" fill="#00d2ff"/><path d="M296.72,154.12s-1.56,11.34-.32,15.54-4.52,16.78-13.07,17.55-9.86-13.76-10-15.47,2.33-2.79,1.09-7S295.4,149.07,296.72,154.12Z" transform="translate(-1.91 -33)" fill="#bb826c"/><path d="M274.41,164.75c1,3.24-.31,4.63-.86,5.88a10.79,10.79,0,0,0,7.32,2.48c5.13-.46,12.44-5.43,15.17-13.43,0-.15.09-.3.14-.45.23-2.86.54-5.11.54-5.11C295.4,149.07,273.17,160.55,274.41,164.75Z" transform="translate(-1.91 -33)" fill="#a7634c"/><path d="M296.09,168.08s-5.43,16.75-11.16,19c0,0-1.52,1,3,3.18s15.32-11.73,12.76-21a7.09,7.09,0,0,0-4.75-5.08Z" transform="translate(-1.91 -33)" opacity="0.52" fill="url(#linear-gradient-3)"/><path d="M274.56,166.46s-.82,12,4.71,19.77c0,0-1.77,3.23-3.48,3.39s-6.91-9.72-5.89-17.57C270.49,167.47,273.6,165.31,274.56,166.46Z" transform="translate(-1.91 -33)" opacity="0.52" fill="url(#linear-gradient-4)"/><path d="M330.7,227.73" transform="translate(-1.91 -33)" fill="none" stroke="#000" stroke-miterlimit="10" stroke-width="0.75"/><path d="M266.28,131.87s.29,22.38,2.54,28.21,7.84,10.5,13,10,12.43-5.43,15.16-13.43,2.74-27,1.65-29.45-7-10.1-20.5-7.63C268.77,121.31,266,128.46,266.28,131.87Z" transform="translate(-1.91 -33)" fill="#bb826c"/><path d="M274.2,112.6c3.58-2.15,8.07-1.91,12.2-1.29,2.74.41,5.46,1,8.18,1.52a12.63,12.63,0,0,1,2.72.77,9.65,9.65,0,0,1,2.74,2,21.88,21.88,0,0,1,4.79,7,17.34,17.34,0,0,1,1.47,5.78c.32,4.66-1.56,9.19-3.84,13.27-.36.64-.85,1.35-1.59,1.37-.92,0-1.44-1-1.71-1.92-1.38-4.52-1.33-8.47-6.21-11a11.33,11.33,0,0,0-10.18-.1c-3.36,1.68-5.89,5-9.58,5.77a11.93,11.93,0,0,0,2.74-4.5,27.42,27.42,0,0,1-13.44,1.33,1.59,1.59,0,0,1-1.36-2.51,23.21,23.21,0,0,1,5.55-9.74C269.11,117.8,271.13,114.43,274.2,112.6Z" transform="translate(-1.91 -33)" fill="#3f3d56"/><path d="M274.2,112.6c3.58-2.15,8.07-1.91,12.2-1.29,2.74.41,5.46,1,8.18,1.52a12.63,12.63,0,0,1,2.72.77,9.65,9.65,0,0,1,2.74,2,21.88,21.88,0,0,1,4.79,7,17.34,17.34,0,0,1,1.47,5.78c.32,4.66-1.56,9.19-3.84,13.27-.36.64-.85,1.35-1.59,1.37-.92,0-1.44-1-1.71-1.92-1.38-4.52-1.33-8.47-6.21-11a11.33,11.33,0,0,0-10.18-.1c-3.36,1.68-5.89,5-9.58,5.77a11.93,11.93,0,0,0,2.74-4.5,27.42,27.42,0,0,1-13.44,1.33,1.59,1.59,0,0,1-1.36-2.51,23.21,23.21,0,0,1,5.55-9.74C269.11,117.8,271.13,114.43,274.2,112.6Z" transform="translate(-1.91 -33)" fill="url(#linear-gradient-5)"/><path d="M298.2,141.92s.4-5.2,4-3.8.15,11.19-1.49,12.2a4.8,4.8,0,0,1-2.48,1" transform="translate(-1.91 -33)" fill="#bb826c"/><path d="M235.72,232.77s6.27-5.34-1.35-15-31.78-37.37-31.78-37.37l-5.1,10.4s17.85,45.29,25.66,46.29A15.08,15.08,0,0,0,235.72,232.77Z" transform="translate(-1.91 -33)" fill="#bb826c"/><polygon points="331.29 200.88 310.8 229.34 310.76 244.63 345.61 209.18 331.29 200.88" fill="#bb826c"/><path d="M356.72,239.17C354,242.46,343.35,252,343.35,252L321,250.68l-2.94-.17,9.79-12.38a7.42,7.42,0,0,0-.43-9.46l-8.19-12.56-4.05-6.19s-.44-2.77-.92-6.82c-1.12-9.23-2.47-25.09.67-29.72a41.88,41.88,0,0,1,7,3.6c3.44,2.2,7.2,5.38,8.82,9.42C334,194.71,362.17,232.65,356.72,239.17Z" transform="translate(-1.91 -33)" fill="#00d2ff"/><path d="M312.71,262.34a30.4,30.4,0,0,0-5.2-1.08c-1.55,0-12.73,11.52-12.14,13s3.68,6.48,5.37,6.33,11.93-3,11.93-3S317.91,263.42,312.71,262.34Z" transform="translate(-1.91 -33)" fill="#bb826c"/><rect x="71.46" y="217.51" width="323.63" height="6.91" fill="#00d2ff"/><path d="M199,173.22a7.26,7.26,0,0,0-2.54-2.42,8.3,8.3,0,0,0-2.56-.64l-5.21-.72L178.21,168c-.71-.1-1.63-.09-1.91.56s.32,1.32.91,1.7c2.44,1.58,5.94,2,7.22,4.6.71,1.43.5,3.12.59,4.71a12.16,12.16,0,0,0,9.85,10.91,5.68,5.68,0,0,0,4.39-.76,7.37,7.37,0,0,0,1.86-2.55C203.86,182,202.23,177.81,199,173.22Z" transform="translate(-1.91 -33)" fill="#bb826c"/><rect x="78.01" y="224.41" width="308.34" height="59.6" fill="#00d2ff"/><rect x="78" y="224.42" width="308.34" height="59.6" opacity="0.52" fill="url(#linear-gradient-6)"/><rect x="78" y="224.42" width="308.34" height="14.25" opacity="0.23" fill="url(#linear-gradient-7)"/><path d="M238.77,227.22c.12,4.52-3.64,8.09-7.09,11a12.69,12.69,0,0,1-2.2,1.59l-.32.16a7,7,0,0,1-4.24.32,10.92,10.92,0,0,1-2.48-.81c-4.1-1.91-7-6.17-9.52-10.13A100,100,0,0,1,205,215c-1.29-3.1-2.27-6.31-3.25-9.52-.29-.95-.57-1.91-.86-2.86-.54-1.76-1.08-3.51-1.61-5.27a10.85,10.85,0,0,1-.65-3.54c.12-2.33,1.74-4.31,3.51-5.83s3.44-3,5.17-4.48c2.89,1.8,5.39,6,7.59,8.67q3.56,4.35,7,8.77a69.82,69.82,0,0,0,5.43,6c1.4,1.41,2.82,2.81,4.21,4.24a54.39,54.39,0,0,1,5.94,7c1,1.52,1.27,3.63,1.31,5.71C238.77,225.08,238.74,226.21,238.77,227.22Z" transform="translate(-1.91 -33)" fill="#00d2ff"/><path d="M248.48,221.7c0,.13,0,.27,0,.4a20.24,20.24,0,0,0-1,3.36c-.21,1.38-1.47,3.71-3.07,6.15a17,17,0,0,1-11,11.87c-3.54,1.12-8.31-.92-10.92-4-4.1-1.91-7-6.17-9.52-10.13A100,100,0,0,1,205,215c-1.29-3.1-2.27-6.31-3.25-9.52-.29-.95-.57-1.91-.86-2.86a10.21,10.21,0,0,1,2.13-4.43c3.69,10.74,9.31,21.39,18.07,28.38.45.35.89.69,1.35,1,1,.72,2,1.39,3.1,2a5.3,5.3,0,0,0,7.14-.33,44.5,44.5,0,0,0,6.11-5.37,45.59,45.59,0,0,0,4.16-5.14,43.9,43.9,0,0,0,5.22-10C246.87,212.18,248.51,218,248.48,221.7Z" transform="translate(-1.91 -33)" opacity="0.52" fill="url(#linear-gradient-8)"/><path d="M336.44,236.9c-1.25,1.87-14.49,12.93-15.49,13.78l-.06,0-2.88-.21,9.79-12.38a7.42,7.42,0,0,0-.43-9.46l-8.19-12.56c-1,11.19-2.23,23.33-3.33,34.37l-14.18-.19,10.15-45.13a6,6,0,0,1,2.39-2.06,2.91,2.91,0,0,1,3.44,1c.51.55,1.34,1.59,2.35,2.93,4.95,6.53,14.46,20.44,15.36,22.77C336.44,232.59,337.73,235,336.44,236.9Z" transform="translate(-1.91 -33)" opacity="0.52" fill="url(#linear-gradient-9)"/><text transform="translate(113.85 212.28)" font-size="10.35" font-family="AvenirNext-Regular, Avenir Next">C O O</text><rect x="100.98" y="68.05" width="22.17" height="14.97" rx="7.49" fill="#fff"/><rect x="57.8" y="98.57" width="22.17" height="14.97" rx="7.49" fill="#fff"/><rect x="145.17" y="97.7" width="22.17" height="14.97" rx="7.49" fill="#fff"/><rect x="58.08" y="137.15" width="22.17" height="14.97" rx="7.49" fill="#fff"/><rect x="102.28" y="134.77" width="22.17" height="14.97" rx="7.49" fill="#fff"/><rect x="148.41" y="133.91" width="22.17" height="14.97" rx="7.49" fill="#fff"/><rect x="103.29" y="97.42" width="22.17" height="14.97" rx="7.49" fill="#fff"/><line x1="111.78" y1="82.23" x2="112.35" y2="97.63" fill="none" stroke="#fff" stroke-miterlimit="10" stroke-width="0.77"/><line x1="75.36" y1="104.47" x2="106.45" y2="104.47" fill="none" stroke="#fff" stroke-miterlimit="10" stroke-width="0.77"/><line x1="119.84" y1="104.47" x2="150.93" y2="104.47" fill="none" stroke="#fff" stroke-miterlimit="10" stroke-width="0.77"/><line x1="69.02" y1="109.65" x2="69.02" y2="140.74" fill="none" stroke="#fff" stroke-miterlimit="10" stroke-width="0.77"/><line x1="112.46" y1="109.65" x2="112.46" y2="140.74" fill="none" stroke="#fff" stroke-miterlimit="10" stroke-width="0.77"/><line x1="157.09" y1="109.65" x2="157.09" y2="140.74" fill="none" stroke="#fff" stroke-miterlimit="10" stroke-width="0.77"/><polygon points="275.31 155.14 278.37 163.31 285.09 156.58 284.09 154.56 277.36 153.23 275.31 155.14" fill="#3f3d56"/><path d="M263.32,250.29s12.1-28.18,13-39.19a165.72,165.72,0,0,1,2.59-19.21l3.46,1.07s.64,22.25-.65,27.86-3.89,29.26-3.89,29.26Z" transform="translate(-1.91 -33)" fill="#3f3d56"/></svg>