<svg id="Layer_1" data-name="Layer 1" xmlns="http://www.w3.org/2000/svg" xmlns:xlink="http://www.w3.org/1999/xlink" viewBox="0 0 429.22 380.4"><defs><linearGradient id="linear-gradient" x1="157.73" y1="281.46" x2="96.13" y2="410.34" gradientUnits="userSpaceOnUse"><stop offset="0.01"/><stop offset="0.23" stop-opacity="0.11"/><stop offset="0.32" stop-opacity="0.08"/><stop offset="1" stop-opacity="0"/></linearGradient><linearGradient id="linear-gradient-2" x1="143.55" y1="332.1" x2="140.14" y2="343.93" gradientUnits="userSpaceOnUse"><stop offset="0.01"/><stop offset="0.54" stop-opacity="0.11"/><stop offset="0.6" stop-opacity="0.08"/><stop offset="1" stop-opacity="0"/></linearGradient><linearGradient id="linear-gradient-3" x1="149.36" y1="265.47" x2="91.9" y2="275.63" gradientUnits="userSpaceOnUse"><stop offset="0.01"/><stop offset="0.13" stop-opacity="0.69"/><stop offset="1" stop-opacity="0"/></linearGradient><linearGradient id="linear-gradient-4" x1="119.76" y1="313.75" x2="115.91" y2="329.52" xlink:href="#linear-gradient-3"/><linearGradient id="linear-gradient-5" x1="152.32" y1="270.87" x2="117.99" y2="269.82" xlink:href="#linear-gradient-2"/><linearGradient id="linear-gradient-6" x1="118.63" y1="118.09" x2="144.56" y2="121.42" xlink:href="#linear-gradient-2"/><linearGradient id="linear-gradient-7" x1="111.77" y1="185.59" x2="94.43" y2="185.06" xlink:href="#linear-gradient-3"/><linearGradient id="linear-gradient-8" x1="94.16" y1="115.8" x2="120.72" y2="185.15" xlink:href="#linear-gradient-3"/><linearGradient id="linear-gradient-9" x1="193.88" y1="223.84" x2="99.03" y2="166.54" xlink:href="#linear-gradient-3"/><linearGradient id="linear-gradient-10" x1="77.16" y1="-104.06" x2="415.6" y2="297.44" gradientUnits="userSpaceOnUse"><stop offset="0.02" stop-color="#fff" stop-opacity="0"/><stop offset="0.02" stop-color="#fff" stop-opacity="0.05"/><stop offset="0.03" stop-color="#fff" stop-opacity="0.16"/><stop offset="0.04" stop-color="#fff" stop-opacity="0.24"/><stop offset="0.06" stop-color="#fff" stop-opacity="0.31"/><stop offset="0.07" stop-color="#fff" stop-opacity="0.36"/><stop offset="0.1" stop-color="#fff" stop-opacity="0.38"/><stop offset="0.16" stop-color="#fff" stop-opacity="0.39"/><stop offset="0.84" stop-color="#fff" stop-opacity="0.68"/><stop offset="1" stop-color="#fff"/></linearGradient><linearGradient id="linear-gradient-11" x1="217.49" y1="115.95" x2="411.23" y2="115.95" xlink:href="#linear-gradient-10"/><linearGradient id="linear-gradient-12" x1="204.13" y1="85.68" x2="279.8" y2="85.68" xlink:href="#linear-gradient-3"/><linearGradient id="linear-gradient-13" x1="196.5" y1="217.37" x2="387.37" y2="217.37" xlink:href="#linear-gradient-10"/><linearGradient id="linear-gradient-14" x1="237.85" y1="112.84" x2="237.85" y2="70.09" xlink:href="#linear-gradient-3"/><linearGradient id="linear-gradient-15" x1="244.76" y1="151.21" x2="235.65" y2="39.8" xlink:href="#linear-gradient-3"/><linearGradient id="linear-gradient-16" x1="282.57" y1="86.07" x2="188.83" y2="170.2" xlink:href="#linear-gradient-3"/></defs><title>Click here</title><path d="M408.82,213c-19.55,30.92-44.49,58-69.55,84.67C314.53,324,288.9,350.51,256.82,367.1c-38.63,20-84,23.91-127.18,18.82-50.83-6-111.91-24.05-116.81-85-1.18-14.76,1.81-29.51,2.65-44.29,2.58-44.76-26.91-97.43,18.36-130,25.08-18,60.93-17.12,83.85-37.81,17.18-15.51,23.5-40.17,39.93-56.47C169.11,21,184.8,14.57,200.72,11.58c21-3.94,42.4-2,63.59-3.1,22.46-1.13,45.18-2,67.41,2.13a142.67,142.67,0,0,1,47.77,18.23,127.87,127.87,0,0,1,24.57,19.4C423.41,67.91,436,94.47,437.47,122,439.2,154.29,426.08,185.68,408.82,213Z" transform="translate(-8.4 -7.53)" fill="#00d2ff" opacity="0.18" style="isolation:isolate"/><path d="M100.08,320.91c-9.62-.47-21-.17-26.54,7.69,3.48,4.33,9,6.4,14.39,7.87,14.88,4.08,30.4,5.08,45.8,6.06,18.08,1.16,36.8,2.22,53.75-4.18,3.12-1.18,6.44-2.91,7.56-6.05-5.3-4.71-12.92-5.5-20-6.06C150.21,324.27,125,320.91,100.08,320.91Z" transform="translate(-8.4 -7.53)" fill="url(#linear-gradient)"/><path d="M133.29,331.84c0,2,.13,4.31,1.66,5.64a6.46,6.46,0,0,0,3.28,1.25,27,27,0,0,0,15-2.06,1.76,1.76,0,0,0,.92-.7,1.74,1.74,0,0,0,.12-.75,5.36,5.36,0,0,0-1.43-3.46,10.72,10.72,0,0,0-4.62-2.46l-7.33-2.43c-2-.68-4.49-1.3-6.59-.6-1.14.38-1-.12-1.06,1.48C133.21,329.1,133.29,330.48,133.29,331.84Z" transform="translate(-8.4 -7.53)" fill="#2e2e3f"/><path d="M133.29,331.84c0,2,.13,4.31,1.66,5.64a6.46,6.46,0,0,0,3.28,1.25,27,27,0,0,0,15-2.06,1.76,1.76,0,0,0,.92-.7,1.74,1.74,0,0,0,.12-.75,5.36,5.36,0,0,0-1.43-3.46,10.72,10.72,0,0,0-4.62-2.46l-7.33-2.43c-2-.68-4.49-1.3-6.59-.6-1.14.38-1-.12-1.06,1.48C133.21,329.1,133.29,330.48,133.29,331.84Z" transform="translate(-8.4 -7.53)" fill="url(#linear-gradient-2)"/><path d="M109.86,235.43c1.66,27.06,3.36,54.5-2.21,81a16.52,16.52,0,0,0-.56,5.18,5.21,5.21,0,0,0,2.67,4.23,5.13,5.13,0,0,0,5.53-1.29,14,14,0,0,0,3-5.19c3.91-10.12,6.35-20.75,8.64-31.36q4.4-20.41,8.13-41c1.92-10.62,3.71-21.46,2.33-32.17L121,216.5c-4,.4-9.5,1.26-11.24,5.6C108.29,225.72,109.63,231.69,109.86,235.43Z" transform="translate(-8.4 -7.53)" fill="#2e2e3f"/><path d="M109.86,235.43c1.66,27.06,3.36,54.5-2.21,81a16.52,16.52,0,0,0-.56,5.18,5.21,5.21,0,0,0,2.67,4.23,5.13,5.13,0,0,0,5.53-1.29,14,14,0,0,0,3-5.19c3.91-10.12,6.35-20.75,8.64-31.36q4.4-20.41,8.13-41c1.92-10.62,3.71-21.46,2.33-32.17L121,216.5c-4,.4-9.5,1.26-11.24,5.6C108.29,225.72,109.63,231.69,109.86,235.43Z" transform="translate(-8.4 -7.53)" fill="url(#linear-gradient-3)"/><path d="M106.39,328.31a5.94,5.94,0,0,0,.92,3.62,5.57,5.57,0,0,0,2,1.44,19.15,19.15,0,0,0,12.36,1.39,8,8,0,0,0,3.19-1.35,3.68,3.68,0,0,0,1.5-3,4,4,0,0,0-1.67-2.77,15.81,15.81,0,0,0-2.92-1.58c-3.76-1.79-7-5.73-11.2-6.31C106,319.14,106.32,325.26,106.39,328.31Z" transform="translate(-8.4 -7.53)" fill="#2e2e3f"/><path d="M106.39,328.31a5.94,5.94,0,0,0,.92,3.62,5.57,5.57,0,0,0,2,1.44,19.15,19.15,0,0,0,12.36,1.39,8,8,0,0,0,3.19-1.35,3.68,3.68,0,0,0,1.5-3,4,4,0,0,0-1.67-2.77,15.81,15.81,0,0,0-2.92-1.58c-3.76-1.79-7-5.73-11.2-6.31C106,319.14,106.32,325.26,106.39,328.31Z" transform="translate(-8.4 -7.53)" fill="url(#linear-gradient-4)"/><path d="M154.74,257.47a176.79,176.79,0,0,1-1.83,22.41c-1,6.49-2.6,12.88-4.18,19.25L142,326.52a3.35,3.35,0,0,1-.92,1.88,3.41,3.41,0,0,1-1.45.58l-3.71.82a2.8,2.8,0,0,1-1.49.06c-1.06-.37-1.27-1.74-1.29-2.86-.39-19,.92-38.06-.24-57-.8-13.06-2.76-26-3.94-39.06-.32-3.58-.54-7.4,1.18-10.56,2-3.65,6-5.43,9.71-6.71,3-1,8.77-3.82,11.76-1.69s2.44,7.66,2.62,10.67q.51,8.23.66,16.47Q155,248.28,154.74,257.47Z" transform="translate(-8.4 -7.53)" fill="#2e2e3f"/><path d="M154.74,257.47a176.79,176.79,0,0,1-1.83,22.41c-1,6.49-2.6,12.88-4.18,19.25L142,326.52a3.35,3.35,0,0,1-.92,1.88,3.41,3.41,0,0,1-1.45.58l-3.71.82a2.8,2.8,0,0,1-1.49.06c-1.06-.37-1.27-1.74-1.29-2.86-.39-19,.92-38.06-.24-57-.8-13.06-2.76-26-3.94-39.06-.32-3.58-.54-7.4,1.18-10.56,2-3.65,6-5.43,9.71-6.71,3-1,8.77-3.82,11.76-1.69s2.44,7.66,2.62,10.67q.51,8.23.66,16.47Q155,248.28,154.74,257.47Z" transform="translate(-8.4 -7.53)" fill="url(#linear-gradient-5)"/><path d="M143.62,114.64c.13,1.56.26,3.28,1.35,4.41.71.74,1.82,1.24,2,2.25s-.75,2-1.29,2.9c-1.23,2.15-.34,5-1.36,7.23a6.38,6.38,0,0,1-3,2.88,27.67,27.67,0,0,1-4,1.5,5.51,5.51,0,0,0-3.18,2.08c-1.24,2.11.47,5-.54,7.22-.78,1.74-2.89,2.41-4.78,2.7a7.25,7.25,0,0,1-3,0,5.55,5.55,0,0,1-3.33-2.92,14.62,14.62,0,0,1-1.25-4.37c-.84-4.89-1.3-9.85-1.69-14.8-.22-2.8-.4-5.75.83-8.27a13.29,13.29,0,0,1,3.73-4.28,15.08,15.08,0,0,1,5.86-3.25,18.42,18.42,0,0,1,5.93-.1l3.31.31a9.52,9.52,0,0,1,2.52.19C143.28,110.93,143.51,113.34,143.62,114.64Z" transform="translate(-8.4 -7.53)" fill="#98646a"/><path d="M142.54,111.69a3.09,3.09,0,0,1-.69.88c-3.61,3.53-9.15,4.36-13,7.61a2.62,2.62,0,0,0-.64.69,3.22,3.22,0,0,0-.23,1.72,22.52,22.52,0,0,1-.31,4.56,3,3,0,0,1-.74-1.67c-.16-.61-.52-1.27-1.14-1.33a1.18,1.18,0,0,0-1.08.68,3.22,3.22,0,0,0-.31,1.3,8.3,8.3,0,0,0,0,2.77A2.81,2.81,0,0,0,126.1,131a.52.52,0,0,1,.33.19c.13.21-.11.45-.32.59l-5.58,3.57a1.37,1.37,0,0,1-.69.27c-.43,0-.73-.42-1-.78a28.92,28.92,0,0,1-3.43-6.68c-.46-1.5-.68-3.06-1.12-4.56-.32-1.1-.76-2.16-1-3.29a12.36,12.36,0,0,1-.14-3,24.81,24.81,0,0,1,.4-3.33,16.25,16.25,0,0,1,3-7.08,13.46,13.46,0,0,1,9.62-4.82,17.61,17.61,0,0,1,10.5,2.89C138.64,106.12,144.09,108.48,142.54,111.69Z" transform="translate(-8.4 -7.53)" fill="#3d3d54"/><path d="M142.54,111.69a3.09,3.09,0,0,1-.69.88c-3.61,3.53-9.15,4.36-13,7.61a2.62,2.62,0,0,0-.64.69,3.22,3.22,0,0,0-.23,1.72,22.52,22.52,0,0,1-.31,4.56,3,3,0,0,1-.74-1.67c-.16-.61-.52-1.27-1.14-1.33a1.18,1.18,0,0,0-1.08.68,3.22,3.22,0,0,0-.31,1.3,8.3,8.3,0,0,0,0,2.77A2.81,2.81,0,0,0,126.1,131a.52.52,0,0,1,.33.19c.13.21-.11.45-.32.59l-5.58,3.57a1.37,1.37,0,0,1-.69.27c-.43,0-.73-.42-1-.78a28.92,28.92,0,0,1-3.43-6.68c-.46-1.5-.68-3.06-1.12-4.56-.32-1.1-.76-2.16-1-3.29a12.36,12.36,0,0,1-.14-3,24.81,24.81,0,0,1,.4-3.33,16.25,16.25,0,0,1,3-7.08,13.46,13.46,0,0,1,9.62-4.82,17.61,17.61,0,0,1,10.5,2.89C138.64,106.12,144.09,108.48,142.54,111.69Z" transform="translate(-8.4 -7.53)" fill="url(#linear-gradient-6)"/><path d="M188.58,123.33a15.23,15.23,0,0,1,3.64-3.48,6.94,6.94,0,0,1,4.81-1.14c-.36,2-2.77,2.88-3.73,4.66a1.14,1.14,0,0,0-.17.54,1.42,1.42,0,0,0,.58.91,11.74,11.74,0,0,1,2.72,3.32,5.48,5.48,0,0,1,.46,4.17,7.26,7.26,0,0,1-3.56,3.65,21.14,21.14,0,0,0-4.4,2.75c-.8.77-1.6,1.8-2.7,1.74a2.06,2.06,0,0,1-1.57-1.08,4.67,4.67,0,0,1-.52-1.88A18.92,18.92,0,0,1,188.58,123.33Z" transform="translate(-8.4 -7.53)" fill="#98646a"/><path d="M191.24,142.7a59,59,0,0,1-6.14,16.65,22.79,22.79,0,0,1-3.46,5c-3.17,3.25-7.8,4.74-12.34,5s-14.42.11-18.87-.75c0,.3,0,.59,0,.9-.07,15.71,9.54,44.22,3,49.9-.6.53-5.25,1.38-11.2,2.33-8.53,1.37-19.71,2.93-25.49,4-2,.38-4.46.63-5.85-.89-.11-.12-.2-.25-.3-.38a9.62,9.62,0,0,1-1-3.92c-.49-3.32-2.14-6.31-3.35-9.43-3.84-9.89-3.31-20.88-5.31-31.3-.75-3.95-1.87-7.82-2.42-11.8a53,53,0,0,1-.25-11.47c.31-4,1.49-8.59,5.2-10l.15-.06h0c1.11-.37,2.38-.51,3.15-1.4,1-1.11.66-2.8,1-4.23,0-.13.07-.25.11-.38.83-2.4,3.7-3.74,6.28-3.59,2.31.14,4.06,1.25,6.13,2.12,1.66.7,3.23.46,5,.54,4.55.23,6.63-.37,10.72,1.79.6.32-.14,3.4.44,3.77,1.62,1,7.07.69,8.72,1.68a46.16,46.16,0,0,0,12.12,4.71c3.33.88,7,1.64,10.14.26,2.75-1.21,4.58-3.79,6.28-6.26,2.26-3.31,4.53-6.6,6.79-9.9.61-.89,1.39-1.88,2.47-1.91a3.61,3.61,0,0,1,1.81.67l3.81,2.32a6.2,6.2,0,0,1,2.46,2.18A5.85,5.85,0,0,1,191.24,142.7Z" transform="translate(-8.4 -7.53)" fill="#00d2ff"/><path d="M110.57,224.43a7,7,0,0,1-1.88-1.49c-1.69-1.88-2.62-4.34-4.25-6.29-1.1-1.33-2.5-2.4-3.49-3.81A15.2,15.2,0,0,1,99,208.41c-4.33-14.33-5.13-29.48-5.31-44.46a26.77,26.77,0,0,1,.86-8.66,13.9,13.9,0,0,1,8.28-8.6,4.75,4.75,0,0,1,.73-.23l-.15.06c-3.71,1.4-4.89,6-5.2,10A53,53,0,0,0,98.5,168c.55,4,1.67,7.85,2.42,11.8,2,10.42,1.47,21.41,5.31,31.3,1.21,3.12,2.86,6.11,3.35,9.43A9.62,9.62,0,0,0,110.57,224.43Z" transform="translate(-8.4 -7.53)" fill="#00d2ff"/><path d="M110.57,224.43a7,7,0,0,1-1.88-1.49c-1.69-1.88-2.62-4.34-4.25-6.29-1.1-1.33-2.5-2.4-3.49-3.81A15.2,15.2,0,0,1,99,208.41c-4.33-14.33-5.13-29.48-5.31-44.46a26.77,26.77,0,0,1,.86-8.66,13.9,13.9,0,0,1,8.28-8.6,4.75,4.75,0,0,1,.73-.23l-.15.06c-3.71,1.4-4.89,6-5.2,10A53,53,0,0,0,98.5,168c.55,4,1.67,7.85,2.42,11.8,2,10.42,1.47,21.41,5.31,31.3,1.21,3.12,2.86,6.11,3.35,9.43A9.62,9.62,0,0,0,110.57,224.43Z" transform="translate(-8.4 -7.53)" fill="url(#linear-gradient-7)"/><path d="M131.68,158.15c-.58,4.53-2.41,8.8-3.74,13.18-5,16.64-2.79,35.33-10.72,50.79a6.52,6.52,0,0,1-1.78,2.39,4.52,4.52,0,0,1-4.87-.08,9.62,9.62,0,0,1-1-3.92c-.49-3.32-2.14-6.31-3.35-9.43-3.84-9.89-3.31-20.88-5.31-31.3-.75-3.95-1.87-7.82-2.42-11.8a53,53,0,0,1-.25-11.47c.31-4,1.49-8.59,5.2-10l.15-.06h0c1.11-.37,2.38-.51,3.15-1.4,1-1.11.66-2.8,1-4.23,0-.13.07-.25.11-.38-.31,3.89-1.9,10.15-2,11.53-.12,3,2.61,5.5,5.53,6.13s5.94-.17,8.79-1.09a29,29,0,0,0,12.22-7.13C132.91,152.23,132,155.69,131.68,158.15Z" transform="translate(-8.4 -7.53)" fill="url(#linear-gradient-8)"/><path d="M153.41,219.34c-.6.53-5.25,1.38-11.2,2.33.45-3.25,2.13-6.24,3.1-9.39,1.5-4.89,1.28-10.14.73-15.23-1.08-9.84-3.34-19.51-4.79-29.3-.09-.57,6.73,1,9.18.79C150.36,184.25,160,213.66,153.41,219.34Z" transform="translate(-8.4 -7.53)" fill="url(#linear-gradient-9)"/><path d="M408.82,213c-19.55,30.92-44.49,58-69.55,84.67H231.61a31.86,31.86,0,0,1-31.87-31.86V60.7a31.86,31.86,0,0,1,31.87-31.86H379.49a127.87,127.87,0,0,1,24.57,19.4C423.41,67.91,436,94.47,437.47,122,439.2,154.29,426.08,185.68,408.82,213Z" transform="translate(-8.4 -7.53)" fill="#00d2ff"/><path d="M436.77,141.56q-.74,6-2,11.83c-4.61,21.05-14.33,41.25-25.93,59.59-15.59,24.65-34.6,46.87-54.36,68.37q-7.53,8.2-15.19,16.3H231.61a31.86,31.86,0,0,1-31.87-31.86V60.7a31.86,31.86,0,0,1,31.87-31.86H379.49a127.87,127.87,0,0,1,24.57,19.4,119.11,119.11,0,0,1,26.77,42.09A108,108,0,0,1,437.47,122,111.46,111.46,0,0,1,436.77,141.56Z" transform="translate(-8.4 -7.53)" fill="url(#linear-gradient-10)"/><path d="M436.77,141.56H243.89V90.33H430.83A108,108,0,0,1,437.47,122,111.46,111.46,0,0,1,436.77,141.56Z" transform="translate(-8.4 -7.53)" fill="url(#linear-gradient-11)"/><rect x="204.13" y="66.59" width="75.68" height="38.19" rx="10.12" fill="url(#linear-gradient-12)"/><path d="M434.75,153.39c-4.61,21.05-14.33,41.25-25.93,59.59-15.59,24.65-34.6,46.87-54.36,68.37H243.89v-128Z" transform="translate(-8.4 -7.53)" fill="url(#linear-gradient-13)"/><polygon points="175.57 39.17 193.44 58.09 196.59 55.73 186.35 31.82 175.57 39.17" fill="#00d2ff"/><polygon points="205 24.72 209.47 51.52 213.68 51.26 216.83 22.36 205 24.72" fill="#00d2ff"/><polygon points="164.28 62.3 189.76 67.29 189.76 73.33 163.22 73.6 164.28 62.3" fill="#00d2ff"/><rect x="201.59" y="66.59" width="75.68" height="38.19" rx="10.12" fill="#00d2ff"/><rect x="200.01" y="66.59" width="75.68" height="38.19" rx="10.12" fill="url(#linear-gradient-14)"/><rect x="201.59" y="75.66" width="75.68" height="20.54" fill="url(#linear-gradient-15)"/><polygon points="237.85 88.92 233.91 89.19 242.84 123.87 246.78 123.61 255.19 115.2 265.44 136.49 269.38 136.22 278.31 130.44 260.97 111.52 273.06 104.69 237.85 88.92" fill="url(#linear-gradient-16)"/><polygon points="233.91 89.19 242.84 123.87 251.25 115.46 265.44 136.49 274.37 130.7 257.03 111.78 269.12 104.95 233.91 89.19" fill="#fff"/></svg>