<svg xmlns="http://www.w3.org/2000/svg" xmlns:xlink="http://www.w3.org/1999/xlink" version="1.1" x="0px" y="0px" viewBox="0 0 1920 1080" style="enable-background:new 0 0 1920 1080;" xml:space="preserve">
<style type="text/css">
	.st0{opacity:0.1;fill:#2A94F4;}
	.st1{fill:#0B4870;}
	.st2{fill:#B97A59;}
	.st3{fill:#2A94F4;}
	.st4{fill:#0E538C;}
	.st5{fill:#AA6D52;}
	.st6{fill:#FCD2B1;}
	.st7{fill:#FFBE55;}
	.st8{opacity:0.4;fill:#FFFFFF;}
	.st9{fill:#CCE9FF;}
</style>
<g id="Background">
	<path class="st0" d="M269,997.1c0,0-30.6-440.6,173.5-698.7s533.8-377.3,719-204.1c382.2,357.4,673.7,867.1,405.6,902.8   S269,997.1,269,997.1"/>
	<polygon class="st1" points="902.9,997.1 646.1,997.1 904.6,418.6 1161.5,997.1  "/>
	<ellipse class="st0" cx="902.4" cy="1004.8" rx="732" ry="74.9"/>
</g>
<g id="Character">
	<g>
		<path class="st2" d="M1015.4,772.7l10.7,7.1c1.8,1.2,4-0.9,2.9-2.7l-1.2-2.1c-1.9-3.3,1.2-7.2,4.8-6l14.9,4.9    c5.6,2.6,12.1-1.2,12.6-7.3c0.4-4.2-6.6-9.3-9.5-10.8c-6.9-3.6-36.4-14.8-36.4-14.8s-8.5,2.1-8.9,13    C1005,761.4,1009.1,768.5,1015.4,772.7z"/>
		<path class="st3" d="M857.7,974c0,0,38.4-97.7,45.9-117.1c-5.8-64.1-55.7-119.7-55.7-119.7s-12.7-19.8-27.3-17.7    c-4.3,0.6-8.8,2.8-12.9,6.4c-3.3-18.9-15.6-33.9-47.4-32.5c0,0-48.3,42.5-39.2,165.4c-0.4,23.7-44.4,156.2-44.4,156.2l63.6-1.5    l-33.2-19c0,0,52.4-97.3,64.6-120.4c12.2-23.1,23.9-79.2,23.9-79.2s0.8-1.8,2-4.9c15.7,37.4,59.3,74.4,59.3,74.4l-25,129.3    l58.5-1.2L857.7,974z"/>
		<path class="st4" d="M857.7,974c0,0-11.5,2.6-21.9,0.1l-3.8,19.6l58.5-1.2L857.7,974z"/>
		<path class="st4" d="M707.2,994.5c0,0-14.2,4-23.7,0.1c-4,12.4-6.7,20.4-6.7,20.4l63.6-1.5L707.2,994.5z"/>
		<path class="st4" d="M900.2,617.1c0,0,23.7,26.7,43.1,59.2c19.3,32.4,71.9,63.6,71.9,63.6s-3.5,19.5-9.3,18.1    c-5.8-1.4-80.7-41.4-80.7-41.4s-40.7-33.6-45.9-53.1C876.3,651.8,884.5,620.1,900.2,617.1z"/>
		<path class="st4" d="M839.8,587.2c0,0,51.1,13.7,60.4,29.9s-11.5,59-34.9,74.7c-11.6,8.8-17.4,45.7-17.4,45.7s-63.5,3-87.7-43.2    C766.6,683,815.7,600.5,839.8,587.2z"/>
		<path class="st5" d="M871.2,582.9l-15.8,24.2c0,0-1.6,12.8,12.1,16.1c13.6,3.3,17.7-4.1,17.7-4.1l4.7-31.8    C889.8,587.3,877.8,580.8,871.2,582.9z"/>
		<path class="st2" d="M876.4,538.6c0,0-25,19.6-24.8,29.4c0.2,9.7,9.4,20.8,35,29.6c9.3,0.7,25.3-24,26.3-29.7    C919.7,530.7,887.5,534.5,876.4,538.6z"/>
		<path class="st4" d="M864.9,528c6.2,11.4,17.8,22.9,29.7,26.5c7.2,2.1,8.3,8.9,5.3,11.9c-3.1,3.1-13.5,8-7.8,10.5    c5.7,2.5,8.4-7,11.2-1.6c2.8,5.4-9.6,13.2-6,17c3.6,3.8,20.2,4,20-7.4c-0.2-11.3,6.6-14.7,16.9-17.4c10.2-2.7,9.2-22.5-2.6-24.1    c-11.8-1.6-14.9-9.3-20.7-19.8c-7.1-12.9-17.4,0.6-27.1-5.5c-3.8-2.4-5.3-8-9.5-9.8c-9.9-4.1-14.7,7.4-11.6,14.8    C863.3,524.9,864,526.5,864.9,528z"/>
		<path class="st6" d="M662.3,682.4l-6.3,32.2l-7.8-15.8l-34.8,18.5c0,0,3.9-19.4,5.6-24.4c1.6-5,25.8-21.2,32.1-21.5    C657.4,671.2,663.9,674.5,662.3,682.4z"/>
		<path class="st4" d="M839.9,587c0,0-70.7-5.6-98.6,10.3c-24.3,12.3-90.2,74.2-90.2,74.2s5,9,11.3,11c6.2-3.7,77.8-47.1,77.8-47.1    s54.2,4.8,75.7,0.5C840.4,630.9,853.2,600.5,839.9,587z"/>
	</g>
</g>
<g id="Onjects">
	<path class="st7" d="M904.6,107.2C740.5,354.1,242.2,997.1,242.2,997.1h405.6l256.8-578.4l256.8,578.4H1567   C1567,997.1,1068.7,354.1,904.6,107.2z"/>
	<path class="st8" d="M904.6,418.6L647.8,997.1c0,0-1.3-158.1-83.6-177.4C564.2,819.7,687.1,804.3,904.6,418.6z"/>
	<path class="st8" d="M904.6,418.6l256.8,578.4c0,0,1.3-158.1,83.6-177.4C1245,819.7,1122.1,804.3,904.6,418.6z"/>
	
		<rect x="221.9" y="949.1" transform="matrix(1.998103e-02 -0.9998 0.9998 1.998103e-02 -712.0618 1199.4276)" class="st4" width="67.8" height="27.8"/>
	
		<rect x="246.5" y="884.8" transform="matrix(1.998103e-02 -0.9998 0.9998 1.998103e-02 -667.1724 1157.1443)" class="st4" width="20.4" height="68.2"/>
	<rect x="1529.8" y="929" class="st4" width="27.7" height="67.8"/>
	<rect x="1509.6" y="908.7" class="st4" width="68.2" height="20.4"/>
	<g>
		<g>
			<path class="st3" d="M1405.9,799.9c0,10-8.1,18.1-18.1,18.1h-129.3c-10,0-18.1-8.1-18.1-18.1v-12.7c0-10,8.1-18.1,18.1-18.1     h129.3c10,0,18.1,8.1,18.1,18.1V799.9z"/>
			<path class="st9" d="M1393,974.5c0,3-2.4,5.4-5.4,5.4h-127.4c-3,0-5.4-2.4-5.4-5.4v-123c0-3,2.4-5.4,5.4-5.4h127.4     c3,0,5.4,2.4,5.4,5.4V974.5z"/>
			<path class="st9" d="M1387.5,1005.2c0,5-4.3,9.1-9.7,9.1h-108c-5.3,0-9.7-4.1-9.7-9.1V980h127.3V1005.2z"/>
			<path class="st3" d="M1396.5,828.2c0-12.1-10.9-21.9-24.3-21.9h-96.8c-13.4,0-24.3,9.8-24.3,21.9c0,0,0.2,32.6,0.5,33     c4.8,17.7,35.2,31.4,72.1,31.4c36.9,0,67.3-13.7,72.1-31.4C1396.3,860.7,1396.5,828.2,1396.5,828.2z"/>
			<g>
				<g>
					<g>
						<path class="st4" d="M1390.1,856.5c-0.1,0-0.2,0-0.3,0c-0.5-0.2-0.7-0.7-0.6-1.1c0.2-0.6,0.3-1.1,0.5-1.7        c0.1-0.5,0.6-0.8,1.1-0.7c0.5,0.1,0.8,0.6,0.7,1.1c-0.1,0.6-0.3,1.2-0.5,1.8C1390.8,856.3,1390.5,856.5,1390.1,856.5z"/>
					</g>
					<g>
						<path class="st4" d="M1324.1,888.1c-0.7,0-1.4,0-2,0c-0.5,0-0.9-0.4-0.9-0.9c0-0.5,0.4-0.9,0.9-0.9c0,0,0,0,0,0        c0.7,0,1.3,0,2,0c0.5,0,1,0,1.5,0c0.5,0,0.9,0.4,0.9,0.9c0,0.5-0.4,0.9-0.9,0.9C1325.1,888.1,1324.6,888.1,1324.1,888.1z         M1316.8,887.9C1316.8,887.9,1316.8,887.9,1316.8,887.9c-1.2-0.1-2.4-0.2-3.6-0.3c-0.5,0-0.9-0.5-0.8-1c0-0.5,0.5-0.9,1-0.8        c1.2,0.1,2.3,0.2,3.5,0.3c0.5,0,0.9,0.5,0.8,1C1317.7,887.5,1317.3,887.9,1316.8,887.9z M1330.9,887.9c-0.5,0-0.9-0.4-0.9-0.8        c0-0.5,0.3-0.9,0.8-1c1.2-0.1,2.3-0.2,3.5-0.3c0.5-0.1,0.9,0.3,1,0.8c0,0.5-0.3,0.9-0.8,1        C1333.3,887.7,1332.2,887.8,1330.9,887.9C1330.9,887.9,1330.9,887.9,1330.9,887.9z M1308.1,887c0,0-0.1,0-0.1,0        c-1.2-0.2-2.3-0.4-3.5-0.6c-0.5-0.1-0.8-0.6-0.7-1c0.1-0.5,0.5-0.8,1-0.7c1.1,0.2,2.3,0.4,3.5,0.6c0.5,0.1,0.8,0.5,0.8,1        C1308.9,886.6,1308.5,887,1308.1,887z M1339.7,887c-0.4,0-0.8-0.3-0.9-0.8c-0.1-0.5,0.3-1,0.8-1c1.2-0.2,2.3-0.4,3.5-0.6        c0.5-0.1,1,0.2,1,0.7c0.1,0.5-0.2,1-0.7,1.1c-1.2,0.2-2.3,0.4-3.5,0.6C1339.8,887,1339.7,887,1339.7,887z M1299.4,885.4        c-0.1,0-0.1,0-0.2,0c-1.2-0.3-2.3-0.6-3.5-0.9c-0.5-0.1-0.8-0.6-0.6-1.1c0.1-0.5,0.6-0.8,1.1-0.6c1.1,0.3,2.2,0.6,3.4,0.8        c0.5,0.1,0.8,0.6,0.7,1.1C1300.2,885.1,1299.8,885.4,1299.4,885.4z M1348.3,885.3c-0.4,0-0.8-0.3-0.9-0.7        c-0.1-0.5,0.2-1,0.7-1.1c1.1-0.3,2.3-0.5,3.4-0.8c0.5-0.1,1,0.2,1.1,0.6s-0.2,1-0.6,1.1c-1.1,0.3-2.3,0.6-3.4,0.9        C1348.5,885.3,1348.4,885.3,1348.3,885.3z M1290.9,883c-0.1,0-0.2,0-0.3,0c-1.1-0.4-2.3-0.8-3.4-1.2c-0.5-0.2-0.7-0.7-0.5-1.2        c0.2-0.5,0.7-0.7,1.2-0.5c1.1,0.4,2.2,0.8,3.3,1.1c0.5,0.2,0.7,0.7,0.6,1.1C1291.7,882.8,1291.3,883,1290.9,883z M1356.8,883        c-0.4,0-0.7-0.2-0.9-0.6c-0.2-0.5,0.1-1,0.6-1.1c1.1-0.4,2.2-0.8,3.3-1.2c0.5-0.2,1,0.1,1.2,0.5c0.2,0.5-0.1,1-0.5,1.2        c-1.1,0.4-2.2,0.8-3.4,1.2C1357,883,1356.9,883,1356.8,883z M1282.7,879.9c-0.1,0-0.2,0-0.4-0.1c-1.1-0.5-2.2-1-3.2-1.5        c-0.4-0.2-0.6-0.8-0.4-1.2c0.2-0.4,0.8-0.6,1.2-0.4c1,0.5,2.1,1,3.1,1.5c0.5,0.2,0.7,0.7,0.5,1.2        C1283.4,879.7,1283.1,879.9,1282.7,879.9z M1365,879.8c-0.3,0-0.7-0.2-0.8-0.5c-0.2-0.5,0-1,0.5-1.2c1.1-0.5,2.1-1,3.1-1.5        c0.4-0.2,1,0,1.2,0.4c0.2,0.4,0,1-0.4,1.2c-1,0.5-2.1,1-3.2,1.5C1365.3,879.8,1365.2,879.8,1365,879.8z M1274.9,875.8        c-0.2,0-0.3,0-0.5-0.1c-1-0.6-2-1.3-3-1.9c-0.4-0.3-0.5-0.8-0.2-1.3c0.3-0.4,0.8-0.5,1.3-0.2c0.9,0.6,1.9,1.3,2.9,1.9        c0.4,0.3,0.6,0.8,0.3,1.2C1275.5,875.7,1275.2,875.8,1274.9,875.8z M1372.8,875.8c-0.3,0-0.6-0.2-0.8-0.4        c-0.3-0.4-0.1-1,0.3-1.2c1-0.6,2-1.2,2.9-1.9c0.4-0.3,1-0.2,1.3,0.2c0.3,0.4,0.2,1-0.2,1.3c-1,0.7-2,1.3-3,1.9        C1373.2,875.7,1373,875.8,1372.8,875.8z M1267.7,870.7c-0.2,0-0.4-0.1-0.6-0.2c-0.9-0.8-1.8-1.6-2.6-2.4        c-0.4-0.4-0.4-0.9,0-1.3c0.4-0.4,0.9-0.4,1.3,0c0.8,0.8,1.6,1.6,2.5,2.3c0.4,0.3,0.4,0.9,0.1,1.3        C1268.2,870.6,1268,870.7,1267.7,870.7z M1380,870.7c-0.3,0-0.5-0.1-0.7-0.3c-0.3-0.4-0.3-1,0.1-1.3c0.9-0.8,1.7-1.6,2.5-2.3        c0.4-0.4,0.9-0.4,1.3,0c0.4,0.4,0.4,0.9,0,1.3c-0.8,0.8-1.7,1.6-2.6,2.4C1380.4,870.6,1380.2,870.7,1380,870.7z M1261.7,864.3        c-0.3,0-0.6-0.1-0.7-0.4c-0.7-1-1.4-2-2-3c-0.2-0.4-0.1-1,0.3-1.2c0.4-0.2,1-0.1,1.2,0.3c0.6,1,1.2,1.9,1.9,2.9        c0.3,0.4,0.2,1-0.2,1.3C1262.1,864.3,1261.9,864.3,1261.7,864.3z M1386,864.3c-0.2,0-0.4-0.1-0.5-0.2        c-0.4-0.3-0.5-0.9-0.2-1.3c0.7-0.9,1.3-1.9,1.9-2.9c0.2-0.4,0.8-0.6,1.2-0.3c0.4,0.2,0.6,0.8,0.3,1.2c-0.6,1-1.3,2-2,3        C1386.6,864.1,1386.3,864.3,1386,864.3z"/>
					</g>
					<g>
						<path class="st4" d="M1257.6,856.5c-0.4,0-0.7-0.2-0.9-0.6c-0.2-0.6-0.4-1.2-0.5-1.8c-0.1-0.5,0.2-1,0.7-1.1        c0.5-0.1,1,0.2,1.1,0.7c0.1,0.6,0.3,1.1,0.5,1.7c0.2,0.5-0.1,1-0.6,1.1C1257.8,856.5,1257.7,856.5,1257.6,856.5z"/>
					</g>
				</g>
			</g>
			<path class="st9" d="M1376.9,966.9c0,3-2.4,5.4-5.4,5.4h-98.1c-3,0-5.4-2.4-5.4-5.4v-38.6h109V966.9z"/>
			<rect x="1277.1" y="947.9" class="st4" width="2" height="19.4"/>
			<rect x="1365.3" y="947.9" class="st4" width="2" height="19.4"/>
			<path class="st3" d="M1376.9,932.2c0,10-8.1,18.1-18.1,18.1h-72.7c-10,0-18.1-8.1-18.1-18.1v-25.9h109V932.2z"/>
			<g>
				<path class="st4" d="M1353.9,945.8h-3.6c-0.5,0-0.9-0.4-0.9-0.9s0.4-0.9,0.9-0.9h3.6c0.5,0,0.9,0.4,0.9,0.9      S1354.4,945.8,1353.9,945.8z M1344.9,945.8h-3.6c-0.5,0-0.9-0.4-0.9-0.9s0.4-0.9,0.9-0.9h3.6c0.5,0,0.9,0.4,0.9,0.9      S1345.4,945.8,1344.9,945.8z M1335.8,945.8h-3.6c-0.5,0-0.9-0.4-0.9-0.9s0.4-0.9,0.9-0.9h3.6c0.5,0,0.9,0.4,0.9,0.9      S1336.3,945.8,1335.8,945.8z M1326.7,945.8h-3.6c-0.5,0-0.9-0.4-0.9-0.9s0.4-0.9,0.9-0.9h3.6c0.5,0,0.9,0.4,0.9,0.9      S1327.2,945.8,1326.7,945.8z M1317.7,945.8h-3.6c-0.5,0-0.9-0.4-0.9-0.9s0.4-0.9,0.9-0.9h3.6c0.5,0,0.9,0.4,0.9,0.9      S1318.2,945.8,1317.7,945.8z M1308.6,945.8h-3.6c-0.5,0-0.9-0.4-0.9-0.9s0.4-0.9,0.9-0.9h3.6c0.5,0,0.9,0.4,0.9,0.9      S1309.1,945.8,1308.6,945.8z M1299.5,945.8h-3.6c-0.5,0-0.9-0.4-0.9-0.9s0.4-0.9,0.9-0.9h3.6c0.5,0,0.9,0.4,0.9,0.9      S1300,945.8,1299.5,945.8z M1290.5,945.8h-3.6c-0.5,0-0.9-0.4-0.9-0.9s0.4-0.9,0.9-0.9h3.6c0.5,0,0.9,0.4,0.9,0.9      S1291,945.8,1290.5,945.8z M1359.4,945.8c-0.5,0-0.9-0.4-0.9-0.9c0-0.5,0.4-0.9,0.9-0.9c1.1,0,2.2-0.3,3.3-0.6      c0.5-0.2,1,0.1,1.2,0.6c0.2,0.5-0.1,1-0.6,1.1C1362,945.5,1360.7,945.8,1359.4,945.8C1359.4,945.8,1359.4,945.8,1359.4,945.8z       M1281.5,945c-0.1,0-0.2,0-0.3-0.1c-1.2-0.5-2.3-1.1-3.4-1.9c-0.4-0.3-0.5-0.9-0.2-1.3c0.3-0.4,0.9-0.5,1.3-0.2      c0.9,0.7,1.9,1.2,2.9,1.6c0.5,0.2,0.7,0.7,0.5,1.2C1282.2,944.7,1281.9,945,1281.5,945z M1367.5,942.4c-0.2,0-0.5-0.1-0.7-0.3      c-0.3-0.4-0.3-0.9,0-1.3c0.8-0.8,1.5-1.7,2.1-2.6c0.3-0.4,0.8-0.6,1.2-0.3c0.4,0.3,0.6,0.8,0.3,1.2c-0.7,1.1-1.5,2.1-2.4,3      C1368,942.3,1367.7,942.4,1367.5,942.4z M1274.9,939.1c-0.3,0-0.6-0.2-0.8-0.5c-0.6-1.1-1.1-2.4-1.3-3.6c-0.1-0.5,0.2-1,0.7-1.1      c0.5-0.1,1,0.2,1.1,0.7c0.2,1.1,0.6,2.2,1.1,3.2c0.2,0.4,0.1,1-0.4,1.2C1275.2,939,1275,939.1,1274.9,939.1z M1371.5,934.4      C1371.4,934.4,1371.4,934.4,1371.5,934.4c-0.6-0.1-1-0.5-0.9-1c0-0.4,0.1-0.8,0.1-1.2v-2.3c0-0.5,0.4-0.9,0.9-0.9      s0.9,0.4,0.9,0.9v2.3c0,0.5,0,0.9-0.1,1.4C1372.3,934.1,1371.9,934.4,1371.5,934.4z M1273.4,930.3c-0.5,0-0.9-0.4-0.9-0.9v-3.6      c0-0.5,0.4-0.9,0.9-0.9c0.5,0,0.9,0.4,0.9,0.9v3.6C1274.3,929.9,1273.9,930.3,1273.4,930.3z M1371.5,925.4      c-0.5,0-0.9-0.4-0.9-0.9v-3.6c0-0.5,0.4-0.9,0.9-0.9s0.9,0.4,0.9,0.9v3.6C1372.4,924.9,1372,925.4,1371.5,925.4z M1273.4,921.2      c-0.5,0-0.9-0.4-0.9-0.9v-3.6c0-0.5,0.4-0.9,0.9-0.9c0.5,0,0.9,0.4,0.9,0.9v3.6C1274.3,920.8,1273.9,921.2,1273.4,921.2z       M1371.5,916.3c-0.5,0-0.9-0.4-0.9-0.9v-3.6c0-0.5,0.4-0.9,0.9-0.9s0.9,0.4,0.9,0.9v3.6C1372.4,915.9,1372,916.3,1371.5,916.3z"/>
			</g>
			<path class="st4" d="M1376.9,966.9c0,3-2.4,5.4-5.4,5.4h-98.1c-3,0-5.4-2.4-5.4-5.4v-1h109V966.9z"/>
			<path class="st4" d="M1292.1,930.1c0,2.8-2.3,5.1-5.1,5.1c-2.8,0-5.1-2.3-5.1-5.1c0-2.8,2.3-5.1,5.1-5.1     C1289.8,924.9,1292.1,927.2,1292.1,930.1z"/>
			<path class="st4" d="M1362.4,930.1c0,2.8-2.3,5.1-5.1,5.1c-2.8,0-5.1-2.3-5.1-5.1c0-2.8,2.3-5.1,5.1-5.1     C1360.1,924.9,1362.4,927.2,1362.4,930.1z"/>
			<path class="st4" d="M1290.6,910.3c0,3.9-2.4,7.1-5.4,7.1h-0.6c-3,0-5.4-3.2-5.4-7.1V766.3h11.5V910.3z"/>
			<path class="st4" d="M1365.3,910.3c0,3.9-2.4,7.1-5.4,7.1h-0.6c-3,0-5.4-3.2-5.4-7.1V766.3h11.5V910.3z"/>
			<rect x="1277.3" y="828.9" class="st9" width="15" height="3.6"/>
			<rect x="1277.3" y="845.3" class="st9" width="15" height="3.6"/>
			<rect x="1352.1" y="828.9" class="st9" width="15" height="3.6"/>
			<rect x="1352.1" y="845.3" class="st9" width="15" height="3.6"/>
			<rect x="1310.7" y="917.8" class="st4" width="23.6" height="7.8"/>
			<path class="st4" d="M1309,806.2c0.5-6.8,6.1-12.1,13-12.1c6.9,0,12.5,5.4,13,12.1h5.4c-0.5-9.8-8.6-17.6-18.5-17.6     c-9.9,0-18,7.8-18.5,17.6H1309z"/>
		</g>
	</g>
</g>
</svg>