<svg xmlns="http://www.w3.org/2000/svg" xmlns:xlink="http://www.w3.org/1999/xlink" version="1.1" x="0px" y="0px" viewBox="0 0 1920 1080" style="enable-background:new 0 0 1920 1080;" xml:space="preserve">
<style type="text/css">
	.st0{opacity:0.15;fill:#FFBE55;}
	.st1{fill:#FFBE55;}
	.st2{fill:#0E538C;}
	.st3{fill:#0B4870;}
	.st4{fill:#EFACA5;}
	.st5{fill:#2A94F4;}
	.st6{fill:#FAB9AF;}
	.st7{fill:#F7F7F7;}
</style>
<g id="Background">
	<path class="st0" d="M1492.85,609.06c28.56,507.36-824.93,517.75-1122.46,428.29s-44.43-454.71,45.02-752.24   s388.86-96.49,661.32-245.79C1391.34-133.08,1475.39,298.87,1492.85,609.06z"/>
	<path class="st1" d="M1018.04,931.44c-216.15,0-394.02-177.87-394.02-394.02s177.87-394.02,394.02-394.02   c57.91,0,114.74,12.77,166.59,36.96l0.13-0.16C1097.06,111.65,988.9,74.39,877.59,74.39c-273.62,0-498.77,225.15-498.77,498.77   s225.15,498.77,498.77,498.77c203.87,0,381.51-125,458.32-302.86C1263.96,867.23,1147.91,931.44,1018.04,931.44z"/>
</g>
<g id="Character">
	<g>
		<g>
			<path class="st2" d="M683.13,898.05c0,0-50.71-139.81-67.75-207.68c-4.99-19.85-1.09-41,11.12-57.42     c56.94-76.53,120.91-122.32,120.91-122.32s150.9-21.84,200.9,35.51c16.47,43.48,86.89,196.48,70.48,379.28     c19,12.88,59.94,25.06,72.93,42.31l-110.44-3.2c0,0-28.91-172.27-52.25-207c-17.21-33.35-91.04-152.96-91.04-152.96     l-127.76,82.66l5.08,204.49l7.64,34.16L620.9,949.76C644.42,922.69,683.13,898.05,683.13,898.05z"/>
			<path class="st3" d="M683.13,898.05c26.61,2.35,32.18-6.32,32.18-6.32l7.64,34.16L620.9,949.76     C644.42,922.69,683.13,898.05,683.13,898.05z"/>
			<path class="st4" d="M1168.53,418c0,0,19.03-0.61,36.14-5.55c17.11-4.94,38.56-0.01,38.56-0.01l-29.49,13.04l47.96,20.4     c0,0-12.2,15.56-30.97,15.48c-18.77-0.08-65.47-16.21-65.47-16.21S1159.55,432,1168.53,418z"/>
			<path class="st5" d="M1168.53,418c0,0,7.01,17.65-2.97,32.1c0,0-148.92-22.4-221.17-68.3c-2.84,23.29-3.58,125.83,3.93,164.35     c-43.87,16.53-154.87,6.34-200.9-35.51c0,0,41.12-72.99,42-133.13c0,0-61.38,20.87-136.21,11.93c0,0,10.21-24.19,8.01-19.57     c-2.19,4.62,9.83-18.09,9.83-18.09s91.18-51.11,131.36-69.39c27.99-8.82,85.35-19.45,137.91,6.11     c23.28,15.13,74.73,46.5,122.41,86.84C1084.28,384.7,1168.53,418,1168.53,418z"/>
			<path class="st4" d="M881.26,240.69l9.57,41.08c0,0-4.22,18.33-24.58,16.06c-20.36-2.27-22.21-14.46-22.21-14.46l9.41-46.02     C853.44,237.35,873.23,234.55,881.26,240.69z"/>
			<path class="st6" d="M909.14,184.28c0,0,15.36,43.79,7.41,55.58c-7.95,11.79-27.88,18.22-66.22,8.93     c-11.96-6.49-13.88-50.24-9.06-57.14C846.09,184.76,896.98,181.53,909.14,184.28z"/>
			<path class="st3" d="M821.97,196.84c0-30.52,15.56-26.62,36.1-34.53c54.74-21.09,88.27,38.6,55.42,35.07     c-18.05-5.33-44.81,0.82-46.47,22.2c-4.98-11.76-14.76-17.6-19.78-6.43c-4.08,6.9-2.27,18.07-0.1,26.06     c0.9,3.32-3.02,5.91-5.64,3.68C833.17,235.8,821.95,221.65,821.97,196.84z"/>
			<path class="st3" d="M975.33,931.29c24.57,8.53,43.47-5.86,43.47-5.86c19,12.88,59.94,25.06,72.93,42.31l-110.44-3.2     C981.28,964.54,979.05,951.23,975.33,931.29z"/>
		</g>
		<g>
			<path class="st2" d="M1264.44,481.2L1264.44,481.2l8.51-98.35l0.12-1.39c0.4-4.64-3.03-8.73-7.68-9.13l-41.49-3.59     c-4.64-0.4-8.73,3.04-9.13,7.68l-0.12,1.39l-8.63,99.74c-0.4,4.64,3.03,8.73,7.68,9.13l41.49,3.59c3.47,0.3,6.62-1.54,8.16-4.42     c0.52-0.98,0.87-2.08,0.97-3.25L1264.44,481.2z"/>
			<path class="st3" d="M1236.62,374.77c-0.04,0.44-0.43,0.77-0.87,0.73c-0.44-0.04-0.77-0.43-0.73-0.87     c0.04-0.44,0.43-0.77,0.87-0.73C1236.33,373.94,1236.66,374.33,1236.62,374.77z"/>
			<path class="st3" d="M1252.98,377.19l-13.57-1.17c-0.49-0.04-0.85-0.47-0.8-0.96l0.02-0.23c0.04-0.49,0.47-0.85,0.96-0.8     l13.57,1.17c0.49,0.04,0.85,0.47,0.8,0.96l-0.02,0.23C1253.89,376.87,1253.47,377.23,1252.98,377.19z"/>
			<circle class="st3" cx="1234.71" cy="483.5" r="3.21"/>
			
				<rect x="1194.44" y="403.57" transform="matrix(0.0862 -0.9963 0.9963 0.0862 704.7894 1627.4086)" class="st1" width="90.22" height="51.85"/>
		</g>
		<g>
			<path class="st7" d="M1241.05,417.37l1.63-14.98c1.93,0.21,3.87,0.41,5.81,0.62c0.9,0.1,1.55,0.89,1.46,1.78l-1.27,11.68     c-0.1,0.89-0.91,1.55-1.81,1.45l-2.55-0.28l-2.38-0.26C1241.63,417.35,1241.34,417.34,1241.05,417.37z M1233.02,435.08     c0.08-2.3,0.27-4.6,0.51-6.89c0.26-2.29,0.56-4.57,0.98-6.84c0.34-1.85,1.79-3.33,3.54-3.91l1.67-15.38     c-3.63-0.34-8.49,3.98-11.18,9.72c-1.17,2.48-1.93,5.08-2.57,7.66c-0.63,2.56-1.08,5.18-1.37,7.79c-0.29,2.61-0.43,5.26-0.35,7.9     c0.07,2.66,0.27,5.36,0.87,8.02c1.41,6.19,5.24,11.44,8.86,11.88l1.67-15.38C1234.06,438.72,1232.95,436.96,1233.02,435.08z      M1244.55,454.56l1.27-11.67c0.09-0.89-0.56-1.7-1.46-1.8l0,0l-2.56-0.28l-2.37-0.25c-0.29-0.03-0.58-0.09-0.86-0.17l-1.63,14.98     c1.94,0.21,3.87,0.42,5.81,0.63C1243.64,456.1,1244.45,455.46,1244.55,454.56z"/>
		</g>
		<path class="st4" d="M1200.05,413.67c0,0,18.61-3.27,22.95-3.89c6.23-0.9,19.81,6.72,5.27,11.21    c-14.54,4.49-22.71,8.44-21.87,17.39S1183.75,430.5,1200.05,413.67z"/>
	</g>
</g>
</svg>