<svg xmlns="http://www.w3.org/2000/svg" xmlns:xlink="http://www.w3.org/1999/xlink" version="1.1" id="Layer_1" x="0px" y="0px" viewBox="0 0 800 800" style="enable-background:new 0 0 800 800;" xml:space="preserve">
<style type="text/css">
	.st0{opacity:0.42;fill:#FDBD56;}
	.st1{fill:#F7F7F7;}
	.st2{fill:none;stroke:#4C8DCB;stroke-width:2;stroke-miterlimit:10;}
	.st3{fill:#FDBD56;}
	.st4{fill:#084970;}
	.st5{fill:#4C8DCB;}
	.st6{fill:#CDE8F9;}
	.st7{fill:#FCD2B1;}
	.st8{fill:#E9C1A4;}
	.st9{fill:#F2C6A8;}
	.st10{fill:#073E59;}
	.st11{fill:#D3D3D3;}
	.st12{fill:#FEE3CA;}
	.st13{fill:#EDEDED;}
	.st14{fill:#FFFFFF;}
	.st15{fill:#0A425E;}
</style>
<path class="st0" d="M97.24,521.81h598.03c0,0,48.23-68.67-11.61-104.69c-43.53-26.21-127.3-59.76-140.21-149.56  s-219.58-51.48-233.67,41.91S200.54,246,105.46,320.23C59.96,355.75,35,445.95,97.24,521.81z"/>
<path class="st1" d="M622.86,460.74H187.18c-6.47,0-11.71-5.24-11.71-11.71V238.86c0-6.47,5.24-11.71,11.71-11.71h435.68  c6.47,0,11.71,5.24,11.71,11.71v210.18C634.57,455.5,629.32,460.74,622.86,460.74z"/>
<line class="st2" x1="184.19" y1="274.74" x2="625.84" y2="274.74"/>
<line class="st2" x1="285.75" y1="234.75" x2="285.75" y2="453.14"/>
<line class="st2" x1="405.02" y1="234.75" x2="405.02" y2="453.14"/>
<line class="st2" x1="520.79" y1="234.75" x2="520.79" y2="453.14"/>
<rect x="189.77" y="290.69" transform="matrix(0.9976 0.0688 -0.0688 0.9976 21.3341 -13.197)" class="st3" width="25.17" height="25.17"/>
<rect x="238.17" y="297.52" transform="matrix(0.9971 -0.0761 0.0761 0.9971 -22.878 19.9882)" class="st4" width="25.17" height="25.17"/>
<rect x="198.58" y="331.36" transform="matrix(0.9971 -0.0761 0.0761 0.9971 -25.5692 17.0723)" class="st5" width="25.17" height="25.17"/>
<rect x="241.48" y="340.76" class="st5" width="25.17" height="25.17"/>
<rect x="308.38" y="303.27" class="st3" width="25.17" height="25.17"/>
<rect x="356.7" y="328.18" transform="matrix(0.9976 0.0688 -0.0688 0.9976 24.3071 -24.5877)" class="st3" width="25.17" height="25.17"/>
<rect x="356.7" y="290.69" transform="matrix(0.9971 -0.0761 0.0761 0.9971 -22.0145 28.9908)" class="st5" width="25.17" height="25.17"/>
<rect x="426.79" y="297.52" transform="matrix(0.9971 -0.0761 0.0761 0.9971 -22.3308 34.346)" class="st4" width="25.17" height="25.17"/>
<rect x="474.25" y="297.52" transform="matrix(0.9976 0.0688 -0.0688 0.9976 22.4769 -32.7437)" class="st6" width="25.17" height="25.17"/>
<rect x="426.79" y="340.76" transform="matrix(0.9976 0.0688 -0.0688 0.9976 25.3384 -29.3777)" class="st3" width="25.17" height="25.17"/>
<rect x="588.96" y="297.52" transform="matrix(0.9976 0.0688 -0.0688 0.9976 22.7485 -40.6319)" class="st3" width="25.17" height="25.17"/>
<rect x="579.68" y="340.76" transform="matrix(0.9971 -0.0761 0.0761 0.9971 -25.179 46.1101)" class="st5" width="25.17" height="25.17"/>
<rect x="537.19" y="314.64" class="st4" width="25.17" height="25.17"/>
<rect x="314.79" y="350.69" transform="matrix(0.9976 0.0688 -0.0688 0.9976 25.7563 -21.6522)" class="st6" width="25.17" height="25.17"/>
<rect x="353.22" y="378.57" transform="matrix(0.9971 -0.0761 0.0761 0.9971 -28.7144 28.9813)" class="st3" width="25.17" height="25.17"/>
<path class="st6" d="M736.75,523.7H63.81c-1.59,0-2.88-1.29-2.88-2.88l0,0c0-1.59,1.29-2.88,2.88-2.88h672.94  c1.59,0,2.88,1.29,2.88,2.88l0,0C739.63,522.41,738.34,523.7,736.75,523.7z"/>
<g>
	<g>
		<path class="st4" d="M458.29,353.34c-0.25,2.22-0.5,4.44-0.75,6.66c-0.68,6.04-1.36,12.09-2.04,18.13    c-1,8.94-2.01,17.88-3.01,26.82c-1.22,10.91-2.45,21.82-3.67,32.73c-1.34,11.95-2.68,23.9-4.02,35.85    c-1.35,12.06-2.71,24.13-4.06,36.19c-1.26,11.25-2.53,22.5-3.79,33.75c-1.07,9.51-2.13,19.02-3.2,28.53    c-0.77,6.84-1.54,13.68-2.3,20.52c-0.36,3.24-0.83,6.48-1.09,9.73c-0.01,0.14-0.03,0.28-0.05,0.42c-0.15,1.34,1.26,2.5,2.5,2.5    c1.48,0,2.35-1.15,2.5-2.5c0.25-2.22,0.5-4.44,0.75-6.66c0.68-6.04,1.36-12.09,2.04-18.13c1-8.94,2.01-17.88,3.01-26.82    c1.22-10.91,2.45-21.82,3.67-32.73c1.34-11.95,2.68-23.9,4.02-35.85c1.35-12.06,2.71-24.13,4.06-36.19    c1.26-11.25,2.53-22.5,3.79-33.75c1.07-9.51,2.13-19.02,3.2-28.53c0.77-6.84,1.54-13.68,2.3-20.52c0.36-3.24,0.83-6.48,1.09-9.73    c0.01-0.14,0.03-0.28,0.05-0.42c0.15-1.34-1.26-2.5-2.5-2.5C459.31,350.84,458.44,352,458.29,353.34L458.29,353.34z"/>
	</g>
</g>
<g>
	<g>
		<path class="st4" d="M507.94,353.34c-0.25,2.22-0.5,4.44-0.75,6.66c-0.68,6.04-1.36,12.09-2.04,18.13    c-1,8.94-2.01,17.88-3.01,26.82c-1.22,10.91-2.45,21.82-3.67,32.73c-1.34,11.95-2.68,23.9-4.02,35.85    c-1.35,12.06-2.71,24.13-4.06,36.19c-1.26,11.25-2.53,22.5-3.79,33.75c-1.07,9.51-2.13,19.02-3.2,28.53    c-0.77,6.84-1.54,13.68-2.3,20.52c-0.36,3.24-0.83,6.48-1.09,9.73c-0.01,0.14-0.03,0.28-0.05,0.42c-0.15,1.34,1.26,2.5,2.5,2.5    c1.48,0,2.35-1.15,2.5-2.5c0.25-2.22,0.5-4.44,0.75-6.66c0.68-6.04,1.36-12.09,2.04-18.13c1-8.94,2.01-17.88,3.01-26.82    c1.22-10.91,2.45-21.82,3.67-32.73c1.34-11.95,2.68-23.9,4.02-35.85c1.35-12.06,2.71-24.13,4.06-36.19    c1.26-11.25,2.53-22.5,3.79-33.75c1.07-9.51,2.13-19.02,3.2-28.53c0.77-6.84,1.54-13.68,2.3-20.52c0.36-3.24,0.83-6.48,1.09-9.73    c0.01-0.14,0.03-0.28,0.05-0.42c0.15-1.34-1.26-2.5-2.5-2.5C508.96,350.84,508.09,352,507.94,353.34L507.94,353.34z"/>
	</g>
</g>
<g>
	<g>
		<path class="st4" d="M458.07,385.36c5.32,0,10.64,0,15.96,0c8.52,0,17.05,0,25.57,0c1.94,0,3.89,0,5.83,0c3.22,0,3.22-5,0-5    c-5.32,0-10.64,0-15.96,0c-8.52,0-17.05,0-25.57,0c-1.94,0-3.89,0-5.83,0C454.85,380.36,454.85,385.36,458.07,385.36    L458.07,385.36z"/>
	</g>
</g>
<g>
	<g>
		<path class="st4" d="M455.36,416.88c5.32,0,10.64,0,15.96,0c8.52,0,17.05,0,25.57,0c1.94,0,3.89,0,5.83,0c3.22,0,3.22-5,0-5    c-5.32,0-10.64,0-15.96,0c-8.52,0-17.05,0-25.57,0c-1.94,0-3.89,0-5.83,0C452.15,411.88,452.14,416.88,455.36,416.88    L455.36,416.88z"/>
	</g>
</g>
<g>
	<g>
		<path class="st4" d="M451.4,448.41c5.32,0,10.64,0,15.96,0c8.52,0,17.05,0,25.57,0c1.94,0,3.89,0,5.83,0c3.22,0,3.22-5,0-5    c-5.32,0-10.64,0-15.96,0c-8.52,0-17.05,0-25.57,0c-1.94,0-3.89,0-5.83,0C448.19,443.41,448.18,448.41,451.4,448.41L451.4,448.41z    "/>
	</g>
</g>
<g>
	<g>
		<path class="st4" d="M446.68,479.94c5.32,0,10.64,0,15.96,0c8.52,0,17.05,0,25.57,0c1.94,0,3.89,0,5.83,0c3.22,0,3.22-5,0-5    c-5.32,0-10.64,0-15.96,0c-8.52,0-17.05,0-25.57,0c-1.94,0-3.89,0-5.83,0C443.46,474.94,443.45,479.94,446.68,479.94    L446.68,479.94z"/>
	</g>
</g>
<g>
	<g>
		<path class="st4" d="M443.27,512.25c5.32,0,10.64,0,15.96,0c8.52,0,17.05,0,25.57,0c1.94,0,3.89,0,5.83,0c3.22,0,3.22-5,0-5    c-5.32,0-10.64,0-15.96,0c-8.52,0-17.05,0-25.57,0c-1.94,0-3.89,0-5.83,0C440.06,507.25,440.05,512.25,443.27,512.25    L443.27,512.25z"/>
	</g>
</g>
<g>
	<g>
		<path class="st4" d="M441.26,542.79c5.32,0,10.64,0,15.96,0c8.52,0,17.05,0,25.57,0c1.94,0,3.89,0,5.83,0c3.22,0,3.22-5,0-5    c-5.32,0-10.64,0-15.96,0c-8.52,0-17.05,0-25.57,0c-1.94,0-3.89,0-5.83,0C438.05,537.79,438.04,542.79,441.26,542.79    L441.26,542.79z"/>
	</g>
</g>
<g>
	<g>
		<path class="st4" d="M438.05,574.26c5.32,0,10.64,0,15.96,0c8.52,0,17.05,0,25.57,0c1.94,0,3.89,0,5.83,0c3.22,0,3.22-5,0-5    c-5.32,0-10.64,0-15.96,0c-8.52,0-17.05,0-25.57,0c-1.94,0-3.89,0-5.83,0C434.84,569.26,434.83,574.26,438.05,574.26    L438.05,574.26z"/>
	</g>
</g>
<g>
	<polygon class="st7" points="440.2,526.86 438.34,536.33 448.89,536.33 451.22,522.36  "/>
	<path class="st4" d="M437.2,538.8h17.43c0,0,1.28-8.22-2.39-8.22s-4.49,1.8-4.49,1.8s-7.51,2.62-9.48-0.24   C437.63,531.21,436.45,536.16,437.2,538.8z"/>
	<polygon class="st7" points="476.8,494.97 474.94,504.44 485.5,504.44 487.82,490.46  "/>
	<path class="st8" d="M469.81,321.71c0,0,2.85,5.87,0,10.03c-2.85,4.16,12.36,0.59,12.36,0.59s-2.38-3.8-1.07-13.19   C482.41,309.75,469.81,321.71,469.81,321.71z"/>
	<path class="st7" d="M485.86,306.78c0,0,1.08,16.71-3.32,16.95c-4.41,0.24-15.18,0.98-17.38-8.81   C462.95,305.13,475.09,294.06,485.86,306.78z"/>
	<path class="st4" d="M466.61,320.56c-2.29-3.53-4.45-10.37-1.72-16.13c2.73-5.76,11.3-7.02,15.79-5.05   c4.49,1.97,7.4,7.06,6.46,8.28c-1.17,1.52-1.6,1.76-1.6,1.76s-1.21,0.18-5.75-0.79c0,0-4.33,10.86-7.48,13.23   C472.32,321.85,468.6,323.63,466.61,320.56z"/>
	<path class="st4" d="M453.27,394.99l-14.94,134.25l13.7-1.1c0,0,18.95-99.73,21.69-100.95s2.74,1.52,5.49,7.32   c2.74,5.79,10.06,17.07,7.32,25.91c-2.74,8.84-12.19,36.28-12.19,36.28l14.94,0.61c0,0,17.07-40.55,17.07-47.26   c0-6.71-11.35-55.06-11.35-55.06H453.27z"/>
	<path class="st7" d="M541.99,313.69l3.41-4.74c0,0,2.46-9.67,6.63-9.29c4.17,0.38,9.48,4.74,7.96,9.1   c-1.52,4.36-8.87,4.93-8.87,4.93l-6.48,6.07L541.99,313.69z"/>
	<path class="st5" d="M455.3,331.89c0,0,17.22-6.73,28.18-2.35c10.96,4.38,9.64,5.74,17.75,4.21c8.11-1.53,20.01-0.78,40.27-23.31   c0,0,6.84,2.03,7.35,7.35c0.51,5.32-35.71,27.86-52.68,36.98L495,394.99h-41.73l1.53-27.56c0,0-12.63,1.53-12.63-5.36   C442.17,355.18,447.82,334.15,455.3,331.89z"/>
	<path class="st4" d="M474.44,506.71l19.68,0.21c0,0,1.49-8.22-2.77-8.22c-4.26,0-6.26,2.36-6.26,2.36s-7.44,1.81-9.97-0.81   C474.24,499.33,473.57,504.06,474.44,506.71z"/>
</g>
<g>
	<path class="st7" d="M99.96,509.24l-6.93,0.72c0,0-7.03-12.72-9.61-14.06s-3.2,2.48-1.24,7.03c1.96,4.55,3.41,13.96,4.96,13.96   c1.55,0,14.37-2.07,14.37-2.07L99.96,509.24z"/>
	<path class="st4" d="M88.43,502.22c0,0-2.9-4.69-3.03-1.92c-0.12,2.77,4.87,16.24,4.87,16.24l-3.13,0.36c0,0-1.01,0.45-1.74-2.68   c-0.73-3.13-2.43-9.34-2.97-10.65c-0.53-1.31-3.84-6.86-0.6-7.93C85.08,494.56,88.43,502.22,88.43,502.22z"/>
	<polygon class="st9" points="203.54,429.92 196.38,415.85 190.77,424.08 194.23,435.47  "/>
	<path class="st7" d="M199.78,410.38c0,0,0,12.09-8.15,16.75c-8.15,4.66-14.33-12.69-12.69-19.71   C180.58,400.39,199.07,395.2,199.78,410.38z"/>
	<path class="st7" d="M179.11,414.23c0,0,0.79,5.71,0,6.76s4.26,0,4.26,0L179.11,414.23z"/>
	<path class="st4" d="M179.91,410.72c0,0,8.46,4.19,12.4,3.52c0,0,1.75-1.69,2.99,1.08c1.24,2.77-1.82,1.68-1.82,1.68   s1.91,3.3,4.31,2.82s4.88-5.51,4.88-9.09c0-3.57-1.61-14.95-11.89-13.86c-10.28,1.09-16.26,5.83-14.51,10.43   C178.01,411.88,179.91,410.72,179.91,410.72z"/>
	<path class="st4" d="M197.77,402.04c0,0,0.34-6.16,5.52-5.84c5.18,0.33,7.74,5.85,7.78,11.13c0.04,5.28-5.49,11.63-0.69,13.64   C215.19,422.97,198.9,423.77,197.77,402.04z"/>
	<g>
		<path class="st3" d="M199.25,398.49c0.42,0.36,0.77,0.82,1.08,1.27c0.64,0.92,1.05,2.01,1.09,3.14c0.02,0.48-0.44,0.94-0.92,0.92    c-0.51-0.02-0.9-0.4-0.92-0.92c0-0.13-0.02-0.26-0.03-0.39c0.03,0.3,0,0.04-0.01-0.03c-0.01-0.05-0.02-0.11-0.03-0.16    c-0.06-0.24-0.14-0.47-0.22-0.7c-0.07-0.17,0.08,0.18,0.01,0.03c-0.03-0.06-0.06-0.12-0.09-0.18c-0.05-0.1-0.1-0.2-0.16-0.3    c-0.1-0.18-0.21-0.35-0.33-0.52c-0.05-0.07-0.11-0.14-0.16-0.22c0.2,0.27,0.01,0.02-0.04-0.05c-0.09-0.11-0.19-0.22-0.29-0.33    c-0.09-0.09-0.18-0.19-0.28-0.27c-0.36-0.32-0.35-0.98,0-1.3C198.33,398.14,198.86,398.15,199.25,398.49L199.25,398.49z"/>
	</g>
	<path class="st10" d="M198.88,495.1c0,0-44.2-15.65-52.46-10.72c-8.25,4.93-30.07,20.15-35.8,21.31c-5.73,1.16-8.16,6.52-8.16,6.52   l72.25-6.74L198.88,495.1z"/>
	<path class="st7" d="M93.57,510.65l-6.93,0.72c0,0-7.03-12.72-9.61-14.06c-2.58-1.34-3.2,2.48-1.24,7.03   c1.96,4.55,3.41,13.96,4.96,13.96c1.55,0,14.37-2.07,14.37-2.07L93.57,510.65z"/>
	<path class="st4" d="M215.35,489.81c0,0,9.79,21.27-5.58,27.7c-15.37,6.43-57.9-8.76-66.12-6.25c-8.22,2.5-21.44,6.97-28.77,6.79   s-22.7-0.89-22.7-0.89v-7.68c0,0,56.83-11.79,62.19-11.97s33.9-4.92,33.9-4.92L215.35,489.81z"/>
	<path class="st5" d="M204.19,427.75c0,0,15.32,62.78,9.94,64.83s-25.85,0-25.85,0s3.58-24.06,3.07-28.16   c-0.51-4.1-7.98-0.91-7.98-10.92c0-5.13,6.44-19.28,9.77-20.3C196.47,432.17,204.19,427.75,204.19,427.75z"/>
	<path class="st7" d="M200.54,455.58c0,0-9.03,30.29-13.69,31.46c-4.66,1.17-45.58,10.63-46.46,9.61c-0.87-1.02,7.28-7.56,8.88-6.84   c1.6,0.72,9.03-0.59,9.03-0.59l22.9-10.78l12.35-29.13L200.54,455.58z"/>
	<polygon class="st11" points="169.67,491.01 169.67,494.83 130.58,501.71 130.58,497.38  "/>
	<path class="st11" d="M129.01,469.39"/>
	<polygon class="st11" points="130.58,501.71 108.28,469.39 111.34,467.06 134.12,499.18  "/>
	<path class="st5" d="M199.89,463.28l-12.12-6.95c0,0,2.94-15.9,7.39-15.9c4.45,0,10.02-2.49,9.36,8.89   C203.86,460.7,199.89,463.28,199.89,463.28z"/>
	<path class="st4" d="M82.03,503.63c0,0-2.9-4.69-3.03-1.92s4.87,16.24,4.87,16.24l-3.13,0.36c0,0-1.01,0.45-1.74-2.68   c-0.73-3.13-2.43-9.34-2.97-10.65c-0.53-1.31-3.84-6.86-0.6-7.93C78.68,495.97,82.03,503.63,82.03,503.63z"/>
</g>
<g>
	<rect x="646.09" y="553.86" class="st7" width="7.25" height="9.56"/>
	<path class="st4" d="M645.39,560.8c0,0-0.68,5.31,0.7,5.75s15.4,6.01,16.79,4c1.39-2,1.13-7.55-3.13-7.13   c-4.27,0.42-5.66-2.24-5.66-2.24S650.35,563.33,645.39,560.8z"/>
	<polygon class="st7" points="629.57,357.05 628.31,374.4 636.88,383.04 639.67,381.13 638.65,361.08  "/>
	<path class="st4" d="M628.53,340.56c0,0-1.78,0-2.77,1.07c-0.99,1.07-3.54,3.93-1.25,12.71c1.85,7.11,5.06,6.85,5.06,6.85   l1.12-3.62L628.53,340.56z"/>
	<path class="st12" d="M644.85,344.02c0,0,1,16.13-1.56,20.89s-9.32,2.92-11.88-3.11s-2.38-6.95-2.38-6.95s-2.74,0.18-2.74-1.83   s-0.73-7.31,2.74-5.48c1.97,1.04,1.02-7.31,6.63-6.4S644.85,344.02,644.85,344.02z"/>
	<path class="st4" d="M644.94,345.94c0,0-9.64,3.71-15.91,1.6c-6.27-2.11-1.85-7.31,2.97-8.7   C640.85,336.29,651.38,339.67,644.94,345.94z"/>
	<path class="st13" d="M627.05,371.97c0,0-9.38,3.45-10.34,5.05c-0.96,1.6,13.93,35.5,13.93,35.5l-8.72,22.44l6.39,5.17l26.6,1.59   l-3.97-44.51l-1.85-20.13l-10.23-5.28L627.05,371.97z"/>
	<path class="st14" d="M661.82,383.04"/>
	<path class="st14" d="M647.05,376.46"/>
	<polygon class="st3" points="634.28,379.7 639.14,379.7 641.06,383.83 638.36,387.73 633.13,383.04  "/>
	<polygon class="st14" points="628.31,371.79 636.21,379.75 632.98,389.04 622.51,373.46  "/>
	<polygon class="st14" points="636.21,379.75 643.5,385.87 641.69,373.23 638.86,371.79  "/>
	<polygon class="st3" points="636.21,385.81 635.68,391.97 637.1,432.1 639,435.68 642.06,431.48 642.41,389.04 639.05,384.19  "/>
	<rect x="618.55" y="553.86" class="st7" width="7.25" height="9.56"/>
	<path class="st15" d="M617.74,437.54l34.57,4.18c0,0,12.89,42.71,12.6,53.33c-0.29,10.62-10,63.43-10,63.43l-11.41-1.15   c0,0,8.5-50.8,6.78-56.54c-1.72-5.74-11.72-37.88-13.18-37.31c-1.46,0.57-9.96,95-9.96,95h-10.47L617.74,437.54z"/>
	<path class="st4" d="M622.51,373.46c0,0,12.72,13.29,12.34,28.67c-0.38,15.38-11.2,56.95-16.9,57.33   c-5.7,0.38-14.43-3.42-14.43-8.92s15.95-27.72,14.43-36.07c-1.52-8.35-5.51-18.03-5.51-18.03s-8.73-15.5-6.64-16.01   S622.51,373.46,622.51,373.46z"/>
	<path class="st4" d="M670.73,364.73"/>
	<path class="st4" d="M609.99,378.83c0,0-6.6,1.07-6.46,2.59c0.13,1.53-8.89,28.88-6.61,35.04c2.29,6.16,19.2,33.25,19.2,33.25   l5.34-3.81c0,0-12.84-27.84-12.46-33.18s6.35-16.16,6.35-16.16L609.99,378.83z"/>
	<path class="st4" d="M641.69,373.23c0,0,10.07,73.92,13.98,82.45s3.98,5.76,6.14,3.8c2.16-1.96-4.99-15.78-6.37-27.76   s-0.92-25.34,1.15-23.04c2.07,2.3,2.76,15.21,8.76,15.21c5.99,0,17.51-7.41,17.51-7.41v-9.18l-12.13,3.92l-10.22-25.34   c0,0-2.84-6.27-5.6-7.04C652.15,378.06,641.69,373.23,641.69,373.23z"/>
	<path class="st11" d="M675.88,390.76c0,0-9.33,36.25-6.64,36.96c2.69,0.72,22.79,0,22.79,0s2.15-0.18,2.87-4.31   c0.72-4.13,7.36-35.68,7.36-35.68s0.9-2.08-4.67-1.86c-5.56,0.22-19.56,0-19.56,0S677.17,385.6,675.88,390.76z"/>
	<path class="st7" d="M695.74,419.11c0,0,4.02-6.13,4.02-9.17c0-3.04-2.03-5.49-2.85-4.47c-0.81,1.02-1.74,4.07-1.17,5.7   S695.74,419.11,695.74,419.11z"/>
	<path class="st4" d="M617.84,560.8c0,0-0.68,5.31,0.7,5.75c1.39,0.44,15.4,6.01,16.79,4c1.39-2,1.13-7.55-3.13-7.13   c-4.27,0.42-5.66-2.24-5.66-2.24S622.8,563.33,617.84,560.8z"/>
</g>
</svg>