<svg xmlns="http://www.w3.org/2000/svg" xmlns:xlink="http://www.w3.org/1999/xlink" version="1.1" id="Layer_1" x="0px" y="0px" viewBox="0 0 595.3 582.4" style="enable-background:new 0 0 595.3 582.4;" xml:space="preserve">
<style type="text/css">
	.st0{fill:#CDEAFB;}
	.st1{fill:#2A94F4;}
	.st2{fill:#004970;}
	.st3{fill:#5FC1CF;}
	.st4{fill:#ECECEC;}
	.st5{fill:#D9D9D9;}
	.st6{fill:#F5F5F5;}
	.st7{fill:#FABB58;}
	.st8{fill:#F6B7A0;}
	.st9{fill:#01384F;}
	.st10{fill:#C6C6C5;}
	.st11{fill:#FFFFFF;}
	.st12{fill:none;stroke:#B5AFC7;stroke-width:0.7159;stroke-miterlimit:10;}
	.st13{fill:#EAAF9C;}
	.st14{fill:#FACBB6;}
	.st15{fill:#01384F;stroke:#09090B;stroke-width:0.7695;stroke-miterlimit:10;}
	.st16{fill:#FACBB6;stroke:#09090B;stroke-width:0.7695;stroke-miterlimit:10;}
	.st17{fill:#EEC2B0;}
	.st18{fill:#EEC0AE;}
	.st19{fill:none;stroke:#492A13;stroke-width:0.7942;stroke-linecap:round;stroke-linejoin:round;stroke-miterlimit:10;}
</style>
<g>
	<g>
		<path class="st0" d="M185.1,466.7c4.7-1.6,9.9-3.4,14.5-1.9l0.1-0.3c-5.6-1.9-9-7.8-10.1-13.6c-1.1-5.8-0.3-11.8-0.5-17.8    s-1.4-12.2-5.6-16.4c-7.8-7.8-22-5.2-29.9-12.8c-3.5-3.4-5.1-8.3-6.7-13c-2.1-6-4.5-11.8-7.5-17.4c-3.2-6-7.7-12-14.2-13.7    c-4.6-1.2-9.6,0-13.9,2.1c-6.8,3.4-12.6,9.3-14.7,16.6c-1.7,6.1-0.8,12.9,2.1,18.6c2.8,5.7,7.4,10.5,12.7,14.1    c9.1,6.3,20.7,9.6,27.3,18.6c4.1,5.6,5.5,12.6,7.5,19.2c1.9,6.6,4.7,13.5,10.4,17.4c4.1,2.8,9.2,3.8,14.2,3.6    C175.6,469.7,180.4,468.3,185.1,466.7z"/>
		<path class="st1" d="M118.2,392.7c-4.3-1.2-8.6-2.3-12.9-3.5c-0.7-0.2-0.5-1.3,0.2-1.1c3.9,1.1,7.8,2.1,11.7,3.2    c-5.1-6.9-9.4-14.3-12.3-22.4c-0.2-0.7,0.8-1.1,1.1-0.4c2.8,8,7.1,15.2,12.1,22c0.4-3.8,0.9-7.6,1.3-11.4c0.1-0.7,1.2-0.6,1.1,0.2    c-0.5,4.2-1,8.4-1.4,12.6c1.1,1.5,2.2,2.9,3.4,4.4c4,5,8.3,9.8,12.7,14.6c0-3.8,0.1-7.6,0.1-11.4c0-0.7,1.1-0.9,1.1-0.1    c0,4.2-0.1,8.5-0.1,12.7c2.6,2.7,5.1,5.5,7.8,8.1c4.6,4.7,9.3,9.2,14.1,13.6c-0.8-5.3-1.5-10.7-2.3-16c-0.1-0.7,1-0.9,1.1-0.1    c0.8,5.6,1.6,11.2,2.4,16.9c0,0.1,0,0.2-0.1,0.3c6.8,6.2,13.8,12.2,21,17.9l-3.2-15.2c-0.1-0.7,1-0.8,1.1-0.1    c1.1,5.5,2.3,11,3.4,16.4c4,3.1,8,6.2,12.2,9.2c0.6,0.4-0.1,1.3-0.7,0.9c-3.9-2.8-7.7-5.7-11.5-8.7c-0.1,0.1-0.2,0.1-0.4,0.1    c-6.3-0.3-12.5-0.6-18.8-0.9c-0.7,0-0.6-1.2,0.2-1.1c5.9,0.3,11.8,0.6,17.7,0.8c-7.5-6-14.8-12.2-21.9-18.7    c-0.1,0.1-0.3,0.2-0.5,0.2c-4.8-0.6-9.5-1.1-14.3-1.7c-0.7-0.1-0.6-1.2,0.2-1.1c4.5,0.5,9,1.1,13.5,1.6c-4.8-4.4-9.5-9-14.1-13.7    c-2.5-2.5-4.9-5.1-7.3-7.6c0,0-0.1,0-0.1,0c-0.1,0.2-0.4,0.4-0.7,0.3c-3.9-1.3-7.9-2.6-11.8-3.8c-0.7-0.2-0.2-1.3,0.4-1l11.3,3.7    c-4.9-5.2-9.6-10.6-14-16.2C119.9,395,119.1,393.9,118.2,392.7z"/>
	</g>
	<g>
		<path class="st1" d="M150.6,352.2c-6.5,17.9-4.9,38.4,3.5,55.6c8.1,16.6,22.2,30,38.8,38.2l0.6-1.2c3.5-8.3,4.9-17.5,5.3-26.5    c0.6-15.4-1.9-31-8.5-45c-6.6-13.9-17.5-26-31.3-32.9L158,340C154.4,343.2,152.2,347.7,150.6,352.2z"/>
		<path class="st0" d="M153.8,394c-0.6-0.4-0.1-1.4,0.5-1c7.4,4.6,14.9,9.2,22.3,13.8c-3-8.1-5.8-16.3-8.4-24.6c0,0-0.1,0-0.1,0    c-5.2-3.7-10.3-7.4-15.5-11.1c-0.6-0.4,0.2-1.3,0.8-0.8c4.8,3.4,9.5,6.8,14.3,10.2c-3.9-12.5-7.4-25.1-10.4-37.8    c-0.2-0.7,0.9-1.1,1.1-0.3c3,12.6,6.4,25.1,10.3,37.4c2.6-6.2,5.1-12.3,7.7-18.5c0.3-0.7,1.3-0.2,1,0.5c-2.7,6.5-5.4,13-8.1,19.5    c0,0,0,0.1-0.1,0.1c2.8,8.8,5.7,17.5,8.9,26.2c3.8-6.8,7.6-13.7,11.4-20.5c0.4-0.6,1.4-0.1,1,0.5c-3.9,7-7.7,13.9-11.6,20.9    c-0.1,0.2-0.2,0.3-0.4,0.3c2.6,6.9,5.3,13.7,8.1,20.5c2.8-5,5.6-10,8.4-15c0.4-0.6,1.4-0.1,1,0.5c-2.9,5.3-5.9,10.5-8.8,15.8    c1.8,4.3,3.7,8.7,5.6,13c0.3,0.7-0.8,1-1.1,0.3c-1.8-4-3.6-8.1-5.3-12.2c-0.1,0.1-0.3,0.1-0.5,0l-22.4-13.1    c-0.6-0.4-0.1-1.4,0.5-1c7.3,4.3,14.6,8.5,21.9,12.8c-3-7.2-5.9-14.5-8.6-21.8C169.4,403.6,161.6,398.8,153.8,394z"/>
	</g>
	<g>
		<path class="st1" d="M132.6,412c3.4,9.6,4,20.2,1.7,30.2c-0.3-0.2-0.6-0.4-1-0.6c-4.7-4.6-9-10-11.5-16.1    c-2.1-5.1-3.2-10.6-2.3-16c0.5-2.7,2-5.8,4.8-6.1c1.4-0.1,2.8,0.5,3.9,1.5C130.4,406.7,131.6,409.4,132.6,412z"/>
		<path class="st1" d="M162.9,454.2L162.9,454.2c-11.6-4.8-19.3-14.8-23-26.9c-0.4-1.4-0.8-2.9-0.6-4.3c0.2-1.4,1-2.9,2.4-3.4    c0.9-0.4,1.9-0.3,2.8-0.1c3,0.7,5.5,2.8,7.5,5.2C159.2,432.9,160.7,443.6,162.9,454.2z"/>
		<path class="st1" d="M163.2,454.7c-5.1,9.1-12.1,17.6-21.6,21.9c-1.9,0.9-4,1.5-6.1,1.4c-2.1-0.1-4.2-1.2-5.2-3.1    c-1.1-2.4-0.1-5.2,1.4-7.4c3.3-4.8,8.7-7.6,14.2-9.6c4.9-1.7,11.3-2.8,16.6-3.4C162.7,454.6,163,454.7,163.2,454.7z"/>
		<path class="st1" d="M115.1,428.2l-0.3,0.4c-11.4-4.8-22.1-12.9-26.3-24.5c-1-2.7-1.3-6.4,1.1-8c1.3-0.9,3.1-0.9,4.6-0.3    c1.5,0.6,2.7,1.7,3.9,2.8c8.3,8.3,13.4,19.3,17.7,30.2C115.5,428.6,115.3,428.4,115.1,428.2z"/>
		<path class="st1" d="M133.8,442c0,0,0.1,0.1,0.1,0.1c-4.4,3.7-8.1,8.1-12.5,11.8c-4.4,3.7-9.6,6.9-15.4,7.2    c-1.9,0.1-4.2-0.4-4.8-2.2c-0.3-1.1,0.1-2.3,0.7-3.2c2.2-3.9,5.7-6.9,9.6-9.1c3.9-2.1,8.3-3.3,12.7-4.2    C126.9,442,131,441.6,133.8,442z"/>
		<path class="st1" d="M180.8,464.5c2.8-1.7,7.1-3.6,10.2-4.8c-1.3,5.4-3,10.6-5,15.8c-1.1,2.9-2.3,5.7-4.1,8.2    c-1.3,1.9-3,3.6-5.1,4.5c-2.1,0.9-4.7,0.8-6.5-0.6c-1.5-1.2-2.3-3.2-2.4-5.1c-0.4-3.9,1.3-7.8,3.9-10.8S177.4,466.6,180.8,464.5z"/>
		<path class="st1" d="M167.9,421.2c2.5-0.9,5.3,0.7,7.3,2.5c4.7,4.3,8,10.1,10.1,16.1c2.1,6,4,13.5,5.1,19.8c-0.1,0-0.2,0-0.4,0    c-11.8-5.1-21.2-15.6-24.9-28c-0.6-1.9-1-3.9-0.7-5.8C164.9,423.8,166.1,421.9,167.9,421.2z"/>
		<path class="st1" d="M113.7,427.4c21.5,19.5,49.3,31.2,78.3,32.8c0.7,0,0.8-1.1,0.1-1.1c-28.7-1.6-56.3-13.1-77.5-32.4    C114,426.2,113.1,426.9,113.7,427.4z"/>
	</g>
</g>
<g>
	<g>
		<path class="st0" d="M497.3,474.5c-15,13.4-35.8,19.8-55.9,18.3c-19.5-1.4-38.2-10.1-52.7-23.2l0.9-1c6.8-6.7,15.2-11.7,24-15.5    c14.9-6.6,31.2-10.3,47.5-9.2c16.2,1,32.4,7,44.5,17.8l0.8,0.7C504.6,467.2,501.1,471.1,497.3,474.5z"/>
		<path class="st2" d="M455,487.7c0.6,0.5,1.4-0.4,0.8-0.9c-7.4-5.5-14.8-11-22.2-16.5c9.2-0.2,18.3-0.7,27.4-1.4c0,0,0,0,0.1,0.1    c5.6,3.6,11.3,7.3,16.9,10.9c0.6,0.4,1.2-0.7,0.5-1.1c-5.2-3.4-10.4-6.7-15.6-10.1c13.8-1,27.5-2.6,41.2-4.6    c0.8-0.1,0.7-1.3-0.1-1.2c-13.5,2-27.1,3.5-40.7,4.5c5-4.9,10.1-9.8,15.1-14.7c0.6-0.5-0.4-1.3-0.9-0.8    c-5.3,5.2-10.6,10.4-16,15.6c0,0,0,0.1-0.1,0.1c-9.7,0.7-19.4,1.2-29.2,1.5c5.2-6.4,10.5-12.8,15.7-19.2c0.5-0.6-0.4-1.4-0.9-0.8    c-5.3,6.5-10.7,13-16,19.5c-0.1,0.2-0.2,0.3-0.1,0.5c-7.8,0.2-15.5,0.2-23.3,0.1c3.8-4.7,7.6-9.4,11.4-14.1    c0.5-0.6-0.4-1.4-0.9-0.8c-4,4.9-8,9.9-12,14.8c-5-0.1-10-0.2-15-0.4c-0.8,0-0.7,1.2,0.1,1.2c4.7,0.2,9.4,0.4,14,0.5    c0,0.2,0,0.4,0.2,0.5l21.6,16.9c0.6,0.5,1.4-0.4,0.8-0.9c-7-5.5-14.1-11-21.1-16.5c8.3,0.1,16.5,0.1,24.8-0.1    C439.5,476.1,447.3,481.9,455,487.7z"/>
	</g>
	<g>
		<path class="st1" d="M403,465.9c-5-1.5-10.6-3.2-15.4-1.4l-0.1-0.3c5.9-2.2,9.2-8.6,10.1-14.8c0.9-6.2-0.1-12.5-0.2-18.8    c-0.1-6.3,1-13,5.2-17.6c7.9-8.5,23-6.4,31-14.8c3.6-3.8,5.1-9,6.6-14c2-6.4,4.3-12.7,7.2-18.7c3.1-6.4,7.6-13,14.5-15    c4.9-1.5,10.2-0.4,14.8,1.7c7.4,3.3,13.7,9.3,16.2,16.9c2.1,6.4,1.3,13.6-1.4,19.7c-2.8,6.2-7.4,11.4-12.8,15.4    c-9.4,7-21.5,11-28,20.8c-4,6.1-5.3,13.5-7.1,20.6c-1.8,7.1-4.4,14.4-10.2,18.8c-4.2,3.2-9.6,4.4-14.9,4.3    C413.2,468.8,408.1,467.5,403,465.9z"/>
		<path class="st0" d="M470.6,385.1c4.5-1.4,9-2.8,13.5-4.2c0.7-0.2,0.5-1.4-0.2-1.2c-4.1,1.3-8.2,2.5-12.2,3.8    c5.1-7.5,9.4-15.5,12.1-24.2c0.2-0.7-0.9-1.1-1.1-0.4c-2.6,8.5-6.9,16.4-11.8,23.7c-0.6-4-1.2-8-1.9-12c-0.1-0.8-1.3-0.5-1.2,0.2    c0.7,4.4,1.4,8.8,2.1,13.2c-1.1,1.6-2.2,3.2-3.4,4.8c-4.1,5.5-8.3,10.7-12.8,15.9c-0.2-4-0.4-8-0.6-12c0-0.8-1.2-0.9-1.2-0.1    c0.2,4.5,0.4,9,0.7,13.4c-2.6,3-5.2,6-7.8,8.9c-4.6,5.1-9.4,10.1-14.3,15c0.6-5.7,1.2-11.3,1.8-17c0.1-0.8-1.1-0.9-1.2-0.1    c-0.6,6-1.2,11.9-1.9,17.9c0,0.1,0,0.3,0.1,0.4c-6.9,6.8-14,13.4-21.4,19.8l2.7-16.2c0.1-0.8-1.1-0.8-1.2-0.1    c-1,5.8-2,11.7-2.9,17.5c-4.1,3.5-8.2,6.9-12.4,10.2c-0.6,0.5,0.2,1.4,0.8,0.9c4-3.1,7.9-6.4,11.8-9.6c0.1,0.1,0.2,0.1,0.4,0.1    c6.6-0.6,13.2-1.2,19.8-1.7c0.8-0.1,0.5-1.2-0.2-1.2c-6.2,0.5-12.4,1.1-18.6,1.6c7.7-6.6,15.2-13.5,22.4-20.6    c0.1,0.1,0.3,0.2,0.5,0.2c5-0.8,10-1.6,15-2.4c0.8-0.1,0.5-1.3-0.2-1.2c-4.7,0.8-9.5,1.5-14.2,2.3c4.9-4.9,9.7-9.9,14.3-15    c2.5-2.8,5-5.5,7.4-8.4c0,0,0.1,0,0.1,0c0.1,0.2,0.4,0.4,0.7,0.3c4.1-1.5,8.2-3,12.3-4.5c0.7-0.3,0.2-1.3-0.5-1.1l-11.8,4.3    c4.9-5.7,9.7-11.6,14.1-17.7C468.9,387.5,469.8,386.3,470.6,385.1z"/>
	</g>
	<g>
		<path class="st0" d="M436.1,390.5c-9.5,5.2-20.4,7.6-31.2,6.9c0.1-0.4,0.3-0.7,0.4-1.1c4-5.7,9-11.1,14.9-14.7    c4.9-3,10.6-5.2,16.4-5.1c2.9,0,6.4,1.1,7.1,4c0.4,1.5-0.1,3-0.9,4.3C441.3,387.4,438.7,389.1,436.1,390.5z"/>
		<path class="st0" d="M397.1,429.2l-0.1,0c3.2-12.9,12.3-22.6,24.3-28.4c1.4-0.7,2.9-1.3,4.4-1.3c1.5-0.1,3.2,0.6,4,1.9    c0.5,0.9,0.6,1.9,0.6,3c-0.2,3.3-2,6.2-4.2,8.7C418.8,421.7,407.8,425.1,397.1,429.2z"/>
		<path class="st3" d="M396.6,429.6c-10.3-3.8-20.4-9.6-26.4-18.9c-1.2-1.9-2.3-3.9-2.5-6.1c-0.2-2.2,0.6-4.6,2.4-5.9    c2.3-1.6,5.5-1,7.9,0.2c5.5,2.7,9.4,7.8,12.4,13.2c2.6,4.8,4.8,11.4,6.3,16.8C396.7,429.1,396.7,429.4,396.6,429.6z"/>
		<path class="st0" d="M416.3,375l-0.4-0.2c3.1-12.7,9.7-25.2,21.1-31.6c2.7-1.5,6.4-2.5,8.6-0.2c1.2,1.2,1.5,3.1,1.1,4.8    c-0.4,1.7-1.3,3.1-2.3,4.5c-7.2,10.1-17.9,17.2-28.5,23.6C415.9,375.5,416.1,375.2,416.3,375z"/>
		<path class="st0" d="M405,396.8c0,0-0.1,0.1-0.1,0.1c-4.6-3.9-9.8-7.1-14.4-11c-4.6-3.9-8.8-8.9-10.1-14.8c-0.4-2-0.3-4.5,1.5-5.4    c1.1-0.5,2.4-0.2,3.5,0.2c4.4,1.6,8.2,4.8,11.1,8.5c2.8,3.8,4.8,8.1,6.5,12.5C403.9,389.6,404.9,393.9,405,396.8z"/>
		<path class="st0" d="M389.3,449.6c2.3,2.6,4.9,6.8,6.7,9.8c-5.8-0.5-11.6-1.4-17.3-2.6c-3.2-0.7-6.4-1.5-9.3-2.9    c-2.2-1.1-4.3-2.5-5.6-4.6c-1.3-2-1.7-4.8-0.5-6.9c1-1.8,2.9-2.9,4.9-3.4c4-1,8.4,0.1,11.9,2.2    C383.7,443.4,386.6,446.4,389.3,449.6z"/>
		<path class="st0" d="M432.4,428.9c1.4,2.5,0.1,5.6-1.4,8c-3.7,5.7-9.2,10-15.1,13.3c-5.9,3.2-13.4,6.4-19.8,8.7c0-0.1,0-0.3,0-0.4    c3.4-13.2,12.8-24.7,25-30.6c1.9-0.9,3.9-1.7,6-1.7C429.1,426.2,431.4,427.1,432.4,428.9z"/>
		<path class="st2" d="M416.9,373.4c-16.8,25.7-24.3,56.7-21.1,87.2c0.1,0.8,1.3,0.7,1.2-0.1c-3.2-30.2,4.2-60.9,20.9-86.3    C418.2,373.5,417.3,372.7,416.9,373.4z"/>
	</g>
</g>
<g>
	<path class="st4" d="M376.4,330.5c1.1,0,2.1,0.9,2.1,2.1c0,0.6-0.2,1.1-0.6,1.5c-0.4,0.4-0.9,0.6-1.5,0.6L205.5,334   c-1.1,0-2.1-0.9-2.1-2.1c0-0.6,0.2-1.1,0.6-1.5c0.4-0.4,0.9-0.6,1.5-0.6L376.4,330.5z"/>
	<path class="st4" d="M376.8,246.3c1.1,0,2.1,0.9,2.1,2.1c0,0.6-0.2,1.1-0.6,1.5c-0.4,0.4-0.9,0.6-1.5,0.6l-170.8-0.6   c-1.1,0-2.1-0.9-2.1-2.1c0-0.6,0.2-1.1,0.6-1.5c0.4-0.4,0.9-0.6,1.5-0.6L376.8,246.3z"/>
	<path class="st4" d="M318.6,436.3c1.1,0,2.1,0.9,2.1,2.1c0,0.6-0.2,1.1-0.6,1.5c-0.4,0.4-0.9,0.6-1.5,0.6l-113-0.4   c-1.1,0-2.1-0.9-2.1-2.1c0-0.6,0.2-1.1,0.6-1.5c0.4-0.4,0.9-0.6,1.5-0.6L318.6,436.3z"/>
	<path class="st4" d="M376.6,267.7c1.1,0,2.1,0.9,2.1,2.1c0,0.6-0.2,1.1-0.6,1.5c-0.4,0.4-0.9,0.6-1.5,0.6l-170.8-0.6   c-1.1,0-2.1-0.9-2.1-2.1c0-0.6,0.2-1.1,0.6-1.5c0.4-0.4,0.9-0.6,1.5-0.6L376.6,267.7z"/>
	<path class="st4" d="M376.2,310.7c1.1,0,2.1,0.9,2.1,2.1c0,0.6-0.2,1.1-0.6,1.5c-0.4,0.4-0.9,0.6-1.5,0.6l-170.8-0.6   c-1.1,0-2.1-0.9-2.1-2.1c0-0.6,0.2-1.1,0.6-1.5c0.4-0.4,0.9-0.6,1.5-0.6L376.2,310.7z"/>
	<path class="st4" d="M330.3,414.9c1.1,0,2.1,0.9,2.1,2.1c0,0.6-0.2,1.1-0.6,1.5c-0.4,0.4-0.9,0.6-1.5,0.6l-124.7-0.5   c-1.1,0-2.1-0.9-2.1-2.1c0-0.6,0.2-1.1,0.6-1.5c0.4-0.4,0.9-0.6,1.5-0.6L330.3,414.9z"/>
	<path class="st4" d="M330.2,395c1.1,0,2.1,0.9,2.1,2.1c0,0.6-0.2,1.1-0.6,1.5c-0.4,0.4-0.9,0.6-1.5,0.6l-124.7-0.5   c-1.1,0-2.1-0.9-2.1-2.1c0-0.6,0.2-1.1,0.6-1.5c0.4-0.4,0.9-0.6,1.5-0.6L330.2,395z"/>
	<path class="st4" d="M318.3,351.7c1.1,0,2.1,0.9,2.1,2.1c0,0.6-0.2,1.1-0.6,1.5c-0.4,0.4-0.9,0.6-1.5,0.6l-113-0.4   c-1.1,0-2.1-0.9-2.1-2.1c0-0.6,0.2-1.1,0.6-1.5c0.4-0.4,0.9-0.6,1.5-0.6L318.3,351.7z"/>
	<path class="st5" d="M400.9,176.3l-1.1,306.7c0,6.9-5.6,12.5-12.6,12.5l-192.8-0.7c-6.9,0-12.5-5.6-12.5-12.6l1.1-306.7   c0-6.9,5.6-12.5,12.6-12.5l29.2,0.1c-1.8,3.6-2.5,7.6-2.7,10.7l-30.8-0.1l-1.1,305.3l200.3,0.7l1.1-305.3l-30.3-0.1   c-0.2-3.2-0.9-7.1-2.6-10.7l29.8,0.1C395.3,163.8,400.9,169.4,400.9,176.3z"/>
	<rect x="213.2" y="163.7" class="st5" width="159.5" height="10.7"/>
	<path class="st4" d="M376.9,205c1.1,0,2.1,0.9,2.1,2.1c0,0.6-0.2,1.1-0.6,1.5c-0.4,0.4-0.9,0.6-1.5,0.6L206,208.5   c-1.1,0-2.1-0.9-2.1-2.1c0-0.6,0.2-1.1,0.6-1.5c0.4-0.4,0.9-0.6,1.5-0.6L376.9,205z"/>
	<path class="st4" d="M376.4,289.2c1.1,0,2.1,0.9,2.1,2.1c0,0.6-0.2,1.1-0.6,1.5c-0.4,0.4-0.9,0.6-1.5,0.6l-170.8-0.6   c-1.1,0-2.1-0.9-2.1-2.1c0-0.6,0.2-1.1,0.6-1.5c0.4-0.4,0.9-0.6,1.5-0.6L376.4,289.2z"/>
	<path class="st4" d="M376.6,226.5c1.1,0,2.1,0.9,2.1,2.1c0,0.6-0.2,1.1-0.6,1.5c-0.4,0.4-0.9,0.6-1.5,0.6L205.8,230   c-1.1,0-2.1-0.9-2.1-2.1c0-0.6,0.2-1.1,0.6-1.5c0.4-0.4,0.9-0.6,1.5-0.6L376.6,226.5z"/>
</g>
<g>
	<path class="st6" d="M109.5,206.7c0,11.2,6.3,21,15.6,26.5c5.7,6.2,20.8,14.1,23.6,15.5c-4.6-2.7-6.5-11-6.5-11   c18.1,0,32.7-13.9,32.7-31.1s-14.6-31.1-32.7-31.1C124.2,175.7,109.5,189.6,109.5,206.7z"/>
	<path class="st7" d="M196.6,157.3l24.3,21.4l-9.9-21.4h14.1c11.4,0,20.6-9.2,20.6-20.6v-29c0-1.7-1.4-3.1-3.1-3.1h-61   c-11.7,0-21.1,9.4-21.1,21.1v27.8c0,1.7,1.4,3.1,3.1,3.1L196.6,157.3z"/>
</g>
<g>
	<path class="st7" d="M429.3,129.6c0.6,8.2-2.7,15.6-8.4,20.9c-4.5,4.2-10.6,7.1-17.2,7.8h0l-21.4,8.1c-0.1,0-0.1,0-0.1-0.1l7.8-7.8   c0,0,0-0.1,0-0.1l-17.3,0c-15.2,0-28.3-10.8-29.4-25c-0.6-8.2,2.7-15.6,8.4-20.9c5.2-4.9,12.4-7.9,20.3-7.9l28,0   C415.1,104.6,428.2,115.4,429.3,129.6z"/>
	<path class="st6" d="M484.9,200.2v10.6c0,7.3-5.9,13.3-13.3,13.3h-42.4L413,236.7l5.3-12.6h-0.5c-5.1,0-9.2-4.1-9.2-9.2v-14   c0-7.2,5.9-13.1,13.1-13.1h50.8C479.3,187.7,484.9,193.3,484.9,200.2z"/>
</g>
<g>
	<g>
		<g>
			<g>
				<g>
					<polygon class="st8" points="307.6,500.4 310.2,459 328.2,465 322.3,507.3 306.9,501.9      "/>
					<g>
						<path class="st9" d="M325.8,499.5c0,0-14,3.5-18.9-6.3l-34.5,11.9l55.4,8.4L325.8,499.5z"/>
						<polygon class="st10" points="271.8,510 327.2,518.4 327.9,513.6 272.5,505.2       "/>
						<path class="st11" d="M306.2,500.7c-0.1-0.1-0.2-0.2-0.3-0.3c-1.7-3.1-3.5-4.8-3.5-4.8c-0.4-0.3-0.4-0.9-0.1-1.3        c0.3-0.4,0.9-0.4,1.3,0c0.1,0.1,2.1,1.9,3.9,5.3c0.2,0.4,0.1,1-0.4,1.2C306.8,500.9,306.5,500.9,306.2,500.7z"/>
						<path class="st11" d="M301.5,502.3c-0.1-0.1-0.2-0.2-0.3-0.3c-1.7-3.1-3.5-4.8-3.5-4.8c-0.4-0.3-0.4-0.9-0.1-1.3        c0.3-0.4,0.9-0.4,1.3,0c0.1,0.1,2.1,1.9,3.9,5.3c0.2,0.4,0.1,1-0.4,1.2C302.1,502.5,301.8,502.4,301.5,502.3z"/>
						<path class="st11" d="M296.8,503.8c-0.1-0.1-0.2-0.2-0.3-0.3c-1.7-3.1-3.5-4.8-3.5-4.8c-0.4-0.3-0.4-0.9-0.1-1.3        c0.3-0.4,0.9-0.4,1.3,0c0.1,0.1,2.1,1.9,3.9,5.3c0.2,0.4,0.1,1-0.4,1.2C297.4,504,297.1,504,296.8,503.8z"/>
					</g>
				</g>
				<path class="st7" d="M349.1,306.1l-0.9,2.7c-9.2,15.1-17.7,34-23.5,50.8l-15.5,44.4c-1.6,4.6-2.6,9.4-3.1,14.2l-5.7,65.4      l30.7,2.2l7.8-66l36.2-70.3l-1.9-41.1L349.1,306.1z"/>
			</g>
			<g>
				<g>
					<polygon class="st8" points="411.9,489.1 389.7,454.4 407.5,448 427.6,485.4 412.2,490.7      "/>
					<g>
						<path class="st9" d="M425.8,477c0,0-9.1,11.5-18.7,6.8l-20.5,31l49.1-27.8L425.8,477z"/>
						<polygon class="st10" points="389,519 438,491.1 435.7,486.9 386.7,514.7       "/>
						<path class="st11" d="M410.9,490.2c-0.2,0-0.3,0-0.5-0.1c-3.1-1.5-5.6-1.6-5.7-1.6c-0.5,0-0.8-0.5-0.8-1        c0.1-0.5,0.5-0.9,1-0.8c0.1,0,2.8,0.2,6.3,1.8c0.4,0.2,0.6,0.7,0.4,1.2C411.5,490,411.2,490.2,410.9,490.2z"/>
						<path class="st11" d="M408.1,494.3c-0.2,0-0.3,0-0.5-0.1c-3.1-1.5-5.6-1.6-5.7-1.6c-0.5,0-0.8-0.5-0.8-1        c0.1-0.5,0.5-0.9,1-0.8c0.1,0,2.8,0.2,6.3,1.8c0.4,0.2,0.6,0.7,0.4,1.2C408.7,494.1,408.4,494.3,408.1,494.3z"/>
						<path class="st11" d="M405.3,498.5c-0.2,0-0.3,0-0.5-0.1c-3.1-1.5-5.6-1.6-5.7-1.6c-0.5,0-0.8-0.5-0.8-1        c0.1-0.5,0.5-0.9,1-0.8c0.1,0,2.8,0.2,6.3,1.8c0.4,0.2,0.6,0.7,0.4,1.2C405.9,498.3,405.6,498.5,405.3,498.5z"/>
					</g>
				</g>
				<g>
					<path class="st7" d="M358.2,345.1l6.8,66.2c0.3,3.1,1.2,6.2,2.5,9l27.5,61.2l27.5-15.6l-23.7-55.3l1.1-47.8       c0,0,2.7-43.7-11.3-60.3l-26.5,4.3L358.2,345.1z"/>
					<path class="st12" d="M350,340.1"/>
					<path class="st12" d="M361.4,376.1"/>
				</g>
			</g>
		</g>
		<g>
			<g>
				<g>
					<g>
						<polygon class="st8" points="296.3,266.1 309.3,278.6 304.1,287.2 290.3,272.3       "/>
						<path class="st8" d="M296.3,266.1l-0.1-15.9c0-0.8-0.6-1.5-1.4-1.7l0,0c-0.9-0.2-1.8,0.3-2,1.2l-1.2,4.3L281.4,243        c-0.9-0.9-2.4-0.7-3,0.4l-3.4,6.3c-0.3,0.5-0.3,1.1,0,1.7c1.8,3.7,9.1,18.2,15.3,20.9L296.3,266.1z"/>
					</g>
				</g>
				<g>
					<path class="st0" d="M354.9,239.9c0,0,3.4,7.8-13.1,47.4c0,0-9,16.5-13,17c-6.4,0.8-24.4-8.8-38.1-28.5l10.3-7.7l20.2,11.7       l11.9-30.6C333.2,249.1,340.2,228.7,354.9,239.9z"/>
				</g>
			</g>
			<g>
				<path class="st0" d="M371.7,226.6l27,12c1.9,0.9,3.1,2.9,2.8,4.9l-6.8,70.5c0,0-27.2,8.1-51.6,3.1l-5-72.5      c-0.2-2.1,0.5-4.2,2-5.7l17.3-12.1L371.7,226.6z"/>
			</g>
			<g>
				<g>
					<polygon class="st8" points="370.5,295.5 388.5,295.1 390.9,304.9 370.6,304      "/>
					<path class="st8" d="M370.5,295.5l-11.3-11.2c-0.6-0.6-1.5-0.7-2.1-0.2v0c-0.8,0.5-1,1.5-0.6,2.3l2.2,3.9l-9.8,1.2       c-1.3,0-2.2,1.2-1.8,2.4l2.1,6.9c0.2,0.6,0.6,1,1.2,1.2c3.9,1.3,14,4.6,20.4,2.1L370.5,295.5z"/>
				</g>
				<g>
					<path class="st0" d="M399.8,239.2c0,0,7.8,3.4,21.8,42.3c0,0,5.3,15,2.7,17.8c-4.2,4.7-25.2,11.9-48.5,6.5l-0.3-12.7l25.8-3.9       l-11.5-29.5C389.7,259.6,381.3,240.5,399.8,239.2z"/>
				</g>
			</g>
		</g>
		<g>
			<path class="st8" d="M354.3,200.3c0.1,3.4-2.4,6.3-5.7,6.4c-3.3,0.1-6.1-2.5-6.2-5.9c-0.1-3.4,2.4-6.3,5.7-6.4     C351.4,194.2,354.2,196.9,354.3,200.3z"/>
			<path class="st8" d="M357.1,214.9l-0.4,11.2c-0.2,5.2,2.9,8,7.8,8.1l0,0c4.2,0.1,10.3-2.8,10.2-7.4v-18.7L357.1,214.9z"/>
			<path class="st13" d="M356.8,224.7c0,0,14.6-0.4,18.7-13.8c1.3-4.2-18.4,2.5-18.4,2.5L356.8,224.7z"/>
			<path class="st8" d="M361.4,219.3L361.4,219.3c-8.4-0.2-15.2-7.3-15.2-14.4l0-14.9c-0.1-8.9,6.7-16.3,15.4-16.7l0,0     c8.8-0.4,17.8,6.6,18.2,15.8l-0.1,11.6C379.5,211.2,371.5,218.9,361.4,219.3z"/>
			<path class="st9" d="M350.8,165.7c3.3-1.2,11.6-2.4,13.1,5c8.2-0.2,21.3,0.5,22.2,7.7c1.4,10.5-6.5,20.5-6.5,20.5l-2.1,1     c0,0-5.2-3-3.2-15.4c0,0-19.1,3.7-27.8-1.5C337.8,177.7,340.9,169.4,350.8,165.7z"/>
			<g>
				<path class="st8" d="M387.3,200.7c0.1,3.4-2.4,6.2-5.7,6.4c-3.3,0.1-6-2.5-6.2-5.9c-0.1-3.4,2.4-6.2,5.7-6.4      C384.5,194.7,387.2,197.3,387.3,200.7z"/>
			</g>
			<path class="st8" d="M357.4,226.7l-4.4,3.1c0,0-2.7,7.5,9.9,8.4c12.6,0.9,16.4-8.2,16.4-8.2l-9-4.6L357.4,226.7z"/>
		</g>
	</g>
</g>
<g>
	<path class="st14" d="M237.2,242.3l12.1,42.2c1.1,3.3-1.3,6.7-4.9,7.2l0,0c-2.8,0.4-6.3-1.2-7.4-3.7l-15.6-40.7   c-1.7-4,0.5-8.6,4.9-10.1l0,0C230.8,235.7,235.8,238.1,237.2,242.3z"/>
	<g>
		<path class="st14" d="M249.7,286.2l5.2,43.3l-9.2-0.4l-8.8-41.4c-0.6-3.3,1.8-7.3,5.4-7.8l0,0C246,279.4,249.4,282.8,249.7,286.2z    "/>
		<path class="st14" d="M253.6,326.5c0,0,12.8,14.9-0.2,22.8c-0.9,0.5-2,0.4-2.7-0.3l-0.1-0.1c-0.8-0.8-0.8-1.9-0.1-2.7    c1.8-2,4-5.9-0.6-10.6c0,0-2.1,0.7-1.4,4.7c0.2,1-0.7,2-1.8,1.9l0,0c-0.8,0-1.4-0.5-1.7-1.2c-1-2.6-2.8-9.1,1.5-13L253.6,326.5z"/>
	</g>
</g>
<g>
	<g>
		<g>
			<g>
				<g>
					<path class="st9" d="M153.3,503.6l-9.7,4.8c-1,0.5-1.6,1.7-1.3,2.8c0.3,0.9,1.1,1.7,3.2,1.7c4.8,0.1,25.9-3.2,25.9-3.2v2.2       l9.8-1.1c0,0,0.7-11.2-2.3-12.9L153.3,503.6z"/>
					<path class="st9" d="M168.9,492.3l-15.6,11.2c0,0,1.7,4.3,9,1.4c7.4-2.9,16.6-7.2,16.6-7.2l-1.3-6.7L168.9,492.3z"/>
				</g>
				<polygon class="st14" points="179,497.8 185.4,456.2 169.9,457.7 167.2,496.4     "/>
			</g>
		</g>
		<g>
			<g>
				<g>
					<path class="st9" d="M264,503.6l9.7,4.8c1,0.5,1.6,1.7,1.3,2.8c-0.3,0.9-1.1,1.5-3.2,1.6c-4.8,0.1-25.9-3.1-25.9-3.1v2.2       l-9.8-1.1c0,0-0.7-11.2,2.3-12.9L264,503.6z"/>
					<path class="st9" d="M248.5,492.3l15.6,11.2c0,0-1.7,4.3-9,1.4c-7.4-2.9-16.6-7.2-16.6-7.2l1.3-6.7L248.5,492.3z"/>
				</g>
				<polygon class="st14" points="238.4,497.8 231.9,456.2 247.5,457.7 250.2,496.4     "/>
			</g>
		</g>
		<g>
			<path class="st9" d="M195,290.9c0,0-13.4,4.3-23.2,49.6c-9.9,45.3-13.3,108.6-15.1,142.2h35.7l18.7-140l8.8,139.1l35.9,0.2     c0,0-2.1-175.9-30-191.1H195z"/>
			<path class="st15" d="M211.1,342.7"/>
			<path class="st15" d="M194,467"/>
			<path class="st15" d="M157.6,467"/>
			<path class="st15" d="M255.3,467"/>
			<path class="st15" d="M219.4,467"/>
		</g>
	</g>
	<g>
		<g>
			<path class="st14" d="M181.4,241.4c0,0-4.8,11.4,5.4,27.8l8.8-9.1l-3.6-16.9L181.4,241.4z"/>
			<path class="st7" d="M192.3,238.5l-10.9,2.9c0,0,9.2,10.5,5.4,27.8l8.2,17.2l31,0.1l6.6-20.5c1.8-5.6,3.2-11.6,0.4-16.8l-7.1-13     l-6.8-0.3L192.3,238.5z"/>
			<path class="st14" d="M195,286.3v4.6c0,0,31.3,0.7,30.8,0c-0.5-0.7,0.2-4.5,0.2-4.5L195,286.3z"/>
		</g>
		<g>
			<g>
				<path class="st14" d="M181.4,241.4c0,0-12.2-0.1-20.1,14.9l-22.6,27.9c-3.6,5.9-0.1,13.5,6.7,14.6h0c3.6,0.6,6.2-0.9,7.4-3.8      l31.7-32.4L181.4,241.4z"/>
				<g>
					<path class="st14" d="M184.5,319l-40.8-20.6c-4.5-1.5-7.2-6.2-6.2-10.9h0c1.4-6.2,7.4-9.3,12.9-6.1l38.9,27.5L184.5,319z"/>
					<polygon class="st14" points="186.4,308.2 194.2,306.1 186.5,321.2 179,316.5      "/>
				</g>
			</g>
			<path class="st16" d="M184.2,325.6"/>
		</g>
	</g>
	<g>
		<path class="st9" d="M213.7,184.2c0,0,12.6,0.6,13.8,14.5c0.9,10.4-1.1,15,6.8,23.3c0,0-23,13.6-56.1,3.6c0,0,6.2-10.7,6-20.9    c-0.2-10.2,2.7-14.7,8-18.5C197.6,182.3,208.4,180,213.7,184.2z"/>
		<path class="st17" d="M217.9,209.2c0,3.2,2.5,5.9,5.8,6c3.2,0,5.9-2.5,6-5.8c0-3.2-2.5-5.9-5.8-6C220.7,203.4,218,206,217.9,209.2    z"/>
		<path class="st14" d="M212.9,224.1l-0.1,12.7c0,4-2.5,3.4-6.4,3.4l0,0c-3.3-0.1-7.4,0.9-7.8-2.4l1-19.2L212.9,224.1z"/>
		<polygon class="st18" points="212.8,231.5 200.4,221 212.9,222.9   "/>
		<path class="st14" d="M212.5,226.3L212.5,226.3c7.5-0.4,13.4-7.2,13.3-13.3l-0.3-13.3c-0.1-7.7-6.3-13.9-14-14l0,0    c-7.9-0.1-15.7,6.1-15.8,14l0.4,11.6C196.4,220.3,203.5,226.2,212.5,226.3z"/>
		<path class="st14" d="M211.2,234.7l9.2,1.2c0,0-4,13-29.8,3.1l9.1-2.8L211.2,234.7z"/>
		<path class="st9" d="M215.2,184.4c0,0,6.6,2.8,4.9,7.3c-2.2,5.5-13.7,13.2-25.2,15.3c0,0-6.3-9.9,0-16s11.2-6.8,11.2-6.8    L215.2,184.4z"/>
		<path class="st9" d="M225.5,199.7c0,0-9.8-6.8-9.5-12.8c0,0-2.4-2.3,3.2-0.3C224.9,188.6,227.1,195.9,225.5,199.7z"/>
		<path class="st9" d="M203.1,201.2c0,0.3-3.5,10.6-3.5,10.6l-2.6-9.5L203.1,201.2z"/>
		<g>
			<path class="st14" d="M189.1,210.3c0,3.3,2.6,5.9,5.8,6c3.3,0,5.9-2.6,6-5.8c0-3.3-2.6-5.9-5.8-6     C191.8,204.5,189.2,207.1,189.1,210.3z"/>
			<path class="st19" d="M193,208.5"/>
			<path class="st19" d="M197.1,212.2"/>
		</g>
	</g>
</g>
</svg>