<svg xmlns="http://www.w3.org/2000/svg" xmlns:xlink="http://www.w3.org/1999/xlink" version="1.1" id="Layer_1" x="0px" y="0px" viewBox="0 0 600 600" style="enable-background:new 0 0 600 600;" xml:space="preserve">
<style type="text/css">
	.st0{opacity:0.37;fill:#CCE9FF;enable-background:new    ;}
	.st1{enable-background:new    ;}
	.st2{fill:none;stroke:#A3E2FA;stroke-width:3;stroke-linecap:round;stroke-miterlimit:10;}
	.st3{fill:none;stroke:#A3E2FA;stroke-width:3;stroke-linecap:round;stroke-miterlimit:10;stroke-dasharray:2.0094,10.047;}
	.st4{fill:none;stroke:#A3E2FA;stroke-width:3;stroke-linecap:round;stroke-miterlimit:10;stroke-dasharray:2,10;}
	.st5{fill:#CCE9FF;enable-background:new    ;}
	.st6{fill:#F6A704;}
	.st7{clip-path:url(#SVGID_2_);fill:#FFFFFF;}
	.st8{fill:#0B4870;}
	.st9{fill:#00AEF0;}
	.st10{fill:#8FC7F9;}
	.st11{fill:none;stroke:#8FC7F9;stroke-width:4;stroke-miterlimit:10;stroke-dasharray:2.0152,20.1521;}
	.st12{font-family:'WorkSans-Black';}
	.st13{font-size:12px;}
	.st14{fill:#FFFFFF;}
	.st15{fill:#FFE3CA;}
	.st16{fill:#2A94F4;}
	.st17{fill:#F8B936;}
	.st18{fill:#FCD2B1;}
	.st19{fill:#CCE9FF;}
</style>
<circle class="st0" cx="300" cy="289.96" r="201.21"/>
<path class="st0" d="M114.53,379.81c90.48-16.34,205.96-12.26,280.42-6.13s101.81,43.33,50.72,48.84  c-51.09,5.51-16.85,51.5,59.74,64.52c76.6,13.02-93.16,61.28-233.09,42.89c-139.93-18.38-204.86-62.06-139.08-77.76  S-93.3,417.34,114.53,379.81z"/>
<g class="st1">
	<g>
		<path class="st2" d="M439.13,401.56c0,0-0.34,0.07-0.97,0.21"/>
		<path class="st3" d="M428.31,403.79c-14.15,2.82-39.28,7.46-57.49,8.84c-277.87,20.98,76.98,48.04,32.83,60.46    c-43.93,12.36-327.84,23.04,81.29,28.43"/>
		<path class="st2" d="M489.98,501.58c0.33,0,0.67,0.01,1,0.01"/>
	</g>
</g>
<path class="st4" d="M310.87,377.64c0,0,29.66,7.47,54.08,7.11c24.43-0.35-48.97,7.31-107.44,11.14  c-58.47,3.83-69.2,19.91-69.2,19.91"/>
<ellipse class="st5" cx="216.97" cy="454.74" rx="83.03" ry="9.06"/>
<g>
	<circle class="st6" cx="152.12" cy="378.13" r="85.42"/>
	<g>
		<defs>
			<circle id="SVGID_1_" cx="152.12" cy="378.13" r="72.5"/>
		</defs>
		<use xlink:href="#SVGID_1_" style="overflow:visible;fill:#8FC7F9;"/>
		<clipPath id="SVGID_2_">
			<use xlink:href="#SVGID_1_" style="overflow:visible;"/>
		</clipPath>
		<circle class="st7" cx="149.03" cy="381.22" r="72.5"/>
	</g>
	<polygon class="st8" points="140.28,378.13 128.69,354.69 152.12,366.29 175.55,354.69 163.95,378.13 175.55,401.56 152.12,389.96    128.69,401.56  "/>
	<polygon class="st9" points="138.86,364.86 152.12,325.61 165.38,364.86 204.63,378.13 165.38,391.39 152.12,430.64 138.86,391.39    99.61,378.13  "/>
	<polygon class="st10" points="152.12,325.61 152.12,378.13 165.38,364.86  "/>
	<polygon class="st10" points="138.86,364.86 152.12,378.13 99.61,378.13  "/>
	<polygon class="st10" points="138.86,391.39 152.12,378.13 152.12,430.64  "/>
	<polygon class="st10" points="165.38,391.39 152.12,378.13 204.63,378.13  "/>
	<g>
		<circle class="st11" cx="152.12" cy="378.13" r="59.99"/>
	</g>
	<polygon class="st6" points="152.12,315.23 158.75,303.74 145.49,303.74  "/>
	<text transform="matrix(1 0 0 1 147.5726 324.4687)" class="st8 st12 st13">N</text>
	<text transform="matrix(1 0 0 1 147.5726 442.9367)" class="st8 st12 st13">S</text>
	<text transform="matrix(1 0 0 1 209.221 381.7189)" class="st8 st12 st13">E</text>
	<text transform="matrix(1 0 0 1 84.7103 381.7191)" class="st8 st12 st13">W</text>
</g>
<g>
	<g>
		<circle class="st6" cx="314.39" cy="339.49" r="20.37"/>
		
			<rect x="304.2" y="343.71" transform="matrix(0.7071 0.7071 -0.7071 0.7071 342.325 -118.6507)" class="st6" width="20.37" height="20.37"/>
	</g>
	<circle class="st14" cx="314.39" cy="339.49" r="10.65"/>
</g>
<path class="st6" d="M341.54,436.46c0,0-1.39-24.21-11.6-34.9c0,0,10.9,10.07,13.96,26S341.54,436.46,341.54,436.46z"/>
<path class="st15" d="M232.69,463.8c-2.31-1.15-0.9-4.14,0.58-6.26c0,0-2.14,0.05-2.14,0.05c2.63-3.8,3.83-8.42,3.36-13.02  l-1.53-15.04c0.22-0.54,0.72-0.93,1.29-1.02l7.41-0.96c-1.06,12.25-1.23,28.36,2.88,32.31"/>
<path class="st8" d="M233.62,430.88c-0.46-0.16-0.78-0.57-0.87-1.05c-2.9-16.52-5.79-35.76-5.66-40.38c0.09-3.1,0.74-7.1,1.77-10.94  c1.49-5.54,1.92-11.32,0.96-16.98c-4.57-26.88-7.38-63.55-4.74-70.06c4-9.87,14.46-17.7,23.05-16.25  c8.6,1.45,13.8,14.81,11.94,25.88c-1.42,8.42-7.81,56.69-14.58,78.69c0.02,0.52,0.02,1.06,0,1.59c-0.14,4.7-1.88,29.09-3.61,48.18  c-0.04,0.48-0.32,0.91-0.76,1.11C238.67,431.81,236.04,431.72,233.62,430.88z"/>
<path class="st8" d="M230.39,444.13l7.09,2.58l0.48,4.81l2.02-3.69h5.04c0,0-3.64,6.1-1.01,8.51c2.63,2.41,6.83,3.64,11.53,3.61  s6.72,3.71,6.72,3.71l-0.78,4.9c0,0-18.19,4.3-25.65,0.14c-5.15-2.87-5.85-4.89-5.85-4.89S233.34,455.05,230.39,444.13z"/>
<path class="st16" d="M236.16,211.87c0,0-22.2,0.34-29.81,8.33c-7.61,7.99-8.96,48.44-7.17,60.54s43.04,11.94,49.81,5.37  C255.76,279.54,236.16,211.87,236.16,211.87z"/>
<polygon class="st15" points="260.45,265.21 263.31,275.96 230.23,275.96 232.23,265.21 "/>
<path class="st15" d="M275.57,428.95l-1.74,11.45c-0.36,2.55-0.06,5.14,0.87,7.54l0,0c1.17,3.01,3.71,5.41,6.89,6.03  c3.15,0.61,6.07,3.02,6.06,4.71c0,0.94-14.08,0.79-22.06-8.97c-0.46-0.56-0.68-1.26-0.51-1.97c0.21-0.87,0.46-1.91,0.85-2.45  c1.23-1.68,2.54-3.4,2.79-5.47c0.3-2.51,1.01-17.31,1.01-17.31L275.57,428.95z"/>
<path class="st8" d="M269.87,289.27c4.71,9.29,23,57.88,19.41,68.95c-0.16,3.46-0.7,7.28-1.25,10.61c-0.99,6-7.59,40.76-12.32,60.2  c-2.21-0.44-4.74-3.04-6.06-5.33c-0.66-20.72-0.47-52.19,0.46-57.83c0.18-1.09,0.49-2.22,0.91-3.34c2.58-6.92,0.97-14.69-3.68-20.42  c-12.11-14.94-25.22-34.61-28.14-40.36c-5.08-10.01-1.39-21.83,6.39-25.78C253.38,272.04,264.79,279.27,269.87,289.27z"/>
<path class="st8" d="M263.7,433.61l6.74,2.58l0.46,4.81l1.92-3.69h4.79c0,0-3.46,6.1-0.96,8.51c2.5,2.41,6.5,3.64,10.97,3.61  c4.47-0.03,6.39,3.71,6.39,3.71l-0.74,4.9c0,0-17.31,4.3-24.4,0.14c-4.9-2.87-5.57-4.89-5.57-4.89S266.51,444.52,263.7,433.61z"/>
<path class="st8" d="M246.06,171.16c0,0-8.87-5.57-17.72,1.88c-8.85,7.45-4.3,13.12-10.79,16.93s2.24,10.67-1.04,12.09  c-3.28,1.42-5.23,4.07-2.84,10.47c2.39,6.4-7.24,6.55-4.33,12.52c2.91,5.97,0.16,15.23,27.55,12.69s28.96-7.61,25.15-10.75  c-3.81-3.14-2.86-4.4-1.58-9.11s-8.35-3.14-6.78-6.27c1.57-3.14-1.19-3.14-1.94-6.76c-0.75-3.62-1.19-9.36-1.19-9.36L246.06,171.16z  "/>
<path class="st15" d="M257.52,214.98c0,0,3.54,2.31,4.66,4.55c1.12,2.24,26.13,29.78,24.93,34.93c-1.19,5.15-18.7,29.7-18.7,29.7  l-2.82-7.38c0,0,7.19-15.98,8.83-19.64c1.64-3.66,3.43-3.58,3.43-3.58l-15.97-13.44L257.52,214.98z"/>
<path class="st16" d="M257.52,214.98c0,0,4.29,1.87,6.04,2.84s6.76,38.06-1.53,45.45c-8.29,7.39-1.58-8.81-1.58-8.81  S264.35,236.85,257.52,214.98z"/>
<path class="st17" d="M236.16,211.87c0,0-3.93,2-9.33,5.94c0,0-1.08,16.72,0.27,30.82c0.87,9.1-0.02,15.97-0.75,19.69  c-0.29,1.45,0.96,2.73,2.43,2.51c3.09-0.45,9.03-1.06,20.22-1.6c20.65-1.01,16.85-4.7,16.85-4.7s-4.78-15.79-2.28-23.74  c2.5-7.95,2.25-11.07-3.11-20.6c-2.94-5.22-2.94-5.22-2.94-5.22l-8.07-2.44L236.16,211.87z"/>
<g>
	<polygon class="st15" points="248.15,197.77 239.54,197.19 236.16,211.87 246.13,220.2 249.45,212.53  "/>
</g>
<path class="st18" d="M248.99,207.24c-0.78,0.56-1.66,0.88-2.65,0.94c-3.11,0.17-5.83-4.35-7.86-6.4l1.06-4.59l8.6,0.59  L248.99,207.24z"/>
<path class="st15" d="M254.28,184.64c-0.6-1.41-1.26-3.01-1.89-4.62c-2.14-5.38-8.05-8.21-13.57-6.47h0  c-5.94,1.88-9.15,8.31-7.07,14.18l2.21,6.25c0.77,2.44,3.67,5.5,6.69,6.82c5.27,2.3,8.7,2.74,11.47,1.87  C256.5,200.37,257.12,191.29,254.28,184.64z"/>
<path class="st15" d="M231.09,188.58c-1.56,0.49-3.01,1.85-2.18,4.48c0.83,2.63,3.64,5.54,5.19,5.05c1.56-0.49,2.14-3.02,1.31-5.66  C234.58,189.83,232.65,188.09,231.09,188.58z"/>
<path class="st8" d="M244.86,175.53c0,0,0,7.02-3.51,7.02s1.75,3.51-3.51,5.26s-6.75,0.78-6.75,0.78s-5.34-7.05-1.16-13.06  c4.18-6.01,12.24-6.31,16.12-4.37c3.88,1.94,7.61,9.55,7.61,9.55S247.85,178.48,244.86,175.53z"/>
<path class="st8" d="M225.31,274.89l38.25-3.4l13.13,34.36l-52.08,11.05c0,0-1.59-18.09,0-28.16S225.31,274.89,225.31,274.89z"/>
<ellipse class="st8" cx="219.04" cy="177.22" rx="6.05" ry="8.05"/>
<path class="st15" d="M226.83,217.82c0,0-11.42,20.34-16.9,30.23c-9.11,16.42-2.99,19.56-2.99,19.56s6.17,8.76,16.2-5.9  c9.83-14.36,10.21-20.33,10.21-20.33l-2.24-3.2c0,0-15.09,14.44-16.41,18.23c-2.18,0.17,11.75-20.01,11.75-20.01  s3.74-7.8,4.65-11.94C232.02,220.31,226.83,217.82,226.83,217.82z"/>
<polygon class="st16" points="236.88,282.23 227.84,295.22 230.23,297.68 239.86,284.17 "/>
<path class="st16" d="M231.11,214.87c0,0-1.35-0.85-4.81,0c-3.46,0.85-5.16,13.09-5.16,13.09l5.69-10.15c0,0,11.07,13.33,9.34,27.57  c-0.82,6.75-13.77,24.81-13.77,24.81l6.38,0.65c0,0,12.18-17.12,13.49-24.59c1.3-7.47-0.52-14.31-4.72-23.59  C234.56,216.1,231.11,214.87,231.11,214.87z"/>
<g>
	<path class="st15" d="M231.11,238.17c0,0,3.38-4.16,5.77-6.7s5.76-1.27,5.38,0c-0.38,1.27,0.87,1.34,0.54,3.28   c-0.33,1.94,2.07,2.54,0.76,4.03c-1.31,1.49-2.13,2.61-4.3,2.91s-1.8,0.07-3.47,1.12c-1.68,1.04-3.56,2.57-3.56,2.57L231.11,238.17   z"/>
	<polygon class="st8" points="230.6,238.86 234.21,243.88 231.89,246.26 227.84,241.37  "/>
	<circle class="st14" cx="230.23" cy="241.62" r="2.39"/>
</g>
<path class="st6" d="M362.24,435.7c0,0,1.3-17.59,8.58-23.08c0,0-5.88,11.55-4.29,21.89c0,0-1.11-7.8,4.29-12.51  c0,0-2.45,6.45-1.75,14.48h-15.7L362.24,435.7z"/>
<polygon class="st19" points="341.54,436.46 422.44,433.61 422.44,442.94 351.34,445.68 "/>
<g>
	<polygon class="st6" points="346.97,106.23 315.46,125.29 306.13,151.68 322.61,155.62 349.42,133.73  "/>
	<polygon class="st6" points="357.07,135.85 435.61,151.83 450.24,176.87 427.59,186.95 358.13,167.39  "/>
	<path class="st9" d="M341.54,436.46l5.93-361.08c0.05-2.77,2.25-5.02,5.02-5.11l0,0c2.9-0.1,5.31,2.19,5.37,5.09l7.09,361.17   c0.02,0.91-0.2,1.81-0.64,2.61c-2.08,3.71-9.03,13.13-21.26,1.07C342.05,439.22,341.52,437.86,341.54,436.46z"/>
	<polygon class="st6" points="353.25,80.89 419.12,31.44 433.48,45.99 419.81,82.51 353.87,112.56  "/>
</g>
<g>
	<g>
		<g>
			<circle class="st9" cx="439.13" cy="351.75" r="25.89"/>
			
				<rect x="426.18" y="357.12" transform="matrix(0.7071 -0.7071 0.7071 0.7071 -133.0549 418.8978)" class="st9" width="25.89" height="25.89"/>
		</g>
	</g>
	<circle class="st14" cx="439.13" cy="351.75" r="13.54"/>
</g>
<g>
	<g>
		<circle class="st6" cx="490.98" cy="432.35" r="40.74"/>
		
			<rect x="470.61" y="440.79" transform="matrix(0.7071 0.7071 -0.7071 0.7071 469.8925 -212.1082)" class="st6" width="40.74" height="40.74"/>
	</g>
	<circle class="st14" cx="490.98" cy="432.35" r="21.3"/>
</g>
<path class="st6" d="M376.74,435.22c0,0,0.52-13.36,9.71-24.17c0,0-5.63,14.58-2.02,23.9c0,0-1.04-6.99,8.15-12.42  c0,0-5.11,7.25-2.55,17.12l-25.71-0.5L376.74,435.22z"/>
<path class="st6" d="M310.87,433.61c0,0,2.94-10.88,11.49-13.83c0,0-4.34,5.88-5.74,12.57c0,0,3.06-5.38,9.57-7  c0,0-6.13,3.21-4.85,8.26l11.49,2.88h-29.09L310.87,433.61z"/>
<path class="st6" d="M306.58,435.34c0,0-1.9-25.75-12.57-33.78c0,0,8.6,16.91,6.28,32.05c0,0,1.63-11.42-6.28-18.31  c0,0,3.58,9.45,2.56,21.19h22.98L306.58,435.34z"/>
</svg>